<svg xmlns="http://www.w3.org/2000/svg" xmlns:xlink="http://www.w3.org/1999/xlink" viewBox="0 0 2210 1701.19"><defs><style>.cls-1{isolation:isolate;}.cls-2{opacity:0.81;}.cls-3{fill:#09c6da;}.cls-4{fill:#4581fd;}.cls-5{fill:#aeeaf2;}.cls-19,.cls-6{fill:#63dbe9;}.cls-6{opacity:0.36;}.cls-23,.cls-29,.cls-58,.cls-6,.cls-62,.cls-67,.cls-69{mix-blend-mode:multiply;}.cls-7{fill:#e4489b;}.cls-8{fill:#f2f2f2;}.cls-9{opacity:0.75;}.cls-10{fill:#30cfe2;}.cls-11{fill:#56bfef;}.cls-12{fill:url(#linear-gradient);}.cls-13{fill:url(#linear-gradient-2);}.cls-14{fill:url(#linear-gradient-3);}.cls-15{fill:url(#linear-gradient-4);}.cls-16{fill:url(#linear-gradient-5);}.cls-17{fill:url(#linear-gradient-6);}.cls-18{fill:#e3f5ff;}.cls-20{fill:#e44899;}.cls-21,.cls-53,.cls-62{opacity:0.5;}.cls-22{fill:url(#linear-gradient-7);}.cls-23,.cls-29{opacity:0.6;}.cls-23{fill:url(#linear-gradient-8);}.cls-24{fill:#0dc3d8;}.cls-25{fill:#09a1ca;}.cls-26{fill:#05e2c7;}.cls-27{fill:#1fe3cb;}.cls-28{fill:#e73233;}.cls-29{fill:url(#linear-gradient-9);}.cls-30{fill:#009dc8;}.cls-31{fill:#406ccf;}.cls-32{fill:#05c5da;}.cls-33{fill:url(#linear-gradient-10);}.cls-34{fill:#c1d9e5;}.cls-35{fill:url(#linear-gradient-11);}.cls-36{fill:#5761a6;}.cls-37,.cls-62{fill:#005679;}.cls-38{fill:url(#linear-gradient-12);}.cls-39{fill:url(#linear-gradient-13);}.cls-40{fill:url(#linear-gradient-14);}.cls-41{fill:#6c79bc;}.cls-42{fill:url(#linear-gradient-15);}.cls-43{fill:#f5a8a9;}.cls-44{fill:#103fcd;}.cls-45{fill:#1d1e50;}.cls-46{fill:#222364;}.cls-47{fill:#323275;}.cls-48{fill:#23233b;}.cls-49{fill:#0d1d7d;}.cls-50{fill:#d08f8f;}.cls-51{fill:#3b7afd;}.cls-52{fill:#e44997;}.cls-53{fill:#60c0fd;}.cls-54{fill:#203088;}.cls-55{fill:#1d2c87;}.cls-56{fill:#fff;}.cls-57,.cls-58{fill:#fed8a7;}.cls-59{fill:#f8c22e;}.cls-60{fill:#7562e0;}.cls-61{fill:#246afd;}.cls-63{fill:#36a6fc;}.cls-64{fill:#e6e6e3;}.cls-65{fill:#e5499d;}.cls-66{fill:#231f20;}.cls-68{fill:#d1e7f4;}.cls-69{opacity:0.35;}.cls-70{fill:#d38e57;}.cls-71{fill:#a66430;}.cls-72{fill:#c69c6d;}.cls-73{fill:#171733;}.cls-74{fill:#603813;}.cls-75{fill:none;}.cls-76{fill:#292959;}.cls-77{fill:#42210b;}.cls-78{fill:#292969;}.cls-79{fill:#f3a7a8;}.cls-80{fill:#6048dc;}.cls-81{fill:#db9195;}.cls-82{fill:#493bd0;}.cls-83{fill:#b03c8f;}.cls-84{fill:url(#linear-gradient-16);}.cls-85{fill:#9bbdc9;}.cls-86{fill:#b3d6e0;}.cls-87{fill:#1d49d0;}.cls-88{fill:url(#linear-gradient-17);}.cls-89{fill:#0a87b1;}.cls-90{fill:#6d7abc;}.cls-91{fill:#495591;}.cls-92{fill:#fdca8d;}.cls-93{fill:url(#linear-gradient-18);}.cls-94{fill:#103fcb;}.cls-95{fill:#e373fb;}.cls-96{fill:#f6a9a9;}</style><linearGradient id="linear-gradient" x1="213.89" y1="1443.78" x2="378.9" y2="1443.78" gradientTransform="translate(-41.65 27.41) rotate(-2.42)" gradientUnits="userSpaceOnUse"><stop offset="0.15" stop-color="#7c79fe"/><stop offset="0.19" stop-color="#7b7cfe"/><stop offset="0.59" stop-color="#6e98fc"/><stop offset="0.83" stop-color="#69a2fb"/></linearGradient><linearGradient id="linear-gradient-2" x1="44.89" y1="1405.99" x2="240.33" y2="1405.99" xlink:href="#linear-gradient"/><linearGradient id="linear-gradient-3" x1="99.75" y1="1487.57" x2="331.24" y2="1487.57" xlink:href="#linear-gradient"/><linearGradient id="linear-gradient-4" x1="42.24" y1="1397.26" x2="179.11" y2="1397.26" xlink:href="#linear-gradient"/><linearGradient id="linear-gradient-5" x1="217.52" y1="1544.63" x2="432.91" y2="1544.63" xlink:href="#linear-gradient"/><linearGradient id="linear-gradient-6" x1="341.49" y1="1477.69" x2="437.73" y2="1477.69" xlink:href="#linear-gradient"/><linearGradient id="linear-gradient-7" x1="1830.87" y1="1425.7" x2="1921.43" y2="1425.7" gradientUnits="userSpaceOnUse"><stop offset="0.14" stop-color="#bde4e0"/><stop offset="0.36" stop-color="#5acabf"/><stop offset="0.85" stop-color="#f2f2f2"/></linearGradient><linearGradient id="linear-gradient-8" x1="1773.63" y1="303.88" x2="2019.13" y2="303.88" gradientTransform="translate(527.08 -1171.29) rotate(37.81)" gradientUnits="userSpaceOnUse"><stop offset="0.15" stop-color="#f2f2f2"/><stop offset="0.25" stop-color="#e9e9e9"/><stop offset="0.4" stop-color="#e6e6e6"/><stop offset="0.59" stop-color="#e0e0e0"/><stop offset="0.83" stop-color="#cfcfcf"/><stop offset="0.87" stop-color="#ccc"/></linearGradient><linearGradient id="linear-gradient-9" x1="1798.85" y1="339.38" x2="1961.2" y2="339.38" gradientTransform="matrix(1, 0.02, -0.02, 1, -297.27, -211.89)" xlink:href="#linear-gradient-8"/><linearGradient id="linear-gradient-10" x1="3398.51" y1="2047.42" x2="3590.74" y2="2047.42" gradientTransform="matrix(-0.48, -0.88, -0.88, 0.48, 5572.64, 2479.99)" gradientUnits="userSpaceOnUse"><stop offset="0" stop-color="#005679"/><stop offset="0.18" stop-color="#005e80"/><stop offset="0.46" stop-color="#007294"/><stop offset="0.79" stop-color="#0094b4"/><stop offset="1" stop-color="#00adcb"/></linearGradient><linearGradient id="linear-gradient-11" x1="3398.51" y1="2036.72" x2="3590.74" y2="2036.72" gradientTransform="matrix(-0.48, -0.88, -0.88, 0.48, 5572.64, 2479.99)" gradientUnits="userSpaceOnUse"><stop offset="0" stop-color="#00adcb"/><stop offset="0.26" stop-color="#00aac8"/><stop offset="0.46" stop-color="#00a0bf"/><stop offset="0.65" stop-color="#0090b0"/><stop offset="0.82" stop-color="#00799a"/><stop offset="0.98" stop-color="#005b7e"/><stop offset="1" stop-color="#005679"/></linearGradient><linearGradient id="linear-gradient-12" x1="568.62" y1="894.98" x2="1529.33" y2="894.98" gradientUnits="userSpaceOnUse"><stop offset="0.15" stop-color="#59baf1"/><stop offset="0.71" stop-color="#53ade0"/><stop offset="1" stop-color="#4fa5d6"/></linearGradient><linearGradient id="linear-gradient-13" x1="1468.6" y1="894.8" x2="1760.4" y2="894.8" gradientUnits="userSpaceOnUse"><stop offset="0" stop-color="#83dde7"/><stop offset="0.2" stop-color="#9de2ea"/><stop offset="0.55" stop-color="#c2e9ee"/><stop offset="0.83" stop-color="#d9edf0"/><stop offset="1" stop-color="#e2eff1"/></linearGradient><linearGradient id="linear-gradient-14" x1="1456.8" y1="894.97" x2="1638.48" y2="894.97" gradientTransform="matrix(1, 0, 0, 1, 0, 0)" xlink:href="#linear-gradient"/><linearGradient id="linear-gradient-15" x1="188.57" y1="897.26" x2="693.07" y2="897.26" gradientUnits="userSpaceOnUse"><stop offset="0.17" stop-color="#69a2fb"/><stop offset="0.41" stop-color="#6a9ffb"/><stop offset="0.6" stop-color="#6f95fc"/><stop offset="0.77" stop-color="#7685fd"/><stop offset="0.85" stop-color="#7c79fe"/></linearGradient><linearGradient id="linear-gradient-16" x1="1750.83" y1="1641.4" x2="1750.83" y2="1512.29" gradientTransform="matrix(-1, 0, 0, 1, 3095.77, 0)" gradientUnits="userSpaceOnUse"><stop offset="0.36" stop-color="#5761a6"/><stop offset="0.53" stop-color="#5866a9"/><stop offset="0.73" stop-color="#5b75b0"/><stop offset="0.95" stop-color="#608dbc"/><stop offset="1" stop-color="#6294c0"/></linearGradient><linearGradient id="linear-gradient-17" x1="1725.05" y1="1512.01" x2="1725.05" y2="1406.06" gradientTransform="matrix(-1, 0, 0, 1, 3095.77, 0)" gradientUnits="userSpaceOnUse"><stop offset="0" stop-color="#005679"/><stop offset="0.04" stop-color="#016687"/><stop offset="0.14" stop-color="#0288a5"/><stop offset="0.23" stop-color="#03a3bc"/><stop offset="0.34" stop-color="#04b6cd"/><stop offset="0.44" stop-color="#05c1d7"/><stop offset="0.55" stop-color="#05c5da"/><stop offset="0.62" stop-color="#0ac5da"/><stop offset="0.71" stop-color="#19c6db"/><stop offset="0.81" stop-color="#31c8db"/><stop offset="0.91" stop-color="#52cadc"/><stop offset="0.97" stop-color="#6eccdd"/></linearGradient><linearGradient id="linear-gradient-18" x1="627.85" y1="1469.37" x2="878.84" y2="1402.12" gradientTransform="translate(477.56)" gradientUnits="userSpaceOnUse"><stop offset="0.15" stop-color="#e44899"/><stop offset="0.19" stop-color="#d3438e"/><stop offset="0.27" stop-color="#a73570"/><stop offset="0.39" stop-color="#601e41"/><stop offset="0.53"/></linearGradient></defs><g class="cls-1"><g id="Layer_2" data-name="Layer 2"><g id="Layer_1-2" data-name="Layer 1"><g class="cls-2"><path class="cls-3" d="M1297.84,152.14s-14.15-2.66-19.46-12.38-8.85-56.61-24.77-58.38-16.8,22.11-16.8,22.11S1235,0,1184.62,0s-51.3,92-51.3,92,3.53-28.3-17.7-30.07-19.45,46-19.45,46-1.77-23-18.58-23-18,27.4-18.57,36.27c-1.48,23-50.42,31.84-50.42,31.84Z"/><path class="cls-4" d="M1209.37,144.73s-6.15-1.15-8.45-5.38-3.84-24.58-10.76-25.35-7.3,9.6-7.3,9.6-.76-44.94-22.66-44.94-22.28,40-22.28,40,1.54-12.29-7.68-13.06-8.45,20-8.45,20-.77-10-8.06-10-7.82,11.89-8.07,15.75c-.64,10-21.9,13.82-21.9,13.82Z"/><path class="cls-5" d="M1273.78,162.24s-8.08-1.51-11.11-7.07-5.06-32.35-14.15-33.36-9.6,12.64-9.6,12.64-1-59.13-29.82-59.13-29.31,52.56-29.31,52.56,2-16.17-10.11-17.18S1158.56,137,1158.56,137s-1-13.13-10.61-13.13-10.81,15.64-10.61,20.72c.57,14.6-28.81,18.19-28.81,18.19Z"/></g><path class="cls-6" d="M1217.57,464.67l-347.45,54.6a21.78,21.78,0,0,1-24.88-18.13l-37-235.64a21.77,21.77,0,0,1,18.12-24.88L1173.78,186a21.76,21.76,0,0,1,24.88,18.12l37,235.65A21.76,21.76,0,0,1,1217.57,464.67Z"/><path class="cls-7" d="M1087.06,442.88l-99.4,15.62a82.27,82.27,0,0,1-93.77-68.3l-5.35-34a82.28,82.28,0,0,1,68.31-93.77l99.4-15.62A82.26,82.26,0,0,1,1150,315.1l5.34,34A82.26,82.26,0,0,1,1087.06,442.88Z"/><path class="cls-8" d="M997.74,404.31a7.56,7.56,0,0,0,13,4l56.22-59.29a7.56,7.56,0,0,0-2.2-12l-70.9-34.13a7.56,7.56,0,0,0-10.75,8s23.39,42.19,14.68,93.41"/><g class="cls-9"><path class="cls-10" d="M144.62,227s10.22-1.92,14-8.94,6.38-40.86,17.87-42.14,12.13,16,12.13,16,1.28-74.7,37.68-74.7,37,66.4,37,66.4-2.56-20.43,12.77-21.71,14,33.2,14,33.2,1.28-16.6,13.41-16.6,12.77,19.8,13.41,26.18,36.39,23,36.39,23Z"/><path class="cls-11" d="M176.61,232.74s9-1.35,12.43-6.31,5.65-28.87,15.82-29.77,10.74,11.27,10.74,11.27,1.13-52.77,33.34-52.77,32.77,46.91,32.77,46.91-2.26-14.43,11.3-15.34,12.43,23.46,12.43,23.46,1.13-11.73,11.87-11.73,11.3,14,11.86,18.49,32.21,16.24,32.21,16.24Z"/><path class="cls-5" d="M399.73,254.23s-10.21-1.91-14.05-8.94-6.38-40.86-17.87-42.14-12.13,16-12.13,16-1.28-74.7-37.67-74.7-37,66.4-37,66.4,2.56-20.43-12.77-21.7-14,33.2-14,33.2-1.28-16.6-13.41-16.6-12.66,19.8-13.41,26.17c-2.54,21.69-36.39,23-36.39,23Z"/></g><path class="cls-12" d="M401.68,1541.37c-42.78-15-90.92-36.25-137.54-58.82.26-6.9.93-58.56-34.74-109.23a380.24,380.24,0,0,1,69,15.2,283.16,283.16,0,0,1,49.68,21.65C384.74,1447.09,399,1524.58,401.68,1541.37Z"/><path class="cls-13" d="M260.23,1480.66c-88.7-43.16-171.22-90.5-200-107.29,17.21-4.1,38.41-2.65,56-3.4,20.31-.88,40.71-1.26,61.15-.65,15.55.47,31.16,1.52,46.7,3.35C259.11,1420.36,260.42,1469.72,260.23,1480.66Z"/><path class="cls-14" d="M203.06,1456.37c47.71,24.66,100.71,50.36,150.32,70.76-14,6.36-75.24,32.33-123.49,25.08-41.79-20.52-79.76-49.87-110.73-84.46,38.75,1.66,83.51-11,84-11.14Z"/><path class="cls-15" d="M115.42,1463.5c-4.49-5.17-8.84-10.44-13-15.82-16-20.72-35.82-46-44.68-71.2,21.65,12.65,75.74,43.77,140.26,77.27C185.86,1456.87,147.78,1465.74,115.42,1463.5Z"/><path class="cls-16" d="M358.14,1529.43l-.22-.44c36,14.62,70,26.31,98.68,32.64-4.29,4.28-12,7.58-24.06,11.26-65,19.77-131.86,11.21-191.71-15.54C294.56,1560.09,357.46,1529.76,358.14,1529.43Z"/><path class="cls-17" d="M359,1416.56a255.05,255.05,0,0,1,57.1,47.63c15.61,17.62,28.66,37.65,37.29,59.61,6.75,17.14,9.73,27.15,5.91,34.3a469.88,469.88,0,0,1-53.37-15.27C404.22,1531.47,392.44,1458.86,359,1416.56Z"/><path class="cls-18" d="M357.92,1529l.22.44c-.68.33-63.58,30.66-117.31,27.92q-5.51-2.47-10.94-5.14c48.25,7.25,109.46-18.72,123.49-25.08-49.61-20.4-102.61-46.1-150.32-70.76l.07.24c-.46.13-45.22,12.8-84,11.14q-1.89-2.1-3.74-4.25c32.36,2.24,70.44-6.63,82.58-9.75-64.52-33.5-118.61-64.62-140.26-77.27-.26-.75-.55-1.49-.79-2.24,1.08-.32,2.19-.61,3.31-.87,28.75,16.79,111.27,64.13,200,107.29.19-10.94-1.12-60.3-36.11-108,1.76.2,3.52.42,5.28.65,35.67,50.67,35,102.33,34.74,109.23,46.62,22.57,94.76,43.85,137.54,58.82-2.71-16.79-16.94-94.28-53.6-131.2,3.67,2,7.3,4.18,10.88,6.39,33.48,42.3,45.26,114.91,46.93,126.27a469.88,469.88,0,0,0,53.37,15.27,14.62,14.62,0,0,1-2.66,3.53C427.89,1555.3,393.88,1543.61,357.92,1529Z"/><path class="cls-11" d="M383.61,1448.27c-39.09-34.25-80.76-76.39-120.11-118.81,3.87-5.47,31.45-47.15,18.7-106.76a529.39,529.39,0,0,1,67.69,48,349.86,349.86,0,0,1,43.17,43.25C414,1362.85,389.36,1433.22,383.61,1448.27Z"/><path class="cls-11" d="M260.21,1325.91C185.45,1245,119.66,1164,96.89,1135.46c21,5.54,43.45,17.67,63.12,26.13,22.7,9.77,45.25,20,67.33,31,16.79,8.41,33.34,17.31,49.42,26.82C290.3,1276.29,266.09,1317.1,260.21,1325.91Z"/><path class="cls-11" d="M210.19,1276.66c39.46,44.67,84.16,92.92,127.9,135.11-18.66-2.07-99.21-12.53-148.31-43.32-35.11-38.26-61.45-81.72-77.41-125.83,41.58,21.34,97.2,34.13,97.78,34.26Z"/><path class="cls-11" d="M110.48,1237.23q-3.36-9.78-6-19.58c-6.81-25.12-15.34-55.89-11.94-81,17.13,21.45,60.22,74.68,113.49,135.22C191.1,1268.19,144.77,1255.75,110.48,1237.23Z"/><path class="cls-11" d="M342.11,1416.09v-.46c31.8,30.44,63,57.49,91.14,77.46-6.93,1.26-17.07,0-32.21-3.26-81.45-17.44-150.27-58.92-201.92-111.56C256.53,1408.22,341.2,1416,342.11,1416.09Z"/><path class="cls-11" d="M401.66,1324.71c16.39,21.53,29.41,44.53,37.81,68.2,7.94,22.39,11.82,45.42,9.88,67.73-1.52,17.43-3.46,27.1-11.36,30.95a635.79,635.79,0,0,1-50.53-40C391.54,1441.53,416.36,1376.4,401.66,1324.71Z"/><path class="cls-18" d="M342.1,1415.63v.46c-.91-.08-85.58-7.87-143-37.82q-4.77-4.85-9.33-9.82c49.1,30.79,129.65,41.25,148.31,43.32-43.74-42.19-88.44-90.44-127.9-135.11l0,.22c-.58-.13-56.2-12.92-97.78-34.26q-1-2.68-1.89-5.39c34.29,18.52,80.62,31,95.53,34.69-53.27-60.54-96.36-113.77-113.49-135.22.1-.75.17-1.51.29-2.24,1.35.3,2.71.64,4.08,1C119.66,1164,185.45,1245,260.21,1325.91c5.88-8.81,30.09-49.62,16.55-106.47q2.73,1.62,5.44,3.26c12.75,59.61-14.83,101.29-18.7,106.76,39.35,42.42,81,84.56,120.11,118.81,5.75-15,30.43-85.42,9.45-134.37,3,3.56,5.82,7.17,8.6,10.81,14.7,51.69-10.12,116.82-14.2,126.92a635.79,635.79,0,0,0,50.53,40,18.14,18.14,0,0,1-4.75,1.5C405.08,1473.12,373.9,1446.07,342.1,1415.63Z"/><path class="cls-19" d="M1910.23,1260.53c5-7.25,11.87-14.65,20.75-22.94l-.18,59.27A276.75,276.75,0,0,1,1910.23,1260.53Z"/><path class="cls-19" d="M1932.77,1325.77c11.15-11.65,22.22-34.14,29-49.57,4,13.06,2.17,27.38-5.14,47.09-14.58,39.32,9.69,31.65,14.45,27.85s16.63-25.14,30.21-15.73a13.23,13.23,0,0,1,1.94,1.65c-12,39.18-60.27,99.68-70.88,112.66Z"/><path class="cls-19" d="M1930.41,1423.71c-6.48-3.62-37.14-23.51-66.23-88.31,13.14-8,24.76,12.37,29.45,16s29.12,11.24,14.23-28c-10.13-26.65-10.08-43.51,1-60.82a274.07,274.07,0,0,0,22,38.08Z"/><path class="cls-19" d="M1932.78,1322.44l.26-84.68c14.16,13,23.31,23.86,27.72,35.43C1954.35,1287.87,1943.56,1310.28,1932.78,1322.44Z"/><path class="cls-19" d="M2004.88,1339c8.95,12.79,3.53,44.29-13.15,83.5A304.59,304.59,0,0,1,1974,1457c-6.35,10.87-13.1,21.41-20.08,31.72-5.2,7.69-10.5,15.33-16,22.7-1.12,1.5-3.61,2.32-5.72,2.31l.18-60.43C1939,1445.34,1991.41,1381.43,2004.88,1339Z"/><path class="cls-19" d="M1862.4,1336.68c30.77,68.49,63.49,87.37,68,89.71l-.27,87-.18-.07a7.31,7.31,0,0,1-2.86-2.94c-1.68-2.69-3.57-5.14-5.41-7.69q-4.56-6.29-9-12.7c-7.13-10.31-14-20.86-20.55-31.73a310.68,310.68,0,0,1-18.3-34.74c-.08-.17-.15-.34-.22-.51C1855.15,1380.52,1850,1347.07,1862.4,1336.68Z"/><path class="cls-18" d="M1862.4,1336.68c.29-.25.59-.5.9-.72s.59-.38.88-.56c29.09,64.8,59.75,84.69,66.23,88.31l.38-123a274.07,274.07,0,0,1-22-38.08q.67-1.07,1.41-2.13a276.75,276.75,0,0,0,20.57,36.33l.18-59.27.57-.53c.27-.24.45-.22.73,0l.76.7-.26,84.68c10.78-12.16,21.57-34.57,28-49.25.38,1,.74,2,1,3-6.82,15.43-17.89,37.92-29,49.57l-.38,124c10.61-13,58.92-73.48,70.88-112.66a15.11,15.11,0,0,1,1.61,1.93c-13.47,42.44-65.92,106.35-72.5,114.26l-.18,60.43a6,6,0,0,1-2.07-.33l.27-87C1925.89,1424.05,1893.17,1405.17,1862.4,1336.68Z"/><path class="cls-20" d="M1861.92,1352.56a92.08,92.08,0,0,1,13.39-14.41l-.62,37.68A177.21,177.21,0,0,1,1861.92,1352.56Z"/><path class="cls-20" d="M1875.7,1394.22c7.19-7.31,14.42-21.51,18.88-31.27,2.44,8.34,1.15,17.43-3.66,29.9-9.6,24.87,5.89,20.2,8.95,17.83s10.78-15.85,19.34-9.75a8.21,8.21,0,0,1,1.22,1.07c-7.94,24.8-39.16,62.86-46,71Z"/><path class="cls-20" d="M1873.38,1456.47c-4.09-2.36-23.42-15.26-41.37-56.7,8.43-5,15.64,8.07,18.59,10.45s18.42,7.39,9.28-17.66c-6.21-17-6-27.75,1.13-38.66a173.72,173.72,0,0,0,13.64,24.4Z"/><path class="cls-20" d="M1875.74,1392.11l.88-53.84c8.89,8.41,14.61,15.37,17.32,22.76C1889.74,1370.31,1882.69,1384.47,1875.74,1392.11Z"/><path class="cls-20" d="M1921.43,1403.24c5.59,8.2,1.87,28.18-9.06,53a193.5,193.5,0,0,1-11.54,21.76c-4.13,6.85-8.51,13.5-13,20-3.38,4.84-6.81,9.65-10.39,14.29a4.83,4.83,0,0,1-3.66,1.43l.63-38.43C1878.63,1470.29,1912.52,1430.1,1921.43,1403.24Z"/><path class="cls-20" d="M1830.87,1400.56c19,43.81,39.63,56.09,42.48,57.61l-.9,55.28-.12,0a4.66,4.66,0,0,1-1.8-1.9c-1-1.72-2.22-3.29-3.37-4.93q-2.85-4-5.61-8.15c-4.45-6.61-8.75-13.38-12.8-20.35a196.64,196.64,0,0,1-11.34-22.23l-.14-.33C1825.89,1428.38,1822.93,1407.07,1830.87,1400.56Z"/><g class="cls-21"><path class="cls-22" d="M1830.87,1400.56c.19-.15.38-.3.58-.44s.38-.24.56-.35c18,41.44,37.28,54.34,41.37,56.7l1.27-78.17a173.72,173.72,0,0,1-13.64-24.4c.29-.45.6-.9.91-1.34a177.21,177.21,0,0,0,12.77,23.27l.62-37.68.36-.34a.32.32,0,0,1,.47,0l.48.45-.88,53.84c7-7.64,14-21.8,18.2-31.08.23.64.45,1.28.64,1.92-4.46,9.76-11.69,24-18.88,31.27l-1.28,78.8c6.85-8.16,38.07-46.22,46-71a9.35,9.35,0,0,1,1,1.24c-8.91,26.86-42.8,67-47,72l-.63,38.43a3.67,3.67,0,0,1-1.3-.24l.9-55.28C1870.5,1456.65,1849.86,1444.37,1830.87,1400.56Z"/></g><circle class="cls-23" cx="1838.89" cy="231.36" r="122.71" transform="translate(375 1368.05) rotate(-45)"/><path class="cls-24" d="M1909.91,76.4c-7.77,9.47-15.71,18.81-23.37,28.37-2.39,3-4.19,3.62-8.81,2.14a143.93,143.93,0,0,0-29.14-6.27c-6-.61-8.17-1.3-9.37-5.83-3.08-11.64-6.7-23.14-9.88-34.76-1.21-4.4-3.62-5.11-10.17-2.1a76.23,76.23,0,0,1-33.36,6.85c-8-.18-10.32.87-9.8,5.87,1.31,12.38,2,24.83,3.31,37.2.39,3.61-.68,5.24-3.65,7.11-9.3,5.87-18.24,12.33-27.51,18.26a6.67,6.67,0,0,1-5.66,0c-12.07-6.36-24-13-36.33-19.76-12.18,12-21.53,26-29,41.14-.62,1.25.91,4.41,2.33,5.67,8.89,7.84,17.92,15.54,27.14,23,3.59,2.9,4.26,5.36,2.61,10.63-3,9.57-4.59,19.51-5.76,29.47-.44,3.79-1.6,5.12-4.71,6-13.11,3.77-26.16,7.76-39.94,11.89.65,6.91.8,13.75,2,20.37,1.75,9.26,4.35,18.35,6.51,27.54.88,3.76,2.81,5,6.84,4.57q18.54-2.18,37.17-3.48a7.14,7.14,0,0,1,5.38,2.77c6,8.78,11.32,17.95,17.36,26.67,2,3,2.17,4.94.45,8-6.6,11.7-12.91,23.57-19.55,35.78,12.59,13.18,27.48,22.67,44,30.85,8.44-10.26,17.1-20.28,25.12-30.78,3.16-4.14,5.88-4.38,10.59-3.11,10,2.7,20.26,4.66,30.5,6.43,3.35.58,5.14,1.22,6.13,4.92,3.51,13.14,8,28,12.13,41.91l6.39-1.39c13.21-2.87,26.65-5.85,40.14-8.66,4.28-.89,5.7-2.68,5.12-7.4-1.45-11.74-2-23.59-3.17-35.37-.36-3.62.61-5.47,4.18-7.45a234.71,234.71,0,0,0,26.15-16.85c3.05-2.26,5-2.7,8.06-1,10.66,6,21.48,11.73,32.13,17.74,3.44,1.94,5.81,2.29,8.4-3.43,5.43-12,13.21-22.74,22.18-32.38,3.78-4.07,3.47-6.35.24-9-9.52-7.71-18.78-15.72-28.33-23.38-2.58-2.07-3-3.63-2.16-7,2.8-11,5.16-22.21,7.1-33.43.63-3.6,1.39-5.56,5.2-6.64,12.92-3.67,25.72-7.79,38.56-11.73l.41-6c-.8-5.93-1.27-11.92-2.48-17.77-1.73-8.42-4.08-16.72-6-25.11-.75-3.26-2.43-3.94-5.62-3.58-13.74,1.51-27.51,2.75-39.94,4-7.93-11.31-15.38-21.71-22.5-32.32a7.21,7.21,0,0,1-.48-6.12c5.62-10.88,11.45-21.67,17.6-32.26,2.85-4.91,1.73-7.62-8.49-10.74a53,53,0,0,1-25.7-17.81C1914.42,71.05,1912.35,73.43,1909.91,76.4Zm26.4,176.26a102.5,102.5,0,1,1-79.93-120.92A102.61,102.61,0,0,1,1936.31,252.66Z"/><path class="cls-25" d="M1743.71,213.15A95.21,95.21,0,1,0,1856,138.9,95.32,95.32,0,0,0,1743.71,213.15Zm158.37,24.72c-2.07,35.52-33.58,63-69.8,60.8-35.69-2.14-63-33.47-60.85-69.71,2.16-36,33-63,69.47-60.85S1904.24,201,1902.08,237.87Z"/><path class="cls-26" d="M1812.72,314.19a86.53,86.53,0,0,0,77-14.85l-1-1.33a84.54,84.54,0,0,1-133.22-90.14l-1.62-.47A86.31,86.31,0,0,0,1812.72,314.19Z"/><path class="cls-26" d="M1793.12,158.94a84.81,84.81,0,0,1,53.67-11.5l.2-1.68a86.49,86.49,0,0,0-54.74,11.74Z"/><path class="cls-26" d="M1917.89,254.89l1.62.46a86.15,86.15,0,0,0-22.67-85.78l-1.18,1.21A84.46,84.46,0,0,1,1917.89,254.89Z"/><path class="cls-27" d="M1743.36,160a119,119,0,0,0-20,106l2.22-.65a116.26,116.26,0,0,1,182.66-124.8l1.42-1.83A118.7,118.7,0,0,0,1743.36,160Z"/><path class="cls-28" d="M1951.83,213.39a116.66,116.66,0,0,1-12.43,74.46l2,1.11A119,119,0,0,0,1954.11,213Z"/><circle class="cls-29" cx="1574.72" cy="168.78" r="81.15" transform="translate(83.29 701.57) rotate(-25.78)"/><path class="cls-25" d="M1589,57c-3,7.52-6.22,15-9.17,22.52-.92,2.35-1.94,3.11-5.14,3.09a94.3,94.3,0,0,0-19.63,1.78c-3.94.81-5.42.79-7.07-1.84-4.23-6.74-8.78-13.29-13.08-20-1.63-2.54-3.29-2.52-6.84.67a50.32,50.32,0,0,1-19.71,10.89c-5.1,1.48-6.34,2.59-5,5.64,3.26,7.56,6.14,15.28,9.41,22.84,1,2.2.6,3.43-.9,5.2-4.72,5.54-9.09,11.38-13.78,17a4.4,4.4,0,0,1-3.56,1.13c-8.87-1.63-17.7-3.48-26.83-5.32a99.5,99.5,0,0,0-10.2,31.69c-.14.91,1.44,2.6,2.59,3.11q10.73,4.81,21.66,9.17c2.83,1.12,3.75,2.55,3.74,6.19a105.76,105.76,0,0,0,2.17,19.74c.47,2.48,0,3.56-1.79,4.73-7.53,5-15,10.05-22.88,15.37,1.78,4.24,3.22,8.53,5.31,12.46,2.92,5.51,6.36,10.73,9.53,16.11,1.3,2.2,2.77,2.63,5.22,1.53q11.28-5,22.78-9.52a4.74,4.74,0,0,1,3.94.7c5.49,4.37,10.69,9.1,16.21,13.42,1.88,1.47,2.35,2.69,1.86,5-1.86,8.69-3.5,17.42-5.29,26.44,10.55,5.84,21.82,8.9,33.87,10.8,3.3-8.14,6.8-16.17,9.79-24.38,1.18-3.24,2.85-3.92,6.08-4,6.85-.27,13.71-1.05,20.52-2,2.23-.29,3.48-.24,4.83,1.91,4.81,7.6,10.6,16.1,15.92,24.07l3.76-2.14c7.77-4.41,15.68-8.94,23.63-13.37,2.53-1.41,3.08-2.82,1.78-5.69-3.23-7.12-5.91-14.49-9-21.7-.94-2.22-.69-3.57,1.17-5.52a155.5,155.5,0,0,0,13.19-15.8c1.49-2,2.65-2.69,4.89-2.22,7.92,1.69,15.87,3.17,23.78,4.87,2.56.55,4.12.3,4.63-3.82a80.27,80.27,0,0,1,7.62-24.81c1.59-3.31.94-4.69-1.61-5.7-7.52-3-15-6.23-22.49-9.18-2-.8-2.61-1.71-2.73-4-.41-7.51-1.12-15-2.1-22.49-.32-2.4-.22-3.79,2-5.22,7.44-4.86,14.7-10,22-15l-.93-3.88c-1.67-3.59-3.15-7.28-5.07-10.73-2.75-5-5.87-9.76-8.73-14.67-1.12-1.91-2.31-2-4.25-1.16-8.38,3.66-16.83,7.16-24.44,10.37-7.23-5.57-14-10.67-20.57-16a4.78,4.78,0,0,1-1.51-3.77c1.41-8,3-15.93,4.76-23.83.83-3.66-.41-5.15-7.48-5.11a35,35,0,0,1-19.73-6.18C1590.83,52.69,1590,54.6,1589,57ZM1640.42,163a67.78,67.78,0,1,1-74.28-60.59A67.86,67.86,0,0,1,1640.42,163Z"/><path class="cls-30" d="M1511.05,176a63,63,0,1,0,56.28-69A63,63,0,0,0,1511.05,176Zm104.85-15.58c5.69,22.83-8.8,46.36-32.09,52.13-23,5.68-46.39-8.71-52.15-32-5.73-23.17,8.4-46.27,31.87-52.09S1610,136.74,1615.9,160.44Z"/><path class="cls-31" d="M1574.51,226.22a57.21,57.21,0,0,0,45.71-24.55l-.91-.63a55.91,55.91,0,0,1-101.86-30.67l-1.12,0A57.09,57.09,0,0,0,1574.51,226.22Z"/><path class="cls-26" d="M1531.56,132.07a56.06,56.06,0,0,1,31.62-17.83l-.2-1.1a57.15,57.15,0,0,0-32.25,18.19Z"/><path class="cls-31" d="M1629.23,168.07l1.11,0a57,57,0,0,0-31.21-49.69l-.5,1A55.83,55.83,0,0,1,1629.23,168.07Z"/><path class="cls-32" d="M1500.35,142.51a78.68,78.68,0,0,0,8.28,70.87l1.28-.85a76.88,76.88,0,0,1,90.73-114.76l.53-1.44A78.5,78.5,0,0,0,1500.35,142.51Z"/><path class="cls-32" d="M1642.48,135.18a77.14,77.14,0,0,1,6.82,49.46l1.51.3a78.75,78.75,0,0,0-7-50.45Z"/><polygon class="cls-33" points="2153.9 479.33 2033.33 326.23 2137.43 434.44 2153.9 479.33"/><path class="cls-34" d="M2210,403.27s-142.77-59-176.67-77c0,0,48.75,121.66,57.29,161.38l46.81-53.17,17.43-12.73Z"/><polygon class="cls-35" points="2153.9 479.33 2137.43 434.44 2033.33 326.23 2154.86 421.71 2153.9 479.33"/><path class="cls-36" d="M2156.33,485.34l2.23-1.32a78.63,78.63,0,0,1,3.56,7l-2.35,1.07C2157.8,487.82,2156.35,485.37,2156.33,485.34Z"/><path class="cls-36" d="M2006.9,758.28c.33-.88.66-1.76,1-2.64l2.41.93c-.35.91-.69,1.82-1,2.72-1.47,4-2.86,8-4.14,12.16l-2.47-.77C2004,766.48,2005.43,762.33,2006.9,758.28Zm7.24-17.29c2.28-4.85,4.74-9.61,7.33-14.15l2.24,1.28c-2.55,4.48-5,9.18-7.23,14Zm15.77-27.67c3-4.4,6.25-8.69,9.59-12.74l2,1.65c-3.3,4-6.48,8.21-9.45,12.55Zm20.3-24.56c3.74-3.75,7.7-7.37,11.77-10.76l1.66,2c-4,3.33-7.91,6.9-11.59,10.6Zm24.5-20.36c4.35-3,8.91-5.79,13.57-8.39l1.25,2.26c-4.58,2.56-9.08,5.34-13.36,8.26Zm27.23-16.26c4.56-2.82,9-5.76,13.08-8.75l1.52,2.1c-4.17,3-8.62,6-13.24,8.85Zm63.42-145.38,2.46-.77a135.13,135.13,0,0,1,3.89,15.5l-2.54.48A134.74,134.74,0,0,0,2165.36,506.76Zm-38,126.88a154.49,154.49,0,0,0,11.35-10.84l1.88,1.78c-3.55,3.76-7.44,7.46-11.54,11Zm43.73-96.13,2.58-.15a115.28,115.28,0,0,1-.15,16l-2.57-.2A114.94,114.94,0,0,0,2171.08,537.51Zm-22.28,73.31a120,120,0,0,0,8.54-13.12l2.26,1.27a123.71,123.71,0,0,1-8.73,13.4Zm19.79-42.2,2.52.57a109.24,109.24,0,0,1-4.68,15.31l-2.41-.94A106.23,106.23,0,0,0,2168.59,568.62Z"/><path class="cls-37" d="M221.32,941.83l-55.11.12a34.2,34.2,0,0,1-34.27-34.11l-.05-19.41A34.2,34.2,0,0,1,166,854.15l55.12-.13a5.29,5.29,0,0,1,5.29,5.27l.18,77.25A5.29,5.29,0,0,1,221.32,941.83Z"/><path class="cls-38" d="M1034.69,644.12c-165.63,40.08-398.1,63.29-398.1,63.29L581.12,881.64l-12.5,91.69,68.82,113.24s232.58,22.16,398.38,61.5c173.57,41.17,493.51,267.89,493.51,267.89l-1.13-508-.07-26L1527,374S1208.07,602.16,1034.69,644.12Z"/><ellipse class="cls-11" cx="1603.37" cy="894.81" rx="191.1" ry="575.69" transform="translate(-2.01 3.62) rotate(-0.13)"/><path class="cls-39" d="M1607.4,365.86c-62.57.14-116,132.19-138.8,320.62,93.92,2.19,169.51,78.85,169.72,173.35l.16,69.53c.21,94.51-75,171.51-169,174.1,23.63,188.48,77.67,320.43,140.28,320.29,83.83-.19,151.26-237.16,150.6-529.29S1691.24,365.67,1607.4,365.86Z"/><path class="cls-40" d="M1638.48,929.36l-.16-69.53c-.21-94.5-75.8-171.16-169.72-173.35-7.75,64-12,134.57-11.8,208.67s4.69,144.39,12.71,208.31C1563.44,1100.87,1638.69,1023.87,1638.48,929.36Z"/><path class="cls-36" d="M385.72,1102.66s-21.74,167.86.8,286.48,111.64,180.62,111.64,180.62,41.69,23.29,79.39,10.21,90.09-45.25,111.5-74,19.4-42.25-22.51-55-139-138.2-68-362.54Z"/><path class="cls-41" d="M524.44,1095.82c-5.83,7-6.26,22.75-8,31.49-10.75,53-19.67,107.47-14.08,161.7,5.43,52.59,21.27,104.32,43.55,152.13,19.23,41.29,49.31,78.62,91.81,97.23,3.57,1.57,7.43,3,11.27,2.37,2.94-.51,5.52-2.2,7.95-3.92,16.73-11.86,41.41-32.89,45.06-54.57,3.29-19.62-20.77-26.77-35.42-31.21-41.9-12.72-139-138.2-68-362.54l-43.14,2.87c-7.42.49-20.43-1.22-27.24,1.58A9.81,9.81,0,0,0,524.44,1095.82Z"/><path class="cls-42" d="M691.34,1101.94c7.82,13.36-12.49,28.06-28,28.09l-292.62.66A181.52,181.52,0,0,1,188.81,949.57l-.24-103.14c-.22-100.26,80.87-181.72,181.13-181.94l292.62-.66a28,28,0,0,1,28.09,28S548,857.16,691.34,1101.94Z"/><path class="cls-43" d="M1093.16,1019.82l-3.25-4.64c-.69-.91-2.54-2.68-4.13-2-.34.14-.67.32-1,.46.66,1.73,3.92,7.82,5,10.05s9.17,10.68,9.17,10.68l-.62,8,12.68-1.27-.63-6.66,3-7.77-.48-15.8-1.22-1.47a2.4,2.4,0,0,0-1.2-.77l-1.42-.38-2.06-2.55a2.08,2.08,0,0,0-1.76-.77l-2,.23a1.89,1.89,0,0,1-1.28-.32l-1.63-1.09a1.42,1.42,0,0,0-.79-.09,8.2,8.2,0,0,0-2.91,1.62l-3.15-13.6a8.6,8.6,0,0,0-1.06-2.52l-.62-1a1.33,1.33,0,0,0-2.38.26,10.46,10.46,0,0,0-.51,5.08l2.28,14.91A35.63,35.63,0,0,0,1093.16,1019.82Z"/><path class="cls-44" d="M1041.78,1597.33l7.38,38.1s11,6.9,20.93.45l-10-34.09S1041.21,1596.53,1041.78,1597.33Z"/><path class="cls-45" d="M1060.39,1616.88s4.26,10.6,10.2,12.9,11.27.2,19.67-3.07c10.87-4.24,31.94,7.31,9.69,11.23-3.29.58-21.6,3.39-31.67-1.52-4.91-2.38-8.92-10.13-8.23-12.68Z"/><path class="cls-44" d="M908,1598.77l-1,38.6s10.67,7.47,20.87,1.55L926,1604.18S907.42,1597.94,908,1598.77Z"/><path class="cls-44" d="M923.54,1629.12c7.1-3.3,20.82,10,6.29,12-2.15.3-14.1,1.56-20.66-4.17C906,1634.15,918.05,1631.67,923.54,1629.12Z"/><path class="cls-46" d="M1067.45,1376.37c0-.12-2.92-76-12.12-143.33-4.61-11.09-53.3-9.62-53.31-9.61-17.45,8.73-19,40.27-15.55,58.84,3.79,20.21,14.89,106.11,20.69,127.72,6.66,46.58,16.38,146.7,26.09,185.39a14.4,14.4,0,0,0,15.21,11.06c6.32-.54,11.38-.83,15.14-2,2.74-.83,7.77-5.91,7.92-8.88C1073.41,1559.79,1069.39,1429.74,1067.45,1376.37Z"/><path class="cls-47" d="M1023.81,1243.24c6.8-30.6-71-29.37-71-29.37-5.1,1.46-20.71,5.65-22.29,45.71-1,25.78-13.46,113.65-10.29,153.3-18.82,85.78-20.44,144.39-21.11,175.57-.12,5.43,2.94,10.21,7.59,11.88a114.85,114.85,0,0,0,14.61,4.31c5.31,1.09,10.66-2.36,12.53-8,13.3-40.08,41.65-164.89,41.29-171.9,11.79-27.27,21.92-65.63,29.76-93.1C1012,1306.9,1016.26,1277.22,1023.81,1243.24Z"/><path class="cls-20" d="M1009.36,1034.63c-5.94,2.42-10.45,33.67-7.8,40.38,4.79,12.11,29.81,53.84,29.81,53.84,37.83,52,57,32.43,57,32.43,9.89-9.32,9.13-21.39-12.25-49.08Z"/><path class="cls-20" d="M1109,1040.62l-5.31-1c-5.46-1.07-11,3.09-12.28,9.3a240.19,240.19,0,0,1-13.3,43.58c0,.07-.07.15-.11.23l-6.8,15.76c-10.21,23.67-15.59,45.68-1.4,52.82,0,0,22.78,20.81,37.24-41.54l3-17a1.87,1.87,0,0,1,0-.25,456.33,456.33,0,0,0,6.59-50.75C1117,1046.21,1113.75,1041.55,1109,1040.62Z"/><path class="cls-48" d="M1016,949.9s2.36,19.51-2.36,29c0,0-16-13.68-15.42-21S1012,938.28,1016,949.9Z"/><path class="cls-43" d="M973.55,1004.89l-3.77,17.25,2.6,9.06c4.12,3.71,32.81,26,33,18.4l-4.21-23.13-1.51-12.69s8.29-.95,10.12-8.37c2-8.11,7.19-34.74-.87-43.5-3.56-6.48-10.77-8-10.77-8s-17.33-7.27-24.56,5.14-7.92,19.8-8.61,24.58S969.61,1002.26,973.55,1004.89Z"/><path class="cls-49" d="M974,982.68l2.09-17.47s20.42,6.75,33.71-1.86c26.08-5.33,17.49-15.05,11.79-18.73-9.35-6-17.33-4.73-19.6-.47,0,0-40.13-13-44.37,27,0,0-5.51,1.44-5,9.37s19.7,25.85,19.7,25.85l-2-11.5s-6.89-9.57-2.29-14.78S974,982.68,974,982.68Z"/><path class="cls-50" d="M999.68,1013.8l3.05,22.91S990,1025.27,985,1010.83A21.19,21.19,0,0,0,999.68,1013.8Z"/><path class="cls-44" d="M931.13,1052.72c6.13-16.57,23.15-21.73,33-24.33l1.79-8.76a2.16,2.16,0,0,1,3.59-1.21c5.21,4.79,17.07,7.61,33.44,2.66,1.55,0,3.09,1.55,3.09,3.86,0,1.11.39,4.3.8,7.34l.57.38c14.92,10.8,19.37,28.3,25.43,45.48,10.44,29.55,33.8,157.23,17.61,164.38-11.66,5.14-92.59,6.51-117.28,4.46-7.35-.62-6.85-11.55-6.85-11.55C927,1212.68,922,1077.31,931.13,1052.72Z"/><path class="cls-20" d="M945.57,1033.51c19.41-2.12,7.44,25.94,1.09,46.59-17.12,55.64-10,73.47-7.25,79.36,3.4,7.31-7.41,36.37-11.23,36.72-13.25,1.22-26.22-9.37-29.78-17.13-6.26-13.65-7.35-36.07-6.67-50.57.84-18,7.91-39.84,17.18-58.23C914,1060.07,931.19,1035.09,945.57,1033.51Z"/><path class="cls-43" d="M1017.67,1136.38c.59.16,2.86,1.55.41,5.58s-3.36,4.55-3.36,4.55,9.34.07,11.93.2a79.85,79.85,0,0,1,10.21,1.43c1.34.4,4,1.13,3.92,2.64,0,1-1.45,1.54-2.57,1.77a16.18,16.18,0,0,1,3,.29c1.34.4,3.1,1,3,2.52s-2.2,2.39-3,2.48a24,24,0,0,1-3.87.47l.39.06c1.07.27,3.08.69,3.08,1.88s-2.69,1.91-3.35,2-1.92.37-3.8.62c.92.2,2,.53,2.09,1.36.06,1-2.19,1.78-2.75,1.9a51.37,51.37,0,0,1-13.16,1.63l-.06,0c-1.16.26-2.5.2-6.17,0a28.18,28.18,0,0,1-9-2.14,35.33,35.33,0,0,1-4.37-2.78l-2.25-.13-.26-13.26,3-.13a12.93,12.93,0,0,1,2.55-2.87,46.68,46.68,0,0,1,6-3.08,8.93,8.93,0,0,0,4.55-3.48C1014.94,1138.08,1017.08,1136.22,1017.67,1136.38Z"/><path class="cls-20" d="M996.61,1171c1.75-1.54,6.18-4.68,5.51-7.15-1.4-5.14-3.06-16.51-5.67-16.31-9.08.73-57.29,12-82.61,16.88-13.22,1.83-16,13.11-14.77,15.89,4.25,9.6,9.09,20.23,27.95,18.86C927,1199.14,978.69,1186.71,996.61,1171Z"/><path class="cls-18" d="M1195.34,599.87c3.65-.43,7.33-.69,11-.78,73.53-1.73,134.77,65.94,136.16,125.22.57,24.2-11.2,43.35-21,64.67-11,23.83-20.92,48.07-31.29,72.16-4.8,11.18-12.84,23.77-14.36,35.75a39.51,39.51,0,0,0-.24,5.65l-123.7,2.92a48,48,0,0,0-4-13.77c-19.27-39.75-38.18-79.5-59.14-118.32C1048.56,698.85,1118.2,609,1195.34,599.87Z"/><path class="cls-7" d="M1147.56,799.69c8.91,7,19.92,6.67,30.21,3.41a197.88,197.88,0,0,1,3.41,23.76c.46,4.5.9,8.76,1.48,12.5l10.63,68.26,6-.94-10.63-68.25c-.56-3.59-1-7.76-1.43-12.19-.82-8-1.73-16.94-3.72-25.27a106.56,106.56,0,0,0,22-13h0a60.1,60.1,0,0,0,5.74-4.06l1.36,1c7.24,5.24,16.94,11.53,27.92,15l-.36,2.47c-1.17,8.38-2.09,16.9-3,25.15L1228.74,906l6.06.65,8.48-78.49c.88-8.2,1.8-16.67,3-24.95.08-.6.17-1.19.25-1.78a48.17,48.17,0,0,0,13,.92c6.55-.44,11.89-2.33,15.89-5.61,5.11-4.19,7.58-10.85,6.15-16.59-1.89-7.57-10.56-12.73-19-11.27-6.82,1.18-13.16,6.25-17,13.56a45.61,45.61,0,0,0-3.92,11.39c-9.89-3.25-18.77-9-25.44-13.87l-.27-.19a63.25,63.25,0,0,0,8.25-9.92c1.94-2.88,4.56-7.3,5-12.38a17.74,17.74,0,0,0-32.7-10.91c-4,6.31-3.69,15.29.68,22.88a40.92,40.92,0,0,0,9.17,10.59,53.78,53.78,0,0,1-4.75,3.24l0,0A102.09,102.09,0,0,1,1181.88,795c-2.3-7.09-5.65-13.41-10.76-17.88a19.69,19.69,0,0,0-19.81-4c-5.77,2.07-9.89,6.6-10.74,11.81C1140.07,788,1140.32,794,1147.56,799.69Zm100-4.29a39.67,39.67,0,0,1,3.44-10.16c2.92-5.62,7.63-9.5,12.58-10.35a9.64,9.64,0,0,1,1.6-.16c4.75-.11,9.39,2.84,10.4,6.89.87,3.49-.78,7.67-4.1,10.4-3,2.45-7.18,3.88-12.43,4.23A42.75,42.75,0,0,1,1247.55,795.4Zm-45.1-29c-3.26-5.66-3.57-12.17-.8-16.59a12.09,12.09,0,0,1,9.84-5.39,10.82,10.82,0,0,1,3.7.54,12,12,0,0,1,7.9,12c-.3,3.66-2.41,7.17-4,9.49a57.31,57.31,0,0,1-8.07,9.57A36.57,36.57,0,0,1,1202.45,766.39Zm-55.86,19.55c.49-3,3.15-5.75,6.78-7.05a13.61,13.61,0,0,1,13.73,2.81c4.22,3.7,7.07,9.18,9.06,15.45-8.69,2.8-17.82,3.28-24.81-2.25C1147.74,792.05,1146.1,789,1146.59,785.94Z"/><path class="cls-51" d="M1151.24,903.08l124.2-2.92c-.06,1.92,0,3.84,0,5.76.6,17.12,5.35,38.81-2.15,54.67-7.74,16.39-23.75,47.87-45.14,48.37l-24.81.59c-21,.49-46.78-35.53-50.54-54a42.06,42.06,0,0,1-.62-7.6C1151.91,934.27,1154,917.41,1151.24,903.08Z"/><path class="cls-52" d="M1446.32,781.59a4.07,4.07,0,0,0-.14-8L1373.5,762.1a4.07,4.07,0,0,0-1.27,8l72.68,11.47A3.92,3.92,0,0,0,1446.32,781.59Z"/><path class="cls-52" d="M1366.87,656.76a4.69,4.69,0,0,0,1-.33l72-34.68a4.07,4.07,0,1,0-3.52-7.33l-72,34.68a4.07,4.07,0,0,0,2.53,7.66Z"/><path class="cls-52" d="M1310.43,589.39a4,4,0,0,0,2.75-2l36.7-63.75a4.07,4.07,0,0,0-7.05-4.06l-36.7,63.75a4.07,4.07,0,0,0,1.5,5.56A4,4,0,0,0,1310.43,589.39Z"/><path class="cls-52" d="M1192.16,574.31a4.08,4.08,0,0,0,3.22-4.77l-14.19-73.23a4.07,4.07,0,0,0-8,1.55l14.19,73.23A4.06,4.06,0,0,0,1192.16,574.31Z"/><path class="cls-52" d="M1097.48,614.35a4.06,4.06,0,0,0,1.75-7.18L1039.67,560a4.07,4.07,0,0,0-5.06,6.38l59.57,47.18A4,4,0,0,0,1097.48,614.35Z"/><path class="cls-52" d="M1045.59,706.58a4.07,4.07,0,0,0-.95-8.06l-73.3,3.15a4.07,4.07,0,1,0,.35,8.13l73.3-3.15A3.93,3.93,0,0,0,1045.59,706.58Z"/><ellipse class="cls-53" cx="1951.13" cy="1615.02" rx="56.46" ry="30.3"/><path class="cls-54" d="M1950.54,1661.88c-35.86,0-64-17.22-64-39.21s28.09-39.21,64-39.21,64,17.23,64,39.21S1986.41,1661.88,1950.54,1661.88Zm0-68.4c-29.24,0-53.94,13.37-53.94,29.19s24.7,29.2,53.94,29.2,54-13.37,54-29.2S1979.79,1593.48,1950.54,1593.48Z"/><path class="cls-36" d="M1950.54,1653.13c-35.86,0-64-17.22-64-39.21s28.09-39.2,64-39.2,64,17.22,64,39.2S1986.41,1653.13,1950.54,1653.13Zm0-68.4c-29.24,0-53.94,13.37-53.94,29.19s24.7,29.2,53.94,29.2,54-13.37,54-29.2S1979.79,1584.73,1950.54,1584.73Z"/><path class="cls-48" d="M1874.33,1652.78l22.36-12.33s2.52-1.93,7.37,3.14c3.33,3.46-1,5.37-1,5.37L1879,1661.88Z"/><path class="cls-36" d="M1893,1665.61c3.57-4.3,1.36-12-4.94-17.25s-12.25-5.24-17.87-1.7l-52.63,31.55,20.71,21Z"/><path class="cls-55" d="M1834,1681.15c6.3,5.23,8.52,13,5,17.25s-11.57,3.54-17.87-1.69-8.51-13-4.95-17.25S1827.73,1675.92,1834,1681.15Z"/><path class="cls-56" d="M1945.13,1604.57c0,2.73-5.63,4.94-12.58,4.94s-12.58-2.21-12.58-4.94,5.63-4.94,12.58-4.94S1945.13,1601.84,1945.13,1604.57Z"/><path class="cls-56" d="M1922.89,1611.84c0,1.57-3.26,2.85-7.27,2.85s-7.26-1.28-7.26-2.85,3.25-2.86,7.26-2.86S1922.89,1610.26,1922.89,1611.84Z"/><circle class="cls-57" cx="506.23" cy="1362.14" r="51.13" transform="translate(-919.05 1645.48) rotate(-80.86)"/><path class="cls-58" d="M547.27,1331.64a108.15,108.15,0,0,1-6.37,13.19c-10.6,18.75-25.72,36.76-43.63,48.9a121.52,121.52,0,0,1-19.77,10.72,51.14,51.14,0,0,0,69.77-72.81Z"/><path class="cls-58" d="M544.86,1360.94a94.78,94.78,0,0,1-17.52,28.89c-8.72,9.63-19.47,16.63-30.87,22.5a51.12,51.12,0,0,0,56.09-71.82C549.75,1347.21,547.57,1354.18,544.86,1360.94Z"/><circle class="cls-59" cx="506.23" cy="1362.14" r="40.08" transform="translate(-920.88 1636.12) rotate(-80.48)"/><circle class="cls-18" cx="506.23" cy="1362.14" r="37.34"/><path class="cls-49" d="M504.73,1385.18v-5.06c-6.67-.55-10.56-4.5-11.11-9.83h4.89a7.23,7.23,0,0,0,6.22,5.94v-13.45c-7.39-2.22-10.28-5-10.28-10.17,0-5.61,4.34-9.33,10.28-9.72v-3.78h3.17v3.83c7.39.73,9.78,5.51,10.11,9h-4.78a6.36,6.36,0,0,0-5.33-5.11v12.11c8.5,2.45,11,6,11,10.95,0,6.17-4.12,9.78-11,10.28v5.06Zm0-27.23v-11.28c-4,.33-5.44,2.72-5.44,5.39S500.56,1356.5,504.73,1358Zm3.17,5.78v12.56c3.83-.39,5.89-2.34,5.89-6C513.79,1367.4,512.51,1365.34,507.9,1363.73Z"/><circle class="cls-57" cx="386.36" cy="1285.42" r="62.2" transform="translate(-924.42 1574.25) rotate(-85.7)"/><path class="cls-58" d="M436.28,1248.31a131,131,0,0,1-7.75,16c-12.89,22.81-31.28,44.72-53.07,59.48a148.22,148.22,0,0,1-24,13,62.2,62.2,0,0,0,84.86-88.57Z"/><path class="cls-58" d="M433.35,1284c-5.21,13-11.9,24.73-21.31,35.13-10.6,11.72-23.68,20.24-37.55,27.38a62.17,62.17,0,0,0,74.07-61,61.93,61.93,0,0,0-5.84-26.32C439.3,1267.25,436.65,1275.73,433.35,1284Z"/><circle class="cls-59" cx="386.36" cy="1285.42" r="48.75"/><circle class="cls-18" cx="386.36" cy="1285.42" r="45.42" transform="translate(-352.01 164.53) rotate(-16.64)"/><path class="cls-49" d="M384.54,1313.44v-6.15c-8.11-.68-12.84-5.48-13.52-12h6a8.79,8.79,0,0,0,7.57,7.23V1286.2c-9-2.71-12.51-6.09-12.51-12.37,0-6.83,5.28-11.36,12.51-11.83v-4.6h3.85v4.66c9,.88,11.9,6.7,12.3,10.89h-5.81c-.74-2.77-2.37-5.48-6.49-6.22v14.73c10.34,3,13.32,7.3,13.32,13.32,0,7.5-5,11.9-13.32,12.51v6.15Zm0-33.12v-13.73c-4.87.41-6.63,3.32-6.63,6.56S379.47,1278.56,384.54,1280.32Zm3.85,7v15.27c4.67-.47,7.17-2.84,7.17-7.23C395.56,1291.81,394,1289.31,388.39,1287.35Z"/><circle class="cls-57" cx="271.56" cy="1390.67" r="70.06" transform="translate(-1136.62 1547.93) rotate(-85.32)"/><path class="cls-58" d="M327.79,1348.87a147.31,147.31,0,0,1-8.73,18.07c-14.52,25.7-35.24,50.38-59.78,67a166.43,166.43,0,0,1-27.08,14.68,70.06,70.06,0,0,0,95.59-99.76Z"/><path class="cls-58" d="M324.49,1389c-5.87,14.6-13.41,27.86-24,39.58-11.94,13.2-26.67,22.79-42.29,30.84A70.06,70.06,0,0,0,335,1361C331.19,1370.2,328.21,1379.75,324.49,1389Z"/><circle class="cls-59" cx="271.56" cy="1390.67" r="54.92" transform="translate(-1134.77 1563.74) rotate(-85.97)"/><circle class="cls-18" cx="271.56" cy="1390.67" r="51.16" transform="translate(-1134.01 1569.76) rotate(-86.21)"/><path class="cls-49" d="M269.5,1422.23v-6.93c-9.13-.76-14.46-6.17-15.22-13.47H261a9.9,9.9,0,0,0,8.52,8.14v-18.42c-10.12-3-14.08-6.86-14.08-13.94,0-7.69,5.94-12.79,14.08-13.32v-5.18h4.34v5.25c10.13,1,13.41,7.54,13.86,12.26h-6.55c-.83-3.12-2.66-6.17-7.31-7v16.6c11.65,3.35,15,8.22,15,15,0,8.45-5.63,13.4-15,14.08v6.93Zm0-37.31v-15.46c-5.48.46-7.46,3.74-7.46,7.39S263.79,1382.94,269.5,1384.92Zm4.34,7.92v17.21c5.26-.53,8.08-3.2,8.08-8.15C281.92,1397.86,280.16,1395.05,273.84,1392.84Z"/><circle class="cls-57" cx="379.69" cy="1452.93" r="83.77" transform="translate(-1099.31 1713.16) rotate(-85.33)"/><path class="cls-58" d="M446.93,1403a176.85,176.85,0,0,1-10.44,21.61c-17.36,30.73-42.14,60.23-71.48,80.12a198.77,198.77,0,0,1-32.38,17.56A83.78,83.78,0,0,0,446.93,1403Z"/><path class="cls-58" d="M443,1451c-7,17.46-16,33.31-28.71,47.32-14.28,15.79-31.88,27.26-50.57,36.88a83.73,83.73,0,0,0,99.77-82.23,83.27,83.27,0,0,0-7.88-35.45C451,1428.46,447.43,1439.88,443,1451Z"/><circle class="cls-59" cx="379.69" cy="1452.93" r="65.66" transform="translate(-1108.61 1653.22) rotate(-83.02)"/><circle class="cls-18" cx="379.69" cy="1452.93" r="61.17"/><path class="cls-49" d="M377.24,1490.67v-8.29c-10.93-.91-17.3-7.37-18.21-16.11h8a11.86,11.86,0,0,0,10.2,9.74v-22c-12.11-3.64-16.85-8.2-16.85-16.66,0-9.2,7.1-15.3,16.85-15.93v-6.2h5.19v6.29c12.1,1.18,16,9,16.57,14.65h-7.83c-1-3.73-3.19-7.37-8.74-8.37v19.85c13.92,4,17.93,9.83,17.93,17.93,0,10.11-6.74,16-17.93,16.84v8.29Zm0-44.61v-18.48c-6.56.54-8.93,4.46-8.93,8.83S370.41,1443.69,377.24,1446.06Zm5.19,9.47v20.57c6.28-.63,9.65-3.82,9.65-9.74C392.08,1461.53,390,1458.17,382.43,1455.53Z"/><path class="cls-60" d="M2037.62,811.23a137.74,137.74,0,0,0-13.16-40.79c-5.93-11.75-13.33-22.89-24.24-31.08-19.47-14.62-46-11.79-69.16-12.05l-1.92,0c-27.59-.54-53.05-.62-76.62-.29-39.06.54-73.43,2.21-103.88,4.78-34.62,6-47,36.94-50.51,64-1.93,14.93-3.85,30.08-4.07,45.19h0c0,.07,0,.14,0,.21a162.78,162.78,0,0,0,.78,18.87,110.55,110.55,0,0,0,8.52,33.09c5.58,17.42,8.18,39.35,45.13,42.95-.23,21,.2,32.82-14.42,39.22,30.15-.92,35.41-23.3,43.93-36.52,12.86,1.09,20.82,1.71,30.39,1.72a224.33,224.33,0,0,1,39.9,3.57c30.2,5.47,79.41,13.21,95.75,11.84,17.75-1.49,34.2-5,46.57-16,18.73-16.68,32.75-39.38,40.68-65C2039.05,854.88,2041,832.9,2037.62,811.23Z"/><rect class="cls-61" y="425.58" width="894.54" height="152.8" rx="26.33"/><path class="cls-18" d="M702.43,541.62H52.66a15.92,15.92,0,0,1-15.9-15.9V472.31a15.92,15.92,0,0,1,15.9-15.9H702.43a15.91,15.91,0,0,1,15.9,15.9v53.41A15.91,15.91,0,0,1,702.43,541.62ZM52.66,463a9.33,9.33,0,0,0-9.31,9.32v53.41A9.33,9.33,0,0,0,52.66,535H702.43a9.33,9.33,0,0,0,9.32-9.32V472.31a9.33,9.33,0,0,0-9.32-9.32Z"/><path class="cls-18" d="M822.06,457.17a35,35,0,0,0-35.27,35.6,35.72,35.72,0,0,0,6.47,19.82l-26.19,25.6h0a6.29,6.29,0,0,0,.31,8.77,6.42,6.42,0,0,0,8.85.14h0l.09-.09.07-.06.07-.08,25.83-25.25a36.46,36.46,0,0,0,21.07,6.73,35,35,0,0,0,35.27-35.6C858.3,473.14,841.88,457.17,822.06,457.17Zm1.15,61.52a26.66,26.66,0,0,1-26.64-25.92,25.49,25.49,0,0,1,25.67-25.92,26.67,26.67,0,0,1,26.65,25.92A25.5,25.5,0,0,1,823.21,518.69Z"/><circle class="cls-62" cx="372.31" cy="598.35" r="203.85" transform="translate(-314.05 438.51) rotate(-45)"/><circle class="cls-32" cx="380.48" cy="550.75" r="196.56" transform="translate(-278 430.35) rotate(-45)"/><path class="cls-18" d="M380.48,354.19C489,354.19,577,442.19,577,550.75S489,747.31,380.48,747.31s-196.56-88-196.56-196.56,88-196.56,196.56-196.56m0-12.25c-115.13,0-208.8,93.67-208.8,208.81s93.67,208.81,208.8,208.81,208.81-93.67,208.81-208.81S495.62,341.94,380.48,341.94Z"/><circle class="cls-63" cx="380.48" cy="550.75" r="141.44"/><circle class="cls-64" cx="380.48" cy="550.75" r="104.32" transform="translate(-278 430.35) rotate(-45)"/><circle class="cls-65" cx="380.48" cy="550.75" r="65.13" transform="translate(-22.44 16.2) rotate(-2.37)"/><polygon class="cls-65" points="541.29 391.69 532.5 346.18 596.88 281.79 605.67 327.3 541.29 391.69"/><polygon class="cls-65" points="542.45 392.85 587.96 401.64 652.34 337.26 606.83 328.46 542.45 392.85"/><rect class="cls-66" x="492.08" y="278.32" width="4.94" height="322.52" transform="translate(455.71 -220.95) rotate(45)"/><rect class="cls-57" x="580.49" y="1420.59" width="200.15" height="20.07"/><g class="cls-67"><rect class="cls-68" x="581.23" y="1421.74" width="0.73" height="17.63"/><rect class="cls-68" x="588.56" y="1421.74" width="0.73" height="17.63"/><rect class="cls-68" x="595.89" y="1421.74" width="0.73" height="17.63"/><rect class="cls-68" x="603.22" y="1421.74" width="0.73" height="17.63"/><rect class="cls-68" x="610.56" y="1421.74" width="0.73" height="17.63"/><rect class="cls-68" x="617.89" y="1421.74" width="0.73" height="17.63"/><rect class="cls-68" x="625.22" y="1421.74" width="0.73" height="17.63"/><rect class="cls-68" x="632.55" y="1421.74" width="0.73" height="17.63"/><rect class="cls-68" x="639.88" y="1421.74" width="0.73" height="17.63"/><rect class="cls-68" x="647.21" y="1421.74" width="0.73" height="17.63"/><rect class="cls-68" x="654.54" y="1421.74" width="0.73" height="17.63"/><rect class="cls-68" x="661.88" y="1421.74" width="0.73" height="17.63"/><rect class="cls-68" x="669.21" y="1421.74" width="0.73" height="17.63"/><rect class="cls-68" x="676.54" y="1421.74" width="0.73" height="17.63"/><rect class="cls-68" x="683.87" y="1421.74" width="0.73" height="17.63"/><rect class="cls-68" x="691.2" y="1421.74" width="0.73" height="17.63"/><rect class="cls-68" x="698.53" y="1421.74" width="0.73" height="17.63"/><rect class="cls-68" x="705.86" y="1421.74" width="0.73" height="17.63"/><rect class="cls-68" x="713.2" y="1421.74" width="0.73" height="17.63"/><rect class="cls-68" x="720.53" y="1421.74" width="0.73" height="17.63"/><rect class="cls-68" x="727.86" y="1421.74" width="0.73" height="17.63"/><rect class="cls-68" x="735.19" y="1421.74" width="0.73" height="17.63"/><rect class="cls-68" x="742.52" y="1421.74" width="0.73" height="17.63"/><rect class="cls-68" x="749.85" y="1421.74" width="0.73" height="17.63"/><rect class="cls-68" x="757.18" y="1421.74" width="0.73" height="17.63"/><rect class="cls-68" x="764.52" y="1421.74" width="0.73" height="17.63"/><rect class="cls-68" x="771.85" y="1421.74" width="0.73" height="17.63"/><rect class="cls-68" x="779.18" y="1421.74" width="0.73" height="17.63"/></g><rect class="cls-59" x="580.52" y="1420.59" width="200.1" height="2.46"/><rect class="cls-57" x="580.52" y="1438.21" width="200.1" height="2.46"/><rect class="cls-57" x="588.19" y="1440.66" width="200.15" height="20.07"/><g class="cls-67"><rect class="cls-68" x="588.92" y="1441.8" width="0.73" height="17.63"/><rect class="cls-68" x="596.26" y="1441.8" width="0.73" height="17.63"/><rect class="cls-68" x="603.59" y="1441.8" width="0.73" height="17.63"/><rect class="cls-68" x="610.92" y="1441.8" width="0.73" height="17.63"/><rect class="cls-68" x="618.25" y="1441.8" width="0.73" height="17.63"/><rect class="cls-68" x="625.58" y="1441.8" width="0.73" height="17.63"/><rect class="cls-68" x="632.91" y="1441.8" width="0.73" height="17.63"/><rect class="cls-68" x="640.24" y="1441.8" width="0.73" height="17.63"/><rect class="cls-68" x="647.58" y="1441.8" width="0.73" height="17.63"/><rect class="cls-68" x="654.91" y="1441.8" width="0.73" height="17.63"/><rect class="cls-68" x="662.24" y="1441.8" width="0.73" height="17.63"/><rect class="cls-68" x="669.57" y="1441.8" width="0.73" height="17.63"/><rect class="cls-68" x="676.9" y="1441.8" width="0.73" height="17.63"/><rect class="cls-68" x="684.23" y="1441.8" width="0.73" height="17.63"/><rect class="cls-68" x="691.56" y="1441.8" width="0.73" height="17.63"/><rect class="cls-68" x="698.9" y="1441.8" width="0.73" height="17.63"/><rect class="cls-68" x="706.23" y="1441.8" width="0.73" height="17.63"/><rect class="cls-68" x="713.56" y="1441.8" width="0.73" height="17.63"/><rect class="cls-68" x="720.89" y="1441.8" width="0.73" height="17.63"/><rect class="cls-68" x="728.22" y="1441.8" width="0.73" height="17.63"/><rect class="cls-68" x="735.55" y="1441.8" width="0.73" height="17.63"/><rect class="cls-68" x="742.89" y="1441.8" width="0.73" height="17.63"/><rect class="cls-68" x="750.22" y="1441.8" width="0.73" height="17.63"/><rect class="cls-68" x="757.55" y="1441.8" width="0.73" height="17.63"/><rect class="cls-68" x="764.88" y="1441.8" width="0.73" height="17.63"/><rect class="cls-68" x="772.21" y="1441.8" width="0.73" height="17.63"/><rect class="cls-68" x="779.54" y="1441.8" width="0.73" height="17.63"/><rect class="cls-68" x="786.87" y="1441.8" width="0.73" height="17.63"/></g><rect class="cls-59" x="588.22" y="1440.66" width="200.1" height="2.46"/><rect class="cls-57" x="588.22" y="1458.27" width="200.1" height="2.46"/><rect class="cls-57" x="576.65" y="1460.75" width="200.15" height="20.07"/><g class="cls-67"><rect class="cls-68" x="577.38" y="1461.9" width="0.73" height="17.63"/><rect class="cls-68" x="584.71" y="1461.9" width="0.73" height="17.63"/><rect class="cls-68" x="592.05" y="1461.9" width="0.73" height="17.63"/><rect class="cls-68" x="599.38" y="1461.9" width="0.73" height="17.63"/><rect class="cls-68" x="606.71" y="1461.9" width="0.73" height="17.63"/><rect class="cls-68" x="614.04" y="1461.9" width="0.73" height="17.63"/><rect class="cls-68" x="621.37" y="1461.9" width="0.73" height="17.63"/><rect class="cls-68" x="628.7" y="1461.9" width="0.73" height="17.63"/><rect class="cls-68" x="636.03" y="1461.9" width="0.73" height="17.63"/><rect class="cls-68" x="643.37" y="1461.9" width="0.73" height="17.63"/><rect class="cls-68" x="650.7" y="1461.9" width="0.73" height="17.63"/><rect class="cls-68" x="658.03" y="1461.9" width="0.73" height="17.63"/><rect class="cls-68" x="665.36" y="1461.9" width="0.73" height="17.63"/><rect class="cls-68" x="672.69" y="1461.9" width="0.73" height="17.63"/><rect class="cls-68" x="680.02" y="1461.9" width="0.73" height="17.63"/><rect class="cls-68" x="687.35" y="1461.9" width="0.73" height="17.63"/><rect class="cls-68" x="694.69" y="1461.9" width="0.73" height="17.63"/><rect class="cls-68" x="702.02" y="1461.9" width="0.73" height="17.63"/><rect class="cls-68" x="709.35" y="1461.9" width="0.73" height="17.63"/><rect class="cls-68" x="716.68" y="1461.9" width="0.73" height="17.63"/><rect class="cls-68" x="724.01" y="1461.9" width="0.73" height="17.63"/><rect class="cls-68" x="731.34" y="1461.9" width="0.73" height="17.63"/><rect class="cls-68" x="738.67" y="1461.9" width="0.73" height="17.63"/><rect class="cls-68" x="746.01" y="1461.9" width="0.73" height="17.63"/><rect class="cls-68" x="753.34" y="1461.9" width="0.73" height="17.63"/><rect class="cls-68" x="760.67" y="1461.9" width="0.73" height="17.63"/><rect class="cls-68" x="768" y="1461.9" width="0.73" height="17.63"/><rect class="cls-68" x="775.33" y="1461.9" width="0.73" height="17.63"/></g><rect class="cls-59" x="576.67" y="1460.75" width="200.1" height="2.46"/><rect class="cls-57" x="576.67" y="1478.37" width="200.1" height="2.46"/><rect class="cls-57" x="584.34" y="1480.81" width="200.15" height="20.07"/><g class="cls-67"><rect class="cls-68" x="585.08" y="1481.96" width="0.73" height="17.63"/><rect class="cls-68" x="592.41" y="1481.96" width="0.73" height="17.63"/><rect class="cls-68" x="599.74" y="1481.96" width="0.73" height="17.63"/><rect class="cls-68" x="607.07" y="1481.96" width="0.73" height="17.63"/><rect class="cls-68" x="614.4" y="1481.96" width="0.73" height="17.63"/><rect class="cls-68" x="621.73" y="1481.96" width="0.73" height="17.63"/><rect class="cls-68" x="629.07" y="1481.96" width="0.73" height="17.63"/><rect class="cls-68" x="636.4" y="1481.96" width="0.73" height="17.63"/><rect class="cls-68" x="643.73" y="1481.96" width="0.73" height="17.63"/><rect class="cls-68" x="651.06" y="1481.96" width="0.73" height="17.63"/><rect class="cls-68" x="658.39" y="1481.96" width="0.73" height="17.63"/><rect class="cls-68" x="665.72" y="1481.96" width="0.73" height="17.63"/><rect class="cls-68" x="673.05" y="1481.96" width="0.73" height="17.63"/><rect class="cls-68" x="680.39" y="1481.96" width="0.73" height="17.63"/><rect class="cls-68" x="687.72" y="1481.96" width="0.73" height="17.63"/><rect class="cls-68" x="695.05" y="1481.96" width="0.73" height="17.63"/><rect class="cls-68" x="702.38" y="1481.96" width="0.73" height="17.63"/><rect class="cls-68" x="709.71" y="1481.96" width="0.73" height="17.63"/><rect class="cls-68" x="717.04" y="1481.96" width="0.73" height="17.63"/><rect class="cls-68" x="724.38" y="1481.96" width="0.73" height="17.63"/><rect class="cls-68" x="731.71" y="1481.96" width="0.73" height="17.63"/><rect class="cls-68" x="739.04" y="1481.96" width="0.73" height="17.63"/><rect class="cls-68" x="746.37" y="1481.96" width="0.73" height="17.63"/><rect class="cls-68" x="753.7" y="1481.96" width="0.73" height="17.63"/><rect class="cls-68" x="761.03" y="1481.96" width="0.73" height="17.63"/><rect class="cls-68" x="768.36" y="1481.96" width="0.73" height="17.63"/><rect class="cls-68" x="775.69" y="1481.96" width="0.73" height="17.63"/><rect class="cls-68" x="783.03" y="1481.96" width="0.73" height="17.63"/></g><rect class="cls-59" x="584.37" y="1480.81" width="200.1" height="2.46"/><rect class="cls-57" x="584.37" y="1498.43" width="200.1" height="2.46"/><rect class="cls-57" x="590.3" y="1500.88" width="200.15" height="20.07"/><g class="cls-67"><rect class="cls-68" x="591.03" y="1502.02" width="0.73" height="17.63"/><rect class="cls-68" x="598.36" y="1502.02" width="0.73" height="17.63"/><rect class="cls-68" x="605.7" y="1502.02" width="0.73" height="17.63"/><rect class="cls-68" x="613.03" y="1502.02" width="0.73" height="17.63"/><rect class="cls-68" x="620.36" y="1502.02" width="0.73" height="17.63"/><rect class="cls-68" x="627.69" y="1502.02" width="0.73" height="17.63"/><rect class="cls-68" x="635.02" y="1502.02" width="0.73" height="17.63"/><rect class="cls-68" x="642.35" y="1502.02" width="0.73" height="17.63"/><rect class="cls-68" x="649.68" y="1502.02" width="0.73" height="17.63"/><rect class="cls-68" x="657.02" y="1502.02" width="0.73" height="17.63"/><rect class="cls-68" x="664.35" y="1502.02" width="0.73" height="17.63"/><rect class="cls-68" x="671.68" y="1502.02" width="0.73" height="17.63"/><rect class="cls-68" x="679.01" y="1502.02" width="0.73" height="17.63"/><rect class="cls-68" x="686.34" y="1502.02" width="0.73" height="17.63"/><rect class="cls-68" x="693.67" y="1502.02" width="0.73" height="17.63"/><rect class="cls-68" x="701" y="1502.02" width="0.73" height="17.63"/><rect class="cls-68" x="708.34" y="1502.02" width="0.73" height="17.63"/><rect class="cls-68" x="715.67" y="1502.02" width="0.73" height="17.63"/><rect class="cls-68" x="723" y="1502.02" width="0.73" height="17.63"/><rect class="cls-68" x="730.33" y="1502.02" width="0.73" height="17.63"/><rect class="cls-68" x="737.66" y="1502.02" width="0.73" height="17.63"/><rect class="cls-68" x="744.99" y="1502.02" width="0.73" height="17.63"/><rect class="cls-68" x="752.33" y="1502.02" width="0.73" height="17.63"/><rect class="cls-68" x="759.66" y="1502.02" width="0.73" height="17.63"/><rect class="cls-68" x="766.99" y="1502.02" width="0.73" height="17.63"/><rect class="cls-68" x="774.32" y="1502.02" width="0.73" height="17.63"/><rect class="cls-68" x="781.65" y="1502.02" width="0.73" height="17.63"/><rect class="cls-68" x="788.98" y="1502.02" width="0.73" height="17.63"/></g><rect class="cls-59" x="590.33" y="1500.88" width="200.1" height="2.46"/><rect class="cls-57" x="590.33" y="1518.49" width="200.1" height="2.46"/><rect class="cls-57" x="597.99" y="1520.94" width="200.15" height="20.07"/><g class="cls-67"><rect class="cls-68" x="598.73" y="1522.08" width="0.73" height="17.63"/><rect class="cls-68" x="606.06" y="1522.08" width="0.73" height="17.63"/><rect class="cls-68" x="613.39" y="1522.08" width="0.73" height="17.63"/><rect class="cls-68" x="620.72" y="1522.08" width="0.73" height="17.63"/><rect class="cls-68" x="628.05" y="1522.08" width="0.73" height="17.63"/><rect class="cls-68" x="635.39" y="1522.08" width="0.73" height="17.63"/><rect class="cls-68" x="642.72" y="1522.08" width="0.73" height="17.63"/><rect class="cls-68" x="650.05" y="1522.08" width="0.73" height="17.63"/><rect class="cls-68" x="657.38" y="1522.08" width="0.73" height="17.63"/><rect class="cls-68" x="664.71" y="1522.08" width="0.73" height="17.63"/><rect class="cls-68" x="672.04" y="1522.08" width="0.73" height="17.63"/><rect class="cls-68" x="679.37" y="1522.08" width="0.73" height="17.63"/><rect class="cls-68" x="686.71" y="1522.08" width="0.73" height="17.63"/><rect class="cls-68" x="694.04" y="1522.08" width="0.73" height="17.63"/><rect class="cls-68" x="701.37" y="1522.08" width="0.73" height="17.63"/><rect class="cls-68" x="708.7" y="1522.08" width="0.73" height="17.63"/><rect class="cls-68" x="716.03" y="1522.08" width="0.73" height="17.63"/><rect class="cls-68" x="723.36" y="1522.08" width="0.73" height="17.63"/><rect class="cls-68" x="730.69" y="1522.08" width="0.73" height="17.63"/><rect class="cls-68" x="738.03" y="1522.08" width="0.73" height="17.63"/><rect class="cls-68" x="745.36" y="1522.08" width="0.73" height="17.63"/><rect class="cls-68" x="752.69" y="1522.08" width="0.73" height="17.63"/><rect class="cls-68" x="760.02" y="1522.08" width="0.73" height="17.63"/><rect class="cls-68" x="767.35" y="1522.08" width="0.73" height="17.63"/><rect class="cls-68" x="774.68" y="1522.08" width="0.73" height="17.63"/><rect class="cls-68" x="782.01" y="1522.08" width="0.73" height="17.63"/><rect class="cls-68" x="789.35" y="1522.08" width="0.73" height="17.63"/><rect class="cls-68" x="796.68" y="1522.08" width="0.73" height="17.63"/></g><rect class="cls-59" x="598.02" y="1520.94" width="200.1" height="2.46"/><rect class="cls-57" x="598.02" y="1538.55" width="200.1" height="2.46"/><rect class="cls-57" x="586.45" y="1541.03" width="200.15" height="20.07"/><g class="cls-67"><rect class="cls-68" x="587.19" y="1542.18" width="0.73" height="17.63"/><rect class="cls-68" x="594.52" y="1542.18" width="0.73" height="17.63"/><rect class="cls-68" x="601.85" y="1542.18" width="0.73" height="17.63"/><rect class="cls-68" x="609.18" y="1542.18" width="0.73" height="17.63"/><rect class="cls-68" x="616.51" y="1542.18" width="0.73" height="17.63"/><rect class="cls-68" x="623.84" y="1542.18" width="0.73" height="17.63"/><rect class="cls-68" x="631.17" y="1542.18" width="0.73" height="17.63"/><rect class="cls-68" x="638.51" y="1542.18" width="0.73" height="17.63"/><rect class="cls-68" x="645.84" y="1542.18" width="0.73" height="17.63"/><rect class="cls-68" x="653.17" y="1542.18" width="0.73" height="17.63"/><rect class="cls-68" x="660.5" y="1542.18" width="0.73" height="17.63"/><rect class="cls-68" x="667.83" y="1542.18" width="0.73" height="17.63"/><rect class="cls-68" x="675.16" y="1542.18" width="0.73" height="17.63"/><rect class="cls-68" x="682.49" y="1542.18" width="0.73" height="17.63"/><rect class="cls-68" x="689.83" y="1542.18" width="0.73" height="17.63"/><rect class="cls-68" x="697.16" y="1542.18" width="0.73" height="17.63"/><rect class="cls-68" x="704.49" y="1542.18" width="0.73" height="17.63"/><rect class="cls-68" x="711.82" y="1542.18" width="0.73" height="17.63"/><rect class="cls-68" x="719.15" y="1542.18" width="0.73" height="17.63"/><rect class="cls-68" x="726.48" y="1542.18" width="0.73" height="17.63"/><rect class="cls-68" x="733.81" y="1542.18" width="0.73" height="17.63"/><rect class="cls-68" x="741.15" y="1542.18" width="0.73" height="17.63"/><rect class="cls-68" x="748.48" y="1542.18" width="0.73" height="17.63"/><rect class="cls-68" x="755.81" y="1542.18" width="0.73" height="17.63"/><rect class="cls-68" x="763.14" y="1542.18" width="0.73" height="17.63"/><rect class="cls-68" x="770.47" y="1542.18" width="0.73" height="17.63"/><rect class="cls-68" x="777.8" y="1542.18" width="0.73" height="17.63"/><rect class="cls-68" x="785.14" y="1542.18" width="0.73" height="17.63"/></g><rect class="cls-59" x="586.48" y="1541.03" width="200.1" height="2.46"/><rect class="cls-57" x="586.48" y="1558.65" width="200.1" height="2.46"/><rect class="cls-57" x="594.14" y="1561.1" width="200.15" height="20.07"/><g class="cls-67"><rect class="cls-68" x="594.88" y="1562.24" width="0.73" height="17.63"/><rect class="cls-68" x="602.21" y="1562.24" width="0.73" height="17.63"/><rect class="cls-68" x="609.54" y="1562.24" width="0.73" height="17.63"/><rect class="cls-68" x="616.88" y="1562.24" width="0.73" height="17.63"/><rect class="cls-68" x="624.21" y="1562.24" width="0.73" height="17.63"/><rect class="cls-68" x="631.54" y="1562.24" width="0.73" height="17.63"/><rect class="cls-68" x="638.87" y="1562.24" width="0.73" height="17.63"/><rect class="cls-68" x="646.2" y="1562.24" width="0.73" height="17.63"/><rect class="cls-68" x="653.53" y="1562.24" width="0.73" height="17.63"/><rect class="cls-68" x="660.86" y="1562.24" width="0.73" height="17.63"/><rect class="cls-68" x="668.2" y="1562.24" width="0.73" height="17.63"/><rect class="cls-68" x="675.53" y="1562.24" width="0.73" height="17.63"/><rect class="cls-68" x="682.86" y="1562.24" width="0.73" height="17.63"/><rect class="cls-68" x="690.19" y="1562.24" width="0.73" height="17.63"/><rect class="cls-68" x="697.52" y="1562.24" width="0.73" height="17.63"/><rect class="cls-68" x="704.85" y="1562.24" width="0.73" height="17.63"/><rect class="cls-68" x="712.18" y="1562.24" width="0.73" height="17.63"/><rect class="cls-68" x="719.52" y="1562.24" width="0.73" height="17.63"/><rect class="cls-68" x="726.85" y="1562.24" width="0.73" height="17.63"/><rect class="cls-68" x="734.18" y="1562.24" width="0.73" height="17.63"/><rect class="cls-68" x="741.51" y="1562.24" width="0.73" height="17.63"/><rect class="cls-68" x="748.84" y="1562.24" width="0.73" height="17.63"/><rect class="cls-68" x="756.17" y="1562.24" width="0.73" height="17.63"/><rect class="cls-68" x="763.5" y="1562.24" width="0.73" height="17.63"/><rect class="cls-68" x="770.84" y="1562.24" width="0.73" height="17.63"/><rect class="cls-68" x="778.17" y="1562.24" width="0.73" height="17.63"/><rect class="cls-68" x="785.5" y="1562.24" width="0.73" height="17.63"/><rect class="cls-68" x="792.83" y="1562.24" width="0.73" height="17.63"/></g><rect class="cls-59" x="594.17" y="1561.1" width="200.1" height="2.46"/><rect class="cls-57" x="594.17" y="1578.71" width="200.1" height="2.46"/><rect class="cls-57" x="597.99" y="1581.19" width="200.15" height="20.07"/><g class="cls-67"><rect class="cls-68" x="598.73" y="1582.34" width="0.73" height="17.63"/><rect class="cls-68" x="606.06" y="1582.34" width="0.73" height="17.63"/><rect class="cls-68" x="613.39" y="1582.34" width="0.73" height="17.63"/><rect class="cls-68" x="620.72" y="1582.34" width="0.73" height="17.63"/><rect class="cls-68" x="628.05" y="1582.34" width="0.73" height="17.63"/><rect class="cls-68" x="635.39" y="1582.34" width="0.73" height="17.63"/><rect class="cls-68" x="642.72" y="1582.34" width="0.73" height="17.63"/><rect class="cls-68" x="650.05" y="1582.34" width="0.73" height="17.63"/><rect class="cls-68" x="657.38" y="1582.34" width="0.73" height="17.63"/><rect class="cls-68" x="664.71" y="1582.34" width="0.73" height="17.63"/><rect class="cls-68" x="672.04" y="1582.34" width="0.73" height="17.63"/><rect class="cls-68" x="679.37" y="1582.34" width="0.73" height="17.63"/><rect class="cls-68" x="686.71" y="1582.34" width="0.73" height="17.63"/><rect class="cls-68" x="694.04" y="1582.34" width="0.73" height="17.63"/><rect class="cls-68" x="701.37" y="1582.34" width="0.73" height="17.63"/><rect class="cls-68" x="708.7" y="1582.34" width="0.73" height="17.63"/><rect class="cls-68" x="716.03" y="1582.34" width="0.73" height="17.63"/><rect class="cls-68" x="723.36" y="1582.34" width="0.73" height="17.63"/><rect class="cls-68" x="730.69" y="1582.34" width="0.73" height="17.63"/><rect class="cls-68" x="738.03" y="1582.34" width="0.73" height="17.63"/><rect class="cls-68" x="745.36" y="1582.34" width="0.73" height="17.63"/><rect class="cls-68" x="752.69" y="1582.34" width="0.73" height="17.63"/><rect class="cls-68" x="760.02" y="1582.34" width="0.73" height="17.63"/><rect class="cls-68" x="767.35" y="1582.34" width="0.73" height="17.63"/><rect class="cls-68" x="774.68" y="1582.34" width="0.73" height="17.63"/><rect class="cls-68" x="782.01" y="1582.34" width="0.73" height="17.63"/><rect class="cls-68" x="789.35" y="1582.34" width="0.73" height="17.63"/><rect class="cls-68" x="796.68" y="1582.34" width="0.73" height="17.63"/></g><rect class="cls-59" x="598.02" y="1581.19" width="200.1" height="2.46"/><rect class="cls-57" x="598.02" y="1598.81" width="200.1" height="2.46"/><rect class="cls-57" x="586.45" y="1601.29" width="200.15" height="20.07"/><g class="cls-67"><rect class="cls-68" x="587.19" y="1602.44" width="0.73" height="17.63"/><rect class="cls-68" x="594.52" y="1602.44" width="0.73" height="17.63"/><rect class="cls-68" x="601.85" y="1602.44" width="0.73" height="17.63"/><rect class="cls-68" x="609.18" y="1602.44" width="0.73" height="17.63"/><rect class="cls-68" x="616.51" y="1602.44" width="0.73" height="17.63"/><rect class="cls-68" x="623.84" y="1602.44" width="0.73" height="17.63"/><rect class="cls-68" x="631.17" y="1602.44" width="0.73" height="17.63"/><rect class="cls-68" x="638.51" y="1602.44" width="0.73" height="17.63"/><rect class="cls-68" x="645.84" y="1602.44" width="0.73" height="17.63"/><rect class="cls-68" x="653.17" y="1602.44" width="0.73" height="17.63"/><rect class="cls-68" x="660.5" y="1602.44" width="0.73" height="17.63"/><rect class="cls-68" x="667.83" y="1602.44" width="0.73" height="17.63"/><rect class="cls-68" x="675.16" y="1602.44" width="0.73" height="17.63"/><rect class="cls-68" x="682.49" y="1602.44" width="0.73" height="17.63"/><rect class="cls-68" x="689.83" y="1602.44" width="0.73" height="17.63"/><rect class="cls-68" x="697.16" y="1602.44" width="0.73" height="17.63"/><rect class="cls-68" x="704.49" y="1602.44" width="0.73" height="17.63"/><rect class="cls-68" x="711.82" y="1602.44" width="0.73" height="17.63"/><rect class="cls-68" x="719.15" y="1602.44" width="0.73" height="17.63"/><rect class="cls-68" x="726.48" y="1602.44" width="0.73" height="17.63"/><rect class="cls-68" x="733.81" y="1602.44" width="0.73" height="17.63"/><rect class="cls-68" x="741.15" y="1602.44" width="0.73" height="17.63"/><rect class="cls-68" x="748.48" y="1602.44" width="0.73" height="17.63"/><rect class="cls-68" x="755.81" y="1602.44" width="0.73" height="17.63"/><rect class="cls-68" x="763.14" y="1602.44" width="0.73" height="17.63"/><rect class="cls-68" x="770.47" y="1602.44" width="0.73" height="17.63"/><rect class="cls-68" x="777.8" y="1602.44" width="0.73" height="17.63"/><rect class="cls-68" x="785.14" y="1602.44" width="0.73" height="17.63"/></g><rect class="cls-59" x="586.48" y="1601.29" width="200.1" height="2.46"/><rect class="cls-57" x="586.48" y="1618.9" width="200.1" height="2.46"/><rect class="cls-57" x="594.14" y="1621.35" width="200.15" height="20.07"/><g class="cls-67"><rect class="cls-68" x="594.88" y="1622.5" width="0.73" height="17.63"/><rect class="cls-68" x="602.21" y="1622.5" width="0.73" height="17.63"/><rect class="cls-68" x="609.54" y="1622.5" width="0.73" height="17.63"/><rect class="cls-68" x="616.88" y="1622.5" width="0.73" height="17.63"/><rect class="cls-68" x="624.21" y="1622.5" width="0.73" height="17.63"/><rect class="cls-68" x="631.54" y="1622.5" width="0.73" height="17.63"/><rect class="cls-68" x="638.87" y="1622.5" width="0.73" height="17.63"/><rect class="cls-68" x="646.2" y="1622.5" width="0.73" height="17.63"/><rect class="cls-68" x="653.53" y="1622.5" width="0.73" height="17.63"/><rect class="cls-68" x="660.86" y="1622.5" width="0.73" height="17.63"/><rect class="cls-68" x="668.2" y="1622.5" width="0.73" height="17.63"/><rect class="cls-68" x="675.53" y="1622.5" width="0.73" height="17.63"/><rect class="cls-68" x="682.86" y="1622.5" width="0.73" height="17.63"/><rect class="cls-68" x="690.19" y="1622.5" width="0.73" height="17.63"/><rect class="cls-68" x="697.52" y="1622.5" width="0.73" height="17.63"/><rect class="cls-68" x="704.85" y="1622.5" width="0.73" height="17.63"/><rect class="cls-68" x="712.18" y="1622.5" width="0.73" height="17.63"/><rect class="cls-68" x="719.52" y="1622.5" width="0.73" height="17.63"/><rect class="cls-68" x="726.85" y="1622.5" width="0.73" height="17.63"/><rect class="cls-68" x="734.18" y="1622.5" width="0.73" height="17.63"/><rect class="cls-68" x="741.51" y="1622.5" width="0.73" height="17.63"/><rect class="cls-68" x="748.84" y="1622.5" width="0.73" height="17.63"/><rect class="cls-68" x="756.17" y="1622.5" width="0.73" height="17.63"/><rect class="cls-68" x="763.5" y="1622.5" width="0.73" height="17.63"/><rect class="cls-68" x="770.84" y="1622.5" width="0.73" height="17.63"/><rect class="cls-68" x="778.17" y="1622.5" width="0.73" height="17.63"/><rect class="cls-68" x="785.5" y="1622.5" width="0.73" height="17.63"/><rect class="cls-68" x="792.83" y="1622.5" width="0.73" height="17.63"/></g><rect class="cls-59" x="594.17" y="1621.35" width="200.1" height="2.46"/><rect class="cls-57" x="594.17" y="1638.97" width="200.1" height="2.46"/><g class="cls-67"><g class="cls-69"><polygon class="cls-57" points="588.22 1460.73 588.19 1460.73 588.19 1440.67 580.52 1440.67 580.49 1440.67 580.49 1420.59 580.52 1420.59 670.9 1420.59 670.93 1420.59 670.93 1440.65 678.6 1440.65 678.63 1440.65 678.63 1460.73 678.6 1460.73 588.22 1460.73"/></g><g class="cls-69"><polygon class="cls-57" points="576.67 1460.75 667.06 1460.75 667.09 1460.75 667.09 1480.81 674.75 1480.81 674.78 1480.81 674.78 1500.88 680.71 1500.88 680.74 1500.88 680.74 1520.94 688.4 1520.94 688.43 1520.94 688.43 1541.01 688.4 1541.01 598.02 1541.01 597.99 1541.01 597.99 1520.95 590.33 1520.95 590.3 1520.95 590.3 1500.89 584.37 1500.89 584.34 1500.89 584.34 1480.83 576.67 1480.83 576.65 1480.83 576.65 1460.75 576.67 1460.75"/></g><g class="cls-69"><polygon class="cls-57" points="676.86 1541.04 676.89 1541.04 676.89 1561.1 684.55 1561.1 684.58 1561.1 684.58 1581.17 684.55 1581.17 594.17 1581.17 594.14 1581.17 594.14 1561.11 586.48 1561.11 586.45 1561.11 586.45 1541.04 586.48 1541.04 676.86 1541.04"/></g><g class="cls-69"><polygon class="cls-57" points="597.99 1601.27 597.99 1581.19 598.02 1581.19 688.4 1581.19 688.43 1581.19 688.43 1601.27 688.4 1601.27 598.02 1601.27 597.99 1601.27"/></g><g class="cls-69"><polygon class="cls-57" points="676.86 1601.29 676.89 1601.29 676.89 1621.35 684.55 1621.35 684.58 1621.35 684.58 1641.42 684.55 1641.42 594.17 1641.42 594.14 1641.42 594.14 1621.36 586.48 1621.36 586.45 1621.36 586.45 1601.29 586.48 1601.29 676.86 1601.29"/></g></g><path class="cls-70" d="M576.18,1631.21c11.29-4.4,19-24,13.22-48.45s-26.44-49-27.81-53.42,2.75-19,2.48-27.53a37.66,37.66,0,0,0-1.62-9.32c-1.6-1.78-3.09-2.57-6.64.78a51.1,51.1,0,0,1-4.37,4c2.9,11.35,6.46,27.86,3.82,32.09-4.14,6.61-17.08,16-14.6,12.12s9.64-12.39,9.36-17.9c-.19-3.86-7-18.55-11.08-27-2.63-.51-4.62-.53-5.44,1.11-1.37,2.75-4.68,3.85,10.19,27.53,0,0-23.68,29.74-29.74,46.53s-10.18,33.32-3,46.26,27,17.34,41.57,17.34c5.18,0,11.79-.29,18.52-.84C571.7,1633.43,573.38,1632.31,576.18,1631.21Z"/><path class="cls-71" d="M540.66,1541.46c-2.48,3.85,10.46-5.51,14.6-12.12,2.64-4.23-.92-20.74-3.82-32.09-1.64,1.14-3.17,1.34-6.37.7-2.23-.44-4.33-1-6.13-1.38,4.07,8.44,10.89,23.13,11.08,27C550.3,1529.07,543.14,1537.6,540.66,1541.46Z"/><path class="cls-72" d="M613.63,1592.94c-3.86-19-12.12-35.24-28.64-56.17-14-13.49-15.69-14-8.81-20.92s10.74-12.94,12.39-16.25-6.06-6.6-10.19-3.85-11.84,1.38-14.31-1.38c-.6-.66-1.12-1.32-1.62-1.88a37.66,37.66,0,0,1,1.62,9.32c.27,8.53-3.86,23.13-2.48,27.53s22,28.91,27.81,53.42-1.93,44-13.22,48.45c-2.8,1.1-4.48,2.22-5.16,3.29,12.26-1,24.9-2.9,29.94-5.49C611.15,1623.78,617.48,1611.94,613.63,1592.94Z"/><path class="cls-71" d="M613.63,1592.94c-3.86-19-12.12-35.24-28.64-56.17-14-13.49-15.69-14-8.81-20.92s10.74-12.94,12.39-16.25-6.06-6.6-10.19-3.85-11.84,1.38-14.31-1.38c-.6-.66-1.12-1.32-1.62-1.88a37.66,37.66,0,0,1,1.62,9.32c.27,8.53-3.86,23.13-2.48,27.53s22,28.91,27.81,53.42-1.93,44-13.22,48.45c-2.8,1.1-4.48,2.22-5.16,3.29,12.26-1,24.9-2.9,29.94-5.49C611.15,1623.78,617.48,1611.94,613.63,1592.94Z"/><path class="cls-73" d="M548.33,1522.32s8.49-.6,11.38-1.24,11.06-2.71,12.85-2.39a2.76,2.76,0,0,1,2.34,2.48c.13.83.5,2.48-1.15,3.44s-26.43,2.34-29.28,2.25-3.26-1.1-3.39-2.48a2.54,2.54,0,0,1,2.43-2.47C544.52,1522,547,1522.27,548.33,1522.32Z"/><path class="cls-74" d="M562.41,1528.82s2.39,3.45,2.64,6.21a5.35,5.35,0,0,0,1,3.22c.06-.18.12-.37.19-.56a23.17,23.17,0,0,0,1.19-7.32A9.35,9.35,0,0,0,562.41,1528.82Z"/><path class="cls-73" d="M562.41,1528.82s2.39,3.45,2.64,6.21a5.35,5.35,0,0,0,1,3.22c.06-.18.12-.37.19-.56a23.17,23.17,0,0,0,1.19-7.32A9.35,9.35,0,0,0,562.41,1528.82Z"/><path class="cls-75" d="M562.41,1528.82h0Z"/><path class="cls-76" d="M580.86,1539.53a38.08,38.08,0,0,0-2.48-4.49,5.56,5.56,0,0,1-3-.81c-2.65-1.55-6.78-4.89-8.22-5.06-1-.12-2.85-.24-3.91-.3a8.8,8.8,0,0,1,4.24,1.5v0c2.66,1.38,7.89,9,8.63,13.67s1.56,5.79,2.94,6a2.57,2.57,0,0,0,3-2.29A17.25,17.25,0,0,0,580.86,1539.53Z"/><path class="cls-76" d="M562.48,1528.82c.77,0,8.88,0,11.5-.58l.31,0c4.23-.55,3.2-5.1.51-4.92s-26.77.4-29.92,0c-2.2-.27-5.14-.59-5.55,1.88-.51,3.08,3.53,3.17,3.53,3.17,3.77.18,19.55.51,19.55.51.6,4.63-2.06,8.85-2.38,9.68s-1,3.39,1.1,4.22c3.13.78,3.79-1.16,5-4.49a5.35,5.35,0,0,1-1-3.22c-.25-2.76-2.64-6.21-2.64-6.21Z"/><path class="cls-77" d="M562.41,1528.82l.81,0c-.36,0-.63,0-.74,0Z"/><path class="cls-77" d="M574,1528.24l.31,0Z"/><path class="cls-73" d="M575.35,1534.23a5.56,5.56,0,0,0,3,.81c-2-3.26-4.4-6.8-4.4-6.8-2.62.59-10.73.59-11.5.58.11,0,.38,0,.74,0,1.06.06,2.92.18,3.91.3C568.57,1529.34,572.7,1532.68,575.35,1534.23Z"/><path class="cls-78" d="M556.88,1619.6l-.09-6.74c-8.9-.62-14.15-5.81-15-12.91l6.52-.09a9.64,9.64,0,0,0,8.39,7.82l-.23-17.92c-9.89-2.84-13.79-6.49-13.88-13.38-.09-7.48,5.62-12.52,13.54-13.14l-.07-5,4.23,0,.06,5.11c9.86.84,13.13,7.16,13.63,11.75l-6.36.08c-.86-3-2.67-6-7.2-6.72l.21,16.15c11.37,3.11,14.69,7.81,14.77,14.4.11,8.22-5.31,13.1-14.41,13.89l.09,6.74Zm-.47-36.29-.2-15c-5.32.51-7.21,3.72-7.16,7.28S550.83,1581.46,556.41,1583.31Zm4.32,7.65.22,16.74c5.1-.59,7.81-3.21,7.74-8C568.64,1595.75,566.9,1593,560.73,1591Z"/><path class="cls-49" d="M669.31,1289.18s-47.94,23.89-76.44-2.39-27.21-40.62-23.32-51.37c-6.48-16.72,13-49,41.46-49,0,0,13.6-12,13-23.89s3.39-36.44,31.24-33.46,26.93,11.41,26.42,17.93c-.72,9.11-.65,14.33,4.53,20.9s14.9,17.92,15.55,41.82S719.84,1262.3,669.31,1289.18Z"/><path class="cls-49" d="M700,1136.09s10.33-10.84,3.44-21.67-20.68-20.68-47.26,0a66.58,66.58,0,0,1-25.11,6.9c-5.42.49-15.26,3.44-12.31,26.09s4.92,28.56-9.85,39.88-27.57,24.12.5,57.6,53.17,26.59,73.35,20.19,43.33-29,37.91-43.33-14.27-18.71-9.84-31.51S720.7,1152.83,700,1136.09Z"/><path class="cls-79" d="M785.55,1199.15c-1,12.6-2.82,36.23-4,52.17,0,.08-2.42,16.61-2.42,16.61-3.59,24.61-9.42,43.06-21.86,47.58,0,0-8.43,3.1-18.35-5.75-14.7-11.11-33.16-28-50.3-56.06,0-.07-25.24-58.07-18.23-62.46,0,0,7,2.72,18.86,12.24,0,0,35.35,39.76,52.34,70.15,11.29,18.76,28.74-59.33,32-73.59C773.64,1200,784.4,1195.07,785.55,1199.15Z"/><path class="cls-79" d="M863.88,1616l-11.68-20.76c1-5.8,2.24-15.21,3.55-26.51H835.68c1.52,10.77,3,20,4.16,26.5l-.61,10.81Z"/><path class="cls-79" d="M799.41,1616l-11.68-20.76c1-5.8,2.24-15.21,3.55-26.51H771.21c1.52,10.77,3,20,4.16,26.5l-.61,10.81Z"/><path class="cls-80" d="M603.26,1377.78s74.26,23.62,118.25,3.23c0,0-11.77-76.53-9.94-88.21s15.38-13.59,15.06-26.17c-.46-18.32-26.52-47.43-40.14-66-1-1.27-1.7-1.87-2.25-2.55-10.07-2.8-23-8-30.12-7.52-19.89,2.55-42,10-50.47,18.45-8.18,21.92,14.51,77.64,10.5,120.46C612.86,1343.38,603.26,1377.78,603.26,1377.78Z"/><path class="cls-79" d="M688,1140s-10.83,4.44-29.78.5c0,0,0,6.89-8.87,9.84,0,0-.49-2-3.93-.24s-3.45,12.31,5.66,14.77a52.27,52.27,0,0,1,2.71,8.61c.49,3.2-1.19,12.06-1.93,17.23,0,0,14.73,18.22,20.88,20.93s23.39,9.85,7.39-18.71a22.24,22.24,0,0,1-2.47-10.09s10.59.74,8.87-13.79S688,1140,688,1140Z"/><path class="cls-81" d="M659.53,1175.9s11.39,11.57,20.56,17a23.27,23.27,0,0,1-2.47-10.09S669.69,1182.37,659.53,1175.9Z"/><path class="cls-82" d="M610.92,1218c-10.63,20-2.89,75.22-.83,94.23-3.72,26.45-13.43,58.68-13.43,58.68s22.87-1.82,36.81,6.34c3.57-9.18,64.56-28.86,70.85-36.51-31.82-13.22-56.12-17.66-63.94-38.22-3.1-11.39-.13-39.66-8-73.36C628.28,1211.43,613.71,1212.81,610.92,1218Z"/><path class="cls-79" d="M784.78,1201.84l1.05-3.72a7.51,7.51,0,0,1,4.81-5l0,0a19.67,19.67,0,0,0,5.67-3.22,17.34,17.34,0,0,0,3.2-3,.05.05,0,0,0,0,0,36.14,36.14,0,0,0,6-7.22c.23-.33,1-1.8.5-2.31s-1.16,0-1.73.31c.85-1,1.45-1.85,1.67-2.16s1.33-2,.76-2.66-1.82.13-2.51.51l-.23.15a16.36,16.36,0,0,0,1.78-2.11c.39-.45,1.07-1.94.37-2.75s-1.9-.28-2.79.16a12.19,12.19,0,0,0-1.68,1.29c.47-.66,1-1.6.47-2.16-.69-.81-2.41.08-3.3.52a57.66,57.66,0,0,0-6,4.2c-1,.87-4.75,4-6.69,5.63l.79-2,.45-2.33c.52-1.55-.11-3.87-1-3l-3.87,4.29a9.37,9.37,0,0,0-1.53,2.26l-3.9,7.6a18.06,18.06,0,0,0-2.07,7A54.64,54.64,0,0,1,774,1198l-1.45,7S776,1205.3,784.78,1201.84Z"/><path class="cls-83" d="M649.69,1363.53c8.92-19.42,189.1-16,212.43-6.31,6.88,2.86,14.55,14.33,15.54,24.44,2,9.24,2.61,20.94,1.48,33.53l-2.19,24.6c0,.14,0,.27-.05.41-4.45,52.83-12.61,116.91-20.11,146.77-3.69,2.72-14.45.79-21.78-1-4.32-1-7.53-5.65-8-11.48-2.14-29.53-5.7-78.77-.64-156-20.28,0-86.12-.21-102.73.61-32.43,1.59-73-21.37-74.45-37.94Z"/><path class="cls-20" d="M593.26,1395c2.8,16.38,15.46,26.28,41,26.28,17.34,0,99.68-1.17,125.55-1.17-3.24,78.7,1.78,129.5,4.72,159.29.58,5.81,3.91,10.34,8.25,11.26,7.38,1.57,18.18,3.21,21.8.4,6.72-30,13.18-94.32,16.25-147.25,0-.14,0-.27,0-.41l1.55-24.65c.93-14.86-.55-28.41-3.66-38.13-3.27-12.91-11.31-20.55-17-23.12-21.5-9.73-187.83-6-191.13.66C600.59,1358.14,590.56,1379.14,593.26,1395Z"/><path class="cls-79" d="M721.17,1344s16.14-1.18,20.07-1.18,10.43-.59,12.6.2,12,6.1,14.17,8.46,2.75,3.28,2.1,4.27a2,2,0,0,1,.33,1.7,1.77,1.77,0,0,1-2.17.85s.17,1-1.52,1a4.24,4.24,0,0,1-3.3-1s.24.39-.44.94c-1,.78-4.55,0-6.45-.59s-6.53-.71-7.51-.91-3.4,1.25-6.81,1.45a44.13,44.13,0,0,1-16.22-3c-5.24-2.23-17.36-2-17.36-2s0-8.88,1-10.12S715.2,1343.69,721.17,1344Z"/><path class="cls-79" d="M632.27,1221.49c3,13.68-8.12,80.6-3,92s86.79,30,86.79,30l-2.21,10.74s-72.41,3.46-97.27-3.58c-26.66-7.54-26.88-17.86-28.31-36.47-1.65-21.49,6-85.45,9.59-95.22C606.37,1195.59,627.86,1201.65,632.27,1221.49Z"/><path class="cls-78" d="M726.16,1360.46H875.93a1.63,1.63,0,0,0,1.54-1.12l37-113.57a1.63,1.63,0,0,0-1.55-2.13H765.7a5.18,5.18,0,0,0-4.92,3.57l-36.16,111.12A1.62,1.62,0,0,0,726.16,1360.46Z"/><rect class="cls-78" x="628.6" y="1352.51" width="146.29" height="5.37" rx="1.94" transform="translate(1403.49 2710.39) rotate(180)"/><path class="cls-73" d="M628.6,1355.08H772.54a2.36,2.36,0,0,1,2.36,2.36v3a0,0,0,0,1,0,0H628.6a0,0,0,0,1,0,0v-5.37A0,0,0,0,1,628.6,1355.08Z" transform="translate(1403.49 2715.54) rotate(180)"/><path class="cls-32" d="M727,1360.46H874.86a7.36,7.36,0,0,0,7-5.08l34.82-107a3.63,3.63,0,0,0-3.44-4.75H770.17a7.06,7.06,0,0,0-6.72,4.89Z"/><path class="cls-18" d="M815.52,1301.92c0,5.47,6.48,9.91,14.47,9.91s14.46-4.44,14.46-9.91S838,1292,830,1292,815.52,1296.44,815.52,1301.92Z"/><path class="cls-73" d="M814.38,1624.68l-22.86-.63a7.67,7.67,0,0,1-5.31-2.35l-9.05-9.44-.31,11.38-3.43-.09-2.77-12.94a10.83,10.83,0,0,1,1.58-8.3l1.82-2.72a1.35,1.35,0,0,1,2-.28l12.88,10.94a17.26,17.26,0,0,0,8.72,3.94l2.71.4a24.27,24.27,0,0,1,5.67,1.53l3.45,1.39a9.2,9.2,0,0,1,1.6,1.13,12.57,12.57,0,0,1,2.57,2.92l1.31,2.07A.68.68,0,0,1,814.38,1624.68Z"/><path class="cls-73" d="M878.84,1624.68l-22.86-.63a7.67,7.67,0,0,1-5.3-2.35l-9-9.44-.31,11.38-3.43-.09-2.77-12.94a10.83,10.83,0,0,1,1.58-8.3l1.81-2.72a1.36,1.36,0,0,1,2-.28l12.87,10.94a17.34,17.34,0,0,0,8.72,3.94l2.72.4a24.27,24.27,0,0,1,5.67,1.53l3.45,1.39a9.2,9.2,0,0,1,1.6,1.13,12.57,12.57,0,0,1,2.57,2.92l1.31,2.07A.68.68,0,0,1,878.84,1624.68Z"/><path class="cls-84" d="M1090.82,1512.29h555.54v13.16h-7.59a37.66,37.66,0,0,0-37.66,37.66v27.47a37.66,37.66,0,0,0,37.66,37.66h7.59v13.16H1090.82a47.31,47.31,0,0,1-47.31-47.3v-34.51A47.31,47.31,0,0,1,1090.82,1512.29Z"/><path class="cls-85" d="M1315.92,1525.48h320.8c-14.33,5.72-29,19.61-29,35.88v28.21c0,21.37,13.41,38.68,29,38.68h-320.8a37.81,37.81,0,0,1-38-37.65v-27.47A37.82,37.82,0,0,1,1315.92,1525.48Z"/><path class="cls-86" d="M1607.73,1574.84v14.73c0,21.37,13.41,38.68,29,38.68h-320.8a37.81,37.81,0,0,1-38-37.65v-15.76Z"/><path class="cls-36" d="M1311.48,1512.31h334.88v13.19H1315.92a37.82,37.82,0,0,0-38,37.66v27.46a37.82,37.82,0,0,0,38,37.66h330.44v13.15H1311.48a47.51,47.51,0,0,1-47.71-47.31v-34.51A47.51,47.51,0,0,1,1311.48,1512.31Z"/><path class="cls-87" d="M1429.88,1620.47s-11.32-2.6-11.32-11.51v-34.12h31.72v33c0,10,10.58,12.61,10.58,12.61s-16.76,1-24.55-7.93C1436.31,1612.53,1433,1614.54,1429.88,1620.47Z"/><path class="cls-88" d="M1162.21,1406.07h455.84v10.79h-6.23a30.91,30.91,0,0,0-30.9,30.91v22.54a30.9,30.9,0,0,0,30.9,30.9h6.23V1512H1162.21a38.82,38.82,0,0,1-38.82-38.82v-28.31A38.81,38.81,0,0,1,1162.21,1406.07Z"/><path class="cls-85" d="M1346.91,1416.89h263.24c-11.77,4.69-23.79,16.09-23.79,29.44v23.15c0,17.53,11,31.74,23.79,31.74H1346.91a31,31,0,0,1-31.16-30.9v-22.53A31,31,0,0,1,1346.91,1416.89Z"/><path class="cls-86" d="M1586.36,1457.39v12.09c0,17.53,11,31.74,23.79,31.74H1346.91a31,31,0,0,1-31.16-30.9v-12.93Z"/><path class="cls-89" d="M1343.27,1406.08h274.78v10.83H1346.91a31,31,0,0,0-31.16,30.9v22.53a31,31,0,0,0,31.16,30.9h271.14V1512H1343.27a39,39,0,0,1-39.15-38.82V1444.9A39,39,0,0,1,1343.27,1406.08Z"/><path class="cls-20" d="M1516.33,1571.66l24.53-12.09a9.49,9.49,0,0,1,12.67,4.31l25.09,50.92a9.5,9.5,0,0,1-4.3,12.68l-24.53,12.08a9.5,9.5,0,0,1-12.68-4.31L1512,1584.33A9.49,9.49,0,0,1,1516.33,1571.66Z"/><rect class="cls-90" x="1491.51" y="1363.31" width="15.42" height="215.59" transform="translate(-495.73 813.85) rotate(-26.22)"/><rect class="cls-36" x="1477.67" y="1370.13" width="15.42" height="215.59" transform="translate(-500.17 808.44) rotate(-26.22)"/><rect class="cls-91" x="1463.83" y="1376.94" width="15.42" height="215.59" transform="translate(-504.6 803.03) rotate(-26.22)"/><rect class="cls-8" x="1510.05" y="1570.64" width="46.44" height="9.33" transform="translate(3604.92 2310.69) rotate(153.77)"/><path class="cls-92" d="M1416.87,1391.56l2.4-47.46,39.11,27S1446.93,1390.19,1416.87,1391.56Z"/><polygon class="cls-49" points="1430.38 1351.77 1419.27 1344.1 1418.58 1357.58 1430.38 1351.77"/><path class="cls-49" d="M1212,1311.05c-6.61-2-36.83-13.44-34.63-20.9,4-13.48,46.8-65.84,46.8-65.84,27-65,62.93-64.25,62.93-64.25,11.53,9,9.78,36.71-10.48,68.55Z"/><path class="cls-49" d="M1153.86,1567.76l.89,29.76s-8.2,5.79-16.09,1.26L1140,1572S1154.26,1567.12,1153.86,1567.76Z"/><path class="cls-49" d="M1141.21,1584s1.27,8.08-3.2,10.11-8.67.65-15.28-1.5c-8.55-2.78-24.27,7-7,9.07,2.56.3,16.78,1.67,24.32-2.55,3.67-2,4.31-8.41,3.67-10.34Z"/><path class="cls-49" d="M1219.5,1571.3l-.8,29.76s-8.52,5.32-16.14.35l2.85-26.67S1219.94,1570.68,1219.5,1571.3Z"/><path class="cls-49" d="M1206,1586.79s.81,8.14-3.77,9.91-8.69.16-15.17-2.36c-8.38-3.27-24.63,5.64-7.47,8.66,2.54.44,16.66,2.61,24.42-1.17,3.78-1.84,4.78-8.15,4.26-10.12Z"/><path class="cls-18" d="M1287,1156.71c-35,26.53-39,113.1-48.94,175.72-.19,1.2-.44,9.93.16,12,2.81,9.83,26,19,65.21,18.43,35-.51,64.38-9.18,71.6-20.67a.61.61,0,0,1,.07-.1c.16-.26.31-.53.44-.79a18.28,18.28,0,0,0,1.9-10.2c-1.88-24.06-1.75-47.09-7.09-67.16-17.45-92.32-32.88-103.76-34.24-103.49-5.82-3.2-18.37-8.89-28.71-7.28C1295.58,1155.15,1288.3,1155.72,1287,1156.71Z"/><path class="cls-49" d="M1289.21,1156.18c-1.39,1.21-6.75,3.72-10.65,9.76-8.26,11.59-22.69,44.83-14.93,95.78,8.45,55.53-5.68,86.84-3.88,116.94.34,5.83-1.11,26.69-15,19.45-8.22-4.29-18.44-9.9-19.9-19.45.73-4.49,14.71-48,9.42-83-6.1-40.28,1.67-83.28,17.26-109.52,7.58-12.76,23.17-23.58,27.11-26.23a81.23,81.23,0,0,1,11.87-6.11A5.19,5.19,0,0,0,1289.21,1156.18Z"/><path class="cls-93" d="M1342.62,1350.7c-9-19.57-190.55-16.15-214-6.37-6.93,2.89-14.66,14.44-15.66,24.64-2,9.31-2.62,21.1-1.49,33.78l2.21,24.79c0,.14,0,.27,0,.41,4.5,53.23,12.71,117.81,20.27,147.89,3.73,2.74,14.56.8,22-1,4.35-1,7.59-5.69,8-11.56,2.16-29.76,5.74-82.72.64-160.51,36.23,2.9,86.78,3.14,103.52,4,32.68,1.61,73.59-21.53,75-38.22Z"/><path class="cls-20" d="M1396.62,1350.7c-8.26-19.56-175.45-15.91-197.11-6.1-5.72,2.59-13.83,10.29-17.12,23.3-3.14,9.79-4.63,23.45-3.69,38.42l1.56,24.84,0,.41c3.09,53.33,9.61,118.1,16.37,148.38,3.65,2.83,14.54,1.17,22-.41,4.38-.93,7.73-5.49,8.31-11.35,3-30,8.21-81.88,5-161.18H1359.4c30.4,0,38-21.51,37.61-38.48Z"/><path class="cls-49" d="M1324,1307.82c-4.54,15.21-20.82,75,.62,83.6,25.65,10.31,89.43-1,79.33-28-6.84-18.28-2.93-45.38-2.93-45.38s2.73-51.45-3.88-92.68c-5.29-33-36.3-63.61-76.19-72.3-4.24,1.28-1.77,3.66.68,5.27a8,8,0,0,1,3.31,5c3.68,15.08-6.61,28.87-1.86,47.43C1332.7,1248.29,1331.22,1271.26,1324,1307.82Z"/><path class="cls-94" d="M1401.44,1311.48a17,17,0,0,1-6.78,12.91c-3.27,2.56-7,5.33-9.19,6.75-12.55,8-24.42,11.35-39.7,14.54-9.52,2-17.73.53-27.47,1.58,2.45-11.65,5-26.69,6.34-35.17,20.63-13.48,44.69-14,46.27-16.92,5.47-10-14-44.35-21.94-61.08-21.43-45,3.09-57.57,10.8-64.07,20.06,14,34,34.19,37.39,55.31C1402.28,1257.28,1401.84,1295.58,1401.44,1311.48Z"/><path class="cls-49" d="M1274.12,1120.7s-5.73-3.92-7.86-8.61a12.89,12.89,0,0,1-.15-9.41s-7-4.2-3-9.53,27.77-4.92,27.77-4.92Z"/><path class="cls-79" d="M1321.48,1115.49s-1.91,35.54-2.26,45.76a9.55,9.55,0,0,1-4.76,8.53c-2.84,1.66-6.61,3.43-15,3.63-4.49.11-9.92.34-15.78-3.91a2,2,0,0,1-.55-2.48c8.22-16.67,5.81-37.29,5.81-37.29l32.63-13.65"/><path class="cls-81" d="M1283.27,1166.84a97.87,97.87,0,0,0,5.92-29.78s28.74-4.19,28.54-3.51C1317.05,1146.17,1309.83,1158.57,1283.27,1166.84Z"/><path class="cls-79" d="M1273,1100.53c-4.92,40,6.1,54.56,15.66,55.49,26,2.56,36.76-16.43,39.59-33.66s-10.6-35.15-23.45-37.27S1275.17,1083.2,1273,1100.53Z"/><path class="cls-49" d="M1261.31,1078.74c3.38-4.4,8-10.39,21.58-1,3.28,2.27,6.9-3.43,16.84-4.19,15.36-1.18,15.81,7.56,25.23,9.54,6.41,1.35,6.16,6.61,13.08,15.34,4.46,5.64-2,11.09,1.47,16.58,4.09,6.43-8.32,9.43-8,14.25.88,11.52-8.64,16.94-11.32,21.62-.8,1.39-2-4.42-2.37-6-1.79-7,2-14.17,1.91-14.46,3-.82,10.17-4.26,6.55-15.5-3.89-12.12-10.17,2.45-10.17,2.45s-2.43-5.72-1.83-9.73c1.22-8.11-7.4-10.24-18.33-7.76-4.73,1.08-6.83-4.8-10.61-3.52-6.23,2.12-12.41-.93-16.25,2.34-2,1.75-5.42-1.55-7.81-2.38C1253,1093.44,1255.63,1086.14,1261.31,1078.74Z"/><path class="cls-49" d="M1273.48,1135s4-4,7.54-4.36,13.08-3.18,18.64,2,7.53,3.17,9.12,0,4.36-21.42,6.74-23.4.79,15.07.79,15.07a30.91,30.91,0,0,0-2.18,7.14c-.39,3.17-1.39,5.75-1,9.12s-.4,8.53-2.18,10.31-6.94,5.75-15.67,5.36-11.5-.4-15.07-5S1273.48,1141.77,1273.48,1135Z"/><path class="cls-79" d="M1284.39,1325.84s-16.26-1.19-20.23-1.19-10.51-.59-12.69.2-12.1,6.15-14.28,8.53-2.78,3.3-2.12,4.29a2,2,0,0,0-.33,1.72,1.79,1.79,0,0,0,2.19.86s-.18,1,1.53,1a4.26,4.26,0,0,0,3.32-1s-.24.4.45.94c1,.79,4.58,0,6.5-.59s6.57-.71,7.56-.91,3.42,1.25,6.86,1.45a44.4,44.4,0,0,0,16.35-3c5.28-2.25,16.78-2.32,16.78-2.32s.73-8.66-.33-9.91S1290.4,1325.51,1284.39,1325.84Z"/><path class="cls-49" d="M1366,1168.84c-6.17-3-13.58-6.45-21.13-5.2-21.43,3.55-19.88,25.67-7.64,44.11,33,49.66,45.15,89.82,43.68,96-1.84,7.73,18.29,11,22.26,9.64s19.63-5.53,19.66-13.93c.07-16.41-5-43.75-8.74-57.66a137.23,137.23,0,0,0-27.93-53.84C1380.65,1181.49,1374.37,1172.91,1366,1168.84Z"/><path class="cls-49" d="M1283.41,1342.94c-3-.87-5.17-3-5-5.64.32-5.47,4.6-17.32,8.43-18,13.37-2.5,70.23-17.16,107.17-17.07.38,3.37,28.35-6.89,28.35-6.89,6.35,44.42-15.36,45.37-46.1,50.66C1376.24,1346,1314.52,1351.86,1283.41,1342.94Z"/><path class="cls-95" d="M1267,1349.64H1123.24a1.55,1.55,0,0,1-1.48-1.08l-35.48-109a1.55,1.55,0,0,1,1.48-2H1229a4.94,4.94,0,0,1,4.71,3.42l34.71,106.65A1.55,1.55,0,0,1,1267,1349.64Z"/><rect class="cls-95" x="1220.2" y="1342.01" width="140.4" height="5.16" rx="1.86"/><path class="cls-32" d="M1266.15,1349.64H1124.26a7,7,0,0,1-6.7-4.87l-33.42-102.68a3.48,3.48,0,0,1,3.3-4.56h137.29a6.79,6.79,0,0,1,6.46,4.69Z"/><path class="cls-32" d="M1220.2,1344.48h140.4a0,0,0,0,1,0,0v2.89a2.26,2.26,0,0,1-2.26,2.26H1220.2a0,0,0,0,1,0,0v-5.16A0,0,0,0,1,1220.2,1344.48Z"/><path class="cls-18" d="M1189.63,1293.46c0,5.25-6.21,9.51-13.88,9.51s-13.88-4.26-13.88-9.51,6.22-9.52,13.88-9.52S1189.63,1288.2,1189.63,1293.46Z"/><path class="cls-79" d="M1568.53,1029.15l1.28-3.65a7.54,7.54,0,0,0-1.09-6.83l0,0a19.87,19.87,0,0,1-2.79-5.89,17.75,17.75,0,0,1-.91-4.28.06.06,0,0,1,0,0,36.58,36.58,0,0,1-.81-9.36c0-.4.19-2.07.92-2.18.57-.09,1,.64,1.24,1.24-.1-1.33-.13-2.34-.13-2.72s.08-2.44.9-2.61,1.41,1.15,1.76,1.85l.1.26a16.9,16.9,0,0,1-.25-2.75c0-.59.24-2.2,1.27-2.46s1.73.86,2.2,1.73a11.66,11.66,0,0,1,.64,2c0-.81.12-1.85.85-2,1-.26,1.93,1.46,2.4,2.33a57.44,57.44,0,0,1,2.49,6.86c.35,1.3,1.6,6,2.26,8.44l.48-2.06,1-2.17c.47-1.57,2.31-3.1,2.51-1.92l.72,5.72a9.54,9.54,0,0,1,0,2.72l-1.16,8.46a18,18,0,0,1-2.33,6.93,53.67,53.67,0,0,0-2.39,5.46l-2.8,6.52S1573.75,1037,1568.53,1029.15Z"/><path class="cls-96" d="M1640.71,1334c-1.09,21.38-2.63,48.13,0,71.35A111.66,111.66,0,0,0,1640,1419s13.63,157,19.83,187.21c6.56,4.8,15.35-2.26,15.35-2.26,5.39-30,16.55-107.13,15.53-160,0-.14,0-.27,0-.41l-.33-24.5a115.19,115.19,0,0,0-.78-11.83C1696.62,1394.37,1641.42,1320,1640.71,1334Z"/><path class="cls-94" d="M1636.82,1186.44c-5.4,14.57-5.18,32.59-5.94,47.49-1.16,22.74,1.73,128.91,4.5,153.62-.51,4.62,8.33,172,14.93,204.17,8.64,7.55,30.76-.54,30.76-.54,11.87-31.66,10.2-196.71,9.72-200.75,7.41-13.67,11.72-112.69,19.42-141.75.64-2.4.83-52.19,1.44-54.68C1680,1187.11,1667.75,1195.73,1636.82,1186.44Z"/><path class="cls-49" d="M1656.18,997c-6,8.44-13.34,19.87-16.06,23.14s-7.08,10.62-4.36,19.06,20.7,16.06,32.13,12.52,27.5-11.43,28.59-30.49-.82-56.09-.82-56.09l-12.79-8.44S1662.17,988.54,1656.18,997Z"/><path class="cls-95" d="M1569.45,1026.13c-.62.84,10.93,6.73,10.72,7.08-7.79,12.85-13,50.73-14.3,61.52a1.46,1.46,0,0,0,1.71,1.72c12.45-2.9,72.27-75.12,95.23-82.62,5.35-1.75-9.42,47.14-10.1,48.16-7,10.39-25.26,33.47-36.11,40-45.94,27.65-61.93,25.62-72.67,19.86-12-6.45-5.76-27.88-2.54-35.55C1546.82,1073.4,1560.68,1037.59,1569.45,1026.13Z"/><polygon class="cls-96" points="1675.23 1600.02 1676.2 1617.08 1644.01 1630.07 1660.11 1601.47 1675.23 1600.02"/><path class="cls-49" d="M1624.47,1641.43l29.85-.83a10,10,0,0,0,6.92-3.06l11.82-12.33.41,14.86,4.48-.12,3.62-16.89a14.17,14.17,0,0,0-2.07-10.84l-2.37-3.55a1.77,1.77,0,0,0-2.63-.37l-16.81,14.28a22.61,22.61,0,0,1-11.39,5.15l-3.54.52a32.73,32.73,0,0,0-7.41,2l-4.51,1.82a13.64,13.64,0,0,0-2.08,1.48,16,16,0,0,0-3.35,3.81l-1.72,2.7A.9.9,0,0,0,1624.47,1641.43Z"/><path class="cls-96" d="M1775,1400.92a118.56,118.56,0,0,1,5.82,16.77l6.58,24.69c0,.14.07.27.1.41,10.76,53.51,23.23,124.31,26.33,157.37,0,0-10.89,5.52-18.49,2.29-13.74-29-63.5-172.39-63.5-172.39a108.59,108.59,0,0,1-3.88-29.14Z"/><path class="cls-96" d="M1811.3,1592.77l3.75,20.78-20.5,23.79-23.8.36,14.88-12a8.81,8.81,0,0,0,3.15-5.37l4-23.37Z"/><path class="cls-49" d="M1801.71,1640.38l3.25-1.4a10.46,10.46,0,0,0,5.58-5.7l6.77-16.69,6.2,14.4,4.34-1.87-3-18a15,15,0,0,0-6.26-9.81l-3.71-2.55a1.87,1.87,0,0,0-2.72.67l-3.66,12.45c-2.09,4-5.75,12.38-9.62,14.62l-8.29,3.48c-3.83,1-7.85-2.32-10.34-2l-8.74,4.81c-4.81,3.21-5.88,6.24-6.06,8.65Z"/><path class="cls-61" d="M1766.55,1179.81c1.11,2.54,22.9,46.59,9.25,100.56-1.46,57.2,1.21,112.06,2.12,115.49,0,0,34,136.53,34.38,184.56,0,0-18.89,15.11-29.68,7.55-21-33.28-58.11-177.36-58.11-177.36-3-11.09-41.15-218.84-41-228.1Z"/><path class="cls-95" d="M1775.7,1198.32s-97.46,28.38-144,6.79c0,0,12.45-81,10.51-93.36s-16.28-14.39-15.94-27.7c.49-19.4,18.25-47.07,32.67-66.68,10.93-10.26,19.09-11.68,20-12.45,7.83-2.29,16.55-1.89,24.11-1.35,21,2.7,26.24,5.37,35.42,17.78,14.71,29.09,3,74.28,7.26,119.61C1757.92,1159,1775.7,1198.32,1775.7,1198.32Z"/><path class="cls-95" d="M1715.11,1019.75s8.23-7.31,20.09,1.59,36,58.49,46.55,66.51c9.56,7.29,57-28.95,65.58-35.65a2.19,2.19,0,0,1,2.69,0l7.8,6.08a1.87,1.87,0,0,1,.34,2.62c-7.29,9.62-48.59,62.77-73.53,65.79-19.3,2.35-24.51-9.86-37.42-24.82s-36-53.18-39.6-63.58S1715.11,1019.75,1715.11,1019.75Z"/><path class="cls-96" d="M1857.52,1059.94l4.34-3.4c2.44-1.62,4.34-1.91,5.33-1.8a69.61,69.61,0,0,1,7.06,1.13c3.34.8,12.83-2,14-2.5,1.38-.57,6.9-2.46,5.38-4.21,2-1,2-2.56,1.26-3,1-.58,2-1.07,1.74-2.48s-3.24-1-3.24-1,2.2-2.22-4.31-2.3c-5.83-.07-12.87.57-12.87.57l1.85-1.49c1.4-.85,2.41-3,1.22-2.93l-5.72.79a9.63,9.63,0,0,0-2.63.74l-9.72,4.3-.87.54L1847.75,1053S1848.83,1057.48,1857.52,1059.94Z"/><path class="cls-96" d="M1665.55,952.58s-3.38,18-5.83,21.8a27.66,27.66,0,0,0-3.89,14.89c.06,5,.94,8.21,8.28,8.28,8.18.07,6.5-.3,6.5-.3s.55,9.8-.81,14.16c-1,3.21-1,3.21-4,8.56-1.21,2.08-1.83,5.06-.22,6.85a12.67,12.67,0,0,0,11.81,4.33c9-1.36,20.42-10.07,20.42-10.07l-2.91-56.5s-15.79-15.8-19.06-14.71S1665.55,952.58,1665.55,952.58Z"/><path class="cls-81" d="M1685.78,992.31s-5.6,9.92-15.31,15.72c0,0-.07-4.59,0-10.72C1670.48,997.31,1676,997.17,1685.78,992.31Z"/><path class="cls-49" d="M1680.69,995.89s-4.36,16.7-2.91,24.68,1.46,18.88,12.35,25.42,31.22,9.44,42.84.72,15.24-28.31,5.08-37.75-19.61-8.72-20.33-20.33,6.53-18.88-.73-30.5-13.07-12.34-21-13.07-8.72-.09-13.07-3.9-12.8-6.54-18.79-4.36-10.35,6-10.35,7.08-1.36,7.9,10.89,12c0,0,3.41,6.54,15.52,6.81a10,10,0,0,1,8.31,12.25C1687,980.5,1681.78,991.94,1680.69,995.89Z"/><path class="cls-18" d="M1956,852.4q0-43.67,0-87.34c0-.55.11-.73.71-.72,4.16,0,8.33,0,12.49,0,.55,0,.69.12.69.69q0,43.34,0,86.67c0,.24,0,.48,0,.72l-.33,0h-13.16C1956.26,852.44,1956.13,852.41,1956,852.4Z"/><path class="cls-18" d="M1830,859.59V785.07c0-.73,0-.73.74-.73,4.16,0,8.33,0,12.49,0,.52,0,.63.14.63.64q0,37.1,0,74.19v.44c-.12,0-.25,0-.38,0h-13C1830.25,859.63,1830.11,859.6,1830,859.59Z"/><path class="cls-18" d="M1938,861.66c0-.2,0-.4,0-.61q0-35.17,0-70.36c0-.57.13-.69.69-.69q6.33,0,12.66,0c.39,0,.53.08.53.51q0,35.49,0,71s0,.11,0,.16h0l-.72,0h-13A.07.07,0,0,0,1938,861.66Z"/><path class="cls-18" d="M1848,864c0-.22,0-.44,0-.66q0-33.12,0-66.26c0-.58.16-.68.69-.68,4.2,0,8.4,0,12.6,0,.45,0,.58.09.58.56q0,33.24,0,66.49a5.28,5.28,0,0,1,0,.55l-6,0Z"/><path class="cls-18" d="M1866,869.43q0-28.59,0-57.2c0-.37,0-.54.49-.53,4.3,0,8.59,0,12.88,0,.38,0,.49.08.49.48q0,28.62,0,57.25c-1.53,0-3,0-4.57,0Z"/><path class="cls-18" d="M1920,873.94c0-.3,0-.59,0-.89V825c0-.82-.09-.73.75-.73,4.16,0,8.33,0,12.49,0,.48,0,.65.09.65.62q0,24.54,0,49.08a.08.08,0,0,0-.09,0l-13.71,0,0,0Z"/><path class="cls-18" d="M1812,873.94q0-17.07,0-34.14c0-5,0-10,0-15,0-.45.11-.58.58-.58q6.35,0,12.7,0c.51,0,.61.15.61.62q0,24.52,0,49.07h0l0,0h-13.71A.15.15,0,0,0,1812,873.94Z"/><path class="cls-19" d="M1956,852.4c.12,0,.25,0,.38,0h13.16l.33,0a.2.2,0,0,1,0,.22c-.16.24-.08.5-.08.75q0,23.73,0,47.44c0,.33,0,.66,0,1-.13.14-.3.11-.46.11-4.28,0-8.55,0-12.82,0-.4,0-.55-.11-.55-.53Q1956,876.9,1956,852.4Z"/><path class="cls-18" d="M1902,875.59c0-.2,0-.4,0-.61q0-22.77,0-45.54c0-.54.11-.7.68-.7,4.22,0,8.44,0,12.66,0,.4,0,.56,0,.56.52q0,23,0,45.93c0,.13,0,.26,0,.39a.07.07,0,0,0-.08,0l-11.27,0-2.48,0Z"/><path class="cls-19" d="M1830,859.59c.15,0,.29,0,.44,0h13c.13,0,.26,0,.38,0a.85.85,0,0,1,.09.58v41c0,.74,0,.75-.74.75-4.2,0-8.4,0-12.6,0-.43,0-.61-.09-.61-.57Q1830,880.48,1830,859.59Z"/><path class="cls-19" d="M1938.09,861.69h13l.72,0c0,.29,0,.59,0,.88v34.81c0,1.49,0,3,0,4.48-.15.15-.34.1-.52.1h-12.71a.81.81,0,0,1-.48-.08Z"/><path class="cls-18" d="M1775.94,879.8V850.13c0-3,0-5.93,0-8.9,0-.42.1-.55.54-.55q6.38,0,12.76,0c.53,0,.59.17.59.62q0,18.94,0,37.9c0,.2,0,.41,0,.61a3.41,3.41,0,0,1-.43.06H1776Z"/><path class="cls-18" d="M1884,879.83c0-2.72,0-5.45,0-8.17q0-15.15,0-30.28c0-.52.08-.71.67-.71,4.24,0,8.47,0,12.71,0,.38,0,.49.08.49.48q0,19.2,0,38.4c0,.11,0,.22,0,.33h-13.13Z"/><path class="cls-19" d="M1848,864l7.77,0,6,0c.2.15.13.37.13.56q0,18.34,0,36.69c0,.54-.18.69-.7.69q-6.33,0-12.66,0c-.52,0-.7-.15-.7-.69q0-18.35,0-36.69C1847.88,864.38,1847.83,864.16,1848,864Z"/><path class="cls-18" d="M1793.93,882.13V855.28c0-2.51,0-5,0-7.52,0-.53.17-.62.65-.62q6.33,0,12.65,0c.5,0,.61.13.61.61q0,16.86,0,33.7c0,.22,0,.44,0,.66a1,1,0,0,1-.54.08h-12.82A5,5,0,0,1,1793.93,882.13Z"/><path class="cls-19" d="M1866,869.43l9.27,0c1.52,0,3,0,4.57,0,.15.18.1.39.1.59v31.21c0,.69,0,.71-.72.71h-12.6c-.7,0-.72,0-.72-.71q0-15.6,0-31.21C1865.9,869.82,1865.84,869.61,1866,869.43Z"/><path class="cls-18" d="M1757.94,885.69v-28c0-.85-.1-.73.74-.73,4.18,0,8.36,0,12.54,0,.5,0,.59.15.59.62q0,14.06,0,28.11c-.2,0-.4,0-.6,0h-7.29Z"/><path class="cls-19" d="M1812.05,874h13.71c0,3.51,0,7,0,10.54q0,8.65,0,17.33c-.17.16-.38.1-.58.1q-6.33,0-12.66,0c-.19,0-.41.08-.56-.13.15-.21.08-.46.08-.69Q1812.05,887.53,1812.05,874Z"/><path class="cls-19" d="M1920.07,874l13.71,0v27.87a1,1,0,0,1-.64.08q-6.2,0-12.4,0c-.22,0-.48.09-.67-.12,0-.19,0-.37,0-.55V874.51C1920.05,874.33,1920.06,874.14,1920.07,874Z"/><path class="cls-19" d="M1902,875.58l2.48,0,11.27,0v25.49c0,.24-.07.48.09.7-.15.19-.37.12-.56.12q-6.35,0-12.68,0c-.19,0-.41.07-.56-.12s0-.48,0-.72c0-5.23,0-10.46,0-15.68C1902,882.13,1902,878.85,1902,875.58Z"/><path class="cls-19" d="M1884,879.83l.71,0h13.13c0,.22,0,.44,0,.66v20.66c0,.72,0,.73-.72.73h-12.48c-.21,0-.44.08-.62-.11,0-.28,0-.55,0-.83,0-6.74,0-13.48,0-20.22,0-.24.07-.48-.08-.7A.23.23,0,0,1,1884,879.83Z"/><path class="cls-19" d="M1776,879.87h13.37a3.41,3.41,0,0,0,.43-.06v.24c-.16.17-.1.38-.1.58v21.23a1.11,1.11,0,0,1-.65.07q-6.19,0-12.39,0c-.23,0-.48.09-.68-.12,0-.11,0-.22,0-.33V880.36C1776,880.2,1776,880,1776,879.87Z"/><path class="cls-19" d="M1793.93,882.13a5,5,0,0,0,.54.06h12.82a1,1,0,0,0,.54-.08v.29a1.2,1.2,0,0,0-.07.65v17.66c0,.36,0,.73,0,1.1-.14.17-.33.12-.51.12H1794.5a.76.76,0,0,1-.47-.08V883c0-.2,0-.41-.11-.58A1.93,1.93,0,0,1,1793.93,882.13Z"/><path class="cls-19" d="M1757.94,885.69l6,0h7.29c.2,0,.4,0,.6,0,0,.09,0,.18,0,.27a.87.87,0,0,0-.07.53v14.78a.92.92,0,0,0,.07.54c-.14.23-.36.14-.55.14q-6.35,0-12.67,0c-.2,0-.41.07-.58-.11q0-7.62,0-15.25a1,1,0,0,0-.08-.64A.23.23,0,0,1,1757.94,885.69Z"/><path class="cls-18" d="M1969.82,901.83c0-.34,0-.67,0-1q0-23.72,0-47.44c0-.25-.08-.51.08-.75v48.5C1969.92,901.37,1970,901.62,1969.82,901.83Z"/><path class="cls-18" d="M1938.09,861.69v40.17c-.17-.17-.11-.39-.11-.58V862.16c0-.17,0-.33,0-.5A.07.07,0,0,1,1938.09,861.69Z"/><path class="cls-18" d="M1951.8,901.83c0-1.5,0-3,0-4.48V862.54c0-.29,0-.59,0-.88h0c0,.24.05.48.05.71V901.2C1951.9,901.41,1952,901.64,1951.8,901.83Z"/><path class="cls-18" d="M1812.05,874q0,13.56,0,27.13c0,.23.07.48-.08.69q0-8.32,0-16.66,0-5.6,0-11.2A.15.15,0,0,1,1812.05,874Z"/><path class="cls-18" d="M1825.76,901.83q0-8.67,0-17.33c0-3.52,0-7,0-10.54l0,0h0c0,.23,0,.47,0,.71q0,13.25,0,26.5C1825.85,901.37,1825.94,901.62,1825.76,901.83Z"/><path class="cls-18" d="M1920.07,874c0,.18,0,.37,0,.55v26.75c0,.18,0,.36,0,.55-.14-.14-.09-.31-.09-.47v-27c0-.13,0-.25,0-.38h0Z"/><path class="cls-18" d="M1933.78,901.85V874a.08.08,0,0,1,.09,0c0,.23,0,.47,0,.71v26.46C1933.89,901.36,1934,901.63,1933.78,901.85Z"/><path class="cls-18" d="M1902,875.58c0,3.27,0,6.55,0,9.83,0,5.22,0,10.45,0,15.68,0,.24,0,.48,0,.72-.16-.18-.09-.39-.09-.58v-25c0-.2,0-.4,0-.6Z"/><path class="cls-18" d="M1915.85,901.81c-.16-.22-.09-.46-.09-.7V875.62a.07.07,0,0,1,.08,0c0,3.26,0,6.51,0,9.77Q1915.86,893.58,1915.85,901.81Z"/><path class="cls-18" d="M1776,879.87c0,.16,0,.33,0,.49v21.12c0,.11,0,.22,0,.33-.14-.14-.08-.32-.08-.47V880.07c0-.09,0-.18,0-.27Z"/><path class="cls-18" d="M1789.72,901.86V880.63c0-.2-.06-.41.1-.58q0,10.62,0,21.23C1789.82,901.48,1789.88,901.69,1789.72,901.86Z"/><path class="cls-18" d="M1883.93,880.07c.15.22.08.46.08.7,0,6.74,0,13.48,0,20.22,0,.28,0,.55,0,.83-.17-.17-.1-.39-.1-.58Z"/><path class="cls-18" d="M1793.92,882.37c.16.17.11.38.11.58v18.91c-.17-.17-.11-.39-.11-.58Z"/><path class="cls-18" d="M1807.74,901.81c0-.37,0-.74,0-1.1V883.05a1.2,1.2,0,0,1,.07-.65q0,9.39,0,18.77C1807.82,901.38,1807.9,901.61,1807.74,901.81Z"/><path class="cls-18" d="M1837.05,862.92a1.35,1.35,0,0,1,.1.82q0,9.68,0,19.36c-.21-.22-.12-.49-.12-.74Z"/><path class="cls-18" d="M1854.69,883.06a1.14,1.14,0,0,1-.09-.68V863.61a1.14,1.14,0,0,1,.09-.68Z"/></g></g></g></svg>