<svg xmlns="http://www.w3.org/2000/svg" viewBox="0 0 319.4 302.16"><defs><style>.cls-1{fill:#fff;}</style></defs><g id="Layer_2" data-name="Layer 2"><g id="Layer_1-2" data-name="Layer 1"><g id="Layer_2-2" data-name="Layer 2"><g id="Layer_1-2-2" data-name="Layer 1-2"><path class="cls-1" d="M207.53,39.36c0-10.23.06-19.95,0-29.66,0-3.78.87-6.95,4.42-8.79,3.77-1.94,6.91-.53,9.94,1.91q28,22.47,56.08,44.87c6.29,5,6.29,10.09.09,15.06q-27.87,22.34-55.78,44.66c-3.1,2.48-6.26,4.24-10.23,2.25s-4.57-5.47-4.52-9.47c.12-9.47,0-19,0-29h-3.76c-35.67,0-71.34-.07-107,0-32.43.09-58.19,21.59-64,53.45A61.29,61.29,0,0,0,37,160.15c1.79,4.18,2.43,8.35,1,12.72A16,16,0,0,1,23.61,183.7a15.8,15.8,0,0,1-15.27-9.43A93.74,93.74,0,0,1,0,134.73C.27,82.62,41.54,40.3,93.66,39.51c36.29-.54,72.59-.13,108.88-.15Z"/><path class="cls-1" d="M111.71,262.8v30.95a7.8,7.8,0,0,1-4.56,7.56c-3.28,1.63-6.27.8-9-1.41q-17.94-14.4-35.91-28.76L40.92,254.08c-5.68-4.56-5.73-9.79-.09-14.31Q69,217.2,97.14,194.63c3-2.4,6.06-4.06,9.91-2.22s4.75,5.33,4.7,9.36c-.12,9.58,0,19.16,0,29,1.51.07,2.72.18,3.93.18,35.55,0,71.1.07,106.65,0,32.64-.07,58.43-21.57,64.2-53.64A61.38,61.38,0,0,0,282,141.47c-2.58-6-2.21-11.72,1.84-16.91,7.53-9.66,22.15-7.61,27.27,3.81,6.83,15.24,9.66,31.32,7.65,47.81-4.76,38.9-25.58,65.91-62,80.63-11.22,4.54-23.06,6-35.15,6q-52.56-.1-105.14,0Z"/></g></g></g></g></svg>