<svg xmlns="http://www.w3.org/2000/svg" viewBox="0 0 30.02 36.72"><defs><style>.cls-1{fill:#fff;}</style></defs><g id="Layer_2" data-name="Layer 2"><g id="Layer_1-2" data-name="Layer 1"><g id="Layer_2-2" data-name="Layer 2"><g id="Layer_1-2-2" data-name="Layer 1-2"><path class="cls-1" d="M4.09.05A5.36,5.36,0,0,1,6.87,1.58q7.59,6.82,15.21,13.6a4,4,0,0,1,.1,6.27L6.31,35.63a3.82,3.82,0,0,1-5.39-.12,4.11,4.11,0,0,1-.69-1A3.44,3.44,0,0,1,0,33.27V3.45A3.32,3.32,0,0,1,3,.11.13.13,0,0,0,3.1.05Z"/><path class="cls-1" d="M27.06,0c.19.07.4.12.59.2A4,4,0,0,1,30,4.09V32.47a4.15,4.15,0,0,1-1.8,3.79c-2.19,1.38-4.73-.5-4.82-3.54V4.23a4.1,4.1,0,0,1,2-3.89,5.74,5.74,0,0,1,.9-.34Z"/></g></g></g></g></svg>