<svg xmlns="http://www.w3.org/2000/svg" viewBox="0 0 376.05 376.05"><defs><style>.cls-1{fill:#29a3dc;}.cls-2{fill:#fff;}</style></defs><g id="Layer_2" data-name="Layer 2"><g id="Layer_1-2" data-name="Layer 1"><circle class="cls-1" cx="188.03" cy="188.03" r="188.03"/><g id="Layer_2-2" data-name="Layer 2"><g id="Layer_1-2-2" data-name="Layer 1-2"><path class="cls-2" d="M176.7,188v61.91a16.79,16.79,0,0,1-12.61,16.74,19.66,19.66,0,0,1-4.89.59c-5.31.08-10.61,0-15.91,0-10.17,0-17.54-7.37-17.54-17.52V126.29c0-10.16,7.36-17.49,17.51-17.55h16.1c9.92.06,17.31,7.39,17.33,17.35Q176.75,157.07,176.7,188Z"/><path class="cls-2" d="M250.29,188v61.91a16.79,16.79,0,0,1-12.62,16.74,19.66,19.66,0,0,1-4.89.59c-5.3.08-10.61.05-15.91,0-10.15,0-17.49-7.38-17.51-17.54V126.28c0-10.16,7.35-17.49,17.51-17.52l15.91,0c10.16,0,17.49,7.36,17.49,17.53Q250.33,157.17,250.29,188Z"/></g></g></g></g></svg>