<svg xmlns="http://www.w3.org/2000/svg" viewBox="0 0 376.05 376.05"><defs><style>.cls-1{fill:#29a3dc;}.cls-2{fill:#fff;}</style></defs><g id="Layer_2" data-name="Layer 2"><g id="Layer_1-2" data-name="Layer 1"><circle class="cls-1" cx="188.03" cy="188.03" r="188.03"/><g id="Layer_2-2" data-name="Layer 2"><g id="Layer_1-2-2" data-name="Layer 1-2"><path class="cls-2" d="M144.77,259.88h-4.4c-.17-.45-.66-.38-1-.47A12.28,12.28,0,0,1,131,252a23.13,23.13,0,0,1-1.7-9.6q0-54.37,0-108.74a26.43,26.43,0,0,1,1-7.89c2-6.37,7.05-10,13.68-9.55a25.11,25.11,0,0,1,10.42,3.45L254,174.25a29,29,0,0,1,6.43,4.59c5.35,5.21,5.71,11.73.9,17.38a26.64,26.64,0,0,1-7.8,5.84c-28.1,15.41-56.14,30.91-84.33,46.18C161.28,252.52,154,258.05,144.77,259.88Z"/></g></g></g></g></svg>