<svg xmlns="http://www.w3.org/2000/svg" viewBox="0 0 29.95 36.72"><defs><style>.cls-1{fill:#fff;}</style></defs><g id="Layer_2" data-name="Layer 2"><g id="Layer_1-2" data-name="Layer 1"><g id="Layer_2-2" data-name="Layer 2"><g id="Layer_1-2-2" data-name="Layer 1-2"><path class="cls-1" d="M25.87,36.67a5.47,5.47,0,0,1-2.78-1.53Q15.5,28.3,7.89,21.54a4,4,0,0,1-1.28-4.66,4.11,4.11,0,0,1,1.18-1.61L23.65,1.09a3.82,3.82,0,0,1,5.39.1,3.61,3.61,0,0,1,.7,1A3.22,3.22,0,0,1,30,3.45V33.27a3.32,3.32,0,0,1-3,3.34l-.09.06Z"/><path class="cls-1" d="M2.91,36.72c-.2-.07-.4-.12-.6-.2A4,4,0,0,1,0,32.63V4.25A4.19,4.19,0,0,1,1.81.46C4-.92,6.55,1,6.63,4V32.49a4.11,4.11,0,0,1-2,3.89,6.94,6.94,0,0,1-.9.34Z"/></g></g></g></g></svg>