<svg xmlns="http://www.w3.org/2000/svg" viewBox="0 0 737.28 665.36"><defs><style>.cls-1{fill:#fff;}</style></defs><g id="Layer_2" data-name="Layer 2"><g id="Layer_1-2" data-name="Layer 1"><g id="Layer_2-2" data-name="Layer 2"><g id="Layer_1-2-2" data-name="Layer 1-2"><path class="cls-1" d="M737.28,512.36v14.37c-3.07,13.18-11.62,22.6-21,31.74-31.22,30.45-62.16,61.19-93.24,91.78a78.9,78.9,0,0,1-8.1,7.09c-20.07,14.91-49.46,8.29-61.28-13.73-9.18-17.1-6.16-35.77,8.27-50.65,10.12-10.44,20.31-20.82,30.74-31.5C487.36,545.4,403.19,493.93,338.35,410c-2.22,2.69-3.77,4.5-5.25,6.38-44.2,56.24-99.28,98-166.26,123.63-39.49,15.11-80.31,23.81-122.76,23.73-15.65,0-28.55-6-37.18-19.32C4,539.84,2.27,534.55,0,529.6V515.23c9.75-27.05,20.31-34.48,49.42-35.34,39.45-1.16,76.6-11.48,111.92-28.68,53-25.81,93.58-65.2,125.51-114.12,2.19-3.36,2.2-5.45,0-8.79-17.85-27.19-38.35-52.11-63.28-73.11-51.12-43.07-109.7-67.47-177-69.86a69.34,69.34,0,0,1-21-3.63C11,176.4,4,164.29,0,150.16V135.78A40.34,40.34,0,0,0,1.74,132c5.87-17.26,17.63-28,35.91-29.66,27.75-2.43,55,2.1,81.87,8.56C198.1,129.8,263.9,170,317.41,230.34c7.09,8,13.81,16.32,21.09,24.95,64.95-84,149-135.29,254.8-151.48-2.26-2.38-4-4.28-5.81-6.11-9.79-9.86-20.08-19.28-29.28-29.65-12.82-14.45-12.86-36.5-1-51.67,16.09-20.65,44.6-22,64.3-2.73,31.69,31,63.07,62.31,94.81,93.26,9.38,9.15,17.92,18.58,21,31.75V153c-4.88,8.05-8.47,17.34-14.84,23.95-32.58,33.84-65.86,67-98.93,100.35a84,84,0,0,1-8,7.23c-22.71,17.73-57.2,6.8-65.26-20.83-4.87-16.69-.38-31.11,11.79-43.34,9.92-10,19.79-20,31-31.39-9,1.87-16.08,3.09-23,4.86s-13.83,3.89-20.62,6.22c-69,23.71-121,68.58-160,129.25-1.1,1.71-.78,5.48.4,7.32,26.77,41.71,60.32,76.73,103.07,102.38,30.43,18.26,63,31.12,99.51,37-2.58-2.74-4.32-4.64-6.11-6.49-9.66-10-19.85-19.52-28.88-30.05-12.47-14.54-12-36.9.18-51.68,16.53-20.11,44.5-21.09,63.83-1.76,30.85,30.83,61.31,62.05,92.15,92.9C723.45,488.8,733.19,498.53,737.28,512.36Z"/></g></g></g></g></svg>