<svg xmlns="http://www.w3.org/2000/svg" viewBox="0 0 376.06 376.06"><defs><style>.cls-1{fill:none;}.cls-2{fill:#fff;}</style></defs><g id="Layer_2" data-name="Layer 2"><g id="Layer_1-2" data-name="Layer 1"><g id="Layer_2-2" data-name="Layer 2"><g id="Layer_1-2-2" data-name="Layer 1-2"><circle class="cls-1" cx="188.03" cy="188.03" r="188.03"/><g id="Layer_2-2-2" data-name="Layer 2-2"><g id="Layer_1-2-2-2" data-name="Layer 1-2-2"><path class="cls-2" d="M22.73,158.09c.58-2,1.12-4,1.76-6a37.44,37.44,0,0,1,33.6-26c7.71-.35,15.44-.06,23.47-.06V251H78.2c-8.08-.19-16.27.34-24.23-.77-15.38-2.14-27.15-13.88-30.46-29-.18-.82-.52-1.6-.78-2.4Z"/><path class="cls-2" d="M231,188.34v107c0,13.93-9,24-22.72,25.56a22.38,22.38,0,0,1-16.56-4.5q-41.58-31.8-83-63.84a5.38,5.38,0,0,1-1.76-3.72q-.15-60.79,0-121.57a5.3,5.3,0,0,1,1.82-3.7C136.24,102.3,163.73,81,191.44,60c7.95-6,16.94-6.52,25.79-2,9,4.54,13.68,12.17,13.7,22.32Q231,134.31,231,188.34Z"/><path class="cls-2" d="M351.73,146.08c.29.59.6,1.17.86,1.78,1.8,4.36.27,9.79-4,14.15-1.69,1.71-3.4,3.4-5.1,5.1q-30.57,30.55-61.12,61.12c-3.93,3.94-8.23,5.78-12.82,4.87-8.07-1.61-9.29-11.61-2.38-18.9l.58-.58,65.89-65.89c4.19-4.19,8.69-5.88,13.49-4.67a18.79,18.79,0,0,1,2.77,1.19Z"/><path class="cls-2" d="M266,144.27c.59-.29,1.16-.6,1.77-.86,4.37-1.8,9.79-.27,14.15,4,1.71,1.69,3.4,3.4,5.1,5.1l61.13,61.12c3.93,3.93,5.77,8.23,4.86,12.82-1.6,8.07-11.61,9.29-18.89,2.38l-.59-.58-65.89-65.89c-4.19-4.19-5.88-8.69-4.67-13.49a18.34,18.34,0,0,1,1.19-2.77Z"/></g></g></g></g></g></g></svg>