<svg xmlns="http://www.w3.org/2000/svg" viewBox="0 0 376.06 376.06"><defs><style>.cls-1{fill:none;}.cls-2{fill:#fff;}</style></defs><g id="Layer_2" data-name="Layer 2"><g id="Layer_1-2" data-name="Layer 1"><g id="Layer_2-2" data-name="Layer 2"><g id="Layer_1-2-2" data-name="Layer 1-2"><circle class="cls-1" cx="188.03" cy="188.03" r="188.03"/><g id="Layer_2-2-2" data-name="Layer 2-2"><g id="Layer_1-2-2-2" data-name="Layer 1-2-2"><path class="cls-2" d="M22.73,158.09c.58-2,1.12-4,1.76-6a37.44,37.44,0,0,1,33.6-26c7.71-.35,15.44-.06,23.47-.06V251H78.2c-8.08-.19-16.27.34-24.23-.77-15.38-2.14-27.15-13.88-30.46-29-.18-.82-.52-1.6-.78-2.4Z"/><path class="cls-2" d="M231,188.34v107c0,13.93-9,24-22.72,25.56a22.38,22.38,0,0,1-16.56-4.5q-41.58-31.8-83-63.84a5.38,5.38,0,0,1-1.76-3.72q-.15-60.79,0-121.57a5.3,5.3,0,0,1,1.82-3.7C136.24,102.3,163.73,81,191.44,60c7.95-6,16.94-6.52,25.79-2,9,4.54,13.68,12.17,13.7,22.32Q231,134.31,231,188.34Z"/><path class="cls-2" d="M305.88,193.14c-.26,18.28-8.23,38.52-24.32,55.47-5.69,6-13.2,6.55-18.55,1.53s-5.16-12.78.6-18.88c23.23-24.56,23.19-61.91-.1-86.56-4.7-5-5.73-10.52-2.91-15.66a11.85,11.85,0,0,1,13.59-6,16.32,16.32,0,0,1,6.9,4.1C297,143,305.91,165.07,305.88,193.14Z"/></g></g></g></g></g></g></svg>