<svg xmlns="http://www.w3.org/2000/svg" viewBox="0 0 406.15 376.06"><defs><style>.cls-1{fill:none;}.cls-2{fill:#fff;}</style></defs><g id="Layer_2" data-name="Layer 2"><g id="Layer_1-2" data-name="Layer 1"><g id="Layer_2-2" data-name="Layer 2"><g id="Layer_1-2-2" data-name="Layer 1-2"><circle class="cls-1" cx="188.03" cy="188.03" r="188.03"/><g id="Layer_2-2-2" data-name="Layer 2-2"><g id="Layer_1-2-2-2" data-name="Layer 1-2-2"><path class="cls-2" d="M22.73,154.92c.58-2,1.12-4,1.76-6a37.44,37.44,0,0,1,33.6-26c7.71-.35,15.44-.06,23.47-.06V247.77H78.2c-8.08-.19-16.27.34-24.23-.77-15.38-2.14-27.15-13.88-30.46-29-.18-.82-.52-1.6-.78-2.4Z"/><path class="cls-2" d="M231,185.17v107c0,13.93-9,24-22.72,25.56a22.38,22.38,0,0,1-16.56-4.5q-41.58-31.8-83-63.84a5.37,5.37,0,0,1-1.76-3.76q-.15-60.78,0-121.57a5.31,5.31,0,0,1,1.82-3.66Q150,88.49,191.44,56.81c7.92-6,16.91-6.52,25.76-2.06,9,4.54,13.68,12.17,13.7,22.32Q231,131.12,231,185.17Z"/><path class="cls-2" d="M406.15,182.49C405.23,236,387.51,280,351.81,316.64c-3.69,3.79-8,5.45-13.21,3.83a12,12,0,0,1-8.66-9.84c-.89-4.69,1-8.46,4.29-11.77,14.49-14.72,26.37-31.37,33.83-50.64,23.67-61.07,15.29-117.44-25.89-168.65-2.49-3.1-5.33-5.93-8.06-8.83-5.65-6-5.87-13.47-.49-18.61s12.71-4.64,18.29,1.08c29.82,30.54,47.58,66.92,52.65,109.36C405.45,170,405.73,177.47,406.15,182.49Z"/><path class="cls-2" d="M355.92,188.77c-.6,33.37-13.44,65.52-39.29,92.35-5.54,5.75-12.93,6.19-18.28,1.16S293,269.7,298.5,264c17.33-18,28.16-39.16,31.31-64,4.39-34.64-5.23-65-28.42-91.16-1.08-1.21-2.24-2.34-3.32-3.55-4.94-5.51-4.87-12.93.16-17.77s12.69-4.74,18,.69a136.08,136.08,0,0,1,24.14,33.11C350.73,141.29,355.83,162.52,355.92,188.77Z"/><path class="cls-2" d="M305.88,190c-.26,18.28-8.23,38.52-24.32,55.47-5.69,6-13.2,6.55-18.55,1.53s-5.16-12.78.6-18.87c23.23-24.57,23.19-61.92-.1-86.57-4.7-5-5.73-10.52-2.91-15.66a11.85,11.85,0,0,1,13.59-6.06,16.24,16.24,0,0,1,6.9,4.09C297,139.77,305.91,161.9,305.88,190Z"/></g></g></g></g></g></g></svg>