<svg xmlns="http://www.w3.org/2000/svg" viewBox="0 0 413.25 423.54"><defs><style>.cls-1{fill:#ebebeb;}.cls-2{fill:#263238;}.cls-3{fill:#d64635;}.cls-4{opacity:0.1;}.cls-5{fill:#37474f;}.cls-6{opacity:0.2;}.cls-7,.cls-8{fill:#fff;}.cls-8{opacity:0.4;}.cls-9{fill:#dbdbdb;}.cls-10{fill:#455a64;}</style></defs><g id="Layer_2" data-name="Layer 2"><g id="Background_Complete" data-name="Background Complete"><path class="cls-1" d="M49.26,270.57l-14.83.27-7.52.12c-2.51,0-5,0-7.54.05h-.45v-.44l-.05-12.64v-.5h.51l14.94.07c5,0,10,.11,14.95.16h.28v.27c0,2.14-.09,4.27-.14,6.38Zm0,0-.14-6.38c0-2.1-.11-4.19-.13-6.26l.27.28c-5,.05-10,.15-14.95.16l-14.94.06.5-.5-.06,12.64-.44-.45c2.46,0,4.92,0,7.4.06l7.43.11Z"/><path class="cls-1" d="M32.59,286.5l-14.84.27-7.51.12c-2.51,0-5,0-7.55.05H2.25v-.44l-.05-12.64v-.5h.5l15,.07c5,0,10,.11,15,.16h.27v.27c0,2.14-.09,4.27-.13,6.38Zm0,0-.15-6.38c0-2.1-.11-4.19-.13-6.26l.28.28c-5,.05-10,.15-15,.16l-14.95.06.5-.5L3.13,286.5l-.44-.45c2.47,0,4.93,0,7.4.05l7.43.12Z"/><path class="cls-1" d="M32.59,13.13l-14.84.28-7.51.12c-2.51,0-5,0-7.55.05H2.25v-.45L2.19.5V0h.5l15,.06c5,0,10,.12,15,.17h.27V.5c0,2.14-.09,4.27-.13,6.38Zm0,0-.15-6.37c0-2.1-.11-4.19-.13-6.26l.28.27c-5,.06-10,.16-15,.17L2.69,1l.5-.5L3.13,13.13l-.44-.44c2.47,0,4.93,0,7.4.05l7.43.12Z"/><path class="cls-1" d="M410.56,13.13l-14.83.28-7.51.12c-2.52,0-5,0-7.55.05h-.45v-.45L380.17.5V0h.51l14.94.06c5,0,10,.12,14.95.17h.28V.5c0,2.14-.09,4.27-.14,6.38Zm0,0-.14-6.37c0-2.1-.11-4.19-.13-6.26l.27.27c-5,.06-10,.16-14.95.17L380.67,1l.5-.5-.06,12.63-.44-.44c2.46,0,4.92,0,7.4.05l7.43.12Z"/><path class="cls-1" d="M393.89,29.06l-14.84.28-7.51.12c-2.51,0-5,0-7.55.05h-.44v-.45l-.05-12.63v-.5h.5l14.95.06c5,0,10,.12,14.95.17h.27v.27c0,2.14-.09,4.27-.13,6.38Zm0,0-.15-6.37c0-2.1-.11-4.19-.13-6.26l.28.27c-5,.06-10,.16-14.95.17L364,16.93l.5-.5-.05,12.63-.45-.44c2.47,0,4.93,0,7.4.05l7.43.12Z"/><path class="cls-1" d="M317.32,176.86l-14.84.28-7.51.11c-2.51.05-5,0-7.55.05H287v-.45l-.06-12.63v-.51h.5l14.95.06c5,0,10,.11,14.95.16h.27v.28c0,2.13-.09,4.26-.13,6.37Zm0,0-.14-6.38c-.05-2.1-.12-4.18-.14-6.25l.28.27c-5,.05-10,.16-14.95.16l-14.95.06.5-.49-.05,12.63-.45-.45c2.47,0,4.93,0,7.4.06l7.43.11Z"/><path class="cls-1" d="M300.64,192.79l-14.83.28-7.52.11c-2.51,0-5,0-7.55,0h-.44v-.45l-.06-12.63v-.51h.5l14.95.06c5,0,10,.11,14.95.16h.28v.28c0,2.13-.08,4.26-.13,6.37Zm0,0-.14-6.38c-.05-2.1-.11-4.18-.13-6.25l.27.27c-5,0-10,.16-14.95.16l-14.95.06.5-.49-.05,12.63-.45-.45c2.47,0,4.93,0,7.4.06l7.44.11Z"/><path class="cls-1" d="M284,176.86l-14.83.28-7.52.11c-2.51.05-5,0-7.55.05h-.44v-.45l-.06-12.63v-.51h.5l14.95.06c5,0,10,.11,14.95.16h.27v.28c0,2.13-.08,4.26-.13,6.37Zm0,0-.14-6.38c-.05-2.1-.12-4.18-.13-6.25l.27.27c-5,.05-10,.16-14.95.16l-14.95.06.5-.49,0,12.63-.45-.45c2.47,0,4.93,0,7.4.06l7.44.11Z"/><path class="cls-1" d="M410.56,286.5l-14.83.27-7.51.12c-2.52,0-5,0-7.55.05h-.45v-.44l-.05-12.64v-.5h.51l14.94.07c5,0,10,.11,14.95.16h.28v.27c0,2.14-.09,4.27-.14,6.38Zm0,0-.14-6.38c0-2.1-.11-4.19-.13-6.26l.27.28c-5,.05-10,.15-14.95.16l-14.94.06.5-.5-.06,12.64-.44-.45c2.46,0,4.92,0,7.4.05l7.43.12Z"/><path class="cls-1" d="M156.55,50.7,141.72,51l-7.52.11c-2.51,0-5,0-7.54.06h-.45V50.7l0-12.63v-.5h.51l14.94.06c5,0,10,.11,15,.17h.28v.27c0,2.14-.08,4.27-.13,6.37Zm0,0-.14-6.37c0-2.11-.11-4.19-.13-6.26l.27.27c-5,0-10,.16-15,.17l-14.94.06.5-.5L127.1,50.7l-.44-.44c2.46,0,4.92,0,7.4.05l7.43.11Z"/><path class="cls-1" d="M379.85,134.39l5.89-9.49-2.91-1.8a2.65,2.65,0,0,1-1.23-2.5,15.45,15.45,0,0,0,0-1.67,2.66,2.66,0,0,1,1.39-2.41l3-1.61-5.28-9.85-3,1.62a2.68,2.68,0,0,1-2.78-.18,14.65,14.65,0,0,0-1.42-.88,2.63,2.63,0,0,1-1.39-2.41l.1-3.42-11.16-.34-.1,3.43a2.67,2.67,0,0,1-1.56,2.31c-.25.11-.49.24-.73.37l-.72.4a2.63,2.63,0,0,1-2.77,0l-2.93-1.81-5.89,9.49,2.92,1.81a2.68,2.68,0,0,1,1.23,2.5,15.35,15.35,0,0,0-.06,1.66,2.66,2.66,0,0,1-1.38,2.41l-3,1.62,5.28,9.84,3-1.62a2.66,2.66,0,0,1,2.77.18,15.81,15.81,0,0,0,1.41.88,2.62,2.62,0,0,1,1.4,2.4l-.1,3.43,11.16.35.11-3.43a2.64,2.64,0,0,1,1.55-2.3c.25-.12.5-.24.74-.38l.72-.4a2.65,2.65,0,0,1,2.78,0Zm-9.45-7A9.15,9.15,0,1,1,374.14,115,9.14,9.14,0,0,1,370.4,127.34Z"/><path class="cls-1" d="M58.16,241.93,64,232.44l-2.9-1.8a2.67,2.67,0,0,1-1.24-2.5,15.44,15.44,0,0,0,.06-1.67,2.65,2.65,0,0,1,1.38-2.41l3-1.61-5.29-9.85-3,1.62a2.66,2.66,0,0,1-2.77-.18,16,16,0,0,0-1.42-.88,2.67,2.67,0,0,1-1.4-2.41l.11-3.42L39.41,207l-.1,3.43a2.67,2.67,0,0,1-1.56,2.31c-.24.11-.49.24-.73.37s-.48.26-.71.4a2.65,2.65,0,0,1-2.78,0l-2.92-1.81-5.89,9.49L27.63,223a2.66,2.66,0,0,1,1.23,2.5,13.1,13.1,0,0,0-.05,1.66,2.68,2.68,0,0,1-1.39,2.41l-3,1.61L29.69,241l3-1.62a2.66,2.66,0,0,1,2.77.18,16,16,0,0,0,1.42.88,2.65,2.65,0,0,1,1.4,2.4l-.11,3.43,11.17.35.1-3.43a2.64,2.64,0,0,1,1.56-2.3l.74-.38c.24-.13.48-.26.71-.4a2.67,2.67,0,0,1,2.79,0Zm-9.46-7.05a9.14,9.14,0,1,1,3.75-12.38A9.14,9.14,0,0,1,48.7,234.88Z"/><path class="cls-1" d="M172.49,60.16l-3.91-6.78-2.07,1.2a1.85,1.85,0,0,1-1.95-.07c-.33-.21-.66-.4-1-.58a1.85,1.85,0,0,1-1-1.65v-2.4h-7.83v2.4a1.85,1.85,0,0,1-1,1.65c-.35.18-.68.37-1,.58a1.85,1.85,0,0,1-2,.07l-2.08-1.2-3.91,6.78,2.09,1.2a1.85,1.85,0,0,1,.91,1.72c0,.2,0,.39,0,.58s0,.39,0,.58A1.86,1.86,0,0,1,146.8,66l-2.09,1.2,3.91,6.78,2.08-1.2a1.87,1.87,0,0,1,2,.07,10,10,0,0,0,1,.58,1.85,1.85,0,0,1,1,1.65v2.4h7.83V75a1.85,1.85,0,0,1,1-1.65,10,10,0,0,0,1-.58,1.85,1.85,0,0,1,1.95-.07l2.08,1.2,3.91-6.78L170.41,66a1.86,1.86,0,0,1-.9-1.72c0-.19,0-.38,0-.58s0-.38,0-.58a1.85,1.85,0,0,1,.91-1.72ZM165,63.66a6.41,6.41,0,1,1-6.4-6.41A6.4,6.4,0,0,1,165,63.66Z"/></g><g id="Plant"><path class="cls-2" d="M45.46,257.26C32.39,270.05,30.2,289.85,33,307.19c.07.39.68.28.68-.09,0-3.94-.12-7.86-.1-11.75l.2-.53c3.41-2.48,6.54-5.28,8.49-9.12,2.18-4.29,3-9.13,4.71-13.62.15-.43-.3-.3-.6-.08-7.95,5.86-10.49,12.17-12.77,20.6a70.63,70.63,0,0,1,1.38-13.13c1.72-8,5.12-15.93,10.87-21.86C46,257.38,45.69,257,45.46,257.26Z"/><path class="cls-3" d="M47.92,258.75c2.25.08,3.66,3.67,5.41,4.72a1.69,1.69,0,0,0,2.48-.39c1.73-2.42-.65-5.41-2.89-7.08,1.6.65,2.93,1.81,4.66,2.14a1.62,1.62,0,0,0,2.1-1.26c.76-3.3-3.38-4.77-6.22-4.84,1.38-1,5.33-3.57,3.23-4.85s-6.77,2.44-8.28,3.67c-2.22,1.8-4.87,4.5-5,7.32C43.31,261.47,46.19,259.44,47.92,258.75Z"/><path class="cls-4" d="M47.92,258.75c2.25.08,3.66,3.67,5.41,4.72a1.69,1.69,0,0,0,2.48-.39c1.73-2.42-.65-5.41-2.89-7.08,1.6.65,2.93,1.81,4.66,2.14a1.62,1.62,0,0,0,2.1-1.26c.76-3.3-3.38-4.77-6.22-4.84,1.38-1,5.33-3.57,3.23-4.85s-6.77,2.44-8.28,3.67c-2.22,1.8-4.87,4.5-5,7.32C43.31,261.47,46.19,259.44,47.92,258.75Z"/><path class="cls-3" d="M47.27,259.31c2.87-1.31,8.39.57,8.86-.52.95-2.21-3.46-3.73-5.84-4,2.19-.6,6.4-1.55,6.27-3.66-.16-2.58-6.45-.36-9.63,2.08-4,3.07-4,6-3.32,6.63C44.52,260.64,46.79,259.52,47.27,259.31Z"/><path class="cls-2" d="M15.7,256c13.54,12.29,16.49,32,14.4,49.42-.06.39-.67.31-.69-.06-.15-3.94-.18-7.86-.34-11.75-.07-.18-.14-.34-.22-.52-3.5-2.35-6.74-5-8.83-8.79-2.34-4.21-3.38-9-5.22-13.43-.17-.42.29-.31.6-.1,8.16,5.55,10.93,11.76,13.53,20.1a69.7,69.7,0,0,0-1.88-13.07c-2-7.93-5.71-15.72-11.68-21.44A.24.24,0,0,1,15.7,256Z"/><path class="cls-3" d="M13.3,257.58c-2.24.16-3.51,3.8-5.22,4.92a1.69,1.69,0,0,1-2.5-.3C3.75,259.85,6,256.77,8.2,255c-1.58.72-2.86,1.93-4.58,2.32a1.62,1.62,0,0,1-2.15-1.18c-.88-3.27,3.2-4.89,6-5.07-1.41-.91-5.46-3.36-3.41-4.72s6.85,2.18,8.41,3.35c2.29,1.72,5,4.31,5.24,7.12C18,260.12,15.06,258.2,13.3,257.58Z"/><path class="cls-4" d="M13.3,257.58c-2.24.16-3.51,3.8-5.22,4.92a1.69,1.69,0,0,1-2.5-.3C3.75,259.85,6,256.77,8.2,255c-1.58.72-2.86,1.93-4.58,2.32a1.62,1.62,0,0,1-2.15-1.18c-.88-3.27,3.2-4.89,6-5.07-1.41-.91-5.46-3.36-3.41-4.72s6.85,2.18,8.41,3.35c2.29,1.72,5,4.31,5.24,7.12C18,260.12,15.06,258.2,13.3,257.58Z"/><path class="cls-3" d="M14,258.11c-2.92-1.2-8.37.89-8.88-.18-1-2.18,3.32-3.86,5.69-4.25-2.22-.51-6.45-1.29-6.4-3.41.06-2.59,6.43-.61,9.7,1.71,4.12,2.92,4.21,5.89,3.57,6.5C16.77,259.33,14.46,258.3,14,258.11Z"/><path class="cls-2" d="M29.55,288.45a132.94,132.94,0,0,0,4.21,19.43.48.48,0,0,0,.94-.2c-.89-6-2.51-11.86-3.4-17.85a89.88,89.88,0,0,1-1-18.32c.57-10.09,3.31-20.83,9.9-28.72.14-.19-.17-.45-.32-.28-13.18,15.37-11.08,34.21-11.07,35.9-1.86-6.36-3.79-13.65-10.85-20.13-.3-.28-.54-.15-.49.33,1.27,11.8,4.55,18,11.39,24.27Q29.11,285.69,29.55,288.45Z"/><path class="cls-3" d="M40.27,244.56c2.38-1.05,5.65,2,8,2.17a2,2,0,0,0,2.38-1.65c.58-3.39-3.39-5.29-6.56-5.9,2-.13,4,.41,5.91-.12a1.88,1.88,0,0,0,1.55-2.37c-.87-3.81-5.91-3.25-8.9-1.89,1-1.69,3.74-6.38.92-6.65s-5.79,5.93-6.75,8c-1.39,3-2.79,7.12-1.47,10.09C36.86,249.7,38.83,246.15,40.27,244.56Z"/><path class="cls-4" d="M40.27,244.56c2.38-1.05,5.65,2,8,2.17a2,2,0,0,0,2.38-1.65c.58-3.39-3.39-5.29-6.56-5.9,2-.13,4,.41,5.91-.12a1.88,1.88,0,0,0,1.55-2.37c-.87-3.81-5.91-3.25-8.9-1.89,1-1.69,3.74-6.38.92-6.65s-5.79,5.93-6.75,8c-1.39,3-2.79,7.12-1.47,10.09C36.86,249.7,38.83,246.15,40.27,244.56Z"/><path class="cls-3" d="M39.88,245.46c2.32-2.8,9-3.63,8.94-5-.13-2.77-5.47-2.13-8.09-1.23,2-1.72,5.86-4.82,4.66-6.95-1.46-2.6-6.87,2.87-8.94,7-2.62,5.21-1.1,8.28-.11,8.56C37.7,248.23,39.49,245.92,39.88,245.46Z"/><path class="cls-3" d="M20.88,292l-5.81,44.41H50.44c-.73-3.93-7.31-44.46-7.31-44.46Z"/></g><g id="Floor"><polygon class="cls-2" points="0 336.56 51.66 336.32 103.31 336.23 206.63 336.06 309.94 336.23 361.6 336.32 413.25 336.56 361.6 336.81 309.94 336.9 206.63 337.06 103.31 336.89 51.66 336.81 0 336.56"/></g><g id="Shadow"><ellipse class="cls-1" cx="206.63" cy="402.46" rx="149.06" ry="21.08"/></g><g id="_404_Error" data-name="404 Error"><path class="cls-2" d="M114.2,181.09,108,156.66,59,169.13l-6.48-25.5L91.66,54.31l19.44-4.94L130,123.73l15.69-4,6.52,25.67-15.69,4,6.21,24.43Zm-33.6-44.8,24.25-6.17-8-31.56Z"/><path class="cls-2" d="M254.65,99.54A65.54,65.54,0,0,1,251,121.89a55.67,55.67,0,0,1-10.12,17.67,46,46,0,0,1-15.18,11.59,43.94,43.94,0,0,1-19,4.14,44.51,44.51,0,0,1-19.14-4.14,45.55,45.55,0,0,1-15.27-11.59,54,54,0,0,1-10-17.67,67,67,0,0,1-3.59-22.35,67.09,67.09,0,0,1,3.59-22.36,54.06,54.06,0,0,1,10-17.66,46.48,46.48,0,0,1,15.27-11.68,43.71,43.71,0,0,1,19.14-4.23,43.15,43.15,0,0,1,19,4.23,47,47,0,0,1,15.18,11.68A55.73,55.73,0,0,1,251,77.18,65.6,65.6,0,0,1,254.65,99.54Zm-29.63,0q0-12.87-5.15-20.88t-13.24-8q-8.48,0-13.53,8T188,99.54q0,12.88,5.06,20.79t13.53,7.91q8.09,0,13.24-7.91T225,99.54Z"/><path class="cls-2" d="M307.47,176.39l4-24.89-49.95-8.09,4.21-26,71.51-66.33,19.8,3.21L344.8,130.06l16,2.59-4.24,26.15-16-2.59-4,24.88Zm-13-54.48,24.7,4,5.21-32.15Z"/></g><g id="Robot"><rect class="cls-5" x="191.71" y="267.27" width="35.51" height="2.91"/><rect class="cls-5" x="191.71" y="271.06" width="35.51" height="2.91"/><rect class="cls-5" x="191.71" y="274.84" width="35.51" height="2.91"/><rect class="cls-5" x="191.71" y="278.63" width="35.51" height="2.91"/><rect class="cls-5" x="191.71" y="282.42" width="35.51" height="2.91"/><rect class="cls-5" x="175.08" y="358.01" width="67.52" height="2.91"/><rect class="cls-5" x="175.08" y="361.8" width="67.52" height="2.91"/><rect class="cls-5" x="175.08" y="365.59" width="67.52" height="2.91"/><rect class="cls-5" x="175.08" y="369.38" width="67.52" height="2.91"/><rect class="cls-5" x="175.08" y="373.17" width="67.52" height="2.91"/><path class="cls-3" d="M145.46,243.22c0-.39-14.78-5.36-14.78-5.36l.88-50.88,19.64-4.22Z"/><path class="cls-6" d="M145.46,243.22c0-.39-14.78-5.36-14.78-5.36l.88-50.88,19.64-4.22Z"/><path class="cls-3" d="M281.12,263.19c.1-.38,15.71.06,15.71.06l16.69-48.08-17-10.71Z"/><path class="cls-6" d="M281.12,263.19c.1-.38,15.71.06,15.71.06l16.69-48.08-17-10.71Z"/><path class="cls-3" d="M142.61,262s5.49-82.3,10.31-109.37c0,0,99.41,7.51,153.08,28,0,0-27.67,96.13-29.1,100.9C276.9,281.52,206.89,267.72,142.61,262Z"/><path class="cls-4" d="M231.35,163.58c-1.62,9.91-3.25,19.81-4.95,29.71L221.28,223l-.28-.42,33.31,7.91,16.64,4,16.62,4.11-16.71-3.73-16.68-3.82-33.35-7.79-.33-.08.06-.34,5.3-29.65Q228.55,178.37,231.35,163.58Z"/><path class="cls-4" d="M227.69,169.22a1.94,1.94,0,0,1-1.74,1.94,2,2,0,0,1-1.46-.47,1.94,1.94,0,0,1,1.46-3.4A1.94,1.94,0,0,1,227.69,169.22Zm0,0a1.56,1.56,0,1,0-.55,1.2A1.56,1.56,0,0,0,227.69,169.22Z"/><path class="cls-4" d="M226,181.47a1.94,1.94,0,0,1-3.21,1.46,2,2,0,0,1-.66-1.46,1.94,1.94,0,1,1,3.87,0Zm0,0a1.64,1.64,0,0,0-.55-1.2,1.62,1.62,0,0,0-1.2-.36,1.57,1.57,0,0,0,0,3.12,1.62,1.62,0,0,0,1.2-.36A1.64,1.64,0,0,0,226,181.47Z"/><path class="cls-4" d="M223.8,194.41a1.94,1.94,0,0,1-3.21,1.46,2,2,0,0,1,0-2.93,2,2,0,0,1,1.46-.47A2,2,0,0,1,223.8,194.41Zm0,0a1.64,1.64,0,0,0-.55-1.2,1.57,1.57,0,1,0-1.2,2.76,1.62,1.62,0,0,0,1.2-.36A1.64,1.64,0,0,0,223.8,194.41Z"/><path class="cls-4" d="M221.65,207.35a1.94,1.94,0,0,1-3.21,1.46,1.94,1.94,0,0,1,1.46-3.4A2,2,0,0,1,221.65,207.35Zm0,0a1.64,1.64,0,0,0-.55-1.2,1.57,1.57,0,1,0-1.2,2.76,1.58,1.58,0,0,0,1.75-1.56Z"/><path class="cls-4" d="M229,228a1.93,1.93,0,0,1-3.2,1.46,1.91,1.91,0,0,1-.66-1.46,1.92,1.92,0,0,1,2.12-1.93A1.93,1.93,0,0,1,229,228Zm0,0a1.57,1.57,0,0,0-.55-1.2,1.65,1.65,0,0,0-1.19-.36A1.57,1.57,0,1,0,229,228Z"/><path class="cls-4" d="M241.19,231a1.94,1.94,0,1,1-3.87,0,2,2,0,0,1,.66-1.46,1.94,1.94,0,0,1,3.21,1.46Zm0,0a1.64,1.64,0,0,0-.55-1.2,1.62,1.62,0,0,0-1.2-.36,1.57,1.57,0,1,0,1.2,2.76A1.64,1.64,0,0,0,241.19,231Z"/><path class="cls-4" d="M253.4,233.94a1.94,1.94,0,0,1-3.21,1.46,1.94,1.94,0,0,1,0-2.92,2,2,0,0,1,1.46-.47A1.93,1.93,0,0,1,253.4,233.94Zm0,0a1.6,1.6,0,0,0-.55-1.2,1.62,1.62,0,0,0-1.2-.36,1.57,1.57,0,1,0,1.2,2.76A1.6,1.6,0,0,0,253.4,233.94Z"/><path class="cls-4" d="M265.61,236.92a1.93,1.93,0,0,1-3.2,1.46,2,2,0,0,1-.66-1.46,1.94,1.94,0,0,1,.65-1.46,2,2,0,0,1,1.47-.47A1.93,1.93,0,0,1,265.61,236.92Zm0,0a1.57,1.57,0,0,0-.55-1.2,1.61,1.61,0,0,0-1.19-.36,1.57,1.57,0,0,0,0,3.12,1.55,1.55,0,0,0,1.74-1.56Z"/><path class="cls-4" d="M277.82,240a2,2,0,0,1-1.89,1.8,2,2,0,0,1-1.42-.59,1.94,1.94,0,1,1,3.31-1.21Zm0,0a1.63,1.63,0,0,0-.45-1.23,1.56,1.56,0,0,0-1.17-.45,1.57,1.57,0,1,0,1,2.84A1.61,1.61,0,0,0,277.82,240Z"/><path class="cls-4" d="M219.5,220.29a1.94,1.94,0,0,1-3.21,1.46,2,2,0,0,1,0-2.93,1.94,1.94,0,0,1,3.21,1.47Zm0,0a1.64,1.64,0,0,0-.55-1.2,1.57,1.57,0,1,0,0,2.39A1.63,1.63,0,0,0,219.5,220.29Z"/><circle class="cls-6" cx="180.06" cy="220.73" r="28.23" transform="translate(-101.42 176.99) rotate(-41.96)"/><circle class="cls-2" cx="180.06" cy="220.73" r="22.64" transform="translate(-90.12 310.99) rotate(-69.27)"/><rect class="cls-3" x="172.93" y="211.96" width="5.36" height="5.36" transform="translate(36.59 -25.32) rotate(9.2)"/><rect class="cls-3" x="168.5" y="205.81" width="5.36" height="5.36" transform="translate(35.54 -24.69) rotate(9.2)"/><rect class="cls-3" x="189.67" y="209.24" width="5.36" height="5.36" transform="translate(36.37 -28.03) rotate(9.2)"/><rect class="cls-3" x="165.09" y="226.86" width="5.36" height="5.36" transform="translate(38.87 -23.88) rotate(9.2)"/><rect class="cls-3" x="186.26" y="230.29" width="5.36" height="5.36" transform="translate(39.69 -27.22) rotate(9.2)"/><rect class="cls-3" x="171.24" y="222.42" width="5.36" height="5.36" transform="translate(38.24 -24.92) rotate(9.2)"/><rect class="cls-3" x="177.38" y="218.05" width="5.36" height="5.36" transform="translate(37.62 -25.95) rotate(9.2)"/><rect class="cls-3" x="183.52" y="213.67" width="5.36" height="5.36" transform="translate(37 -26.99) rotate(9.2)"/><rect class="cls-3" x="181.82" y="224.14" width="5.36" height="5.36" transform="translate(38.65 -26.59) rotate(9.2)"/><circle class="cls-3" cx="255.82" cy="232.56" r="28.23" transform="translate(-86.21 283.03) rotate(-50.67)"/><circle class="cls-6" cx="255.82" cy="232.56" r="28.23" transform="translate(-86.21 283.03) rotate(-50.67)"/><path class="cls-6" d="M283.29,239.09c-.13.56-.28,1.1-.45,1.63l-55-11.73c.13-1,.31-2,.54-3a28.24,28.24,0,1,1,54.94,13.06Z"/><circle class="cls-2" cx="255.82" cy="232.56" r="22.64" transform="translate(-69.88 116.6) rotate(-22.68)"/><rect class="cls-3" x="253.14" y="219.22" width="5.36" height="26.69" transform="translate(60.7 -52.85) rotate(13.37)"/><path class="cls-3" d="M284.92,238.56l-57.8-13.73a29.7,29.7,0,0,1,57.8,13.73Z"/><path class="cls-6" d="M284.92,238.56l-57.8-13.73a29.7,29.7,0,0,1,57.8,13.73Z"/><path class="cls-4" d="M206.7,249.34a10.39,10.39,0,0,1,2.61-6.35,7.6,7.6,0,0,1,3.07-2.07,8.66,8.66,0,0,1,3.7-.41,7.34,7.34,0,0,1,3.55,1.37,7.41,7.41,0,0,1,2.25,3,11.57,11.57,0,0,1,.59,6.85,18.25,18.25,0,0,0-2-6.14,5.9,5.9,0,0,0-4.61-3.06,7,7,0,0,0-5.49,1.61A14.87,14.87,0,0,0,206.7,249.34Z"/><path class="cls-7" d="M150.34,191.76c.24-3,.58-6,.86-9s.65-6,1-9,.74-6,1.12-9,.81-6,1.21-9l.11-.8.81,0q9.76.62,19.5,1.61c3.25.33,6.49.71,9.73,1.12s6.46.9,9.67,1.48L174.86,158l-19.5-1.26.92-.75c-.44,3-.86,6-1.33,9s-.91,6-1.41,8.95-1,6-1.52,8.93S151,188.8,150.34,191.76Z"/><path class="cls-7" d="M155,214.58a24.59,24.59,0,0,1,4.51-10.09c.55-.76,1.18-1.46,1.79-2.18s1.33-1.32,2-2,1.47-1.18,2.22-1.75,1.58-1,2.39-1.52,1.7-.83,2.56-1.22l2.69-.93,2.77-.57c.93-.14,1.88-.16,2.82-.24a27.25,27.25,0,0,1,10.86,2.09,38.54,38.54,0,0,0-10.78-.72,25.27,25.27,0,0,0-10.07,3.13,29.43,29.43,0,0,0-8.18,6.75A33.18,33.18,0,0,0,155,214.58Z"/><path class="cls-7" d="M232.91,222.2a24.68,24.68,0,0,1,5.87-9.37c.65-.67,1.37-1.28,2.06-1.91s1.51-1.12,2.26-1.69,1.62-1,2.44-1.43,1.71-.8,2.58-1.17,1.8-.59,2.71-.86l2.78-.55,2.83-.18c.94,0,1.89.1,2.82.16a27.23,27.23,0,0,1,10.48,3.56,38.91,38.91,0,0,0-10.58-2.2,25.43,25.43,0,0,0-10.41,1.71,29.6,29.6,0,0,0-9,5.55A33.6,33.6,0,0,0,232.91,222.2Z"/><path class="cls-3" d="M145.77,312.67c-7.23,0-23.07-1.62-33.25-14.72-13-16.76-8.33-48.92-8.12-50.28l5.66.86c0,.31-4.55,31.09,7,45.9,11.27,14.49,31.7,12.41,31.9,12.38l.64,5.69C149.35,312.52,148,312.67,145.77,312.67Z"/><path class="cls-8" d="M145.77,312.67c-7.23,0-23.07-1.62-33.25-14.72-13-16.76-8.33-48.92-8.12-50.28l5.66.86c0,.31-4.55,31.09,7,45.9,11.27,14.49,31.7,12.41,31.9,12.38l.64,5.69C149.35,312.52,148,312.67,145.77,312.67Z"/><path class="cls-3" d="M111.72,252.43a20.3,20.3,0,0,1-3.16-.26c-9.54-1.55-13.77-7.26-15.63-11.78s-2.3-10-1.29-16.29l12.11,2c-.63,3.89-.45,7.32.52,9.65.68,1.66,2,3.66,6.26,4.35,1.93.31,4,.15,6.22-3.16a22.87,22.87,0,0,0,3.07-8.23l12.11,2a35.45,35.45,0,0,1-5,13.05C123.18,249.39,117.85,252.43,111.72,252.43Z"/><path class="cls-3" d="M157.73,329.05c0-.26-10.26-1.89-10.26-1.89l-5-33.41,12.4-4.89Z"/><path class="cls-6" d="M157.73,329.05c0-.26-10.26-1.89-10.26-1.89l-5-33.41,12.4-4.89Z"/><path class="cls-3" d="M258.92,329.12c0-.26,10.3-1.67,10.3-1.67l5.7-33.29L262.64,289Z"/><path class="cls-6" d="M258.92,329.12c0-.26,10.3-1.67,10.3-1.67l5.7-33.29L262.64,289Z"/><path class="cls-3" d="M153.47,281.38s82.78-3.54,110.75,1.12c0,0-8.21,80.1-8.66,81.66,0,0-82.35-.23-95.22,0C160.34,364.16,153.36,310.89,153.47,281.38Z"/><path class="cls-6" d="M178.61,303.33s45.2-1.79,60.46.56c0,0-4.48,40.4-4.72,41.18,0,0-45-.11-52,0C182.36,345.07,179.28,317.42,178.61,303.33Z"/><path class="cls-6" d="M184.79,345.05l-2.43,0s-3.08-27.65-3.75-41.75l2.82-.1Z"/><path class="cls-3" d="M198.12,313.29a4.81,4.81,0,1,0,3.14,6A4.82,4.82,0,0,0,198.12,313.29Zm2.58,5.86a4.22,4.22,0,1,1-2.75-5.3A4.22,4.22,0,0,1,200.7,319.15Zm-2.58-5.86a4.81,4.81,0,1,0,3.14,6A4.82,4.82,0,0,0,198.12,313.29Zm2.58,5.86a4.22,4.22,0,1,1-2.75-5.3A4.22,4.22,0,0,1,200.7,319.15Zm-2.58-5.86a4.81,4.81,0,1,0,3.14,6A4.82,4.82,0,0,0,198.12,313.29Zm2.58,5.86a4.22,4.22,0,1,1-2.75-5.3A4.22,4.22,0,0,1,200.7,319.15Zm-1-10.93a10.13,10.13,0,1,0,6.62,12.7A10.13,10.13,0,0,0,199.72,308.22ZM202,319.55a5.55,5.55,0,1,1-3.62-7A5.56,5.56,0,0,1,202,319.55Zm-.71-.23a4.81,4.81,0,1,0-6,3.14A4.81,4.81,0,0,0,201.26,319.32Zm-.56-.17a4.22,4.22,0,1,1-2.75-5.3A4.22,4.22,0,0,1,200.7,319.15Zm-2.58-5.86a4.81,4.81,0,1,0,3.14,6A4.82,4.82,0,0,0,198.12,313.29Zm2.58,5.86a4.22,4.22,0,1,1-2.75-5.3A4.22,4.22,0,0,1,200.7,319.15Zm-2.58-5.86a4.81,4.81,0,1,0,3.14,6A4.82,4.82,0,0,0,198.12,313.29Zm2.58,5.86a4.22,4.22,0,1,1-2.75-5.3A4.22,4.22,0,0,1,200.7,319.15Z"/><polygon class="cls-3" points="195.61 327.73 191.9 326.56 191.28 329.25 194.58 330.29 195.61 327.73"/><polygon class="cls-3" points="188.94 324.25 187.14 320.79 184.79 322.25 186.39 325.33 188.94 324.25"/><polygon class="cls-3" points="186.68 317.06 187.85 313.35 185.15 312.72 184.11 316.03 186.68 317.06"/><polygon class="cls-3" points="190.16 310.39 193.61 308.59 192.15 306.24 189.07 307.84 190.16 310.39"/><polygon class="cls-3" points="197.34 308.13 201.05 309.3 201.68 306.6 198.37 305.56 197.34 308.13"/><polygon class="cls-3" points="204.02 311.61 205.81 315.06 208.16 313.6 206.56 310.52 204.02 311.61"/><polygon class="cls-3" points="206.28 318.79 205.11 322.5 207.8 323.13 208.84 319.82 206.28 318.79"/><polygon class="cls-3" points="202.8 325.46 199.34 327.26 200.81 329.61 203.88 328.01 202.8 325.46"/><path class="cls-9" d="M214.46,327.43a3.24,3.24,0,1,0,.95,4.48A3.24,3.24,0,0,0,214.46,327.43Zm.62,4.27a2.84,2.84,0,1,1-.83-3.93A2.86,2.86,0,0,1,215.08,331.7Zm-.62-4.27a3.24,3.24,0,1,0,.95,4.48A3.24,3.24,0,0,0,214.46,327.43Zm.62,4.27a2.84,2.84,0,1,1-.83-3.93A2.86,2.86,0,0,1,215.08,331.7Zm-.62-4.27a3.24,3.24,0,1,0,.95,4.48A3.24,3.24,0,0,0,214.46,327.43Zm.62,4.27a2.84,2.84,0,1,1-.83-3.93A2.86,2.86,0,0,1,215.08,331.7Zm1.34-7.27a6.82,6.82,0,1,0,2,9.44A6.82,6.82,0,0,0,216.42,324.43Zm-.59,7.75a3.74,3.74,0,1,1-1.09-5.17A3.76,3.76,0,0,1,215.83,332.18Zm-.42-.27a3.24,3.24,0,1,0-4.48.95A3.24,3.24,0,0,0,215.41,331.91Zm-.33-.21a2.84,2.84,0,1,1-.83-3.93A2.86,2.86,0,0,1,215.08,331.7Zm-.62-4.27a3.24,3.24,0,1,0,.95,4.48A3.24,3.24,0,0,0,214.46,327.43Zm.62,4.27a2.84,2.84,0,1,1-.83-3.93A2.86,2.86,0,0,1,215.08,331.7Zm-.62-4.27a3.24,3.24,0,1,0,.95,4.48A3.24,3.24,0,0,0,214.46,327.43Zm.62,4.27a2.84,2.84,0,1,1-.83-3.93A2.86,2.86,0,0,1,215.08,331.7Z"/><polygon class="cls-9" points="210.23 336.34 208.03 334.91 207.14 336.54 209.09 337.82 210.23 336.34"/><polygon class="cls-9" points="206.53 332.88 205.98 330.31 204.2 330.83 204.68 333.12 206.53 332.88"/><polygon class="cls-9" points="206.36 327.81 207.79 325.61 206.15 324.72 204.88 326.67 206.36 327.81"/><polygon class="cls-9" points="209.82 324.11 212.39 323.56 211.86 321.78 209.58 322.26 209.82 324.11"/><polygon class="cls-9" points="214.89 323.94 217.09 325.37 217.98 323.74 216.02 322.46 214.89 323.94"/><polygon class="cls-9" points="218.59 327.4 219.13 329.97 220.92 329.44 220.44 327.16 218.59 327.4"/><polygon class="cls-9" points="218.76 332.47 217.33 334.67 218.96 335.56 220.23 333.61 218.76 332.47"/><polygon class="cls-9" points="215.29 336.17 212.73 336.71 213.25 338.5 215.53 338.02 215.29 336.17"/><polygon class="cls-3" points="262.22 354.83 265.4 355.43 274.5 293.8 270.88 293.13 262.22 354.83"/><path class="cls-3" d="M234.35,345.07l4.72-41.18,31.81-10.76s-8.66,62.37-8.66,61.7Z"/><path class="cls-8" d="M234.35,345.07l4.72-41.18,31.81-10.76s-8.66,62.37-8.66,61.7Z"/><path class="cls-7" d="M157.27,305.56c-.52-3.41-.8-6.85-1-10.29-.1-1.72-.15-3.45-.18-5.17s-.07-3.45,0-5.18l0-.45.44,0c6.32-.34,12.63-.76,18.95-1s12.64-.6,19-.8c-6.31.57-12.62,1.06-18.93,1.52s-12.62.84-18.93,1.28l.45-.48,0,5.15.06,5.15q0,2.58.09,5.16Z"/><path class="cls-7" d="M243.51,304.5q3-1.41,6-2.61t6.12-2.32c2.07-.7,4.14-1.39,6.24-2a58.24,58.24,0,0,1,6.4-1.49l.53-.09-.1.51c-.5,2.67-1,5.33-1.64,8,.24-2.71.56-5.41.91-8.1l.44.43c-2.1.5-4.19,1.08-6.27,1.7s-4.14,1.27-6.21,1.94Z"/><polygon class="cls-4" points="171.03 281.54 171.56 291.84 172.02 302.14 172.82 322.75 173.44 343.37 173.69 353.68 173.86 363.99 173.32 353.69 172.86 343.39 172.07 322.78 171.45 302.16 171.2 291.86 171.03 281.54"/><path class="cls-4" d="M168.08,287.75a1.94,1.94,0,0,1-1.33,2.24,1.94,1.94,0,1,1-.76-3.79A2,2,0,0,1,168.08,287.75Zm0,0a1.58,1.58,0,0,0-.78-1.06,1.55,1.55,0,0,0-1.24-.12,1.57,1.57,0,0,0,.62,3.05,1.56,1.56,0,0,0,1.1-.59A1.58,1.58,0,0,0,168.08,287.75Z"/><path class="cls-4" d="M168.79,300.1a1.94,1.94,0,0,1-2.86,2.07,1.94,1.94,0,0,1,.76-3.62A2,2,0,0,1,168.79,300.1Zm0,0A1.58,1.58,0,0,0,168,299a1.55,1.55,0,0,0-1.24-.12,1.57,1.57,0,1,0,1.72,2.46A1.61,1.61,0,0,0,168.79,300.1Z"/><path class="cls-4" d="M169.24,313.21a2,2,0,0,1-1.33,2.24,2,2,0,0,1-1.53-.17,1.94,1.94,0,0,1,.76-3.62A2,2,0,0,1,169.24,313.21Zm0,0a1.62,1.62,0,0,0-.78-1.07,1.59,1.59,0,0,0-1.24-.11,1.57,1.57,0,0,0,.62,3.05,1.6,1.6,0,0,0,1.1-.59A1.61,1.61,0,0,0,169.24,313.21Z"/><path class="cls-4" d="M169.69,326.32a2,2,0,0,1-1.33,2.24,2,2,0,0,1-1.53-.18,1.93,1.93,0,0,1-.93-1.3,2,2,0,0,1,.35-1.56,1.94,1.94,0,0,1,3.44.8Zm0,0a1.62,1.62,0,0,0-.78-1.07,1.59,1.59,0,0,0-1.24-.11,1.57,1.57,0,0,0,.62,3.05,1.6,1.6,0,0,0,1.1-.59A1.65,1.65,0,0,0,169.69,326.32Z"/><path class="cls-4" d="M170.14,339.43a1.93,1.93,0,0,1-1.33,2.23,1.94,1.94,0,0,1-2.11-3,2,2,0,0,1,1.34-.76A2,2,0,0,1,170.14,339.43Zm0,0a1.62,1.62,0,0,0-.78-1.07,1.56,1.56,0,0,0-2.28,1.68,1.57,1.57,0,0,0,1.65,1.26,1.64,1.64,0,0,0,1.11-.59A1.65,1.65,0,0,0,170.14,339.43Z"/><path class="cls-4" d="M170.59,352.53a1.94,1.94,0,0,1-1.33,2.24,1.93,1.93,0,0,1-2.46-1.47,2,2,0,0,1,.35-1.57,2,2,0,0,1,1.34-.75A2,2,0,0,1,170.59,352.53Zm0,0a1.57,1.57,0,0,0-2-1.18,1.57,1.57,0,0,0,.61,3.06,1.64,1.64,0,0,0,1.11-.59A1.68,1.68,0,0,0,170.59,352.53Z"/><rect class="cls-3" x="127.56" y="379.56" width="48.98" height="5.72" transform="translate(-104.38 60.54) rotate(-16.86)"/><rect class="cls-8" x="127.56" y="379.56" width="48.98" height="5.72" transform="translate(-104.38 60.54) rotate(-16.86)"/><rect class="cls-3" x="147.9" y="378.17" width="5.72" height="8.5" transform="translate(-108.82 63.68) rotate(-17.64)"/><polygon class="cls-3" points="129.05 400.28 116.96 347.9 80.45 356.56 98.42 407.61 129.05 400.28"/><polygon class="cls-3" points="137.15 397.62 129.05 400.28 116.96 347.9 128.61 350.68 137.15 397.62"/><polygon class="cls-6" points="137.15 397.62 129.05 400.28 116.96 347.9 128.61 350.68 137.15 397.62"/><circle class="cls-3" cx="175.49" cy="375.31" r="6.21"/><rect class="cls-3" x="259.17" y="357.83" width="5.72" height="48.98" transform="translate(-180.15 521.28) rotate(-73.02)"/><rect class="cls-8" x="259.17" y="357.83" width="5.72" height="48.98" transform="translate(-180.15 521.28) rotate(-73.02)"/><rect class="cls-3" x="259.07" y="379.46" width="8.5" height="5.72" transform="translate(-181.14 516.38) rotate(-72.23)"/><polygon class="cls-3" points="284.98 400.24 297.19 347.88 333.68 356.62 315.6 407.63 284.98 400.24"/><polygon class="cls-3" points="276.89 397.56 284.98 400.24 297.19 347.88 285.53 350.63 276.89 397.56"/><polygon class="cls-6" points="276.89 397.56 284.98 400.24 297.19 347.88 285.53 350.63 276.89 397.56"/><path class="cls-3" d="M232.39,375.16a6.22,6.22,0,1,0,6.23-6.2A6.22,6.22,0,0,0,232.39,375.16Z"/><path class="cls-3" d="M279.29,310.55c.15-.14,15.2-14.1,32.91-9.32,18.12,4.88,33.07,32.16,33.22,32.44l5-2.72c-.65-1.21-16.25-29.73-36.76-35.25-20.85-5.62-37.64,10-38.34,10.7Z"/><path class="cls-8" d="M279.29,310.55c.15-.14,15.2-14.1,32.91-9.32,18.12,4.88,33.07,32.16,33.22,32.44l5-2.72c-.65-1.21-16.25-29.73-36.76-35.25-20.85-5.62-37.64,10-38.34,10.7Z"/><path class="cls-3" d="M338.74,361.13l10.85-5.72a23,23,0,0,1-2.51-8.42c-.24-4,1.33-5.36,3.07-6.28,3.8-2,6.07-1.21,7.61-.29,2.18,1.28,4.39,3.9,6.23,7.39l10.84-5.73c-3-5.62-6.61-9.74-10.83-12.23s-11-4.5-19.58,0c-6.67,3.52-10.07,9.86-9.58,17.86A35.36,35.36,0,0,0,338.74,361.13Z"/><path class="cls-2" d="M281.58,291.44c2.35-1.62,4.75-3.15,7.17-4.67s4.86-3,7.3-4.44,4.93-2.87,7.43-4.24l3.75-2c1.27-.65,2.53-1.33,3.81-2-1.17.82-2.37,1.59-3.56,2.38l-3.61,2.29c-2.41,1.53-4.86,3-7.31,4.44s-4.92,2.87-7.42,4.24S284.14,290.17,281.58,291.44Z"/><path class="cls-2" d="M275.35,314.84c3.36,1.92,6.55,4.09,9.7,6.31s6.22,4.56,9.13,7.12c-3.37-1.91-6.56-4.08-9.71-6.3S278.26,317.4,275.35,314.84Z"/><path class="cls-2" d="M280.88,312c2.59.78,5.15,1.68,7.7,2.58s5.09,1.87,7.61,2.84,5,2,7.53,3.05l3.73,1.6c1.24.57,2.48,1.11,3.7,1.7-1.3-.38-2.58-.83-3.87-1.24l-3.84-1.34c-2.55-.9-5.08-1.87-7.61-2.84s-5-2-7.52-3.05S283.32,313.14,280.88,312Z"/><path class="cls-2" d="M288.26,293.64c2.49-.65,5-1.19,7.51-1.71s5-1,7.55-1.45,5.06-.86,7.6-1.22l3.81-.52c1.28-.14,2.55-.32,3.83-.43-1.24.33-2.5.6-3.74.91l-3.77.8c-2.51.53-5,1-7.55,1.45s-5.06.86-7.6,1.21S290.82,293.4,288.26,293.64Z"/></g><g id="Gears"><path class="cls-2" d="M228.25,309.21a26.61,26.61,0,0,1,2-5.88,24,24,0,0,1,3.3-5.28,12.84,12.84,0,0,1,5-3.75,8.85,8.85,0,0,1,6.31.06,8.38,8.38,0,0,1,4.5,4.47,10.12,10.12,0,0,1,.85,3.11,6.94,6.94,0,0,1-.37,3.27,3,3,0,0,1-1.11,1.41,2.2,2.2,0,0,1-1.9.25,2.91,2.91,0,0,1-1.29-1.31A8.27,8.27,0,0,1,245,304a20.41,20.41,0,0,1-.52-6.31,26,26,0,0,1,3.65-12,15.52,15.52,0,0,1,4.34-4.61,13.25,13.25,0,0,1,5.89-2.28,17.37,17.37,0,0,1,3.14-.27,9.32,9.32,0,0,1,1.58.1,10.26,10.26,0,0,1,1.56.21,19.36,19.36,0,0,1,5.85,2.21,24.13,24.13,0,0,1,4.9,3.85,25.72,25.72,0,0,1,3.86,4.85,26.87,26.87,0,0,0-9-8.27,18.66,18.66,0,0,0-5.73-2,9.44,9.44,0,0,0-1.5-.17,9.66,9.66,0,0,0-1.52-.06,16,16,0,0,0-3,.33,13.14,13.14,0,0,0-5.53,2.23,14.78,14.78,0,0,0-4.06,4.38,25.08,25.08,0,0,0-3.42,11.54,19.62,19.62,0,0,0,.44,6,3.52,3.52,0,0,0,1.31,2.24c.08,0,.13.05.23.06a2.71,2.71,0,0,0,.29,0,1.47,1.47,0,0,0,.54-.2,2.08,2.08,0,0,0,.76-1,6.08,6.08,0,0,0,.33-2.83,9.12,9.12,0,0,0-.76-2.85,7.78,7.78,0,0,0-4-4.11,8.16,8.16,0,0,0-5.8-.18,12.5,12.5,0,0,0-4.87,3.48A27,27,0,0,0,228.25,309.21Z"/><path class="cls-2" d="M135.84,335.12a14.35,14.35,0,0,1,4-4.63,15,15,0,0,1,5.6-2.68,12,12,0,0,1,6.26.12,12.53,12.53,0,0,1,5.34,3.32,16,16,0,0,1,3.34,5.33,14.66,14.66,0,0,1,1,6.23,5.17,5.17,0,0,1-1.16,3.12,2.42,2.42,0,0,1-1.68.76,3.62,3.62,0,0,1-1.73-.39,2.79,2.79,0,0,1-1.24-1.32,4.35,4.35,0,0,1-.37-1.68,9.17,9.17,0,0,1,.53-3.19,18.36,18.36,0,0,1,3.06-5.51,22,22,0,0,1,4.53-4.35A16.88,16.88,0,0,1,175.3,327,15.81,15.81,0,0,1,186,333a21.66,21.66,0,0,1,3.09,5.38,24.7,24.7,0,0,1,1.63,5.94,25,25,0,0,0-5.11-11,15.55,15.55,0,0,0-4.65-3.82,15.17,15.17,0,0,0-5.73-1.72A16.18,16.18,0,0,0,163.93,331a20.52,20.52,0,0,0-7.2,9.42,8.35,8.35,0,0,0-.5,2.85,2.4,2.4,0,0,0,1.1,2.2,2.53,2.53,0,0,0,1.25.29,1.48,1.48,0,0,0,1-.47,4.23,4.23,0,0,0,.92-2.56,13.69,13.69,0,0,0-.94-5.84,15.56,15.56,0,0,0-3.12-5.08,11.8,11.8,0,0,0-5-3.21,11.36,11.36,0,0,0-5.93-.27A15.41,15.41,0,0,0,135.84,335.12Z"/><path class="cls-2" d="M89.58,93.63a27,27,0,0,0-2.9-11.87,12.38,12.38,0,0,0-3.9-4.55A8.21,8.21,0,0,0,77.1,76a7.83,7.83,0,0,0-4.88,3,9.53,9.53,0,0,0-1.41,2.58,6.19,6.19,0,0,0-.36,2.83A2.11,2.11,0,0,0,71,85.59a1.16,1.16,0,0,0,.47.32,1.29,1.29,0,0,0,.28.08A1.91,1.91,0,0,0,72,86c.68-.13,1.35-1,1.8-1.86a19.33,19.33,0,0,0,1.86-5.71,24.82,24.82,0,0,0-.57-12,14.74,14.74,0,0,0-2.89-5.23,13.05,13.05,0,0,0-4.84-3.48,15.93,15.93,0,0,0-2.85-1,8.26,8.26,0,0,0-1.48-.3,8.56,8.56,0,0,0-1.51-.2,18.71,18.71,0,0,0-6,.6,26.8,26.8,0,0,0-10.71,5.88,25.77,25.77,0,0,1,4.9-3.79,24.45,24.45,0,0,1,5.68-2.57,19.42,19.42,0,0,1,6.21-.75,9.2,9.2,0,0,1,1.57.17,9.85,9.85,0,0,1,1.55.28,16.47,16.47,0,0,1,3,1A13.15,13.15,0,0,1,72.8,60.6a15.68,15.68,0,0,1,3.11,5.51A25.92,25.92,0,0,1,76.6,78.6a20.61,20.61,0,0,1-2,6A8.7,8.7,0,0,1,73.65,86a2.85,2.85,0,0,1-1.57,1,2.24,2.24,0,0,1-1.79-.69,3,3,0,0,1-.73-1.64A6.86,6.86,0,0,1,70,81.33a10,10,0,0,1,1.56-2.82A8.47,8.47,0,0,1,77,75.24a8.89,8.89,0,0,1,6.15,1.45,12.86,12.86,0,0,1,4,4.84,24,24,0,0,1,2,5.92A27.32,27.32,0,0,1,89.58,93.63Z"/><path class="cls-2" d="M310.4,145.79a27,27,0,0,0-12.22.05,12.34,12.34,0,0,0-5.33,2.74,8.15,8.15,0,0,0-2.51,5.23,7.81,7.81,0,0,0,1.82,5.45,9.13,9.13,0,0,0,2.18,2,6.21,6.21,0,0,0,2.67,1,2.16,2.16,0,0,0,1.23-.23,1.38,1.38,0,0,0,.42-.38,2.15,2.15,0,0,0,.14-.26c0-.09,0-.15.06-.23,0-.69-.69-1.55-1.39-2.19a19.79,19.79,0,0,0-5.12-3.14,25.08,25.08,0,0,0-11.83-2.25,14.71,14.71,0,0,0-5.75,1.6,13,13,0,0,0-4.52,3.89,16.25,16.25,0,0,0-1.68,2.52,8.6,8.6,0,0,0-.63,1.38,9.06,9.06,0,0,0-.55,1.42,19,19,0,0,0-.83,6,27.09,27.09,0,0,0,3.22,11.79,26.33,26.33,0,0,1-2.54-5.65,24.45,24.45,0,0,1-1.17-6.12,19.28,19.28,0,0,1,.72-6.22,9.66,9.66,0,0,1,.53-1.48,9.34,9.34,0,0,1,.63-1.45,17.19,17.19,0,0,1,1.69-2.67,13.33,13.33,0,0,1,4.72-4.19,15.91,15.91,0,0,1,6.09-1.74,26,26,0,0,1,12.3,2.25,20.47,20.47,0,0,1,5.37,3.35,7.74,7.74,0,0,1,1.1,1.24,2.79,2.79,0,0,1,.57,1.74,2.06,2.06,0,0,1-.38.93,2.2,2.2,0,0,1-.71.65,3,3,0,0,1-1.77.33,6.84,6.84,0,0,1-3.07-1.17,10.07,10.07,0,0,1-2.38-2.18,8.4,8.4,0,0,1-1.9-6.05,8.9,8.9,0,0,1,2.84-5.64,12.93,12.93,0,0,1,5.64-2.74,24,24,0,0,1,6.21-.51A27.06,27.06,0,0,1,310.4,145.79Z"/><path class="cls-2" d="M248.49,81.09a17,17,0,0,1-.4-7.35,18.21,18.21,0,0,1,2.57-7,14.36,14.36,0,0,1,5.45-5.1,14.85,14.85,0,0,1,7.32-1.6,19,19,0,0,1,7.29,1.76,17.49,17.49,0,0,1,6.07,4.45,6.12,6.12,0,0,1,1.6,3.59,2.83,2.83,0,0,1-.79,2A4.27,4.27,0,0,1,275.84,73a3.31,3.31,0,0,1-2.11-.09A5.17,5.17,0,0,1,272,71.76a10.93,10.93,0,0,1-2.2-3.15,22,22,0,0,1-2-7.25,26.12,26.12,0,0,1,.23-7.49,20.13,20.13,0,0,1,7.42-12.74,19.17,19.17,0,0,1,6.69-3.32,19.46,19.46,0,0,1,7.44-.48,26.35,26.35,0,0,1,7.14,2,29.89,29.89,0,0,1,6.39,3.7,29.88,29.88,0,0,0-13.59-5.19,18.8,18.8,0,0,0-7.2.6,18.81,18.81,0,0,0-11,8.79A21.23,21.23,0,0,0,269,54a24.74,24.74,0,0,0,1.73,14.15,10,10,0,0,0,2,2.89,3,3,0,0,0,2.88,1,3.28,3.28,0,0,0,1.35-.83,1.86,1.86,0,0,0,.54-1.35,5.32,5.32,0,0,0-1.38-3,16.52,16.52,0,0,0-5.73-4.23,18.74,18.74,0,0,0-7-1.74,14.35,14.35,0,0,0-7,1.41,13.84,13.84,0,0,0-5.31,4.77A18.4,18.4,0,0,0,248.49,81.09Z"/><path class="cls-10" d="M132.5,335.34a4.25,4.25,0,1,0,2.78,5.34A4.25,4.25,0,0,0,132.5,335.34Zm2.28,5.18a3.73,3.73,0,1,1-2.43-4.68A3.73,3.73,0,0,1,134.78,340.52Zm-2.28-5.18a4.25,4.25,0,1,0,2.78,5.34A4.25,4.25,0,0,0,132.5,335.34Zm2.28,5.18a3.73,3.73,0,1,1-2.43-4.68A3.73,3.73,0,0,1,134.78,340.52Zm-2.28-5.18a4.25,4.25,0,1,0,2.78,5.34A4.25,4.25,0,0,0,132.5,335.34Zm2.28,5.18a3.73,3.73,0,1,1-2.43-4.68A3.73,3.73,0,0,1,134.78,340.52Zm-.86-9.67a9,9,0,1,0,5.85,11.24A9,9,0,0,0,133.92,330.85Zm2,10a4.91,4.91,0,1,1-3.21-6.16A4.92,4.92,0,0,1,135.91,340.87Zm-.63-.19a4.25,4.25,0,1,0-5.33,2.77A4.27,4.27,0,0,0,135.28,340.68Zm-.5-.16a3.73,3.73,0,1,1-2.43-4.68A3.73,3.73,0,0,1,134.78,340.52Zm-2.28-5.18a4.25,4.25,0,1,0,2.78,5.34A4.25,4.25,0,0,0,132.5,335.34Zm2.28,5.18a3.73,3.73,0,1,1-2.43-4.68A3.73,3.73,0,0,1,134.78,340.52Zm-2.28-5.18a4.25,4.25,0,1,0,2.78,5.34A4.25,4.25,0,0,0,132.5,335.34Zm2.28,5.18a3.73,3.73,0,1,1-2.43-4.68A3.73,3.73,0,0,1,134.78,340.52Z"/><polygon class="cls-10" points="130.28 348.11 127 347.07 126.44 349.46 129.37 350.38 130.28 348.11"/><polygon class="cls-10" points="124.38 345.03 122.78 341.97 120.71 343.27 122.12 345.99 124.38 345.03"/><polygon class="cls-10" points="122.38 338.68 123.41 335.39 121.03 334.84 120.11 337.76 122.38 338.68"/><polygon class="cls-10" points="125.45 332.77 128.51 331.18 127.22 329.1 124.5 330.52 125.45 332.77"/><polygon class="cls-10" points="131.81 330.77 135.09 331.81 135.65 329.42 132.72 328.5 131.81 330.77"/><polygon class="cls-10" points="137.72 333.85 139.31 336.9 141.38 335.61 139.97 332.89 137.72 333.85"/><polygon class="cls-10" points="139.72 340.2 138.68 343.49 141.06 344.04 141.99 341.12 139.72 340.2"/><polygon class="cls-10" points="136.64 346.11 133.58 347.7 134.88 349.78 137.59 348.36 136.64 346.11"/><path class="cls-2" d="M298.3,306.77a13.7,13.7,0,1,0-19.16,2.84A13.69,13.69,0,0,0,298.3,306.77Zm-5.86-4.35a6.4,6.4,0,1,1-1.33-8.95A6.4,6.4,0,0,1,292.44,302.42Z"/><polygon class="cls-2" points="281.59 310.72 277.36 307.58 275.37 310.75 279.13 313.54 281.59 310.72"/><polygon class="cls-2" points="274.6 303.32 273.82 298.11 270.18 298.94 270.86 303.58 274.6 303.32"/><polygon class="cls-2" points="274.88 293.14 278.02 288.91 274.86 286.92 272.06 290.69 274.88 293.14"/><polygon class="cls-2" points="282.28 286.15 287.5 285.38 286.66 281.73 282.03 282.42 282.28 286.15"/><polygon class="cls-2" points="292.46 286.44 296.69 289.58 298.68 286.41 294.92 283.62 292.46 286.44"/><polygon class="cls-2" points="299.45 293.84 300.23 299.05 303.87 298.21 303.19 293.58 299.45 293.84"/><polygon class="cls-2" points="299.17 304.01 296.03 308.25 299.2 310.23 301.99 306.47 299.17 304.01"/><polygon class="cls-2" points="291.77 311.01 286.56 311.78 287.39 315.43 292.02 314.74 291.77 311.01"/><path class="cls-2" d="M282.39,299.26l2.91,3.67,4.64-.68,1.72-4.36-2.91-3.67-4.64.69Zm5.52-1.87a1.48,1.48,0,1,1-2.08.3A1.47,1.47,0,0,1,287.91,297.39Z"/><path class="cls-2" d="M308.57,40A3.72,3.72,0,1,0,311,44.69,3.72,3.72,0,0,0,308.57,40Zm2,4.53a3.27,3.27,0,1,1-2.14-4.09A3.28,3.28,0,0,1,310.57,44.55Zm-2-4.53A3.72,3.72,0,1,0,311,44.69,3.72,3.72,0,0,0,308.57,40Zm2,4.53a3.27,3.27,0,1,1-2.14-4.09A3.28,3.28,0,0,1,310.57,44.55Zm-2-4.53A3.72,3.72,0,1,0,311,44.69,3.72,3.72,0,0,0,308.57,40Zm2,4.53a3.27,3.27,0,1,1-2.14-4.09A3.28,3.28,0,0,1,310.57,44.55Zm-.76-8.46a7.84,7.84,0,1,0,5.12,9.84A7.85,7.85,0,0,0,309.81,36.09Zm1.74,8.77a4.3,4.3,0,1,1-2.81-5.39A4.3,4.3,0,0,1,311.55,44.86Zm-.55-.17a3.72,3.72,0,1,0-4.67,2.43A3.72,3.72,0,0,0,311,44.69Zm-.43-.14a3.27,3.27,0,1,1-2.14-4.09A3.28,3.28,0,0,1,310.57,44.55Zm-2-4.53A3.72,3.72,0,1,0,311,44.69,3.72,3.72,0,0,0,308.57,40Zm2,4.53a3.27,3.27,0,1,1-2.14-4.09A3.28,3.28,0,0,1,310.57,44.55Zm-2-4.53A3.72,3.72,0,1,0,311,44.69,3.72,3.72,0,0,0,308.57,40Zm2,4.53a3.27,3.27,0,1,1-2.14-4.09A3.28,3.28,0,0,1,310.57,44.55Z"/><polygon class="cls-2" points="306.63 51.19 303.75 50.29 303.27 52.37 305.83 53.18 306.63 51.19"/><polygon class="cls-2" points="301.46 48.5 300.07 45.82 298.25 46.96 299.49 49.34 301.46 48.5"/><polygon class="cls-2" points="299.71 42.94 300.62 40.06 298.53 39.58 297.73 42.14 299.71 42.94"/><polygon class="cls-2" points="302.4 37.77 305.08 36.38 303.94 34.56 301.57 35.8 302.4 37.77"/><polygon class="cls-2" points="307.96 36.02 310.84 36.93 311.32 34.84 308.76 34.03 307.96 36.02"/><polygon class="cls-2" points="313.13 38.71 314.53 41.39 316.34 40.26 315.1 37.88 313.13 38.71"/><polygon class="cls-2" points="314.88 44.27 313.98 47.15 316.06 47.63 316.87 45.07 314.88 44.27"/><polygon class="cls-2" points="312.19 49.44 309.51 50.84 310.65 52.65 313.03 51.41 312.19 49.44"/><path class="cls-2" d="M270.35,182.89a3.72,3.72,0,1,0,2.43,4.66A3.71,3.71,0,0,0,270.35,182.89Zm2,4.53a3.27,3.27,0,1,1-2.13-4.1A3.26,3.26,0,0,1,272.35,187.42Zm-2-4.53a3.72,3.72,0,1,0,2.43,4.66A3.71,3.71,0,0,0,270.35,182.89Zm2,4.53a3.27,3.27,0,1,1-2.13-4.1A3.26,3.26,0,0,1,272.35,187.42Zm-2-4.53a3.72,3.72,0,1,0,2.43,4.66A3.71,3.71,0,0,0,270.35,182.89Zm2,4.53a3.27,3.27,0,1,1-2.13-4.1A3.26,3.26,0,0,1,272.35,187.42Zm-.76-8.46a7.84,7.84,0,1,0,5.12,9.83A7.84,7.84,0,0,0,271.59,179Zm1.74,8.77a4.29,4.29,0,1,1-2.8-5.39A4.3,4.3,0,0,1,273.33,187.73Zm-.55-.18a3.72,3.72,0,1,0-4.66,2.43A3.71,3.71,0,0,0,272.78,187.55Zm-.43-.13a3.27,3.27,0,1,1-2.13-4.1A3.26,3.26,0,0,1,272.35,187.42Zm-2-4.53a3.72,3.72,0,1,0,2.43,4.66A3.71,3.71,0,0,0,270.35,182.89Zm2,4.53a3.27,3.27,0,1,1-2.13-4.1A3.26,3.26,0,0,1,272.35,187.42Zm-2-4.53a3.72,3.72,0,1,0,2.43,4.66A3.71,3.71,0,0,0,270.35,182.89Zm2,4.53a3.27,3.27,0,1,1-2.13-4.1A3.26,3.26,0,0,1,272.35,187.42Z"/><polygon class="cls-2" points="268.41 194.06 265.54 193.15 265.06 195.24 267.61 196.04 268.41 194.06"/><polygon class="cls-2" points="263.24 191.36 261.85 188.69 260.04 189.82 261.27 192.2 263.24 191.36"/><polygon class="cls-2" points="261.49 185.8 262.4 182.93 260.31 182.45 259.51 185 261.49 185.8"/><polygon class="cls-2" points="264.19 180.63 266.86 179.24 265.73 177.43 263.35 178.66 264.19 180.63"/><polygon class="cls-2" points="269.75 178.88 272.62 179.79 273.11 177.71 270.55 176.9 269.75 178.88"/><polygon class="cls-2" points="274.92 181.58 276.31 184.25 278.13 183.12 276.89 180.74 274.92 181.58"/><polygon class="cls-2" points="276.67 187.14 275.76 190.01 277.85 190.5 278.65 187.94 276.67 187.14"/><polygon class="cls-2" points="273.97 192.31 271.3 193.7 272.43 195.52 274.81 194.28 273.97 192.31"/><path class="cls-2" d="M51.65,70.41A11.79,11.79,0,1,0,37.4,79.08,11.8,11.8,0,0,0,51.65,70.41Zm-6.11-1.48a5.51,5.51,0,1,1-4-6.66A5.52,5.52,0,0,1,45.54,68.93Z"/><polygon class="cls-2" points="39.71 79.14 35.31 78.07 34.79 81.25 38.71 82.2 39.71 79.14"/><polygon class="cls-2" points="31.69 75.62 29.33 71.74 26.72 73.62 28.81 77.07 31.69 75.62"/><polygon class="cls-2" points="28.51 67.44 29.58 63.04 26.4 62.52 25.45 66.44 28.51 67.44"/><polygon class="cls-2" points="32.04 59.42 35.91 57.06 34.03 54.45 30.58 56.55 32.04 59.42"/><polygon class="cls-2" points="40.21 56.24 44.61 57.31 45.13 54.13 41.21 53.18 40.21 56.24"/><polygon class="cls-2" points="48.23 59.77 50.59 63.64 53.2 61.76 51.11 58.31 48.23 59.77"/><polygon class="cls-2" points="51.41 67.94 50.34 72.34 53.52 72.86 54.47 68.94 51.41 67.94"/><polygon class="cls-2" points="47.88 75.96 44.01 78.32 45.89 80.93 49.34 78.84 47.88 75.96"/><path class="cls-2" d="M36.51,69.79l3.54,1.93,3.45-2.09-.1-4-3.53-1.94-3.45,2.09Zm3.75-3.34a1.28,1.28,0,1,1-1.54.94A1.27,1.27,0,0,1,40.26,66.45Z"/></g></g></svg>