<svg xmlns="http://www.w3.org/2000/svg" viewBox="0 0 288.12 288.12"><defs><style>.cls-1{fill:#fff;}</style></defs><g id="Layer_2" data-name="Layer 2"><g id="BACKGROUND"><path class="cls-1" d="M144.06,0A144.06,144.06,0,1,0,288.12,144.06,144.06,144.06,0,0,0,144.06,0Zm0,257.62A113.58,113.58,0,0,1,116.2,33.93l.09.28a1.21,1.21,0,0,0,0,.18C74.86,46.29,44.46,84.2,44.46,129.14c0,54.47,44.66,98.62,99.6,98.62l1.83,0c.53,0,1.05,0,1.58,0A81.6,81.6,0,0,0,170.79,68l.05,83.73c0,14.83-10,30.5-26.58,39.3-22.21,11.77-47.9,6.8-57.38-11.09s.85-41.93,23.06-53.7c11.35-6,23.61-7.65,34.15-5.43l0-56.16V30.5h1.47l1.1,0a113.56,113.56,0,0,1-2.57,227.09Z"/></g></g></svg>