<svg xmlns="http://www.w3.org/2000/svg" xmlns:xlink="http://www.w3.org/1999/xlink" viewBox="0 0 201.6 201.6"><defs><style>.cls-1,.cls-11,.cls-12,.cls-13,.cls-14,.cls-15,.cls-16{fill:none;}.cls-2{fill:url(#Degradado_sin_nombre_3);}.cls-3{fill:url(#Degradado_sin_nombre_2);}.cls-4{fill:url(#Degradado_sin_nombre_4);}.cls-5{fill:url(#Degradado_sin_nombre_3-2);}.cls-6{fill:url(#Degradado_sin_nombre_2-2);}.cls-7{fill:url(#Degradado_sin_nombre_2-3);}.cls-8{fill:url(#Degradado_sin_nombre_2-4);}.cls-9{fill:url(#Degradado_sin_nombre_2-5);}.cls-10{fill:url(#Degradado_sin_nombre_2-6);}.cls-11,.cls-12,.cls-13,.cls-14,.cls-15,.cls-16{stroke-linecap:round;stroke-miterlimit:10;}.cls-11,.cls-12,.cls-13,.cls-14,.cls-15{stroke-width:1.02px;}.cls-11{stroke:url(#Degradado_sin_nombre_2-7);}.cls-12{stroke:url(#Degradado_sin_nombre_2-8);}.cls-13{stroke:url(#Degradado_sin_nombre_2-9);}.cls-14{stroke:url(#Degradado_sin_nombre_2-10);}.cls-15{stroke:url(#Degradado_sin_nombre_2-11);}.cls-16{stroke:#fff;stroke-width:0.76px;}.cls-17{fill:#fff;}</style><linearGradient id="Degradado_sin_nombre_3" x1="15.61" y1="61.6" x2="60.6" y2="101.05" gradientUnits="userSpaceOnUse"><stop offset="0" stop-color="#ef2921"/><stop offset="1" stop-color="#ee461c"/></linearGradient><linearGradient id="Degradado_sin_nombre_2" x1="13.97" y1="106.37" x2="87.83" y2="171.14" gradientTransform="translate(7.42 -2.37) rotate(3.07)" gradientUnits="userSpaceOnUse"><stop offset="0" stop-color="#f1ccd2"/><stop offset="1" stop-color="#ef3818"/></linearGradient><linearGradient id="Degradado_sin_nombre_4" x1="37.27" y1="99.55" x2="178.94" y2="99.55" gradientUnits="userSpaceOnUse"><stop offset="0" stop-color="#ee241c"/><stop offset="1" stop-color="#eb3d2b"/></linearGradient><linearGradient id="Degradado_sin_nombre_3-2" x1="-18.95" y1="92.56" x2="143.46" y2="92.56" gradientTransform="translate(152.71 207.99) rotate(-170.42)" xlink:href="#Degradado_sin_nombre_3"/><linearGradient id="Degradado_sin_nombre_2-2" x1="110.88" y1="36.24" x2="132.13" y2="36.24" gradientTransform="translate(137.81 -89.5) rotate(80.78)" xlink:href="#Degradado_sin_nombre_2"/><linearGradient id="Degradado_sin_nombre_2-3" x1="166.43" y1="140.51" x2="181.3" y2="140.51" gradientTransform="translate(18.47 -20.19) rotate(7.02)" xlink:href="#Degradado_sin_nombre_2"/><linearGradient id="Degradado_sin_nombre_2-4" x1="84.87" y1="61.69" x2="179.38" y2="61.69" gradientTransform="matrix(1, 0, 0, 1, 0, 0)" xlink:href="#Degradado_sin_nombre_2"/><linearGradient id="Degradado_sin_nombre_2-5" x1="106.91" y1="166.45" x2="163.77" y2="166.45" gradientTransform="matrix(1, 0, 0, 1, 0, 0)" xlink:href="#Degradado_sin_nombre_2"/><linearGradient id="Degradado_sin_nombre_2-6" x1="32.63" y1="32.18" x2="90.95" y2="32.18" gradientTransform="matrix(1, 0, 0, 1, 0, 0)" xlink:href="#Degradado_sin_nombre_2"/><linearGradient id="Degradado_sin_nombre_2-7" x1="26.65" y1="157.08" x2="79.85" y2="157.08" gradientTransform="matrix(1, 0, 0, 1, 0, 0)" xlink:href="#Degradado_sin_nombre_2"/><linearGradient id="Degradado_sin_nombre_2-8" x1="172.21" y1="146.64" x2="184.43" y2="146.64" gradientTransform="matrix(1, 0, 0, 1, 0, 0)" xlink:href="#Degradado_sin_nombre_2"/><linearGradient id="Degradado_sin_nombre_2-9" x1="154.66" y1="49.49" x2="175.37" y2="49.49" gradientTransform="matrix(1, 0, 0, 1, 0, 0)" xlink:href="#Degradado_sin_nombre_2"/><linearGradient id="Degradado_sin_nombre_2-10" x1="12.46" y1="93.81" x2="18.57" y2="93.81" gradientTransform="matrix(1, 0, 0, 1, 0, 0)" xlink:href="#Degradado_sin_nombre_2"/><linearGradient id="Degradado_sin_nombre_2-11" x1="21.83" y1="57.92" x2="32.22" y2="57.92" gradientTransform="matrix(1, 0, 0, 1, 0, 0)" xlink:href="#Degradado_sin_nombre_2"/></defs><g id="Layer_2" data-name="Layer 2"><g id="OBJECTS"><rect class="cls-1" width="201.6" height="201.6"/><path class="cls-2" d="M52.16,43.83S17.88,59.92,18.07,94.94c.15,28.63,11.45,28.45,21.75,29.22s13.91-12.62,6.44-18.8S30.42,92.88,30.17,85.93c-.42-11.31,15.57-17.77,21.24-24.46S54.41,44.11,52.16,43.83Z"/><path class="cls-3" d="M29.86,116.12s-2.72,48.17,37.65,59.82,30.28-23.7,13.91-35.79S33.6,106.65,29.86,116.12Z"/><path class="cls-4" d="M47.65,68.8C62.28,41.89,80.6,32.92,100.13,33.1c21.54.19-10.24,36.69,12.17,32.05s48.4-11.86,56.63.7c9.16,14,10.67,40.69,9.8,48.14-1,8.44-13.65,34.37-34.25,43.87-28.23,13-66.43,8.69-87-.74-14.15-6.49-20.19-44.5-20.19-44.5S41.21,80.66,47.65,68.8Z"/><path class="cls-5" d="M138,160.48c-26.34,5.41-57,15.93-85.5-3.7C26.66,139,24.79,102.69,28.76,80.32c3.35-18.8,13.32-44.75,31.64-46.55C85.65,31.3,84,63.38,113.58,79.1c18,9.56,60.77-9.82,71.36,4.84C202.51,108.26,168.17,154.28,138,160.48Z"/><circle class="cls-6" cx="121.5" cy="36.24" r="10.62" transform="translate(66.27 150.36) rotate(-80.78)"/><circle class="cls-7" cx="173.87" cy="140.51" r="7.43" transform="translate(-15.87 22.3) rotate(-7.02)"/><path class="cls-8" d="M95.19,48.51a42.82,42.82,0,0,0,6.92,7.56,34.41,34.41,0,0,0,8.38,5.18A38.71,38.71,0,0,0,129.24,64a68.82,68.82,0,0,0,18.67-4.52,122.84,122.84,0,0,0,17.65-8.6,10,10,0,0,1,10,17.25,10.24,10.24,0,0,1-2,.88l-.12,0a139.42,139.42,0,0,1-21.86,5.08,81,81,0,0,1-22.76.27,52.4,52.4,0,0,1-11.15-2.82,42.22,42.22,0,0,1-10-5.4,39,39,0,0,1-8-7.8A45.45,45.45,0,0,1,94.33,49l0,0a.51.51,0,0,1,.27-.67A.5.5,0,0,1,95.19,48.51Z"/><path class="cls-9" d="M120.67,152c-22.06-5.41-14.81,29.62,2.19,32.74s45.94-28.07,40.16-35S149,159,120.67,152Z"/><path class="cls-10" d="M85.13,41.9a46.05,46.05,0,0,0-10.55-9,28.39,28.39,0,0,0-12.39-4.41A19.83,19.83,0,0,0,56,28.9a21.2,21.2,0,0,0-5.73,2.31,29.7,29.7,0,0,0-2.64,1.71c-.82.69-1.67,1.3-2.45,2.07a43.25,43.25,0,0,0-4.43,4.81l-.11.12A4.64,4.64,0,0,1,33.47,34l.34-.36a52,52,0,0,1,6-5.22c1-.82,2.23-1.52,3.37-2.25a36,36,0,0,1,3.67-1.85,28.49,28.49,0,0,1,8-2.22,26.37,26.37,0,0,1,8.23.33,33.76,33.76,0,0,1,14.09,6.74,49.7,49.7,0,0,1,10.33,11,1.48,1.48,0,0,1-2.34,1.81Z"/><path class="cls-11" d="M27.16,133.08s6.48,49.27,52.18,48"/><path class="cls-12" d="M172.72,150.74s9,1,11.2-8.24"/><path class="cls-13" d="M155.17,52.71s9.91-8.74,19.69-5.85"/><path class="cls-14" d="M18.06,70.62C13,81.43,10,97,17.42,117"/><path class="cls-15" d="M31.71,52.71a47.65,47.65,0,0,0-9.37,10.42"/><line class="cls-16" x1="105.41" y1="181.69" x2="140.36" y2="146.74"/><line class="cls-16" x1="15.85" y1="94.86" x2="50.8" y2="59.91"/><line class="cls-16" x1="11.88" y1="105.92" x2="46.82" y2="70.97"/><line class="cls-16" x1="108.1" y1="73.34" x2="143.05" y2="38.39"/><path class="cls-17" d="M162.18,176.62H31.53A14.67,14.67,0,0,1,18.41,155.4l13.4-26.87,1.49,3.92L21.15,156.77a11.6,11.6,0,0,0,10.38,16.79H162.18a11.6,11.6,0,0,0,10.38-16.79L107.23,26.11a11.6,11.6,0,0,0-20.75,0L79,41.09,76.67,38.8l7.07-14.06a14.67,14.67,0,0,1,26.23,0L175.3,155.4a14.67,14.67,0,0,1-13.12,21.22Z"/><path class="cls-17" d="M54.79,44.34a.67.67,0,0,1,.68.68v1.16h1.17a.68.68,0,0,1,0,1.36H55.47v1.17a.68.68,0,0,1-1.36,0V47.54H53a.68.68,0,0,1,0-1.36h1.16V45a.68.68,0,0,1,.68-.68h0m0-.26a.94.94,0,0,0-.93.94v.91H53a.94.94,0,0,0-.94.93.91.91,0,0,0,.28.66.9.9,0,0,0,.66.27h.91v.92a.93.93,0,0,0,1.59.66.92.92,0,0,0,.28-.66v-.92h.91a.93.93,0,0,0,0-1.86h-.91V45a.94.94,0,0,0-.94-.94Z"/><path class="cls-17" d="M177.39,100.43a.68.68,0,0,1,.68.68v1.16h1.16a.68.68,0,1,1,0,1.36h-1.16v1.16a.68.68,0,0,1-1.36,0v-1.16h-1.17a.68.68,0,1,1,0-1.36h1.17v-1.16a.67.67,0,0,1,.68-.68m0-.26a.94.94,0,0,0-.94.94V102h-.91a.93.93,0,0,0-.93.93,1,1,0,0,0,.27.66.91.91,0,0,0,.66.27h.91v.91a.94.94,0,1,0,1.87,0v-.91h.91a.9.9,0,0,0,.66-.27.92.92,0,0,0,.28-.66.94.94,0,0,0-.94-.93h-.91v-.91a.94.94,0,0,0-.93-.94Z"/><path class="cls-17" d="M99.38,81.49a.68.68,0,0,1,.68.68v1.16h1.16a.68.68,0,0,1,0,1.36h-1.16v1.16a.68.68,0,1,1-1.36,0V84.69H97.53a.68.68,0,0,1,0-1.36H98.7V82.17a.67.67,0,0,1,.68-.68h0m0-.26a.94.94,0,0,0-.94.94v.91h-.91a.93.93,0,0,0-.93.93,1,1,0,0,0,.27.66.91.91,0,0,0,.66.27h.91v.91a.94.94,0,1,0,1.87,0v-.91h.91a.9.9,0,0,0,.66-.27.92.92,0,0,0,.28-.66.94.94,0,0,0-.94-.93h-.91v-.91a.94.94,0,0,0-.93-.94Z"/><path class="cls-17" d="M29.82,103.4a.68.68,0,0,1,.68.68v1.16h1.16a.68.68,0,0,1,0,1.36H30.5v1.17a.68.68,0,0,1-1.36,0V106.6H28a.68.68,0,0,1,0-1.36h1.17v-1.16a.67.67,0,0,1,.68-.68m0-.25a.93.93,0,0,0-.94.93V105H28a.92.92,0,0,0-.93.93.94.94,0,0,0,.27.66.92.92,0,0,0,.66.28h.91v.91a.94.94,0,0,0,1.87,0v-.91h.91a1,1,0,0,0,.94-.94.94.94,0,0,0-.94-.93h-.91v-.91a.93.93,0,0,0-.93-.93Z"/><path class="cls-17" d="M61.79,153.44a.69.69,0,0,1,.68.68v1.17h1.16a.68.68,0,1,1,0,1.35H62.47v1.17a.68.68,0,0,1-1.36,0v-1.17H60a.68.68,0,1,1,0-1.35h1.16v-1.17a.68.68,0,0,1,.68-.68h0m0-.25h0a.92.92,0,0,0-.93.93V155H60A1,1,0,0,0,59,156a.94.94,0,0,0,.94.93h.91v.91a.93.93,0,0,0,1.86,0v-.91h.91a.94.94,0,1,0,0-1.87h-.91v-.91a.93.93,0,0,0-.93-.93Z"/><path class="cls-17" d="M145.58,163.49a.67.67,0,0,1,.67.68v1.16h1.17a.68.68,0,0,1,0,1.36h-1.17v1.16a.68.68,0,1,1-1.35,0v-1.16h-1.17a.68.68,0,0,1,0-1.36h1.17v-1.16a.67.67,0,0,1,.68-.68h0m0-.26a.94.94,0,0,0-.94.94v.91h-.91a.93.93,0,0,0-.93.93.92.92,0,0,0,.93.93h.91v.91a.94.94,0,1,0,1.87,0v-.91h.91a.92.92,0,0,0,.93-.93.93.93,0,0,0-.93-.93h-.91v-.91a.94.94,0,0,0-.93-.94Z"/><path class="cls-17" d="M163.77,60.61a.68.68,0,0,1,.68.68v1.16h1.16a.68.68,0,0,1,0,1.36h-1.16V65a.68.68,0,0,1-1.36,0V63.81h-1.17a.68.68,0,1,1,0-1.36h1.17V61.29a.67.67,0,0,1,.68-.68m0-.26a.94.94,0,0,0-.94.94v.91h-.91a.93.93,0,0,0,0,1.86h.91V65a.94.94,0,0,0,1.87,0v-.92h.91a.9.9,0,0,0,.66-.27.92.92,0,0,0,.28-.66.94.94,0,0,0-.94-.93h-.91v-.91a.94.94,0,0,0-.93-.94Z"/><path class="cls-17" d="M47.65,136.58a3,3,0,1,1-3,3,3,3,0,0,1,3-3m0-.25a3.22,3.22,0,1,0,3.22,3.21,3.21,3.21,0,0,0-3.22-3.21Z"/><path class="cls-17" d="M161.24,87.89a3,3,0,1,1-3,3,3,3,0,0,1,3-3m0-.25a3.22,3.22,0,1,0,3.22,3.21,3.21,3.21,0,0,0-3.22-3.21Z"/><path class="cls-17" d="M148.1,46.42a3,3,0,1,1-3,3,3,3,0,0,1,3-3m0-.25a3.22,3.22,0,1,0,3.21,3.21,3.22,3.22,0,0,0-3.21-3.21Z"/><path class="cls-17" d="M16.85,124.19a3,3,0,1,1-3,3,3,3,0,0,1,3-3m0-.25a3.22,3.22,0,1,0,3.22,3.21,3.21,3.21,0,0,0-3.22-3.21Z"/><path class="cls-17" d="M85.18,45.81a3,3,0,1,1-3,3,3,3,0,0,1,3-3m0-.25a3.22,3.22,0,1,0,3.21,3.21,3.22,3.22,0,0,0-3.21-3.21Z"/></g></g></svg>