<svg xmlns="http://www.w3.org/2000/svg" xmlns:xlink="http://www.w3.org/1999/xlink" viewBox="0 0 913.92 907.32"><defs><style>.cls-1{fill:none;}.cls-2{fill:#ff8484;}.cls-3{fill:#ff7479;}.cls-4{fill:url(#Безымянный_градиент_2);}</style><linearGradient id="Безымянный_градиент_2" x1="412.16" y1="735.23" x2="454.9" y2="246.68" gradientUnits="userSpaceOnUse"><stop offset="0" stop-color="#fd575a"/><stop offset="1" stop-color="#f9593d"/></linearGradient></defs><g id="Layer_2" data-name="Layer 2"><g id="_Layer_" data-name="&lt;Layer&gt;"><rect class="cls-1" width="913.92" height="907.32"/><path class="cls-2" d="M845.21,637.17l11.55-20.07a3.82,3.82,0,0,0-1.39-5.21h0a3.8,3.8,0,0,0-5.19,1.39l-11.55,20.08a3.82,3.82,0,0,0,1.39,5.2h0A3.79,3.79,0,0,0,845.21,637.17Z"/><path class="cls-2" d="M823.07,645.16l29.77-51.77a3.81,3.81,0,0,0-1.39-5.2h0a3.79,3.79,0,0,0-5.19,1.39l-29.77,51.77a3.82,3.82,0,0,0,1.39,5.21h0A3.8,3.8,0,0,0,823.07,645.16Z"/><path class="cls-2" d="M803.86,648.06l42.75-74.31a3.82,3.82,0,0,0-1.39-5.21h0a3.79,3.79,0,0,0-5.19,1.4l-42.75,74.31a3.82,3.82,0,0,0,1.39,5.21h0A3.8,3.8,0,0,0,803.86,648.06Z"/><path class="cls-2" d="M784.65,650.94l55.71-96.85a3.82,3.82,0,0,0-1.39-5.21h0a3.79,3.79,0,0,0-5.19,1.4l-55.71,96.85a3.82,3.82,0,0,0,1.39,5.21h0A3.79,3.79,0,0,0,784.65,650.94Z"/><path class="cls-2" d="M765.44,653.82l68.68-119.38a3.83,3.83,0,0,0-1.39-5.21h0a3.8,3.8,0,0,0-5.19,1.4L758.86,650a3.82,3.82,0,0,0,1.39,5.21h0A3.79,3.79,0,0,0,765.44,653.82Z"/><path class="cls-2" d="M746.23,656.72,827.87,514.8a3.82,3.82,0,0,0-1.39-5.21h0a3.8,3.8,0,0,0-5.19,1.39L739.65,652.91a3.82,3.82,0,0,0,1.39,5.21h0A3.79,3.79,0,0,0,746.23,656.72Z"/><path class="cls-2" d="M727,659.6l94.61-164.46a3.83,3.83,0,0,0-1.39-5.21h0a3.8,3.8,0,0,0-5.2,1.39L720.43,655.79a3.83,3.83,0,0,0,1.4,5.21h0A3.79,3.79,0,0,0,727,659.6Z"/><path class="cls-2" d="M707.8,662.5l107.59-187a3.82,3.82,0,0,0-1.39-5.21h0a3.8,3.8,0,0,0-5.19,1.4l-107.59,187a3.82,3.82,0,0,0,1.4,5.21h0A3.78,3.78,0,0,0,707.8,662.5Z"/><path class="cls-2" d="M688.59,665.39,809.15,455.83a3.82,3.82,0,0,0-1.39-5.21h0a3.79,3.79,0,0,0-5.19,1.4L682,661.57a3.83,3.83,0,0,0,1.39,5.21h0A3.79,3.79,0,0,0,688.59,665.39Z"/><path class="cls-2" d="M669.37,668.28,802.9,436.17a3.82,3.82,0,0,0-1.39-5.21h0a3.79,3.79,0,0,0-5.19,1.4L662.79,664.47a3.82,3.82,0,0,0,1.39,5.21h0A3.79,3.79,0,0,0,669.37,668.28Z"/><path class="cls-2" d="M650.16,671.17,796.65,416.51a3.82,3.82,0,0,0-1.39-5.21h0a3.79,3.79,0,0,0-5.19,1.4L643.58,667.35a3.82,3.82,0,0,0,1.39,5.21h0A3.8,3.8,0,0,0,650.16,671.17Z"/><path class="cls-2" d="M631,674.07,790.41,396.86a3.83,3.83,0,0,0-1.39-5.21h0a3.8,3.8,0,0,0-5.19,1.4L624.37,670.25a3.82,3.82,0,0,0,1.39,5.21h0A3.8,3.8,0,0,0,631,674.07Z"/><path class="cls-2" d="M611.72,677,784.16,377.2a3.81,3.81,0,0,0-1.39-5.2h0a3.79,3.79,0,0,0-5.19,1.39L605.14,673.13a3.82,3.82,0,0,0,1.39,5.21h0A3.79,3.79,0,0,0,611.72,677Z"/><path class="cls-2" d="M592.51,679.85,777.93,357.56a3.82,3.82,0,0,0-1.39-5.21h0a3.79,3.79,0,0,0-5.19,1.4L585.93,676a3.82,3.82,0,0,0,1.39,5.21h0A3.8,3.8,0,0,0,592.51,679.85Z"/><path class="cls-2" d="M573.3,682.73,771.68,337.9a3.82,3.82,0,0,0-1.39-5.21h0a3.79,3.79,0,0,0-5.19,1.4L566.72,678.92a3.81,3.81,0,0,0,1.39,5.2h0A3.79,3.79,0,0,0,573.3,682.73Z"/><path class="cls-2" d="M554.09,685.63,765.44,318.25a3.83,3.83,0,0,0-1.39-5.21h0a3.8,3.8,0,0,0-5.19,1.4L547.51,681.81A3.82,3.82,0,0,0,548.9,687h0A3.8,3.8,0,0,0,554.09,685.63Z"/><path class="cls-2" d="M534.88,688.51l224.31-389.9a3.82,3.82,0,0,0-1.39-5.21h0a3.8,3.8,0,0,0-5.19,1.39L528.3,684.7a3.81,3.81,0,0,0,1.39,5.2h0A3.79,3.79,0,0,0,534.88,688.51Z"/><path class="cls-2" d="M515.67,691.39,752.94,279a3.82,3.82,0,0,0-1.39-5.21h0a3.8,3.8,0,0,0-5.19,1.39L509.09,687.58a3.82,3.82,0,0,0,1.39,5.21h0A3.79,3.79,0,0,0,515.67,691.39Z"/><path class="cls-2" d="M496.46,694.29l250.25-435a3.82,3.82,0,0,0-1.39-5.21h0a3.8,3.8,0,0,0-5.19,1.4l-250.25,435a3.82,3.82,0,0,0,1.39,5.21h0A3.8,3.8,0,0,0,496.46,694.29Z"/><path class="cls-2" d="M477.25,697.17l262.5-456.28a3.82,3.82,0,0,0-1.39-5.21h0a3.8,3.8,0,0,0-5.19,1.4L470.67,693.36a3.82,3.82,0,0,0,1.39,5.21h0A3.8,3.8,0,0,0,477.25,697.17Z"/><path class="cls-2" d="M458,700.07,728.92,229.22a3.84,3.84,0,0,0-1.39-5.21h0a3.81,3.81,0,0,0-5.2,1.4L451.46,696.26a3.82,3.82,0,0,0,1.39,5.21h0A3.79,3.79,0,0,0,458,700.07Z"/><path class="cls-2" d="M438.83,703,715,223a3.83,3.83,0,0,0-1.39-5.21h0a3.79,3.79,0,0,0-5.19,1.4l-276.13,480a3.83,3.83,0,0,0,1.4,5.21h0A3.79,3.79,0,0,0,438.83,703Z"/><path class="cls-2" d="M419.61,705.85,697.33,223.11a3.82,3.82,0,0,0-1.39-5.21h0a3.8,3.8,0,0,0-5.19,1.39L413,702a3.83,3.83,0,0,0,1.39,5.21h0A3.79,3.79,0,0,0,419.61,705.85Z"/><path class="cls-2" d="M400.4,708.73,677.64,226.84a3.83,3.83,0,0,0-1.39-5.21h0a3.81,3.81,0,0,0-5.2,1.4L393.82,704.92a3.83,3.83,0,0,0,1.39,5.21h0A3.79,3.79,0,0,0,400.4,708.73Z"/><path class="cls-2" d="M381.19,711.63,657.94,230.57a3.82,3.82,0,0,0-1.39-5.21h0a3.79,3.79,0,0,0-5.19,1.39L374.61,707.82A3.83,3.83,0,0,0,376,713h0A3.79,3.79,0,0,0,381.19,711.63Z"/><path class="cls-2" d="M362,714.52,638.24,234.3a3.82,3.82,0,0,0-1.39-5.21h0a3.8,3.8,0,0,0-5.19,1.4L355.4,710.7a3.82,3.82,0,0,0,1.39,5.21h0A3.8,3.8,0,0,0,362,714.52Z"/><path class="cls-2" d="M342.77,717.4,618.54,238a3.82,3.82,0,0,0-1.39-5.21h0a3.79,3.79,0,0,0-5.19,1.4L336.19,713.58a3.82,3.82,0,0,0,1.39,5.21h0A3.79,3.79,0,0,0,342.77,717.4Z"/><path class="cls-2" d="M323.56,720.29,598.85,241.76a3.82,3.82,0,0,0-1.39-5.21h0a3.79,3.79,0,0,0-5.19,1.4L317,716.48a3.82,3.82,0,0,0,1.39,5.21h0A3.79,3.79,0,0,0,323.56,720.29Z"/><path class="cls-2" d="M304.35,723.18,579.15,245.5a3.82,3.82,0,0,0-1.39-5.21h0a3.8,3.8,0,0,0-5.19,1.39L297.77,719.36a3.82,3.82,0,0,0,1.39,5.21h0A3.79,3.79,0,0,0,304.35,723.18Z"/><path class="cls-2" d="M285.14,726.08,559.45,249.24a3.82,3.82,0,0,0-1.39-5.21h0a3.79,3.79,0,0,0-5.19,1.39L278.56,722.26a3.82,3.82,0,0,0,1.39,5.21h0A3.8,3.8,0,0,0,285.14,726.08Z"/><path class="cls-2" d="M265.93,729,539.76,253a3.83,3.83,0,0,0-1.39-5.21h0a3.8,3.8,0,0,0-5.19,1.39l-273.83,476a3.81,3.81,0,0,0,1.39,5.2h0A3.79,3.79,0,0,0,265.93,729Z"/><path class="cls-2" d="M246.72,731.86,520.06,256.7a3.82,3.82,0,0,0-1.39-5.21h0a3.79,3.79,0,0,0-5.19,1.39L240.14,728a3.82,3.82,0,0,0,1.39,5.21h0A3.79,3.79,0,0,0,246.72,731.86Z"/><path class="cls-2" d="M227.51,734.74,500.36,260.43a3.82,3.82,0,0,0-1.39-5.21h0a3.79,3.79,0,0,0-5.19,1.4L220.93,730.93a3.82,3.82,0,0,0,1.39,5.21h0A3.8,3.8,0,0,0,227.51,734.74Z"/><path class="cls-2" d="M208.28,737.64,480.67,264.17a3.83,3.83,0,0,0-1.39-5.21h0a3.79,3.79,0,0,0-5.19,1.4L201.7,733.82a3.82,3.82,0,0,0,1.39,5.21h0A3.79,3.79,0,0,0,208.28,737.64Z"/><path class="cls-2" d="M189.07,740.52,461,267.89a3.82,3.82,0,0,0-1.39-5.21h0a3.8,3.8,0,0,0-5.19,1.39L182.49,736.71a3.82,3.82,0,0,0,1.39,5.21h0A3.8,3.8,0,0,0,189.07,740.52Z"/><path class="cls-2" d="M169.86,743.4,441.27,271.63a3.82,3.82,0,0,0-1.39-5.21h0a3.79,3.79,0,0,0-5.19,1.39L163.28,739.59a3.82,3.82,0,0,0,1.39,5.21h0A3.79,3.79,0,0,0,169.86,743.4Z"/><path class="cls-2" d="M150.65,746.3,421.58,275.36a3.83,3.83,0,0,0-1.4-5.21h0a3.8,3.8,0,0,0-5.19,1.4L144.07,742.49a3.82,3.82,0,0,0,1.39,5.21h0A3.8,3.8,0,0,0,150.65,746.3Z"/><path class="cls-2" d="M131.48,749.12l270.41-470a3.82,3.82,0,0,0-1.39-5.21h0a3.8,3.8,0,0,0-5.19,1.4l-270.41,470a3.84,3.84,0,0,0,1.39,5.21h0A3.79,3.79,0,0,0,131.48,749.12Z"/><path class="cls-2" d="M115.09,747.11,382.2,282.82a3.83,3.83,0,0,0-1.39-5.21h0a3.79,3.79,0,0,0-5.19,1.4L108.51,743.3a3.83,3.83,0,0,0,1.38,5.21h0A3.81,3.81,0,0,0,115.09,747.11Z"/><path class="cls-2" d="M102,739.35,362.5,286.56a3.82,3.82,0,0,0-1.39-5.21h0a3.8,3.8,0,0,0-5.19,1.39L95.43,735.53a3.83,3.83,0,0,0,1.4,5.21h0A3.79,3.79,0,0,0,102,739.35Z"/><path class="cls-2" d="M92.26,725.79,342.8,290.3a3.82,3.82,0,0,0-1.39-5.21h0a3.79,3.79,0,0,0-5.19,1.39L85.68,722a3.82,3.82,0,0,0,1.39,5.21h0A3.79,3.79,0,0,0,92.26,725.79Z"/><path class="cls-2" d="M87.18,704.13,323.11,294a3.83,3.83,0,0,0-1.4-5.21h0a3.79,3.79,0,0,0-5.19,1.39L80.6,700.32a3.81,3.81,0,0,0,1.39,5.2h0A3.79,3.79,0,0,0,87.18,704.13Z"/><path class="cls-2" d="M82.77,681.26,303.41,297.75a3.83,3.83,0,0,0-1.39-5.21h0a3.8,3.8,0,0,0-5.19,1.4L76.19,677.45a3.83,3.83,0,0,0,1.39,5.21h0A3.79,3.79,0,0,0,82.77,681.26Z"/><path class="cls-2" d="M78.38,658.4,283.71,301.49a3.82,3.82,0,0,0-1.39-5.21h0a3.79,3.79,0,0,0-5.19,1.4L71.8,654.59a3.82,3.82,0,0,0,1.39,5.21h0A3.8,3.8,0,0,0,78.38,658.4Z"/><path class="cls-2" d="M74,635.54,264,305.21a3.83,3.83,0,0,0-1.4-5.21h0a3.8,3.8,0,0,0-5.19,1.4l-190,330.32a3.82,3.82,0,0,0,1.39,5.21h0A3.79,3.79,0,0,0,74,635.54Z"/><path class="cls-2" d="M69.58,612.67,244.32,309a3.83,3.83,0,0,0-1.39-5.21h0a3.79,3.79,0,0,0-5.19,1.4L63,608.86a3.83,3.83,0,0,0,1.39,5.21h0A3.79,3.79,0,0,0,69.58,612.67Z"/><path class="cls-2" d="M65.19,589.81,224.62,312.68a3.81,3.81,0,0,0-1.39-5.2h0a3.79,3.79,0,0,0-5.19,1.39L58.61,586A3.82,3.82,0,0,0,60,591.21h0A3.8,3.8,0,0,0,65.19,589.81Z"/><path class="cls-2" d="M60.8,567,204.92,316.41a3.82,3.82,0,0,0-1.39-5.21h0a3.8,3.8,0,0,0-5.19,1.39L54.22,563.13a3.82,3.82,0,0,0,1.39,5.21h0A3.8,3.8,0,0,0,60.8,567Z"/><path class="cls-2" d="M56.39,544.07,185.21,320.14a3.82,3.82,0,0,0-1.39-5.21h0a3.8,3.8,0,0,0-5.19,1.4L49.81,540.25a3.82,3.82,0,0,0,1.39,5.21h0A3.79,3.79,0,0,0,56.39,544.07Z"/><path class="cls-2" d="M52,521.2,165.51,323.88a3.82,3.82,0,0,0-1.39-5.21h0a3.79,3.79,0,0,0-5.19,1.4L45.42,517.39a3.82,3.82,0,0,0,1.39,5.21h0A3.79,3.79,0,0,0,52,521.2Z"/><path class="cls-2" d="M47.59,498.36l98.23-170.74a3.83,3.83,0,0,0-1.39-5.21h0a3.8,3.8,0,0,0-5.19,1.39L41,494.54a3.82,3.82,0,0,0,1.39,5.21h0A3.79,3.79,0,0,0,47.59,498.36Z"/><path class="cls-2" d="M43.2,475.49l82.92-144.14a3.82,3.82,0,0,0-1.39-5.21h0a3.8,3.8,0,0,0-5.19,1.4L36.62,471.68A3.82,3.82,0,0,0,38,476.89h0A3.79,3.79,0,0,0,43.2,475.49Z"/><path class="cls-2" d="M38.8,452.63l67.62-117.56a3.81,3.81,0,0,0-1.39-5.2h0a3.79,3.79,0,0,0-5.19,1.39L32.22,448.82a3.82,3.82,0,0,0,1.4,5.2h0A3.78,3.78,0,0,0,38.8,452.63Z"/><path class="cls-2" d="M34.4,429.76l52.33-90.95a3.84,3.84,0,0,0-1.39-5.21h0a3.8,3.8,0,0,0-5.19,1.4L27.82,426a3.82,3.82,0,0,0,1.39,5.21h0A3.79,3.79,0,0,0,34.4,429.76Z"/><path class="cls-2" d="M30,406.9l37-64.35a3.82,3.82,0,0,0-1.39-5.21h0a3.79,3.79,0,0,0-5.19,1.4l-37,64.35a3.82,3.82,0,0,0,1.39,5.21h0A3.79,3.79,0,0,0,30,406.9Z"/><path class="cls-2" d="M25.61,384,47,346.81a3.82,3.82,0,0,0-1.39-5.21h0A3.79,3.79,0,0,0,40.45,343L19,380.22a3.83,3.83,0,0,0,1.39,5.21h0A3.79,3.79,0,0,0,25.61,384Z"/><path class="cls-3" d="M767.09,240.17a34.69,34.69,0,0,1,33.74,26.41l89.72,363.13a34.73,34.73,0,0,1-33,43L96,690h-.81a34.79,34.79,0,0,1-34.77-34.73V362.42A34.83,34.83,0,0,1,90.75,328l671.8-87.53a36.42,36.42,0,0,1,4.54-.29Zm0-3.82a39,39,0,0,0-5,.33L90.25,324.2a38.57,38.57,0,0,0-33.6,38.22V655.31a38.57,38.57,0,0,0,38.58,38.54h.89l761.54-17.28a38.56,38.56,0,0,0,36.6-47.77L804.53,265.67a38.6,38.6,0,0,0-37.44-29.32Z"/><path class="cls-4" d="M57.18,300.39l63.46,380.25a38.68,38.68,0,0,0,43.48,31.9l621.67-86.22a38.64,38.64,0,0,0,33.12-42.52L788.11,307a38.66,38.66,0,0,0-37.43-34.34L96.35,255.43A38.65,38.65,0,0,0,57.18,300.39Z"/><rect class="cls-3" x="169.12" y="480.35" width="3.81" height="15.25" rx="1.91"/><rect class="cls-3" x="169.12" y="510.85" width="3.81" height="15.25" rx="1.91"/><path class="cls-3" d="M153.82,491.09l9.91,5.73a1.91,1.91,0,0,1,.7,2.6h0a1.91,1.91,0,0,1-2.6.7l-9.91-5.72a1.92,1.92,0,0,1-.7-2.61h0A1.92,1.92,0,0,1,153.82,491.09Z"/><path class="cls-3" d="M180.23,506.34l9.91,5.72a1.91,1.91,0,0,1,.69,2.61h0a1.9,1.9,0,0,1-2.6.69l-9.91-5.72a1.91,1.91,0,0,1-.7-2.6h0A1.92,1.92,0,0,1,180.23,506.34Z"/><path class="cls-3" d="M190.83,491.79h0a1.91,1.91,0,0,1-.69,2.61l-9.92,5.72a1.91,1.91,0,0,1-2.6-.7h0a1.91,1.91,0,0,1,.7-2.6l9.91-5.73A1.91,1.91,0,0,1,190.83,491.79Z"/><path class="cls-3" d="M164.42,507h0a1.91,1.91,0,0,1-.7,2.6l-9.91,5.72a1.91,1.91,0,0,1-2.61-.69h0a1.92,1.92,0,0,1,.7-2.61l9.91-5.72A1.91,1.91,0,0,1,164.42,507Z"/><rect class="cls-3" x="760.05" y="365.98" width="3.81" height="15.25" rx="1.91"/><rect class="cls-3" x="760.05" y="396.48" width="3.81" height="15.25" rx="1.91"/><path class="cls-3" d="M744.75,376.72l9.91,5.72a1.89,1.89,0,0,1,.7,2.6h0a1.89,1.89,0,0,1-2.6.7L742.85,380a1.9,1.9,0,0,1-.7-2.6h0A1.9,1.9,0,0,1,744.75,376.72Z"/><path class="cls-3" d="M771.17,392l9.9,5.72a1.9,1.9,0,0,1,.7,2.6h0a1.9,1.9,0,0,1-2.6.7l-9.91-5.72a1.91,1.91,0,0,1-.7-2.6h0A1.91,1.91,0,0,1,771.17,392Z"/><path class="cls-3" d="M781.77,377.42h0a1.9,1.9,0,0,1-.7,2.6l-9.91,5.72a1.89,1.89,0,0,1-2.6-.7h0a1.9,1.9,0,0,1,.7-2.6l9.91-5.72A1.9,1.9,0,0,1,781.77,377.42Z"/><path class="cls-3" d="M755.36,392.66h0a1.9,1.9,0,0,1-.7,2.61L744.75,401a1.9,1.9,0,0,1-2.6-.7h0a1.9,1.9,0,0,1,.7-2.6l9.91-5.72A1.9,1.9,0,0,1,755.36,392.66Z"/><path class="cls-3" d="M742.9,156.29h0a1.91,1.91,0,0,1,1.91,1.91v11.44a1.91,1.91,0,0,1-1.91,1.91h0a1.9,1.9,0,0,1-1.9-1.9V158.2a1.9,1.9,0,0,1,1.9-1.9Z"/><path class="cls-3" d="M742.9,186.79h0a1.91,1.91,0,0,1,1.91,1.91v11.44A1.91,1.91,0,0,1,742.9,202h0a1.9,1.9,0,0,1-1.9-1.9V188.7A1.9,1.9,0,0,1,742.9,186.79Z"/><path class="cls-3" d="M752.43,177.26h11.44a1.9,1.9,0,0,1,1.9,1.91h0a1.9,1.9,0,0,1-1.9,1.9H752.43a1.91,1.91,0,0,1-1.91-1.9h0A1.91,1.91,0,0,1,752.43,177.26Z"/><path class="cls-3" d="M721.93,177.26h11.44a1.9,1.9,0,0,1,1.9,1.91h0a1.9,1.9,0,0,1-1.9,1.9H721.93a1.91,1.91,0,0,1-1.91-1.9h0A1.91,1.91,0,0,1,721.93,177.26Z"/><path class="cls-3" d="M209.15,308.79h0a1.91,1.91,0,0,1,1.91,1.91v11.44a1.91,1.91,0,0,1-1.91,1.91h0a1.9,1.9,0,0,1-1.9-1.9V310.7A1.9,1.9,0,0,1,209.15,308.79Z"/><path class="cls-3" d="M209.15,339.29h0a1.91,1.91,0,0,1,1.91,1.91v11.44a1.91,1.91,0,0,1-1.91,1.91h0a1.9,1.9,0,0,1-1.9-1.9V341.2A1.9,1.9,0,0,1,209.15,339.29Z"/><path class="cls-3" d="M218.68,329.76h11.44a1.9,1.9,0,0,1,1.9,1.91h0a1.9,1.9,0,0,1-1.9,1.9H218.68a1.91,1.91,0,0,1-1.91-1.9h0A1.91,1.91,0,0,1,218.68,329.76Z"/><path class="cls-3" d="M188.18,329.76h11.44a1.9,1.9,0,0,1,1.9,1.91h0a1.9,1.9,0,0,1-1.9,1.9H188.18a1.91,1.91,0,0,1-1.91-1.9h0A1.91,1.91,0,0,1,188.18,329.76Z"/><path class="cls-3" d="M137.34,358.35A24.79,24.79,0,0,1,160.75,375a1.93,1.93,0,0,1-1.34,2.48h0a1.89,1.89,0,0,1-2.25-1.19,21,21,0,0,0-39.63,0,1.89,1.89,0,0,1-2.26,1.19h0a1.92,1.92,0,0,1-1.33-2.48A24.79,24.79,0,0,1,137.34,358.35Z"/><path class="cls-3" d="M115.27,388.83a1.89,1.89,0,0,1,2.26,1.19,21,21,0,0,0,39.63,0,1.89,1.89,0,0,1,2.25-1.19h0a1.93,1.93,0,0,1,1.34,2.48,24.79,24.79,0,0,1-46.81,0,1.92,1.92,0,0,1,1.33-2.48Z"/><path class="cls-3" d="M628.52,554.7a24.76,24.76,0,0,1,23.4,16.6,1.91,1.91,0,0,1-1.33,2.48h0a1.87,1.87,0,0,1-2.25-1.19,21,21,0,0,0-39.63,0,1.88,1.88,0,0,1-2.26,1.19h0a1.91,1.91,0,0,1-1.33-2.48A24.77,24.77,0,0,1,628.52,554.7Z"/><path class="cls-3" d="M606.45,585.18a1.88,1.88,0,0,1,2.26,1.19,21,21,0,0,0,39.63,0,1.87,1.87,0,0,1,2.25-1.19h0a1.9,1.9,0,0,1,1.33,2.47,24.79,24.79,0,0,1-46.8,0,1.9,1.9,0,0,1,1.33-2.47Z"/></g></g></svg>