<svg xmlns="http://www.w3.org/2000/svg" viewBox="0 0 417.09 428.8"><defs><style>.cls-1{fill:snow;}.cls-2{fill:#f94d3e;}.cls-3,.cls-4{fill:none;stroke-miterlimit:10;stroke-width:3.14px;}.cls-3{stroke:#ffd3a4;}.cls-4{stroke:#fff;}</style></defs><g id="Layer_2" data-name="Layer 2"><g id="Elements"><path class="cls-1" d="M156.77,116.44a144.4,144.4,0,0,0,77.9-5.66c65.87-23.42,120.05,6.93,133.67,26,15.81,22.19,18.42,51.38,11.1,78.06s-23.78,51-43.51,72.23c-15.43,16.55-33.46,31.75-55,40.39-21.08,8.43-44.18,10.1-66.75,11.24-29,1.46-58.56,2.2-86.22-4.59-22.54-5.53-45.71-19.21-47.67-40.8C78.58,274.93,93,256.82,91,238.46c-2.82-25.71-35.14-38.44-45.82-62-12.47-27.44,3.35-57.67,25-64.15C92.71,105.58,128.45,110.45,156.77,116.44Z"/><path class="cls-2" d="M160.7,227.62c1.68,6.2-4.64,9.61-9.6,8.08-2.2-.69-3.33-2.77-3.94-4.84a6,6,0,0,1-.15-3.41"/><path class="cls-2" d="M202.31,253.31c-2.21,2-4.67,2.11-7.39.76a6.18,6.18,0,0,1-3.72-6.13"/><path class="cls-2" d="M168.27,233.67c3.47,1.8,4.59,5.16,2.81,8.84s-5.18,4.87-9,3-4.73-5.14-2.93-9a6.12,6.12,0,0,1,3.61-3.35"/><path class="cls-2" d="M179.69,243.68c3.54,1.73,4.64,5.12,2.86,8.8s-5.18,4.9-9,3-4.81-5.18-2.93-9c1.8-3.68,5.17-4.72,9.06-2.81"/><path class="cls-2" d="M211.42,252.41a6.56,6.56,0,0,1,3.14,8.93,6.62,6.62,0,0,1-9,3,6.5,6.5,0,0,1-2.89-9"/><path class="cls-2" d="M146.83,234.42a6.63,6.63,0,0,1,3.06,9,6.54,6.54,0,0,1-9,2.94,6.43,6.43,0,0,1-3-8.73A6.58,6.58,0,0,1,146.83,234.42Z"/><path class="cls-2" d="M236,259.92a6.54,6.54,0,0,1-9,2.93,6.41,6.41,0,0,1-3-8.72"/><path class="cls-2" d="M181.47,256.24a6.67,6.67,0,1,1,11.81,6.21,6.67,6.67,0,0,1-11.81-6.21Z"/><path class="cls-2" d="M126.47,227.53a6.63,6.63,0,0,1,9-3.06,6.54,6.54,0,0,1,2.93,9,6.42,6.42,0,0,1-8.72,3A6.57,6.57,0,0,1,126.47,227.53Z"/><path class="cls-2" d="M124.13,214.58a6.39,6.39,0,0,1,2.87,8.76,6.65,6.65,0,1,1-11.89-6,6.43,6.43,0,0,1,9-2.81"/><path class="cls-2" d="M116.47,212.94a6.65,6.65,0,1,1-12-5.78"/><path class="cls-2" d="M299.27,234.82c-1.36,2.88-5.89,4.6-8.71,3.29"/><path class="cls-2" d="M152.42,256.39c-3-1.46-4.46-6.06-2.93-9.09,1.41-2.78,6-4.26,8.87-2.85s4.45,6.07,2.92,9.1C159.88,256.33,155.28,257.8,152.42,256.39Z"/><path class="cls-2" d="M105.13,202.75c-1.42,3.11-5.91,4.86-8.9,3.46s-4.68-5.85-3.38-8.69"/><path class="cls-2" d="M285.91,237.34c2.93,1.22,4.71,5.94,3.37,8.94-1.25,2.79-5.79,4.5-8.72,3.29s-4.71-5.94-3.37-8.94"/><path class="cls-2" d="M214,265.52c1.32-2.8,5.83-4.45,8.74-3.2s4.67,6,3.28,9c-1.33,2.79-5.84,4.44-8.75,3.2S212.62,268.46,214,265.52Z"/><path class="cls-2" d="M163,266.72c-2.92-1.44-4.51-6.27-3-9.07s6.07-4.28,8.84-2.91c2.92,1.44,4.51,6.27,3,9.07S165.8,268.09,163,266.72Z"/><path class="cls-2" d="M196,275.26c-2.93-1.42-4.54-6.25-3-9.06s6-4.29,8.84-2.94,4.53,6.26,3,9.06S198.75,276.62,196,275.26Z"/><path class="cls-2" d="M247.62,265.31c.11,1.52.43,3.42-.3,4.51a7,7,0,0,1-4,3.25c-1.67.38-3.27-.16-4.91-.23-.85-1.54-2.87-2.31-3-4.27-.11-1.52,0-3.06.09-4.55"/><path class="cls-2" d="M182.78,273.42c-1.79,3.67-4.33,4.49-8.13,2.63-3.62-1.76-4.41-4.32-2.53-8.17,1.68-3.43,4.33-4.29,7.91-2.56S184.59,269.7,182.78,273.42Z"/><path class="cls-2" d="M125.39,236.63c3.5,1.72,4.24,4.35,2.31,8.25-1.67,3.37-4.3,4.14-8,2.34s-4.41-4.33-2.52-8.17C118.92,235.51,121.54,234.74,125.39,236.63Z"/><path class="cls-2" d="M131.22,257.24c-3.66-1.78-4.47-4.32-2.6-8.15,1.75-3.58,4.34-4.37,8.18-2.48,3.42,1.67,4.26,4.33,2.52,7.92S135,259.07,131.22,257.24Z"/><path class="cls-2" d="M275.23,249.21c3.59,1.73,4.57,4.35,2.93,7.78-1.85,3.86-4.36,4.84-8,3.12-3.84-1.84-4.77-4.34-3-8"/><path class="cls-2" d="M108.77,236.73c-3.73-1.8-4.64-4.37-2.86-8s4.37-4.56,8.09-2.75,4.49,4.28,2.78,7.83C115,237.58,112.45,238.5,108.77,236.73Z"/><path class="cls-2" d="M150,264.32c0,2.14-1.95,2.62-3.22,3.16a6.24,6.24,0,0,1-4.88-.49,5.67,5.67,0,0,1-3-3.47,6.14,6.14,0,0,1,.56-4.9,6.28,6.28,0,0,1,3.52-3,6.36,6.36,0,0,1,4.58.47,5.71,5.71,0,0,1,3.12,3.4C151.17,261,151.65,262.9,150,264.32Z"/><path class="cls-2" d="M105.06,224c0,2.14-2,2.62-3.22,3.15A6.23,6.23,0,0,1,97,226.7a5.72,5.72,0,0,1-3-3.48,6.18,6.18,0,0,1,.56-4.9,5.9,5.9,0,0,1,8.11-2.5,5.66,5.66,0,0,1,3.11,3.4C106.23,220.65,106.71,222.61,105.06,224Z"/><path class="cls-2" d="M330.25,217.6c.52,1.44,1,3.39-.65,4.81,0,2.14-2,2.62-3.22,3.15a6.19,6.19,0,0,1-4.88-.48,5.72,5.72,0,0,1-3-3.48"/><path class="cls-2" d="M207.78,284.58c-2.13-.15-2.87-2-3.4-3.45a6.18,6.18,0,0,1,.45-4.59,6,6,0,0,1,3.39-3.15,6.57,6.57,0,0,1,4.89.41,5.52,5.52,0,0,1,3.08,3.44,5.58,5.58,0,0,1-.3,4.6,6.42,6.42,0,0,1-3.3,3.22C211.13,285.52,209.22,286.18,207.78,284.58Z"/><path class="cls-2" d="M265.57,260.78c2,.56,2.08,2.29,2.8,3.7.81,1.58.27,2.83-.3,4.32-.69,1.78-2,2.41-3.6,2.91-2.38.72-2.36.79-4.84-.42-1.82-.2-2-2-2.66-3.46-.79-1.68-.24-3,.31-4.62"/><path class="cls-2" d="M153.53,276.94a6,6,0,1,1,5.59-10.63,6.2,6.2,0,0,1,2.51,7.93A6.11,6.11,0,0,1,153.53,276.94Z"/><path class="cls-2" d="M311.91,236.6a6,6,0,1,1,8-3A6.12,6.12,0,0,1,311.91,236.6Z"/><path class="cls-2" d="M228.83,283.78a6,6,0,1,1,5.46-10.69,6,6,0,0,1-5.46,10.69Z"/><path class="cls-2" d="M299,240a6,6,0,1,1,2.86,8.05A6.13,6.13,0,0,1,299,240Z"/><path class="cls-2" d="M186.26,286.12a6,6,0,1,1,8.05-2.86A6.13,6.13,0,0,1,186.26,286.12Z"/><path class="cls-2" d="M250.25,282.3a6,6,0,1,1,5.53-10.66,6.22,6.22,0,0,1,2.56,7.91A6.13,6.13,0,0,1,250.25,282.3Z"/><path class="cls-2" d="M288.69,250.55a6,6,0,1,1,2.87,8.05A6.13,6.13,0,0,1,288.69,250.55Z"/><path class="cls-2" d="M86.34,217a6,6,0,1,1,5.46-10.69,6.21,6.21,0,0,1,2.61,7.9A6.14,6.14,0,0,1,86.34,217Z"/><path class="cls-2" d="M164.69,287.53a6,6,0,1,1,5.6-10.62,6.19,6.19,0,0,1,2.51,7.92A6.1,6.1,0,0,1,164.69,287.53Z"/><path class="cls-2" d="M197.9,296.22c-3.11-1.61-4.38-5.53-2.9-8.27s5.51-4.17,8.13-2.47A6,6,0,0,1,206,289a6.1,6.1,0,0,1-.35,4.27,6,6,0,0,1-3.44,3C200.6,296.93,199.16,296.36,197.9,296.22Z"/><path class="cls-2" d="M83,199.27c.78,1.72.14,3.29,0,5-1.18,1.06-1.88,2.55-3.6,2.94a9.69,9.69,0,0,1-4.6-.22,6.26,6.26,0,0,1-2.8-7.82"/><path class="cls-2" d="M107.41,250.05c1.24-2.38,5.87-3.87,8.13-2.63s3.79,6,2.52,8.17-5.68,3.64-7.91,2.55C107.75,257,106.2,252.38,107.41,250.05Z"/><path class="cls-2" d="M121.47,268.81c-2.4-1-4.08-5.56-3-8,1-2.25,5.33-3.92,7.76-3s4.2,5.45,3.18,7.94S123.93,269.86,121.47,268.81Z"/><path class="cls-2" d="M281.57,270.06c-2.39-1.06-4-5.64-2.88-8s5.39-3.88,7.78-2.92,4.15,5.49,3.11,8S284,271.15,281.57,270.06Z"/><path class="cls-2" d="M216.13,287.16c1.24-2.38,5.86-3.88,8.13-2.63s3.78,6,2.52,8.17-5.68,3.64-7.91,2.55C216.47,294.09,214.91,289.49,216.13,287.16Z"/><path class="cls-2" d="M106.81,245.32c-1.13,1-2.14,2.36-3.49,2.85a6.42,6.42,0,0,1-4.49-.11,6.33,6.33,0,0,1-3-3.38,6.69,6.69,0,0,1,.15-4.5,5.75,5.75,0,0,1,3.12-2.79,6.66,6.66,0,0,1,4.51,0,6.37,6.37,0,0,1,3,3.3C107.22,242,106.81,243.69,106.81,245.32Z"/><path class="cls-2" d="M173.42,289.47c1.25-1,2.32-2.36,3.68-2.79a5.56,5.56,0,0,1,7.29,3.8A6.34,6.34,0,0,1,184,295a6.69,6.69,0,0,1-3.55,2.78,5.79,5.79,0,0,1-4.18-.28A6.75,6.75,0,0,1,173.4,294C172.93,292.68,173.38,291,173.42,289.47Z"/><path class="cls-2" d="M129.31,270.39c1.22-1,2.27-2.36,3.63-2.81a5.57,5.57,0,0,1,7.35,3.69,6.67,6.67,0,0,1-.28,4.49,5.84,5.84,0,0,1-3.2,2.71,6.74,6.74,0,0,1-4.5-.11,6.45,6.45,0,0,1-2.95-3.38C128.86,273.64,129.29,272,129.31,270.39Z"/><path class="cls-2" d="M240.25,293.84c-1-1.21-2.35-2.27-2.79-3.63a5.57,5.57,0,0,1,3.75-7.32,6.64,6.64,0,0,1,4.48.31,5.84,5.84,0,0,1,2.69,3.22,6.26,6.26,0,0,1-.16,4.48c-.67,1.2-1.79,2.71-3.36,3A23,23,0,0,1,240.25,293.84Z"/><path class="cls-2" d="M269.47,273.51c.21-1.58,1.53-2,2.86-2.64,1.7-.83,2.9-.06,4.34.48s2,1.7,2.67,3c.88,1.74,0,2.91-.55,4.33s-1.7,2.05-3.08,2.61c-1.54.64-2.69.15-4-.44a4.89,4.89,0,0,1-2.77-3A4.39,4.39,0,0,1,269.47,273.51Z"/><path class="cls-2" d="M208.62,305.05c-1.58-.2-2-1.52-2.64-2.85-.83-1.7-.06-2.9.48-4.34s1.69-2,3-2.68c1.75-.87,2.92.05,4.34.55s2.05,1.7,2.61,3.09c.63,1.54.15,2.68-.44,4a4.89,4.89,0,0,1-3,2.77A4.39,4.39,0,0,1,208.62,305.05Z"/><path class="cls-2" d="M153.08,290.48c.21-1.58,1.53-2,2.86-2.64,1.7-.84,2.9-.06,4.34.47s2,1.7,2.67,3c.88,1.75,0,2.91-.55,4.34s-1.71,2-3.09,2.61c-1.54.63-2.68.14-4-.45a4.9,4.9,0,0,1-2.77-2.95A4.38,4.38,0,0,1,153.08,290.48Z"/><path class="cls-2" d="M151,285.29a4,4,0,0,1-2.82,2.89,4.93,4.93,0,0,1-4.35-.31,5.18,5.18,0,0,1-2.78-2.95c-.66-1.67-.24-2.89.4-4.35a5.13,5.13,0,0,1,7-2.42,4.87,4.87,0,0,1,3,3.19C151.89,282.83,152,284.09,151,285.29Z"/><path class="cls-2" d="M94.63,235a4,4,0,0,1-2.83,2.9,4.94,4.94,0,0,1-4.34-.32,5.12,5.12,0,0,1-2.78-3c-.66-1.67-.24-2.89.39-4.35a5.14,5.14,0,0,1,7-2.42,4.88,4.88,0,0,1,3,3.19C95.49,232.54,95.65,233.8,94.63,235Z"/><path class="cls-2" d="M360.39,209.61a5.1,5.1,0,0,1-7.17,2.55"/><path class="cls-2" d="M194.53,304.21a5.34,5.34,0,1,1-2.55-7.16A5.1,5.1,0,0,1,194.53,304.21Z"/><path class="cls-2" d="M74.21,220.7a5.33,5.33,0,1,1,9.5,4.85,5.33,5.33,0,0,1-9.5-4.85Z"/><path class="cls-2" d="M227.49,297.36c1.38-2.94,4.19-3.84,7.15-2.67a5.48,5.48,0,0,1,2.67,6.93c-1.49,2.94-4.28,4.15-7.09,2.84C227.24,303.07,226.14,300.23,227.49,297.36Z"/><path class="cls-2" d="M302.86,268.52a5.06,5.06,0,0,1-2.33-7.24c1.41-2.81,4.34-3.7,7.28-2.21a5.33,5.33,0,0,1-4.95,9.45Z"/><path class="cls-2" d="M310.49,249.9a5.06,5.06,0,0,1,7.24-2.33c2.81,1.41,3.7,4.34,2.22,7.28a5.34,5.34,0,0,1-9.46-4.95Z"/><path class="cls-2" d="M164.08,301.31a5.34,5.34,0,1,1,2.55,7.16A5.1,5.1,0,0,1,164.08,301.31Z"/><path class="cls-2" d="M323.53,245.93a5.34,5.34,0,1,1,7.16-2.55A5.09,5.09,0,0,1,323.53,245.93Z"/><path class="cls-2" d="M261.66,292.27c-2.84-1.41-3.74-4.32-2.26-7.26,1.4-2.77,4.33-3.55,7.32-2.17a5.49,5.49,0,0,1,2.21,7.09C267.33,292.68,264.56,293.72,261.66,292.27Z"/><path class="cls-2" d="M331,227.45a5.34,5.34,0,0,1,9.77,4.3c-1.38,3-4.24,4.13-7.07,2.81S329.64,230.32,331,227.45Z"/><path class="cls-2" d="M348,214.05a5.33,5.33,0,1,1-7.2,2.44"/><path class="cls-2" d="M116,269.13a5.69,5.69,0,0,1,2.23,7.48c-1.11,2.13-4.72,3-7.12,2.09a4.39,4.39,0,0,1-2.47-3.11,5.32,5.32,0,0,1,.18-4.28c.77-1.46,2.37-1.4,3.13-2.56C113.37,269.15,115,267.73,116,269.13Z"/><path class="cls-2" d="M65.63,217.32A5.65,5.65,0,0,1,63,210.18a6,6,0,0,1,6.89-2.72,4.74,4.74,0,0,1,2.86,3.18,4.61,4.61,0,0,1,0,4C71.41,217,68,218.45,65.63,217.32Z"/><path class="cls-2" d="M251.27,303c-.9-1.15-2.15-2.16-2.55-3.44a5.69,5.69,0,0,1,.43-3.9,5,5,0,0,1,2.91-2.58c1.3-.24,3-.73,4.24.31,1,.84,2.31,1.88,2.51,3a6.47,6.47,0,0,1-.17,4,6.66,6.66,0,0,1-3.29,2.75C254.32,303.68,252.75,303.12,251.27,303Z"/><path class="cls-2" d="M100.34,269.15c-.94-1.1-2.31-2-2.54-3.15-.26-1.3-.69-3,.29-4.24.81-1,1.85-2.35,3-2.55,1.3-.23,3-.7,4.24.34,1,.84,2.28,1.88,2.5,3a6.2,6.2,0,0,1-.21,4,6.58,6.58,0,0,1-3.29,2.73C103.26,269.78,101.7,269.23,100.34,269.15Z"/><path class="cls-2" d="M122.27,289.44c-.9-1.15-2.15-2.16-2.55-3.44a5.69,5.69,0,0,1,.43-3.9,5,5,0,0,1,2.91-2.58c1.29-.24,3-.72,4.24.31,1,.85,2.31,1.89,2.51,3a6.43,6.43,0,0,1-.18,4,6.51,6.51,0,0,1-3.29,2.74C125.32,290.08,123.75,289.53,122.27,289.44Z"/><path class="cls-2" d="M290.52,272.21c1.2-1,2.23-2.43,3.45-2.62s2.78-.7,3.94.27a8.2,8.2,0,0,1,2.64,2.95,7.73,7.73,0,0,1-.15,3.95c-.34,1.58-2,2.24-3.15,2.85a5,5,0,0,1-3.88-.24,5.63,5.63,0,0,1-2.75-2.8C290.15,275.32,290.52,273.75,290.52,272.21Z"/><path class="cls-2" d="M224.71,306.24c2.1,1.05,3.47,5.2,2.39,7.22s-5.32,3.44-7.25,2.25a6.46,6.46,0,0,1-2.32-7C218.35,306.72,222.82,305.15,224.71,306.24Z"/><path class="cls-2" d="M134,299.35c-1.84-.61-3.64-5-2.58-7.16.95-1.92,4.87-3.42,6.9-2.6s3.71,4.9,2.8,7.07S136.16,300.3,134,299.35Z"/><path class="cls-2" d="M93.72,249.45c2.07,1.07,3.41,5.25,2.33,7.24s-5.31,3.33-7.28,2.21-3.16-5.07-2.26-7C87.49,249.75,92,248.37,93.72,249.45Z"/><path class="cls-2" d="M196.36,309.6c.75-2,5.21-3.56,7.19-2.52,1.8.95,3.39,4.49,2.52,6.92-.77,2.13-4.93,3.67-7.08,2.74S195.39,311.72,196.36,309.6Z"/><path class="cls-2" d="M177.3,318c-.76-1-2-1.86-2.44-3.41-.37-1.33.34-2.47.12-3.69,1.32-.82,2.11-2.48,3.9-2.51,1.12,0,2.67-.28,3.25.31.88.91,2,1.69,2.46,3.19.39,1.35-.19,2.48-.14,3.71,0,.53-1.06,1.18-1.61,1.76a5.41,5.41,0,0,1-3,1.12A8.13,8.13,0,0,1,177.3,318Z"/><path class="cls-2" d="M280.7,283.73c1.41-.87,2.18-2.56,4-2.58,1.12,0,2.6-.29,3.28.29,1.12,1,2.51,2.07,2.54,3.83,0,1.12.26,2.63-.35,3.26a6.9,6.9,0,0,1-3.54,2.51c-1.23.26-2.25-.63-3.38-.17-.82-1.18-2.05-2-2.55-3.5C280.24,286,281.22,284.9,280.7,283.73Z"/><path class="cls-2" d="M142.84,302.2c.81-.68,1.64-1.45,2.54-2.12,1.43-1.07,3.11-.56,4.59-.3.79.14,1.49,1.32,2.07,2.15,1,1.4.76,3.1.51,4.6-.14.83-1.23,1.6-2,2.21-1.48,1.1-3.32.89-4.89.54-.9-.19-1.61-1.48-2.29-2.37C142.24,305.5,143.05,303.84,142.84,302.2Z"/><path class="cls-2" d="M83.8,246.79c-.2,1.9-2,2.23-3.59,2.44-.93.12-2-.76-3-1.09a3.94,3.94,0,0,1-1.86-5.38,4.67,4.67,0,0,0,.72-1.49c.29-1.16,1.22-1.41,2.16-1.74s1.83-.69,2.77,0a4.81,4.81,0,0,0,1.49.73,3.93,3.93,0,0,1,1.86,5.37A9,9,0,0,0,83.8,246.79Z"/><path class="cls-2" d="M248,311.68c-1.44,3-3.19,3.54-6.28,2s-3.53-3.2-2-6.28,3.19-3.54,6.28-2S249.46,308.6,248,311.68Z"/><path class="cls-2" d="M156.5,318.38q-4.17-2-2.11-6.25t6.26-2.11q4.17,2.06,2.1,6.26T156.5,318.38Z"/><path class="cls-2" d="M66.66,237.82c-2.51-.77-3.34-4-2.25-6.28A4.76,4.76,0,0,1,73,235.69C71.85,238,68.75,239.28,66.66,237.82Z"/><path class="cls-2" d="M270.76,295.21c1.37-2.82,3.42-3.54,6.23-2.18s3.54,3.42,2.18,6.24-3.42,3.53-6.24,2.17S269.4,298,270.76,295.21Z"/><path class="cls-2" d="M210.65,326.1q-4.23-2-2.22-6.22t6.21-2.22q4.23,2,2.23,6.21T210.65,326.1Z"/><path class="cls-2" d="M195.25,325.67c-1.09,2.42-3.92,3.16-6.42,1.76a4.73,4.73,0,0,1,4.72-8.19A4.41,4.41,0,0,1,195.25,325.67Z"/><path class="cls-2" d="M260.84,306.51c.13-1.23,1.25-1.63,2.46-2s2.34-1,3.74-.08c1,.63,1.77,1.15,2,2.35s1.14,2.32.26,3.74c-.65,1.07-1.13,2-2.52,2.31s-2.33,1-3.74.17A5.12,5.12,0,0,1,260.84,306.51Z"/><path class="cls-2" d="M112.91,299.49c-1.23-.13-1.63-1.25-2-2.46s-1-2.34-.09-3.74a3.65,3.65,0,0,1,2.36-2c1.24-.27,2.32-1.13,3.74-.26,1.07.65,2,1.14,2.3,2.52s1,2.33.18,3.74A5.12,5.12,0,0,1,112.91,299.49Z"/><path class="cls-2" d="M238.15,322.77a5.16,5.16,0,0,1-6.54,2.42c-1.5-.62-1.6-1.91-2.18-3s-.19-2.24.24-3.41c.57-1.57,2-1.57,3.09-2.12a3.65,3.65,0,0,1,3.11.13c1.56.54,1.8,1.77,2.24,3S239.14,322,238.15,322.77Z"/><path class="cls-2" d="M174.37,326a5.16,5.16,0,0,1-6.54,2.41c-1.5-.61-1.6-1.91-2.18-3s-.19-2.23.24-3.41c.57-1.56,2-1.56,3.09-2.12a3.72,3.72,0,0,1,3.11.13c1.56.54,1.8,1.77,2.24,3S175.37,325.22,174.37,326Z"/><path class="cls-2" d="M107.73,287.47c-.26,1.74-1.81,1.68-2.94,2.26s-2.22.24-3.41-.2c-1.57-.58-1.52-2-2.14-3.08-.73-1.28-.11-2.25.29-3.41.55-1.59,2-1.51,3.12-2.08s2-.21,3.09.17c1.57.54,1.71,1.83,2.23,3S108.69,286.44,107.73,287.47Z"/><path class="cls-2" d="M334.75,255c-1.4-.17-1.87-1.23-2.21-2.47s-1-2.34-.1-3.74c.63-1,1.15-1.78,2.34-2s2.33-1.15,3.74-.27c1.05.65,2.08,1.08,2.32,2.5.21,1.25,1.05,2.32.21,3.75a3.85,3.85,0,0,1-2.56,2.26C337.24,255.26,336.05,256.17,334.75,255Z"/><path class="cls-2" d="M364.9,221.52a4.67,4.67,0,1,1,4.37-8.26,5.24,5.24,0,0,1,1.93,6.13C370.06,221.68,366.52,222.45,364.9,221.52Z"/><path class="cls-2" d="M96.34,277.48a4.67,4.67,0,1,1-8.25-4.37,5.25,5.25,0,0,1,6.12-1.94C96.49,272.31,97.28,275.83,96.34,277.48Z"/><path class="cls-2" d="M361.15,231a5.18,5.18,0,0,1-6.37,1.95c-2-1.12-3-4.51-1.84-6.42a5.28,5.28,0,0,1,6.16-1.86A5.16,5.16,0,0,1,361.15,231Z"/><path class="cls-2" d="M141.36,317.63c-.72,1.75-4,3.31-6.27,2.23a5.24,5.24,0,0,1-2.28-6,4.67,4.67,0,1,1,8.55,3.78Z"/><path class="cls-2" d="M330.88,264.4a4.67,4.67,0,1,1-8.26-4.36,5.24,5.24,0,0,1,6.13-1.94C331,259.23,331.81,262.75,330.88,264.4Z"/><path class="cls-2" d="M55.68,228.05a5.17,5.17,0,0,1-2-6.37c1.12-2,4.51-3,6.42-1.84A5.28,5.28,0,0,1,62,226,5.16,5.16,0,0,1,55.68,228.05Z"/><path class="cls-2" d="M320.92,275.79a5.26,5.26,0,0,1-6.32,2.13c-2-1.09-3.09-4.38-2-6.35a4.67,4.67,0,0,1,8.33,4.22Z"/><path class="cls-2" d="M304.84,289.48a5.14,5.14,0,0,1-2.35-6.23,5.27,5.27,0,0,1,6-2.39c2.07.78,3.43,4,2.57,6.16A5.17,5.17,0,0,1,304.84,289.48Z"/><path class="cls-2" d="M77.16,263.56a5.16,5.16,0,0,1,6.35-2,5.18,5.18,0,0,1,1.9,6.39,5.23,5.23,0,0,1-6.12,1.93C77,268.72,76.23,265.18,77.16,263.56Z"/><path class="cls-2" d="M130.53,307.85a5.17,5.17,0,0,1-6.23,2.35,5.29,5.29,0,0,1-2.38-6c.78-2.07,4-3.43,6.15-2.57A5.16,5.16,0,0,1,130.53,307.85Z"/><path class="cls-2" d="M345,244.48a5.18,5.18,0,0,1-2.17-6.29,5.24,5.24,0,0,1,6-2.2c2.07.86,3.31,4.11,2.38,6.22A5.15,5.15,0,0,1,345,244.48Z"/><path class="cls-2" d="M198.32,331.3c1.34-.53,1.62-2.25,3.11-2.27,1.12,0,2.64-.32,3.28.27.84.77,2.26,1.42,2.27,2.89,0,1.13-.15,2.25-.23,3.38-1.3.15-1.32,1.8-2.7,2.12s-2.27-.64-3.41-.14c-.44-1.22-1.94-1.49-2.36-2.89S199.05,332.4,198.32,331.3Z"/><path class="cls-2" d="M253.35,323.93c-.77-.91-1.54-1.74-2.21-2.64-.89-1.18.2-2.47-.11-3.7,1.07-.48,1.43-1.7,2.54-2.26,1.34-.67,2.5.48,3.73,0,.33,1.19,1.7,1.42,2.24,2.58s-.62,2.32,0,3.43c-.83.77-1.63,1.56-2.49,2.29C255.91,324.65,254.59,323.25,253.35,323.93Z"/><path class="cls-2" d="M300.65,297.91c-1.31.46-1.62,2.19-3.09,2.19-1.13,0-2.76.28-3.26-.32-.77-.91-2.36-1.36-2.25-2.94.08-1.13-.22-2.73.4-3.26.89-.77,1.4-2.33,3-2.2,1,.08,2.43-.24,3,.31.84.83,2.28,1.38,2.31,2.87C300.75,295.68,300.68,296.81,300.65,297.91Z"/><path class="cls-2" d="M146.44,329.81a13,13,0,0,1-2.06-3,4.45,4.45,0,0,1,.18-3.3,5.47,5.47,0,0,1,2.94-2,4.69,4.69,0,0,1,3.31.18,4.8,4.8,0,0,1,2,2.68,4.64,4.64,0,0,1-.11,3.31,5.68,5.68,0,0,1-2.88,2.22C148.81,330.23,147.57,329.86,146.44,329.81Z"/><path class="cls-2" d="M66.49,253.47c1.28-2.75,2.63-3.29,5.2-2.1s3.18,2.72,2.24,5.17c-1,2.69-3.46,3.31-5.47,2.2C66,257.37,65.33,255.93,66.49,253.47Z"/><path class="cls-2" d="M177.61,333a3.59,3.59,0,0,1,5.31-1.89c2.6,1.47,3.05,2.8,1.83,5.61a3.7,3.7,0,0,1-5.42,1.64C177,337,176.38,335.55,177.61,333Z"/><path class="cls-2" d="M220.21,330.74c1.22-2.53,2.78-3.09,5.27-1.91,2.79,1.33,3.26,2.73,1.86,5.53-1.21,2.43-2.8,2.93-5.34,1.68S219,333.25,220.21,330.74Z"/><path class="cls-2" d="M248.87,332.75a4,4,0,1,1-1.86-5.34A3.75,3.75,0,0,1,248.87,332.75Z"/><path class="cls-2" d="M157.92,339.08c-1.3-.22-1.3-1.48-1.81-2.41-.66-1.21.14-2.05.44-3.07.39-1.31,1.54-1.36,2.47-1.87,1.21-.65,2,.14,3.07.44,1.31.39,1.36,1.54,1.87,2.47.65,1.21-.14,2.05-.44,3.07-.39,1.31-1.47,1.49-2.49,1.84C159.71,340,159.71,340,157.92,339.08Z"/><path class="cls-2" d="M284.59,310.79a4,4,0,1,1,5.39-1.73A3.77,3.77,0,0,1,284.59,310.79Z"/><path class="cls-2" d="M103.27,310.38a4,4,0,0,1-1.7-5.37,4,4,0,1,1,7.05,3.62A4,4,0,0,1,103.27,310.38Z"/><path class="cls-2" d="M90.1,295c1.25-1.87,3.34-2.76,5.4-1.63a4,4,0,0,1-3.71,7A4,4,0,0,1,90.1,295Z"/><path class="cls-2" d="M169.71,349.23a4,4,0,1,1,5.36-1.79A4.11,4.11,0,0,1,169.71,349.23Z"/><path class="cls-2" d="M114.22,320.13a4,4,0,1,1,5.33-1.87A4.14,4.14,0,0,1,114.22,320.13Z"/><path class="cls-2" d="M80.57,290.49a4,4,0,0,1-2-5.26,4,4,0,1,1,7.25,3.2C84.9,290.59,82.71,291.19,80.57,290.49Z"/><path class="cls-2" d="M280,320.43a4,4,0,1,1-1.87-5.34A4.14,4.14,0,0,1,280,320.43Z"/><path class="cls-2" d="M210.51,341.59a4,4,0,1,1,7.19,3.48,4,4,0,0,1-7.19-3.48Z"/><path class="cls-2" d="M57,248.72a4,4,0,0,1-1.95-5.29,4,4,0,1,1,7.22,3.29A4,4,0,0,1,57,248.72Z"/><path class="cls-2" d="M189.07,343a4,4,0,1,1,1.8,5.36A4.12,4.12,0,0,1,189.07,343Z"/><path class="cls-2" d="M125.25,330.66c-1.87-1.25-2.76-3.33-1.63-5.39a4,4,0,1,1,7,3.71A4,4,0,0,1,125.25,330.66Z"/><path class="cls-2" d="M231.06,340.46c.55-1.23,4.25-2.5,5.4-1.86s2.32,3.9,1.9,5.15-4,2.6-5.33,2.08S230.48,341.74,231.06,340.46Z"/><path class="cls-2" d="M134.94,335.45c.49-1.22,4.14-2.53,5.38-1.93s2.36,3.83,2,5.12-3.92,2.64-5.3,2.15C135.77,340.36,134.41,336.8,134.94,335.45Z"/><path class="cls-2" d="M270.14,331.72c-.81,1.37-4.2,2.66-5.3,2a4.52,4.52,0,0,1-1.53-1.9c-1.28-2.55-.33-4.5,2.42-5.21,1.9-.49,3.2.08,3.86,2A16,16,0,0,1,270.14,331.72Z"/><path class="cls-2" d="M153,348.65c-1,2.09-2.27,2.5-4.42,1.46s-2.64-2.27-1.43-4.68c1-2,2.28-2.35,4.5-1.24C153.7,345.21,154.08,346.45,153,348.65Z"/><path class="cls-2" d="M45.8,238.08c-2.16-1-2.6-2.26-1.6-4.37,1.1-2.31,2.31-2.72,4.63-1.56,2.07,1,2.45,2.26,1.38,4.45S47.94,239.12,45.8,238.08Z"/><path class="cls-2" d="M68,274.79c1-2.15,2.27-2.6,4.37-1.6,2.32,1.1,2.73,2.31,1.57,4.63-1,2.07-2.26,2.45-4.45,1.38S67,276.93,68,274.79Z"/><path class="cls-2" d="M341.17,273.74c-1,2.15-2.26,2.6-4.37,1.59-2.31-1.1-2.72-2.31-1.56-4.64,1-2.06,2.27-2.44,4.45-1.37S342.21,271.6,341.17,273.74Z"/><path class="cls-2" d="M202,357.46c-2.1-1-2.51-2.27-1.47-4.42s2.28-2.64,4.68-1.43c2,1,2.35,2.28,1.25,4.49C205.41,358.16,204.17,358.54,202,357.46Z"/><path class="cls-2" d="M356.52,253c-2.22-1.06-2.7-2.26-1.73-4.33,1-2.25,2.28-2.78,4.29-1.85,2.43,1.14,2.9,2.3,1.81,4.55S358.62,254,356.52,253Z"/><path class="cls-2" d="M346.47,264.46c-2.18-1-2.64-2.27-1.65-4.36,1.1-2.33,2.31-2.76,4.61-1.62,2.09,1,2.49,2.27,1.43,4.43S348.59,265.48,346.47,264.46Z"/><path class="cls-2" d="M326.64,286.71c-2.09-1-2.5-2.27-1.46-4.42s2.27-2.64,4.68-1.43c2,1,2.34,2.28,1.24,4.5C330.07,287.41,328.84,287.79,326.64,286.71Z"/><path class="cls-2" d="M316,297.86c-2.07-1-2.46-2.27-1.4-4.45s2.3-2.58,4.7-1.36c2.05,1,2.35,2.19,1.18,4.51C319.47,298.59,318.21,299,316,297.86Z"/><path class="cls-2" d="M304.61,304.86a3.32,3.32,0,0,1,4.42-1.49,3.24,3.24,0,0,1,1.43,4.66A3.17,3.17,0,0,1,306,309.3,3.37,3.37,0,0,1,304.61,304.86Z"/><path class="cls-2" d="M223.22,356.64a3.3,3.3,0,0,1-1.58-4.38,3.25,3.25,0,0,1,4.63-1.56,3.43,3.43,0,0,1,1.37,4.46A3.32,3.32,0,0,1,223.22,356.64Z"/><path class="cls-2" d="M58.77,269.56a3.36,3.36,0,0,1-1.67-4.34,3.17,3.17,0,0,1,4.29-1.78A3.25,3.25,0,0,1,63.16,268,3.32,3.32,0,0,1,58.77,269.56Z"/><path class="cls-2" d="M254.64,343.7a3.34,3.34,0,1,1,3.11-5.9,3.47,3.47,0,0,1,1.33,4.47A3.34,3.34,0,0,1,254.64,343.7Z"/><path class="cls-2" d="M367.06,241.83a3.37,3.37,0,0,1-1.65-4.36,3.45,3.45,0,0,1,4.32-1.75,3.34,3.34,0,1,1-2.67,6.11Z"/><path class="cls-2" d="M180.49,358.9a3.34,3.34,0,1,1,3.29-5.82,3.34,3.34,0,0,1-3.29,5.82Z"/><path class="cls-2" d="M381.4,228.94a3.34,3.34,0,1,1-1.35-4.52A4,4,0,0,1,381.4,228.94Z"/><path class="cls-2" d="M296.47,320.25a3.33,3.33,0,1,1,4.43-1.61A4,4,0,0,1,296.47,320.25Z"/><path class="cls-2" d="M157.9,355.36a3.33,3.33,0,1,1,1.54,4.46A4,4,0,0,1,157.9,355.36Z"/><path class="cls-2" d="M116.05,341c-1-.39-2.1-3.32-1.67-4.41s3.32-2.1,4.41-1.67,2.1,3.32,1.67,4.41S117.14,341.45,116.05,341Z"/><path class="cls-2" d="M103,326.53c.46-.95,3.5-2,4.45-1.55s2,3.51,1.55,4.46-3.5,2-4.45,1.54S102.5,327.48,103,326.53Z"/><path class="cls-2" d="M86.67,309.7c-.41.95-3.42,2-4.44,1.6s-2-3.41-1.6-4.43,3.41-2,4.43-1.61S87.1,308.67,86.67,309.7Z"/><path class="cls-2" d="M286.38,331.67c-1-.54-2-3.57-1.48-4.48s3.57-2,4.48-1.48,2,3.57,1.48,4.47S287.29,332.17,286.38,331.67Z"/><path class="cls-2" d="M244.68,355.17c-1-.45-2-3.5-1.55-4.45s3.5-2,4.45-1.55,2,3.5,1.55,4.45S245.63,355.63,244.68,355.17Z"/><path class="cls-2" d="M93.18,321.05c-1-.36-2.14-3.29-1.74-4.39s3.29-2.14,4.39-1.73,2.14,3.29,1.74,4.38S94.27,321.45,93.18,321.05Z"/><path class="cls-2" d="M129.9,346.25c2,1,2.15,1.34,1,3.56s-1.43,2.23-3.83,1c-1.84-.93-2-1.41-.83-3.64C127.29,345.2,127.62,345.11,129.9,346.25Z"/><path class="cls-2" d="M46.37,255.22c1-2.06,1.34-2.15,3.57-1.05s2.23,1.43,1,3.82c-.94,1.85-1.41,1.95-3.65.83C45.32,257.82,45.24,257.5,46.37,255.22Z"/><path class="cls-2" d="M59.93,290.12a2.72,2.72,0,0,1-1.38-3.45,2.66,2.66,0,0,1,3.71-1.34,2.66,2.66,0,0,1-2.33,4.79Z"/><path class="cls-2" d="M214,367a2.75,2.75,0,0,1-1.49-3.41A2.67,2.67,0,1,1,214,367Z"/><path class="cls-2" d="M141.88,359.37a2.72,2.72,0,0,1-3.45,1.38,2.65,2.65,0,0,1-1.35-3.7,2.67,2.67,0,0,1,4.8,2.32Z"/><path class="cls-2" d="M191.08,364.86a2.73,2.73,0,0,1,3.45-1.38,2.66,2.66,0,0,1,1.35,3.71,2.67,2.67,0,0,1-4.8-2.33Z"/><path class="cls-2" d="M235,366a2.73,2.73,0,0,1-1.29-3.48,2.67,2.67,0,0,1,3.75-1.25A2.67,2.67,0,0,1,235,366Z"/><path class="cls-2" d="M276.26,342.32a2.75,2.75,0,0,1-1.48-3.41,2.67,2.67,0,1,1,1.48,3.41Z"/><path class="cls-2" d="M169.9,365.75a2.72,2.72,0,0,1,3.44-1.42,2.68,2.68,0,0,1,1.39,3.69,2.67,2.67,0,0,1-4.83-2.27Z"/><path class="cls-2" d="M70,296.59a2.73,2.73,0,0,1,3.46-1.37,2.66,2.66,0,0,1,1.34,3.71,2.67,2.67,0,0,1-4.8-2.34Z"/><path class="cls-2" d="M36.25,249.13c-.31-.35-.5-.48-.57-.66a18.35,18.35,0,0,1-.84-2.5c-.06-.29.23-.73.48-1s.61-.24.92-.35c2.62-.9,2.17-1.1,3.13,1.51.56,1.55.7,1.75-1.12,2.29C37.54,248.65,36.85,248.92,36.25,249.13Z"/><path class="cls-2" d="M264.71,350.39c.27-.31.38-.54.55-.6.82-.32,1.66-.59,2.49-.89.67-.23,1,.08,1.19.69a21.62,21.62,0,0,1,.73,2.19,1.19,1.19,0,0,1-.36,1,21.19,21.19,0,0,1-2.8,1,.63.63,0,0,1-.57-.21C265.49,352.51,265.09,351.4,264.71,350.39Z"/><path class="cls-2" d="M182.8,379.28c-1.3-.55-1.67-1.33-1.19-2.52s1.33-1.73,2.48-1.29c1.48.56,1.87,1.41,1.27,2.74S184,379.81,182.8,379.28Z"/><path class="cls-2" d="M150.1,370.11c-1.28-.58-1.6-1.33-1.07-2.56s1.33-1.66,2.52-1.18c1.48.6,1.82,1.4,1.15,2.78A1.69,1.69,0,0,1,150.1,370.11Z"/><path class="cls-2" d="M320.85,317.22c-.6,1.27-1.34,1.55-2.58,1-1.48-.66-1.73-1.41-1-2.85.63-1.18,1.41-1.41,2.66-.78A1.69,1.69,0,0,1,320.85,317.22Z"/><path class="cls-2" d="M204.23,377.81c-1.3-.57-1.65-1.34-1.15-2.53s1.33-1.71,2.49-1.26c1.46.56,1.85,1.42,1.23,2.75S205.45,378.35,204.23,377.81Z"/><path class="cls-2" d="M330.79,305.88c-.63,1.21-1.39,1.44-2.65.82s-1.57-1.55-.78-2.91c.63-1.09,1.48-1.28,2.72-.59S331.47,304.58,330.79,305.88Z"/><path class="cls-2" d="M338.06,295.21c-1.21-.64-1.44-1.39-.82-2.65s1.55-1.57,2.91-.79c1.1.64,1.28,1.49.6,2.73S339.36,295.88,338.06,295.21Z"/><path class="cls-2" d="M347.54,282c.61-1.26,1.35-1.54,2.59-1,1.45.66,1.71,1.44.94,2.86-.64,1.17-1.42,1.39-2.68.74A1.68,1.68,0,0,1,347.54,282Z"/><path class="cls-2" d="M357.53,270.56a1.69,1.69,0,0,1,2.6-1c1.45.66,1.7,1.44.93,2.86-.63,1.17-1.42,1.39-2.67.74A1.69,1.69,0,0,1,357.53,270.56Z"/><path class="cls-2" d="M51.4,278.49c-.59,1.29-1.34,1.6-2.56,1.08s-1.66-1.34-1.19-2.52c.6-1.49,1.41-1.82,2.79-1.16A1.69,1.69,0,0,1,51.4,278.49Z"/><path class="cls-2" d="M105.59,348.64c.58-1.29,1.33-1.6,2.55-1.08s1.67,1.34,1.19,2.52c-.6,1.49-1.41,1.82-2.78,1.16A1.69,1.69,0,0,1,105.59,348.64Z"/><path class="cls-2" d="M97.8,340.24c-.58,1.28-1.34,1.6-2.56,1.07s-1.66-1.33-1.19-2.52c.6-1.48,1.41-1.81,2.79-1.15A1.69,1.69,0,0,1,97.8,340.24Z"/><path class="cls-2" d="M120.44,360.08a21.48,21.48,0,0,1-2.89.9c-.5.08-1.46-2.47-1-2.73.78-.45,1.91-1.06,2.55-.79S119.93,359,120.44,360.08Z"/><path class="cls-2" d="M71.19,317.82a18.39,18.39,0,0,1,3-.76c.53-.05,1.37,2.54.91,2.76-.82.4-2,1-2.59.68S71.67,318.93,71.19,317.82Z"/><path class="cls-2" d="M378.23,250.6c-.28-1.16-.92-2.28-.59-2.88s1.59-.85,2.48-1c.52-.08,1.38,2.51.92,2.77A20.84,20.84,0,0,1,378.23,250.6Z"/><path class="cls-2" d="M259.66,363.29c-1.16.26-2.29.89-2.89.56s-.83-1.6-1-2.5c-.08-.51,2.53-1.33,2.77-.89A22.58,22.58,0,0,1,259.66,363.29Z"/><path class="cls-2" d="M308.16,330c-.39-1.09-1.16-2.15-.89-2.78s1.5-1,2.37-1.3c.44-.16,1.63,2.3,1.2,2.67A14,14,0,0,1,308.16,330Z"/><path class="cls-2" d="M228.21,376.21c-1.16.26-2.29.89-2.89.56s-.83-1.6-1-2.5c-.08-.51,2.53-1.34,2.77-.89A22,22,0,0,1,228.21,376.21Z"/><path class="cls-2" d="M83.59,331.61a22.4,22.4,0,0,1-.93-2.87c-.1-.49,2.46-1.49,2.72-1.05.46.78,1.08,1.9.82,2.55S84.66,331.09,83.59,331.61Z"/><path class="cls-2" d="M371.5,260.86c-1.09.39-2.14,1.15-2.78.89s-1-1.5-1.3-2.37c-.16-.44,2.31-1.63,2.67-1.2A13.49,13.49,0,0,1,371.5,260.86Z"/><path class="cls-2" d="M161.33,380.42a18.44,18.44,0,0,1-.77-2.94c-.05-.54,2.54-1.38,2.76-.92.4.82,1,1.95.69,2.59S162.44,379.94,161.33,380.42Z"/><path class="cls-2" d="M38.31,269.28c-1.4-.64-1.35-.62-.81-1.89.35-.84.69-1.23,1.66-.69,1.3.71,1.3.62.76,1.89C39.56,269.43,39.18,269.94,38.31,269.28Z"/><path class="cls-2" d="M63.66,309.78c-.25.85-.67,1.18-1.63.65-1.3-.71-1.3-.62-.76-1.88.36-.85.7-1.23,1.67-.7C64.24,308.57,64.28,308.5,63.66,309.78Z"/><path class="cls-2" d="M297.86,339.45c-1.32-.43-.52-1.18-.24-1.79.53-1.11.56-1,2-.35,1.25.56.52,1.2.23,1.81C299.33,340.23,299.26,340.22,297.86,339.45Z"/><path class="cls-2" d="M129,370.25c-1.08-.28-.88-.91-.45-1.7.65-1.2.58-1.15,1.95-.57,1,.44.91.95.48,1.74C130.3,370.93,130.34,371,129,370.25Z"/><path class="cls-2" d="M246.79,375.16c-.18-.9-.56-1.65-.34-2.05s1.06-.5,1.62-.73a5,5,0,0,1,.57,1.94C248.6,374.63,247.62,374.81,246.79,375.16Z"/><path class="cls-2" d="M288.17,351.4a9.27,9.27,0,0,1-.7-1.91c-.06-.53,1.45-1.22,1.82-.81a2.13,2.13,0,0,1,.61,1.65C289.74,350.76,288.92,351,288.17,351.4Z"/><path class="cls-2" d="M218,386.68c-.89.22-1.78.67-2,.45a5,5,0,0,1-.72-1.89c.59-.16,1.3-.58,1.74-.39S217.6,385.85,218,386.68Z"/><path class="cls-2" d="M196.53,388a9.11,9.11,0,0,1-1.91.7c-.53.06-1.22-1.45-.81-1.82a2.13,2.13,0,0,1,1.65-.61C195.89,386.41,196.09,387.23,196.53,388Z"/><path class="cls-2" d="M140.23,381.3a8.71,8.71,0,0,1-.56-2c0-.56,1.5-1.14,1.85-.7a2.11,2.11,0,0,1,.5,1.68C141.85,380.71,141,380.88,140.23,381.3Z"/><path class="cls-2" d="M173.17,388.78l-.58-1,1.92-.62c.17.58.62,1.25.45,1.7C174.59,389.81,173.94,388.9,173.17,388.78Z"/><path class="cls-2" d="M51,319.74a4.11,4.11,0,0,1,1.27.07,1,1,0,0,1,.17.75,1.91,1.91,0,0,1-1,.24C51.34,320.79,51.26,320.33,51,319.74Z"/><path class="cls-2" d="M96,360a3.76,3.76,0,0,1,1.27.08c.15.07.24.7.17.74a1.83,1.83,0,0,1-1,.25C96.28,361.09,96.2,360.63,96,360Z"/><path class="cls-2" d="M330.18,327.35c-.19-.61-.41-1-.32-1.11a1.81,1.81,0,0,1,.94-.43c.08,0,.41.54.33.69S330.64,327,330.18,327.35Z"/><path class="cls-2" d="M86.84,351.44c-.61,0-1,.16-1.12,0a3,3,0,0,1-.28-1c.27-.06.65-.26.79-.15A4.17,4.17,0,0,1,86.84,351.44Z"/><path class="cls-2" d="M339.64,314.33a4.07,4.07,0,0,1,1.27.08c.15.07.24.71.17.75a1.91,1.91,0,0,1-1,.24C340,315.39,339.87,314.93,339.64,314.33Z"/><path class="cls-2" d="M26.58,257a4.25,4.25,0,0,1,1.25-.21c.17,0,.25.47.38.71a3.36,3.36,0,0,1-1,.41c-.14,0-.31-.41-.66-.91"/><path class="cls-2" d="M51.89,299.69c-.6,0-1,.16-1.12,0a3.58,3.58,0,0,1-.28-1c.27-.06.66-.26.79-.15S51.62,299.16,51.89,299.69Z"/><path class="cls-2" d="M318.94,337.18a4.25,4.25,0,0,1,1.25-.21c.17,0,.26.46.38.71a3.25,3.25,0,0,1-1,.41C319.46,338.1,319.29,337.68,318.94,337.18Z"/><path class="cls-2" d="M349.88,305c-.19-.61-.41-1-.32-1.1a1.9,1.9,0,0,1,.94-.44c.08,0,.41.54.33.69S350.34,304.64,349.88,305Z"/><path class="cls-2" d="M227.87,396.79c-.61,0-1.05.16-1.12,0a3.13,3.13,0,0,1-.29-1c.28-.06.66-.25.8-.14A3.93,3.93,0,0,1,227.87,396.79Z"/><path class="cls-2" d="M62.38,330a3.7,3.7,0,0,1,1.25-.21c.17,0,.26.46.38.71a3,3,0,0,1-1,.4C62.9,330.88,62.73,330.45,62.38,330Z"/><path class="cls-2" d="M28.05,279.52a4.3,4.3,0,0,1-.21-1.25c0-.17.46-.26.71-.38a3.25,3.25,0,0,1,.41,1C29,279,28.55,279.17,28.05,279.52Z"/><path class="cls-2" d="M361.06,293.13c-.6,0-1,.16-1.11,0a3.13,3.13,0,0,1-.29-1c.28-.06.66-.25.79-.14S360.79,292.6,361.06,293.13Z"/><path class="cls-2" d="M237,385.94a3.76,3.76,0,0,1,.08-1.27c.07-.15.7-.24.74-.17a1.83,1.83,0,0,1,.25,1C238.08,385.63,237.62,385.71,237,385.94Z"/><path class="cls-2" d="M370.22,282.28a4.14,4.14,0,0,1,.07-1.27,1,1,0,0,1,.75-.17,2,2,0,0,1,.25,1C371.28,282,370.82,282.05,370.22,282.28Z"/><path class="cls-2" d="M40.44,289.69c-.61,0-1,.16-1.12,0a3.13,3.13,0,0,1-.29-1c.28-.06.66-.25.8-.14A3.93,3.93,0,0,1,40.44,289.69Z"/><path class="cls-2" d="M74.45,341.26a4.25,4.25,0,0,1-.21-1.25c0-.17.46-.25.71-.37a3.2,3.2,0,0,1,.41,1C75.37,340.74,75,340.92,74.45,341.26Z"/><path class="cls-2" d="M379.83,269.62a3.67,3.67,0,0,1,1.25-.21c.17,0,.25.46.38.71a3.36,3.36,0,0,1-1,.41C380.35,270.54,380.17,270.11,379.83,269.62Z"/><path class="cls-2" d="M259.92,384.16c-.61,0-1.05.16-1.12,0a3.13,3.13,0,0,1-.29-1c.28-.06.66-.25.8-.14S259.64,383.63,259.92,384.16Z"/><path class="cls-2" d="M269.62,373.3c-.6,0-1,.16-1.12.05a3.28,3.28,0,0,1-.28-1c.27-.06.66-.26.79-.15A4.08,4.08,0,0,1,269.62,373.3Z"/><path class="cls-2" d="M279.73,361.62c-.61.19-1,.42-1.11.33a1.88,1.88,0,0,1-.43-.95c0-.08.54-.4.69-.32S279.34,361.17,279.73,361.62Z"/><path class="cls-2" d="M108,371.58c-.19-.61-.42-1-.33-1.1a1.94,1.94,0,0,1,1-.44c.08,0,.4.54.33.69S108.43,371.19,108,371.58Z"/><path class="cls-2" d="M299.63,360.7a4.14,4.14,0,0,1,.07-1.27,1,1,0,0,1,.75-.17,1.91,1.91,0,0,1,.24,1C300.68,360.39,300.23,360.47,299.63,360.7Z"/><path class="cls-2" d="M309.33,349.85a3.73,3.73,0,0,1,.08-1.27c.07-.16.71-.25.75-.18a1.91,1.91,0,0,1,.24,1C310.39,349.53,309.93,349.61,309.33,349.85Z"/><path class="cls-2" d="M161.15,91.61C142.28,124,81.4,133.79,60.2,150.39c-19.41,15.19-29.74,50.32-28.69,78.32s22.31,55.85,50.23,58.18c12.15,1,24.3-2.57,36.47-1.74,38.93,2.65,60.61,46.32,94.84,65,39.45,21.59,89.73,6.32,126.23-19.94,23.22-16.7,44.11-38.85,51.5-66.48s-2.19-61.08-27.36-74.64c-22.68-12.23-57.23-10.44-66.06-34.64-6.18-16.92,5.87-34.61,8.58-52.42,4.24-27.91-17-55.68-43.9-64.21s-51.56-10-71.38,10.09C181.41,57.33,167.79,80.23,161.15,91.61Z"/><path class="cls-3" d="M130.4,310.25a137,137,0,0,1,76.54,24.43c58.94,40.66,122.79,20.86,142.38,3.58,22.75-20.09,34.4-50.81,35.31-81.17s-8.12-60.38-21.39-87.78c-10.38-21.4-23.8-42-42.81-56.32-18.57-14-41.27-21.25-63.61-27.79C228.1,76.78,198.65,69,168.76,69.8c-24.37.63-51.88,9.85-60.54,32.56-7.37,19.36,1.55,42.2-6.16,61.43-10.79,26.92-47.21,33-65.22,55.72-21,26.51-14.48,62.69,5.25,74.74C62.66,306.81,100.09,310,130.4,310.25Z"/><path class="cls-2" d="M117.54,281.94c38.65,2.64,60.19,46,94.17,64.58,39.18,21.43,89.1,6.28,125.34-19.8,23.05-16.58,43.79-38.58,51.14-66S386,200.07,361,186.6"/><rect class="cls-4" x="1.57" y="1.57" width="413.95" height="425.66"/></g></g></svg>