<svg xmlns="http://www.w3.org/2000/svg" viewBox="0 0 606.47 240.48"><defs><style>.cls-1{fill:#ef4444;}.cls-1,.cls-2{fill-rule:evenodd;}.cls-2{fill:#fff;}</style></defs><g id="Layer_2" data-name="Layer 2"><g id="Layer_1-2" data-name="Layer 1"><path class="cls-1" d="M194.91,1.52c-1.89,2.34,4.48,5.56,9.35,9.07C222.93,24,231.73,38.28,233.12,39.41c3,3.6,9.7,3.55,16.37,3.46s12.67,0,17.68,0c12.4,0,25.83-.14,38.69,0-1.25,2.17-21.48,22.34-25,25.92C272.25,77.6,264.36,85.45,255.79,94c-14.18,14.14-83,83.41-88.84,87.69-30.76,22.53-66.88,20.21-94.45-.41C51.69,165.71,40,137.87,43.28,110.78,50.42,50.91,119,25.11,163.76,56.5a77.74,77.74,0,0,1,24,26.34C198.25,103,198,113,197.39,124L235,86.31c-7.18-27.14-26.48-49.73-46-63.88C176.39,13.35,158.19,5.8,142.5,2.81a119.86,119.86,0,0,0-74.27,9.64c-67.09,32.89-87.94,115.32-48,174.74A119.8,119.8,0,0,0,173.6,227.77c14-6.93,15.71-9.38,26.17-17.7,3.15-2.85,3.08-3.18,5.47-5.39l5.32-5.54c3.63-4.18,7.24-7.5,10.92-11.25l21.75-22.15c3.6-3.66,7.4-7,11-10.69l11-11.2,32.5-33.08c3.69-3.76,7.56-7.2,11.24-11l65.49-66.17C381.81,26.14,388.8,19,396.2,11.51c5-5,5.29-10.78-4.19-11.2-7.12-.31-15,0-22.22,0H215.93c-3.56,0-12.72,0-17.29,0C196.92.31,195.65.66,194.91,1.52Z"/><path class="cls-2" d="M411.56,239c1.9-2.21-4.48-5.57-9.34-9.07-18.68-13.45-27.48-27.69-28.86-28.82-1.56-2.3-7.54-3.83-12.79-3.76-10.29.14-15.29.08-21.32.08-12.39,0-25.72,0-38.44-.07,1.26-2.16,21.29-22,24.78-25.62,8.63-8.82,16.53-16.67,25.09-25.21,14.19-14.14,83-83.41,88.85-87.69,30.75-22.53,66.87-20.21,94.44.4,20.81,15.57,32.46,43.4,29.23,70.49-7.15,59.88-75.73,85.68-120.49,54.29a77.83,77.83,0,0,1-23.95-26.34c-9.25-16.89-9.36-24.1-9.68-41.13l-37.62,37.66C378.64,181.31,398,203.9,417.52,218c12.56,9.09,30.77,16.64,46.46,19.63A119.83,119.83,0,0,0,538.24,228c67.1-32.89,88-115.32,48-174.74A119.8,119.8,0,0,0,432.87,12.71c-14,6.93-15.71,9.38-26.17,17.7-3.14,2.84-3.08,3.18-5.46,5.39l-5.33,5.53c-3.63,4.18-7.24,7.51-10.92,11.26L363.24,74.73c-3.6,3.67-7.4,7-11,10.7l-11,11.19-32.5,33.09c-3.68,3.75-7.56,7.2-11.24,10.95L232,206.83c-7.36,7.51-14.34,14.69-21.75,22.14-5,5-5.29,10.77,4.2,11.19,7.11.32,15,0,22.21,0H404.52C408,240.17,410.89,239.82,411.56,239Z"/></g></g></svg>