<svg xmlns="http://www.w3.org/2000/svg" viewBox="0 0 446.89 446.55"><defs><style>.cls-1{fill:#f5f5f5;}.cls-2{fill:#e0e0e0;}.cls-3{fill:#37474f;}.cls-4{fill:none;stroke:#37474f;stroke-miterlimit:10;stroke-width:6px;}.cls-5{fill:#455a64;}.cls-6{fill:#4a94de;}.cls-7{opacity:0.1;}.cls-8{opacity:0.15;}.cls-9{fill:#263238;}.cls-10{fill:#fff;opacity:0.4;}.cls-11{fill:#ffbc9d;}.cls-12{fill:#f2bc85;}.cls-13{opacity:0.05;}.cls-14{opacity:0.2;}.cls-15{fill:#ebebeb;}.cls-16{fill:#fafafa;}.cls-17{fill:#e6e6e6;}</style></defs><g id="Layer_2" data-name="Layer 2"><g id="Floor"><path id="Floor-2" data-name="Floor" class="cls-1" d="M65.45,412c87.26,46,228.74,46,316,0s87.26-120.61,0-166.63-228.74-46-316,0S-21.82,366,65.45,412Z"/></g><g id="Shadow"><polygon class="cls-2" points="139.92 332.24 142.53 329.12 63.16 283.29 57.78 286.4 85.97 302.67 58.91 318.3 30.47 301.88 25.09 304.99 106.34 351.89 107.19 350.87 107.62 351.12 138.78 333.16 139.03 333.3 139.48 332.75 140.15 332.37 139.92 332.24"/><ellipse id="Shadow-2" data-name="Shadow" class="cls-2" cx="333.81" cy="356.9" rx="44.22" ry="21.07"/><ellipse id="Shadow-3" data-name="Shadow" class="cls-2" cx="200.23" cy="400.34" rx="44.22" ry="21.07"/><path id="Shadow-4" data-name="Shadow" class="cls-2" d="M369.07,383.23c8.58,4.95,22.49,4.95,31.07,0s8.58-13,0-17.94-22.49-5-31.07,0S360.49,378.27,369.07,383.23Z"/><ellipse id="Shadow-5" data-name="Shadow" class="cls-2" cx="66.24" cy="379.51" rx="21.97" ry="12.68"/></g><g id="Ladder"><path class="cls-3" d="M107.44,164.43,62.88,285.7v0a1.59,1.59,0,0,1-.78.84,4.47,4.47,0,0,1-4.06,0,1.53,1.53,0,0,1-.83-1,.91.91,0,0,1,0-.33,2.77,2.77,0,0,1,.16-.83L102,162.45a2.88,2.88,0,1,1,5.4,2Z"/><line class="cls-4" x1="47.88" y1="247.87" x2="92.56" y2="273.66"/><line class="cls-4" x1="80.37" y1="229.1" x2="125.06" y2="254.9"/><path class="cls-5" d="M71.08,156.1l23.83-13.76a6.29,6.29,0,0,1,9.63,4.28L144.1,331.7a1.65,1.65,0,0,1,.05.38,1.79,1.79,0,0,1,0,.4,1.54,1.54,0,0,1-.83,1,4.47,4.47,0,0,1-4.06,0,1.72,1.72,0,0,1-.79-.86,1.36,1.36,0,0,1,0-.17L98.92,147.82a1.05,1.05,0,0,0-.37-.7,1,1,0,0,0-.76.2L74,161.08"/><path class="cls-6" d="M110,333l-14.51-8.38a1.92,1.92,0,0,1-.87-1.5v-.35a1.92,1.92,0,0,1,.87-1.5l34.82-20.11a2,2,0,0,1,1.74,0l14.51,8.38a1.92,1.92,0,0,1,.87,1.5v.35a1.92,1.92,0,0,1-.87,1.5L111.71,333A2,2,0,0,1,110,333Z"/><path class="cls-7" d="M94.85,321.89a1.72,1.72,0,0,0-.26.85v.35a1.89,1.89,0,0,0,.87,1.49L110,333a1.89,1.89,0,0,0,.87.2v-2.05Z"/><path class="cls-8" d="M110.84,331.12v2.05a1.89,1.89,0,0,0,.87-.2l17.41-10.06,17.41-10.05a1.92,1.92,0,0,0,.87-1.5V311a1.84,1.84,0,0,0-.25-.85Z"/><path class="cls-6" d="M103.68,303.53l-14.52-8.38a1.91,1.91,0,0,1-.86-1.5v-.34a1.92,1.92,0,0,1,.86-1.5L124,271.7a2,2,0,0,1,1.73,0l14.52,8.38a1.91,1.91,0,0,1,.86,1.5v.35a1.91,1.91,0,0,1-.86,1.5l-34.83,20.1A1.89,1.89,0,0,1,103.68,303.53Z"/><path class="cls-7" d="M88.55,292.45a1.88,1.88,0,0,0-.25.86v.34a1.91,1.91,0,0,0,.86,1.5l14.52,8.38a1.75,1.75,0,0,0,.87.21v-2.05Z"/><path class="cls-8" d="M104.55,301.69v2.05a1.74,1.74,0,0,0,.86-.21l17.42-10,17.41-10.05a1.91,1.91,0,0,0,.86-1.5v-.35a1.73,1.73,0,0,0-.25-.85Z"/><path class="cls-6" d="M97.39,274.1l-14.52-8.38a1.91,1.91,0,0,1-.87-1.5v-.34a1.89,1.89,0,0,1,.87-1.5l34.83-20.11a1.89,1.89,0,0,1,1.73,0l14.51,8.38a1.92,1.92,0,0,1,.87,1.5v.35a1.92,1.92,0,0,1-.87,1.5L99.12,274.1A1.89,1.89,0,0,1,97.39,274.1Z"/><path class="cls-7" d="M82.26,263a1.75,1.75,0,0,0-.26.86v.34a1.91,1.91,0,0,0,.87,1.5l7.26,4.19,7.26,4.19a1.74,1.74,0,0,0,.86.21v-2.05Z"/><path class="cls-8" d="M98.25,272.26v2.05a1.75,1.75,0,0,0,.87-.21l17.41-10.05L133.94,254a1.92,1.92,0,0,0,.87-1.5v-.35a1.81,1.81,0,0,0-.25-.85Z"/><path class="cls-6" d="M91.09,244.67l-14.51-8.38a1.92,1.92,0,0,1-.87-1.5v-.34a1.89,1.89,0,0,1,.87-1.5l34.82-20.11a1.89,1.89,0,0,1,1.73,0l14.52,8.38a1.92,1.92,0,0,1,.87,1.5v.35a1.92,1.92,0,0,1-.87,1.5l-34.83,20.1A1.89,1.89,0,0,1,91.09,244.67Z"/><path class="cls-8" d="M92,242.83v2a1.71,1.71,0,0,0,.86-.21l17.42-10,17.41-10.05a1.92,1.92,0,0,0,.87-1.5v-.35a1.72,1.72,0,0,0-.26-.85Z"/><path class="cls-7" d="M76,233.59a1.85,1.85,0,0,0-.25.86v.34a1.92,1.92,0,0,0,.87,1.5l14.51,8.38a1.75,1.75,0,0,0,.87.21v-2Z"/><path class="cls-6" d="M84.8,215.24,60.68,201.32a1.92,1.92,0,0,1-.87-1.5v-.35a1.92,1.92,0,0,1,.87-1.5L95.5,177.86a2,2,0,0,1,1.73,0l24.13,13.93a1.92,1.92,0,0,1,.86,1.5v.34a1.91,1.91,0,0,1-.86,1.5L86.53,215.24A1.89,1.89,0,0,1,84.8,215.24Z"/><path class="cls-8" d="M85.66,213.4v2a1.75,1.75,0,0,0,.87-.21l17.41-10.05,17.42-10.06a1.91,1.91,0,0,0,.86-1.5v-.34a1.77,1.77,0,0,0-.25-.86Z"/><path class="cls-7" d="M60.06,198.62a1.81,1.81,0,0,0-.25.85v.35a1.92,1.92,0,0,0,.87,1.5L84.8,215.24a1.74,1.74,0,0,0,.86.21v-2Z"/><path class="cls-3" d="M75,183.19,30.43,304.32v0l-.1.27a1.86,1.86,0,0,1-.72.7,4.55,4.55,0,0,1-4.07,0,1.58,1.58,0,0,1-.83-1,1.82,1.82,0,0,1,0-.33,2.73,2.73,0,0,1,.17-.84l44.68-122a2.88,2.88,0,1,1,5.4,2Z"/><path class="cls-5" d="M74,161.08a4.46,4.46,0,0,0-1.91,4.3l39.57,185.07a1.74,1.74,0,0,1,.06.45,1.71,1.71,0,0,1,0,.32,1.56,1.56,0,0,1-.83,1,4.47,4.47,0,0,1-4.06,0,1.77,1.77,0,0,1-.79-.83,0,0,0,0,0,0,0l0-.24L66.42,166.59a10.26,10.26,0,0,1,4.66-10.49"/></g><g id="Paint_Pot" data-name="Paint Pot"><g id="Paint_Pot-2" data-name="Paint Pot"><path class="cls-3" d="M85,348l-36.71-.5-.32,30h0c0,2.71,1.74,5.44,5.3,7.55,7.12,4.22,18.74,4.34,25.95.28,3.64-2.05,5.46-4.77,5.46-7.51Z"/><path class="cls-5" d="M53.75,340.07c-7.21,4.06-7.28,10.77-.16,15s18.74,4.34,26,.28,7.28-10.77.16-15S61,336,53.75,340.07Z"/><path class="cls-9" d="M83.42,347.88a4.56,4.56,0,0,1-.26,1.44c-.56,1.72-2.06,3.31-4.4,4.63a25,25,0,0,1-12.22,2.76,24.92,24.92,0,0,1-12.14-3c-2.25-1.34-3.73-2.95-4.25-4.63a4.53,4.53,0,0,1-.26-1.54c0-2.24,1.68-4.39,4.65-6a24.53,24.53,0,0,1,12.2-2.76,24.67,24.67,0,0,1,12.16,3C81.84,343.47,83.44,345.64,83.42,347.88Z"/><path class="cls-6" d="M83.16,349.32c-.56,1.72-2.06,3.31-4.4,4.63a25,25,0,0,1-12.22,2.76,24.92,24.92,0,0,1-12.14-3c-2.25-1.34-3.73-2.95-4.25-4.63a8.76,8.76,0,0,1,4.39-4.61,24.75,24.75,0,0,1,12.2-2.78,24.89,24.89,0,0,1,12.16,3A8.94,8.94,0,0,1,83.16,349.32Z"/><path class="cls-9" d="M74.47,359.23c.8-.45,1.45-.07,1.44.85a3.21,3.21,0,0,1-1.48,2.5c-.8.45-1.45.07-1.44-.86A3.19,3.19,0,0,1,74.47,359.23Z"/><path class="cls-2" d="M48.23,352.77c-2,4-6,13.44-.82,17.3.22.16.42.3.64.44l0,1.91c-.52-.32-1.06-.68-1.58-1.06-7.78-5.77,1-20.58,1.38-21.2a.74.74,0,0,1,.44-.34Z"/><path class="cls-2" d="M75.15,361.28c-.22.46-5.89,11.3-15.22,13.48a13.48,13.48,0,0,1-3.21.38A16.21,16.21,0,0,1,48,372.42l0-1.91c3.86,2.67,7.73,3.59,11.52,2.71,8.61-2,14.12-12.58,14.16-12.68a.8.8,0,0,1,1.08-.34A.78.78,0,0,1,75.15,361.28Z"/></g></g><g id="Gear"><path class="cls-6" d="M151.33,256l-3.8-2.19a4.8,4.8,0,0,1-2.16-3.75V76.82a4.8,4.8,0,0,1,2.16-3.75L273.19.52a4.79,4.79,0,0,1,4.33,0l3.79,2.19a4.78,4.78,0,0,1,2.17,3.75V179.7a4.78,4.78,0,0,1-2.17,3.75L155.66,256A4.79,4.79,0,0,1,151.33,256Z"/><path class="cls-10" d="M283.45,6.11c-.15-1.12-1.06-1.53-2.14-.9L155.65,77.76a4.52,4.52,0,0,0-1.53,1.62L146,74.69a4.43,4.43,0,0,1,1.53-1.62L273.18.52a4.79,4.79,0,0,1,4.33,0l3.8,2.19A4.85,4.85,0,0,1,283.45,6.11Z"/><path class="cls-7" d="M155.15,256.22a4.8,4.8,0,0,1-3.83-.22l-3.79-2.19a4.78,4.78,0,0,1-2.17-3.75V76.82a4.45,4.45,0,0,1,.64-2.13l8.12,4.69a4.43,4.43,0,0,0-.63,2.13V254.75C153.49,255.93,154.2,256.51,155.15,256.22Z"/><path class="cls-9" d="M293.29,142.47h0a1,1,0,0,0-1.05.09l-5.06,3.33a1.47,1.47,0,0,1-2-.45,9.83,9.83,0,0,0-1-1.21,2.5,2.5,0,0,1-.59-2.41l8-5.1-6-3.46h0a1.34,1.34,0,0,0-.39-.16l-3.82-.86a2.07,2.07,0,0,0-2.16,1l-3.58,6.83a3.8,3.8,0,0,1-2.17,1.63l-.22.06a9.06,9.06,0,0,0,.32-1.59l-6-3.47h0a1,1,0,0,0-1.13.16l-5.71,4.49a3.22,3.22,0,0,0-1.09,2.43l.34,5.43a4.24,4.24,0,0,1-.89,2.63c-.93,1.12-1.82,2.3-2.65,3.51a2.94,2.94,0,0,1-2.32,1.18l-3.68-.18a2.37,2.37,0,0,0-2.11,1.3l-3.45,7.74a1.47,1.47,0,0,0,.59,1.86h0l4.07,2.35a1.84,1.84,0,0,1,.1,1.06,32.79,32.79,0,0,0-.64,3.69,4.6,4.6,0,0,1-1.24,2.51l-5.06,4.65a3.08,3.08,0,0,0-.85,2.5l1,5.52a1,1,0,0,0,.46.75h0l6,3.49.08-6.92a1.47,1.47,0,0,1,2,.46,9.76,9.76,0,0,0,1,1.21A2.53,2.53,0,0,1,253,191l-2.58,7a1.25,1.25,0,0,0,.5,1.54h0l6,3.48,1.64-4.49,2.33-5.79a3.78,3.78,0,0,1,2.16-1.63,17.39,17.39,0,0,0,2.35-.77,1.29,1.29,0,0,1,1.8.82l1.29,4.28a1.14,1.14,0,0,0,.5.67h0l6.05,3.49L274,192.86l1.85-1.46a3.15,3.15,0,0,0,1.08-2.42l-.34-5.43a4.35,4.35,0,0,1,.89-2.64c.94-1.12,2.35-1.71,3.18-2.93.47-.68,1-1.8,1.8-1.76l3.67.19a2.35,2.35,0,0,0,2.11-1.3l3.46-7.74a1.48,1.48,0,0,0-.77-2l-3-1.27a1.83,1.83,0,0,1-1-2,35.68,35.68,0,0,0,.64-3.69,4.62,4.62,0,0,1,1.23-2.51l5.07-4.66a3,3,0,0,0,.83-1.73l4.6-3.58Zm-23,35.7c-6.2,4.87-12.12,3.54-13.24-3s3.94-14.77,10.14-19.64,11.16-4.5,12.28,2S276.5,173.3,270.31,178.17Z"/><path class="cls-5" d="M247.7,176.94l-5,4.6a2.91,2.91,0,0,0-.77,1.45l7.43,4.29v-.4a1.47,1.47,0,0,1,2,.46h0l7.17-4.14Z"/><path class="cls-5" d="M260.46,163a28.39,28.39,0,0,1,1.84-2.55l-7.13-4.12a2.57,2.57,0,0,1-1,.22l-3.68-.18a2.32,2.32,0,0,0-1.52.55l11,6.34Z"/><path class="cls-5" d="M299.29,145.93a1,1,0,0,0-1,.12l-5.06,3.33a1.47,1.47,0,0,1-2-.46,9.83,9.83,0,0,0-1-1.21,2.5,2.5,0,0,1-.59-2.41l.48-1.29,2.17-1.43a1,1,0,0,1,1.05-.1h0Z"/><path class="cls-5" d="M284.34,144.44c-.06-.06-.11-.14-.17-.2a2.5,2.5,0,0,1-.59-2.41l8-5.1-6-3.46h0a1.34,1.34,0,0,0-.39-.16l-3.82-.86a2.07,2.07,0,0,0-2.16,1l-3.58,6.83a3,3,0,0,1-.82.91l8.1,4.68Z"/><path class="cls-5" d="M259.79,142.88l7.44,4.29,6.11-5.6a10.2,10.2,0,0,0,.25-1.37l-6-3.47h0a1,1,0,0,0-1.13.16l-5.71,4.49A3,3,0,0,0,259.79,142.88Z"/><path class="cls-3" d="M300.72,152.22l-1-5.52a.91.91,0,0,0-1.51-.66l-5.06,3.33a1.47,1.47,0,0,1-2-.45,9.76,9.76,0,0,0-1-1.21,2.5,2.5,0,0,1-.59-2.41l2.58-7a1.28,1.28,0,0,0-.95-1.73l-3.81-.86a2.06,2.06,0,0,0-2.16,1l-3.59,6.83a3.78,3.78,0,0,1-2.16,1.63,17.86,17.86,0,0,0-2.35.77,1.3,1.3,0,0,1-1.8-.82l-1.29-4.28a1,1,0,0,0-1.61-.51l-5.72,4.49a3.17,3.17,0,0,0-1.08,2.43l.34,5.43a4.3,4.3,0,0,1-.89,2.63c-.94,1.12-1.82,2.3-2.65,3.51a3,3,0,0,1-2.33,1.18l-3.67-.18a2.36,2.36,0,0,0-2.11,1.3l-3.45,7.74a1.47,1.47,0,0,0,.76,2l3,1.26a1.85,1.85,0,0,1,1,2,35.22,35.22,0,0,0-.64,3.69,4.59,4.59,0,0,1-1.23,2.51L248.71,185a3.08,3.08,0,0,0-.85,2.5l.95,5.52a.91.91,0,0,0,1.51.65l5.06-3.33a1.47,1.47,0,0,1,2,.46,10.83,10.83,0,0,0,1,1.21,2.5,2.5,0,0,1,.59,2.41l-2.58,7a1.27,1.27,0,0,0,.94,1.73l3.82.85a2.06,2.06,0,0,0,2.16-1l3.58-6.83a3.83,3.83,0,0,1,2.17-1.63,17.86,17.86,0,0,0,2.35-.77,1.29,1.29,0,0,1,1.8.82l1.29,4.28a1,1,0,0,0,1.61.51l5.71-4.49a3.23,3.23,0,0,0,1.09-2.43l-.34-5.43a4.3,4.3,0,0,1,.89-2.63c.93-1.12,1.82-2.3,2.65-3.52a3,3,0,0,1,2.33-1.18l3.67.19a2.36,2.36,0,0,0,2.11-1.3l3.45-7.74a1.47,1.47,0,0,0-.77-2l-3-1.27a1.82,1.82,0,0,1-1-2,35.6,35.6,0,0,0,.63-3.69,4.64,4.64,0,0,1,1.24-2.51l5.06-4.66A3.06,3.06,0,0,0,300.72,152.22Zm-24.4,29.42c-6.19,4.87-12.12,3.54-13.24-3s3-15.72,9.19-20.59,12.12-3.55,13.24,3S282.51,176.77,276.32,181.64Z"/><path class="cls-9" d="M264.7,89l-5.92-3.42h0a1,1,0,0,0-.93,0l-10.7,4.82a1.27,1.27,0,0,1-1.79-.82A23.89,23.89,0,0,0,243,84.31a3,3,0,0,1-.16-2.59L250,67.34a1.62,1.62,0,0,0-.63-2.09l-7.74-4.47a1.61,1.61,0,0,0-2.13.5l-8.89,13.36a3,3,0,0,1-2.33,1.16,21.84,21.84,0,0,0-3.1.14V66.17l-5.94-3.42h0a1,1,0,0,0-1,.08l-12,6.94A3.27,3.27,0,0,0,204.76,72l-1.2,13.37a4.43,4.43,0,0,1-1.25,2.5A73.73,73.73,0,0,0,195.63,95a2.3,2.3,0,0,1-2.36.67l-7.72-2.7a1.88,1.88,0,0,0-2.16.81l-8.84,15.31a1.88,1.88,0,0,0,.39,2.27l6.19,5.34a2.29,2.29,0,0,1,.6,2.38,70.69,70.69,0,0,0-2.78,9.32,4.45,4.45,0,0,1-1.54,2.33l-11,7.73a3.21,3.21,0,0,0-1.23,2.36v13.88a1,1,0,0,0,.43.89h0l5.92,3.41,8.79-4.16a20.83,20.83,0,0,0,1.1,2,3,3,0,0,1,.16,2.59l-7.13,14.38a1.62,1.62,0,0,0,.63,2.1l7.74,4.47a1.62,1.62,0,0,0,2.13-.5l8.89-13.37a2.91,2.91,0,0,1,2.32-1.15,24.6,24.6,0,0,0,5.79-.59,1.27,1.27,0,0,1,1.61,1.13l1.17,11.68a1,1,0,0,0,.46.82h0l5.91,3.41,7.1-10.43a3.21,3.21,0,0,0,1.43-2.24l1.21-13.38a2.66,2.66,0,0,1,1.53-2,28.35,28.35,0,0,0,9.34-6.55,2.4,2.4,0,0,1,2.39-.64l4.74,1.67a1.9,1.9,0,0,0,2.17-.8l8.83-15.31a1.87,1.87,0,0,0-.38-2.28l-4.07-3.51a2.47,2.47,0,0,1-.66-2.4,40.28,40.28,0,0,0,1.1-11.09,3.08,3.08,0,0,1,1.16-2.36l11-7.73a3.28,3.28,0,0,0,1.22-2.37l5.25-6.29Zm-52.49,55C201,150.51,194,145.91,194,133s9.27-28.81,20.49-35.29,18-1.76,18,11.19S223.42,137.56,212.21,144Z"/><path class="cls-5" d="M247.59,72.1,250,67.34a1.62,1.62,0,0,0-.63-2.09l-7.74-4.47a1.61,1.61,0,0,0-2.13.5l-8.89,13.36a2.14,2.14,0,0,1-.59.57L239.92,81Z"/><path class="cls-5" d="M178.26,129.78a3.75,3.75,0,0,1-.85.91l-11,7.73a2.56,2.56,0,0,0-.72.83l6.7,3.87,14.57-8.3Z"/><path class="cls-5" d="M184.93,92.85a1.87,1.87,0,0,0-1.54.89l-8.84,15.31a1.85,1.85,0,0,0-.2,1.11l7.62,4.4,12.1-16.36Z"/><path class="cls-5" d="M205,71.22l9.42,5.44,10.71-6.18V66.17l-5.94-3.42h0a1,1,0,0,0-1,.08l-12,6.94A3.21,3.21,0,0,0,205,71.22Z"/><path class="cls-3" d="M265.12,103.79V89.91a.89.89,0,0,0-1.36-.88l-10.7,4.82a1.27,1.27,0,0,1-1.78-.82,24.37,24.37,0,0,0-2.39-5.31,3,3,0,0,1-.16-2.59l7.13-14.38a1.62,1.62,0,0,0-.63-2.09l-7.74-4.47a1.61,1.61,0,0,0-2.13.5l-8.89,13.36a3,3,0,0,1-2.33,1.16,24,24,0,0,0-5.78.58,1.27,1.27,0,0,1-1.61-1.13L225.58,67a.9.9,0,0,0-1.45-.75l-12,6.94a3.23,3.23,0,0,0-1.43,2.25L209.47,88.8a4.43,4.43,0,0,1-1.25,2.5,72.57,72.57,0,0,0-6.68,7.07,2.3,2.3,0,0,1-2.36.67l-7.71-2.7a1.89,1.89,0,0,0-2.17.81l-8.84,15.3a1.89,1.89,0,0,0,.39,2.28l6.19,5.34a2.29,2.29,0,0,1,.6,2.38,72.24,72.24,0,0,0-2.78,9.32,4.49,4.49,0,0,1-1.54,2.33l-11,7.73a3.21,3.21,0,0,0-1.23,2.36v13.88a.9.9,0,0,0,1.37.88l10.7-4.82A1.27,1.27,0,0,1,185,155a24,24,0,0,0,2.39,5.3,3,3,0,0,1,.16,2.59l-7.13,14.38a1.62,1.62,0,0,0,.63,2.1l7.74,4.46a1.61,1.61,0,0,0,2.13-.49l8.89-13.37a3,3,0,0,1,2.32-1.16,24.05,24.05,0,0,0,5.79-.58,1.27,1.27,0,0,1,1.61,1.13L210.66,181a.9.9,0,0,0,1.45.74l12-6.94a3.23,3.23,0,0,0,1.43-2.25l1.21-13.37a4.43,4.43,0,0,1,1.25-2.5,71.29,71.29,0,0,0,6.67-7.07,2.33,2.33,0,0,1,2.37-.67l7.71,2.7a1.9,1.9,0,0,0,2.17-.81l8.84-15.3a1.89,1.89,0,0,0-.39-2.28l-6.19-5.34a2.29,2.29,0,0,1-.6-2.38,74.21,74.21,0,0,0,2.78-9.31,4.41,4.41,0,0,1,1.54-2.33l11-7.73A3.24,3.24,0,0,0,265.12,103.79Zm-47,43.65c-11.22,6.48-20.31,1.23-20.31-11.72s9.09-28.7,20.31-35.18,20.31-1.22,20.31,11.73S229.33,141,218.12,147.44Z"/><path class="cls-5" d="M264.7,89h0a1,1,0,0,0-.95,0l-10.7,4.82a1.27,1.27,0,0,1-1.78-.82,23.08,23.08,0,0,0-1.53-3.76l8.1-3.65a1,1,0,0,1,.93,0h0Z"/></g><g id="Character_2" data-name="Character 2"><path class="cls-9" d="M348.94,349.61v-1.14c-.45,1.34-2.53,7.09-5.69,10-2.51,2.29-5.93,4.93-6.8,7.48s4.76,3.55,7.11,3.13c2.72-.48,6.24-2,8.16-4.38,1.35-1.66,2.21-3.63,3.18-4.93s3.18-2.76,3.7-4.27c.29-.82-.05-2.64-.46-4.17s-.76-3-1.24-2.83c0,.18,0,.87,0,.87a6.31,6.31,0,0,1-4,1.35C351.75,350.73,348.93,350.5,348.94,349.61Z"/><path class="cls-11" d="M341,360.45c.78-.7,1.56-1.37,2.27-2,2.21-2,3.89-5.43,4.85-7.75a11,11,0,0,0,.84-4.19V342h8v7.38h0v.19l0,0c-.39,1.66-4,6.06-6.11,8.92-1.39,1.93-4,4.37-7.19,4.79S339,362.72,341,360.45Z"/><path class="cls-9" d="M317.9,341.77v-1.14c-.45,1.34-2.53,7.08-5.69,10-2.51,2.29-5.93,4.94-6.8,7.49s4.76,3.54,7.11,3.13c2.72-.48,6.25-2,8.17-4.39,1.34-1.65,2.2-3.62,3.17-4.92s3.18-2.76,3.7-4.27c.29-.83-.05-2.64-.45-4.18s-.77-2.95-1.25-2.82v.87a6.32,6.32,0,0,1-4,1.34C320.71,342.89,317.89,342.66,317.9,341.77Z"/><path class="cls-11" d="M309.94,352.61c.78-.7,1.56-1.38,2.27-2,2.21-2,3.89-5.42,4.86-7.75a11,11,0,0,0,.83-4.19v-4.53h8v7.38h0v.2l0,0c-.39,1.65-4,6.05-6.11,8.92-1.39,1.92-4,4.37-7.19,4.79C309.52,355.82,308,354.87,309.94,352.61Z"/><path class="cls-3" d="M355.31,226c6.17,13.47-.22,60.93-.22,60.93.18,2.19,2.68,6.49,3.62,16.12,1.1,11.37-1.73,39.92-1.73,39.92a8.6,8.6,0,0,1-8,.32s-7.59-43-9-54.31c-1.25-9.86-3.64-31.56-3.64-31.56l-6.78,31.51a59,59,0,0,1,2.15,9.74c.64,6.65-5.8,37.61-5.8,37.61s-2.75,1-8,.24c0,0-2.28-41.09-2.88-49.1-1-13.45,2.56-55.43,5-63.39Z"/><path class="cls-9" d="M336.29,257.37l-2-12.51s-8.47-1.76-12.31-5.37a22,22,0,0,0,10,6.66l2.25,9.63L330.31,285Z"/><path class="cls-11" d="M323.25,217.45c4.67-15.54,10.62-38.68,8.38-38.68s-5.7-.2-8.23,2.33c-5,5-5.89,14.28-6.94,19.58S314.67,210.15,313,218c-1.26,6-2.8,13.16-5.06,17.76a3.75,3.75,0,0,1-1.95,1.79c-2.26.92-3.3,2.08-5.11,3.42-1.42,1.05-2.5,1.19-2.41,1.61a2,2,0,0,0,2.38,1.34,14.2,14.2,0,0,0,3.16-1.07,18.6,18.6,0,0,1-3.84,4.57c-3.46,3-4,5.14,1.79,6.18,3.61.66,6.88-1.07,11-8.55a67,67,0,0,0,4.09-8.5C319.76,228.92,321.84,222.15,323.25,217.45Z"/><path class="cls-6" d="M344.43,179.14h0c7.91.54,8.46,4.36,10.44,8.54a13.51,13.51,0,0,1,.38,10.19l-5.51,15.95s2.58,6.23,5.57,12.13c-13.83,7.72-31.1,3.66-35.26-2-.17-1.2.9-10.54,1.55-16.64-2.43-6.11-3.08-10-2.05-14,1.91-7.5,9.32-14.81,12.59-14.54Z"/><path class="cls-9" d="M336.83,172.58h3.07a16.16,16.16,0,0,0,16.16-16.16h0a16.25,16.25,0,0,0-16.25-16.25h-2.9a16.25,16.25,0,0,0-16.25,16.25h0A16.16,16.16,0,0,0,336.83,172.58Z"/><path class="cls-9" d="M364.72,181.1h0a9.54,9.54,0,0,1-9.55-9.55V151.1h0a9.56,9.56,0,0,1,9.55,9.55Z"/><path class="cls-9" d="M356.92,147.47l-2.4,3.85a2.2,2.2,0,0,0,3.12-.64A2.38,2.38,0,0,0,356.92,147.47Z"/><path class="cls-11" d="M326.48,147.32c-1.87,1.11-4.18,5.81-4,15.67.2,8.35,2.91,10.42,4.27,11s4,.24,6.53-.19v5s-3.53,4.1-3.3,6.4,5.08,2.84,8.38.59a21.2,21.2,0,0,0,5.41-5.66V168a3.2,3.2,0,0,0,4.54.43c2.81-1.87,2.92-6.5,1.28-8.16s-5.16-1.14-5.82,1.16c0,0-4.06.15-9.48-2.83A15.22,15.22,0,0,1,326.48,147.32Z"/><path class="cls-9" d="M332.79,160.89a1.07,1.07,0,0,0,1,1.14,1.09,1.09,0,1,0-1-1.14Z"/><path class="cls-12" d="M331.57,168l-2.44.78a1.26,1.26,0,0,0,1.59.88A1.35,1.35,0,0,0,331.57,168Z"/><path class="cls-9" d="M324.17,157.66l2.13-1.47a1.24,1.24,0,0,0-1.77-.36A1.37,1.37,0,0,0,324.17,157.66Z"/><path class="cls-9" d="M324.66,160.13a1.05,1.05,0,1,0,1.11-1A1.07,1.07,0,0,0,324.66,160.13Z"/><polygon class="cls-12" points="329.8 159.53 329.63 165.85 326.3 164.82 329.8 159.53"/><path class="cls-12" d="M333.32,173.81c2.68-.35,8.21-1.94,9.07-4.12a5.57,5.57,0,0,1-1.94,2.78c-1.65,1.42-7.13,3-7.13,3Z"/><path class="cls-7" d="M340.89,227.44a8.34,8.34,0,0,0,6.23-10.18,3.64,3.64,0,0,0-.14-.43,2.72,2.72,0,0,0-2.8-1.86h0a8.07,8.07,0,0,0,3.45-5.15l1.68-8.43s-3.12-9.91-2.8-13.3l7.94.46,1,.71a13.86,13.86,0,0,1-.22,8.61l-5.51,15.95s2.58,6.23,5.57,12.13a35.75,35.75,0,0,1-29.55,2A40.41,40.41,0,0,0,340.89,227.44Z"/><path class="cls-3" d="M352.32,219.72c-2.92.78-11.81,1.84-12.46-4.4a108,108,0,0,1,0-14.94,36.09,36.09,0,0,1,7.61-20.26l.36-.44s-1.29-1-4.05-.56a30.37,30.37,0,0,0-7.82,14c-4-.58-9-1-12.34-1.26a23.24,23.24,0,0,1,9.67-13,5.16,5.16,0,0,0-3.53,0c-5.51,3.15-8.42,8.48-9.76,12.81-3.18,8.82-3.06,41.64-3,53.3l5.49-8.74h35C357.09,223.61,352.32,219.72,352.32,219.72Z"/><path class="cls-11" d="M369.44,211.2s-3.74-8-8.93-19.8c-3.74-8.54-4.58-10.47-10.55-11.39l-2.1-.33c-2.83,9.29-.88,13.5,2.84,19.85l7.36,14.26C361,213.21,369.5,212.08,369.44,211.2Z"/><path class="cls-11" d="M358.06,213.79c2.18,4.39,4.05,7.11,6.7,7.82s24.55.46,24.55.46v-8.28l-20.84-3.16Z"/><path class="cls-6" d="M401.83,304.7H367.39v67.09c-.16,2.66,1.5,5.35,5,7.39,6.73,3.88,17.64,3.88,24.37,0,3.37-1.95,5.05-4.5,5.05-7.05h0Z"/><path class="cls-6" d="M398.21,298.61h0c-3.81-2.49-1.44-8.55-1.44-8.55H372.41s2.31,6-1.44,8.55h0c-5.26,3.9-4.79,9.54,1.42,13.12,6.73,3.89,17.64,3.89,24.37,0C403,308.15,403.46,302.51,398.21,298.61Z"/><path class="cls-13" d="M398.21,298.61h0c-3.81-2.49-1.44-8.55-1.44-8.55H372.41s2.31,6-1.44,8.55h0c-5.26,3.9-4.79,9.54,1.42,13.12,6.73,3.89,17.64,3.89,24.37,0C403,308.15,403.46,302.51,398.21,298.61Z"/><path class="cls-13" d="M396.11,293a12.54,12.54,0,0,1,.67-3H372.41a12.38,12.38,0,0,1,.65,3C379.6,296.44,389.56,296.44,396.11,293Z"/><path class="cls-6" d="M401.83,278.33h-2a12.82,12.82,0,0,0-3-2.34c-6.73-3.89-17.64-3.89-24.37,0a12.82,12.82,0,0,0-3,2.34h-2V283h0c0,2.55,1.69,5.09,5.05,7,6.73,3.88,17.64,3.88,24.37,0,3.37-1.94,5.05-4.49,5.05-7h0Z"/><path class="cls-6" d="M372.41,285.37c6.73,3.88,17.64,3.88,24.37,0s6.73-10.19,0-14.07-17.64-3.89-24.37,0S365.68,281.48,372.41,285.37Z"/><path class="cls-10" d="M372.41,285.37c6.73,3.88,17.64,3.88,24.37,0s6.73-10.19,0-14.07-17.64-3.89-24.37,0S365.68,281.48,372.41,285.37Z"/><path class="cls-14" d="M384.61,374.77h0a3.35,3.35,0,0,1-3.36-3.36V323.49a3.35,3.35,0,0,1,3.36-3.36h0a3.35,3.35,0,0,1,3.35,3.36v47.92A3.35,3.35,0,0,1,384.61,374.77Z"/><path class="cls-14" d="M396.08,372.75h0c-1.61.58-2.91-.25-2.91-1.85V322.07a4.61,4.61,0,0,1,2.91-4h0c1.61-.58,2.91.25,2.91,1.85v48.83A4.6,4.6,0,0,1,396.08,372.75Z"/><path class="cls-14" d="M373.13,372.75h0c1.61.58,2.91-.25,2.91-1.85V322.07a4.61,4.61,0,0,0-2.91-4h0c-1.6-.58-2.91.25-2.91,1.85v48.83A4.62,4.62,0,0,0,373.13,372.75Z"/><path class="cls-2" d="M389.31,157.66l-7-4.07-4.44,20.9s4.44,7.25,4.44,11.94v89.12l4.65,5.43,2.39-1.37V190.49c0-4.69,4.43-6.82,4.43-6.82Z"/><path class="cls-15" d="M386.92,159l-7-4.06-4.44,20.89s4.44,7.25,4.44,11.94v89.12l7,4.06V191.86c0-4.69,4.44-6.82,4.44-6.82Z"/><polygon class="cls-16" points="379.89 154.97 382.27 153.59 389.31 157.66 386.92 159.03 379.89 154.97"/><polygon class="cls-1" points="389.31 157.66 386.92 159.03 391.36 185.04 393.74 183.67 389.31 157.66"/><path class="cls-11" d="M389.31,207.23c.36-1.58,2.84-2.46,2.6.16s1,4.46,1.36,5.68c.75,2.56.58,7.42-.43,8.37a5.41,5.41,0,0,1-4.23,1.92,8.72,8.72,0,0,1-5.27-2.15c-1.62-1.26-3.35-8.5.41-7.47,5.59,1.52,5.56-2.5,5.56-2.5Z"/></g><g id="Character_1" data-name="Character 1"><path class="cls-11" d="M205.46,231c3.94.79,6.26,3.67,11,11s12.09,19.94,12.09,19.94l18.38,7-.79,8.27s-20-3.56-22.79-5.6S210,254.22,210,254.22Z"/><path class="cls-17" d="M202.17,229.45c4.09.73,8.12,1.72,10.63,5.6s11.65,18.75,11.65,18.75-3.33,7.82-9.41,9l-8.74-12.59Z"/><path class="cls-1" d="M187.21,229.79c-1.4.34-2.81.42-4.05.67-6.07,1.22-7.19,4.38-7.34,11.71-.23,12.27,0,40.67,0,40.67,5.41,3.94,25.39,6.34,36.77-2,0,0-.58-32.67-.58-38.46s-3.21-12.74-12.09-13.25Z"/><rect class="cls-11" x="174.39" y="382.95" width="7.85" height="13.44" transform="translate(356.63 779.34) rotate(180)"/><polygon class="cls-11" points="206.5 386.21 214.34 386.49 214.74 372.26 206.5 371.99 206.5 386.21"/><path class="cls-3" d="M213.7,280.87h0L212.29,249l-24.7,4a107.4,107.4,0,0,1-.88,15.1c-.46,3.94-4.24,9.31-10.94,11.09a149.23,149.23,0,0,0-.06,15.48c.12,3.72-1.63,44.85-1.63,44.85-.18,2.16-2.26,6-2.42,13.77-.23,11.27,2.39,36.42,2.39,36.42a10.33,10.33,0,0,0,8.74.18s5.28-36.16,6.69-47.32c1.22-9.73,6.35-37.1,6.35-37.1l6,32.9a44.49,44.49,0,0,0-1,12.48c.36,5.16,5.14,31,5.14,31a10.71,10.71,0,0,0,9.07.69s.46-40.56.56-45.29C215.73,331.81,213.7,280.88,213.7,280.87Z"/><path class="cls-3" d="M212.29,249c-.26-6.31-1.14-12.14-6.58-17.6a7.89,7.89,0,0,0-5.59-2.28H199s5.46,4.34,7.6,10.62A42.26,42.26,0,0,1,208.28,252Z"/><path class="cls-9" d="M182.24,392.52V391.4c.42,0,.68.4.84,1.42.12.72.22,1.26.46,2.22a25.8,25.8,0,0,0,1.37,4c1.11,2.74,2,3.76,4.58,6.95a29.22,29.22,0,0,1,2.44,2.81c.48.85.64,3.2-.16,3.74-3,2-7.47,2-10.65,1.09a6.4,6.4,0,0,1-4.62-5.19c-.12-.72-.08-1.46-.16-2.19a10.32,10.32,0,0,0-2-4.56,14.37,14.37,0,0,1-1.51-2.49c-.65-1.61-.13-3.42.3-5,.36-1.39.75-2.92,1.23-2.79v.86a6.21,6.21,0,0,0,3.92,1.33C179.46,393.62,182.25,393.39,182.24,392.52Z"/><path class="cls-9" d="M214.43,384.06c.41,0,.74.59,1.64,1.57a17.14,17.14,0,0,0,4.62,3.32c2.93,1.47,8.65,3.73,11.24,4.9,1.61.73,1.54,2.68-.13,3.79s-5.71,1.91-10.55.83c-2.64-.59-6.07-3-8.24-2.9s-6.25.1-7.85-1-1-3.47-.51-5.5c.5-2.21,1.12-5.67,1.85-5.52v.77c.94,1.43,5.81,2,7.89,1Z"/><path class="cls-9" d="M195.83,305.43a29.12,29.12,0,0,0,10.93-6.27s-2.11,3.95-8.38,7.62l3,29.27Z"/><circle class="cls-9" cx="201.12" cy="203.69" r="10.79"/><path class="cls-9" d="M182.47,211.36s1.75,8.22,2.45,9.56a3.74,3.74,0,0,0,2.15,1.74l-.13-5.78Z"/><path class="cls-9" d="M184.66,199.59a4.06,4.06,0,0,0-3.35,1.18c-1.44,1.47-.63,6.08,1.16,10.59l3.29.38Z"/><path class="cls-11" d="M186.75,211.74c-.66.4-1.6-.87-2.42-1.72s-3.47-2-4.8.77,1.17,6.61,3.27,7.27c3.6,1.13,4.14-1.18,4.14-1.18l.27,13.41h0c4.49,5.75,16.93,5.26,11.75-.74v-4a23.13,23.13,0,0,0,4.86.25c2.65-.41,4.32-2.51,5.12-5.38,1.3-4.61,1.79-8.33.69-17.4-1.2-9.95-12.76-10.05-19-6.12S186.75,211.74,186.75,211.74Z"/><path class="cls-3" d="M187.58,254.9c.19-8.16-1.68-20.25-4.42-24.44a8,8,0,0,1,4.05-.67s5.14,8,4.92,25.11Z"/><path class="cls-9" d="M186.75,212.85c-.33,0-1.6-2.09-2.42-2.83-1.14-1,.33-10.43.33-10.43a4.54,4.54,0,0,1,.79-5.06c1.56-1.72,3.73-3.82,10.81-3,5.05.6,10.54,2.17,15,0a7.54,7.54,0,0,1-2.63,8s-1.6,1-5.83,1.55a61.43,61.43,0,0,1-11.71-.22c-1.22-.17-1.48,1-2.14,4.27C188.35,208,187.86,212.83,186.75,212.85Z"/><path class="cls-9" d="M184.67,200.32l-4-2.14a2.2,2.2,0,0,1,3-1A2.38,2.38,0,0,1,184.67,200.32Z"/><path class="cls-12" d="M199,225.59s-5.93-1.2-8-2.3a6.83,6.83,0,0,1-2.86-2.83,9.32,9.32,0,0,0,1.63,3.34c1.51,1.94,9.23,3.36,9.23,3.36Z"/><path class="cls-9" d="M198.73,211a1.19,1.19,0,1,1-2.38,0,1.2,1.2,0,0,1,1.19-1.23A1.21,1.21,0,0,1,198.73,211Z"/><path class="cls-9" d="M197.47,206.53l-2.54,1.4a1.52,1.52,0,0,1,.59-2A1.42,1.42,0,0,1,197.47,206.53Z"/><path class="cls-12" d="M198.41,218.46l2.71,1a1.42,1.42,0,0,1-1.84.9A1.51,1.51,0,0,1,198.41,218.46Z"/><path class="cls-9" d="M209.31,207.52,207,205.74a1.4,1.4,0,0,1,2-.31A1.54,1.54,0,0,1,209.31,207.52Z"/><path class="cls-9" d="M208.59,210.67a1.19,1.19,0,1,1-1.18-1.23A1.2,1.2,0,0,1,208.59,210.67Z"/><polygon class="cls-12" points="202.24 209.78 202.63 216.91 206.35 215.64 202.24 209.78"/><path class="cls-5" d="M258.86,223c0-2.19,1.84-5.26,1.28-6.9l-4.06-2.34-8.14,20.45-8.3,4.71-4.09-6,12.26-18.3-4.06-2.35c-.51.24-1,.5-1.56.8-9.27,5.27-16.84,18.25-16.91,29,0,5.42,1.85,9.22,4.91,11h0l4,2.34.47-1.23h.3v95.16c-5.7,6.34-9.67,15.26-9.72,23,0,4,1,7.16,2.79,9.24l4.06,2.35,4.07-22.8,8.3-4.71,4.1,6-8.21,20.65,4.06,2.35s14.34-21.4,14.41-32.15a15.3,15.3,0,0,0-1.75-7.73l1-.85-4-2.33h0a8.7,8.7,0,0,0-5-1.2V246.06C254.84,239.72,258.81,230.8,258.86,223Z"/><polygon class="cls-9" points="235 349.38 239.06 351.72 239.06 256.57 235 254.22 235 349.38"/><path class="cls-3" d="M253.2,343.56V248.41c5.7-6.35,9.67-15.27,9.72-23,0-4-1-7.17-2.78-9.25L252,236.58l-8.29,4.72-4.1-6,8.2-20.65c-.51.23-1,.5-1.56.8-9.26,5.27-16.84,18.25-16.91,29-.05,7.88,3.94,12.34,9.72,12.11v95.15c-5.7,6.35-9.67,15.27-9.72,23,0,4,1,7.16,2.79,9.24l8.13-20.45,8.3-4.72,4.1,6-8.21,20.66c.52-.24,1-.51,1.56-.81,9.27-5.27,16.84-18.25,16.91-29C263,347.79,259,343.33,253.2,343.56Z"/><polygon class="cls-9" points="246.79 359.83 248.56 358.83 252.66 364.81 244.45 385.46 240.39 383.12 248.6 362.47 246.79 359.83"/><path class="cls-11" d="M253.2,265.34c0,1.53-2.32,3.24-4,4.3s-3.86,2.56-3.05,5.65a4.41,4.41,0,0,0,5.82,3.06,6.35,6.35,0,0,0,3.77-5.08c.42-2.84,1.38-9.67-2.52-10.47Z"/><path class="cls-11" d="M160,273.52c6.76-30.35,11-37,20.4-40.47l-1.28,18.25S170.33,271,169,277.92c-1.17,6.1-2.47,13.79-2.27,19a3.77,3.77,0,0,0,1.07,2.47c1.73,1.79,2.22,3.31,3.36,5.31.88,1.56,1.83,2.13,1.57,2.49a2,2,0,0,1-2.76.27,14.55,14.55,0,0,1-2.51-2.31,19.13,19.13,0,0,0,1.69,5.85c2,4.24,1.57,6.42-4.23,5-3.64-.88-6-3.84-6.69-12.51a66.89,66.89,0,0,1-.29-9.61C158.54,285.66,158.94,278.41,160,273.52Z"/><path class="cls-17" d="M181.25,231a13.61,13.61,0,0,0-6.79,2.08c-2.36,1.59-6.29,8-8.78,15.93s-3.8,12.33-3.8,12.33,4.08,6.22,12.88,3.76c0,0,5-12.4,4.67-11.61C179.43,253.46,186,241.24,181.25,231Z"/></g></g></svg>