<svg xmlns="http://www.w3.org/2000/svg" viewBox="0 0 45.6 45.6"><defs><style>.cls-1{fill:#1a1a1a;}.cls-2{fill:#d64635;}.cls-2,.cls-3{fill-rule:evenodd;}.cls-3{fill:#fff;}</style></defs><g id="Layer_2" data-name="Layer 2"><g id="Layer_1-2" data-name="Layer 1"><circle class="cls-1" cx="22.8" cy="22.8" r="22.8"/><path class="cls-2" d="M16.21,15.58c-.12.14.27.33.57.55a8.25,8.25,0,0,1,1.75,1.75c.18.22.59.22,1,.21h1.08c.75,0,1.57,0,2.35,0-.07.13-1.31,1.36-1.52,1.58-.52.54-1,1-1.53,1.53-.86.87-5.05,5.08-5.4,5.34a4.71,4.71,0,1,1-.2-7.62,4.64,4.64,0,0,1,1.46,1.61,4,4,0,0,1,.59,2.5l2.29-2.29a7.31,7.31,0,0,0-2.8-3.89A7.92,7.92,0,0,0,13,15.65a7.3,7.3,0,1,0,1.89,13.7,6.24,6.24,0,0,0,1.59-1.08c.2-.17.19-.19.34-.33l.32-.34c.22-.25.44-.45.67-.68l1.32-1.35.67-.65.67-.68,2-2c.22-.23.46-.44.68-.67l4-4c.44-.46.87-.89,1.32-1.35.31-.3.32-.65-.25-.68s-.92,0-1.36,0H16.44C16.33,15.5,16.25,15.52,16.21,15.58Z"/><path class="cls-3" d="M29.4,30c.11-.14-.28-.34-.57-.55a8.08,8.08,0,0,1-1.76-1.76,1.11,1.11,0,0,0-.78-.23H22.65c.08-.13,1.3-1.34,1.51-1.56l1.53-1.53c.86-.86,5-5.08,5.41-5.34a4.68,4.68,0,0,1,5.75,0,4.71,4.71,0,0,1-5.56,7.59,4.71,4.71,0,0,1-1.46-1.6,4.28,4.28,0,0,1-.59-2.5L27,24.87a7.4,7.4,0,0,0,2.81,3.89A7.58,7.58,0,0,0,32.59,30a7.3,7.3,0,1,0-1.9-13.69,6.69,6.69,0,0,0-1.59,1.07c-.19.18-.19.2-.33.33l-.33.34c-.22.25-.44.46-.66.68L26.45,20c-.21.23-.45.43-.66.65l-.67.68-2,2c-.23.23-.46.44-.69.66l-4,4-1.33,1.35c-.3.31-.32.66.26.68s.91,0,1.35,0H29A.8.8,0,0,0,29.4,30Z"/></g></g></svg>