<svg xmlns="http://www.w3.org/2000/svg" viewBox="0 0 537.8 537.8"><defs><style>.cls-1{fill:#1a1a1a;}.cls-2{fill:#d64635;}.cls-2,.cls-3{fill-rule:evenodd;}.cls-3{fill:#fff;}</style></defs><g id="Layer_2" data-name="Layer 2"><g id="Layer_1-2" data-name="Layer 1"><circle class="cls-1" cx="268.9" cy="268.9" r="268.9"/><path class="cls-2" d="M191.14,183.68c-1.36,1.68,3.22,4,6.71,6.51,13.4,9.65,19.72,19.88,20.71,20.69,2.14,2.58,7,2.54,11.76,2.48s9.09,0,12.69,0c8.9,0,18.54-.1,27.77,0-.9,1.55-15.42,16-17.93,18.6-6.19,6.33-11.86,12-18,18.1-10.18,10.15-59.58,59.87-63.77,62.94-22.08,16.18-48,14.51-67.8-.29-14.94-11.17-23.3-31.15-21-50.6,5.13-43,54.36-61.5,86.49-39A55.85,55.85,0,0,1,186,242.05c7.57,14.5,7.39,21.63,6.95,29.52l27-27c-5.16-19.48-19-35.69-33.06-45.85-9-6.52-22.09-11.94-33.35-14.08a86,86,0,0,0-53.31,6.92C52.05,215.14,37.08,274.3,65.76,317a86,86,0,0,0,110.08,29.13c10.06-5,11.28-6.73,18.79-12.7,2.26-2.05,2.21-2.28,3.92-3.87l3.82-4c2.61-3,5.2-5.39,7.84-8.08,5.3-5.39,10.33-10.51,15.61-15.9,2.59-2.63,5.32-5.05,7.9-7.67l7.89-8,23.33-23.75c2.64-2.7,5.43-5.17,8.07-7.86l47-47.5c5.28-5.39,10.3-10.54,15.61-15.89,3.59-3.61,3.8-7.73-3-8-5.11-.22-10.78,0-15.95,0H193.82A3.37,3.37,0,0,0,191.14,183.68Z"/><path class="cls-3" d="M346.66,354.12c1.36-1.59-3.22-4-6.71-6.51-13.41-9.65-19.73-19.88-20.72-20.69-1.11-1.65-5.4-2.75-9.18-2.7-7.38.1-11,.06-15.3.06-8.89,0-18.46,0-27.59,0,.9-1.55,15.28-15.82,17.79-18.39,6.19-6.34,11.86-12,18-18.1,10.18-10.15,59.58-59.87,63.77-62.94,22.07-16.18,48-14.51,67.8.29,14.93,11.17,23.29,31.15,21,50.6-5.13,43-54.35,61.5-86.49,39a56,56,0,0,1-17.19-18.91c-6.64-12.12-6.71-17.3-6.94-29.52l-27,27c5.15,19.49,19,35.7,33.06,45.85,9,6.52,22.09,11.95,33.35,14.09a86,86,0,0,0,53.31-6.92c48.16-23.61,63.13-82.77,34.45-125.43A86,86,0,0,0,362,191.71c-10.05,5-11.27,6.73-18.78,12.71-2.25,2-2.21,2.28-3.92,3.87l-3.83,4c-2.6,3-5.19,5.39-7.84,8.08L312,236.23c-2.58,2.64-5.31,5.05-7.89,7.68l-7.89,8L272.86,275.7c-2.65,2.69-5.43,5.16-8.07,7.86l-47,47.5c-5.28,5.38-10.3,10.54-15.61,15.89-3.59,3.61-3.8,7.73,3,8,5.11.23,10.77,0,15.94,0H341.6C344.13,355,346.17,354.74,346.66,354.12Z"/></g></g></svg>