<svg xmlns="http://www.w3.org/2000/svg" viewBox="0 0 2239.07 2263.63"><defs><style>.cls-1{fill:#1d1d1b;}</style></defs><g id="Layer_2" data-name="Layer 2"><g id="Layer_1-2" data-name="Layer 1"><path class="cls-1" d="M1474.45,67.19a5.59,5.59,0,0,0-2.33-7.74l-.1-.05a5.7,5.7,0,0,0-7.86,2.27L1410.64,159c-5.47-6.31-14.25-9.59-18.07-11-9.06-3.39-22.17-5.93-33.24,1.18a23.55,23.55,0,0,0-9.64,12.42A19.54,19.54,0,0,0,1359.81,186a41.75,41.75,0,0,0,5.41,2.34,53.7,53.7,0,0,0,16.72,3.07c10.15.28,21.7-2.13,28.26-9.11a5.85,5.85,0,0,0,2.21-2.28Zm-89.26,112.54a42.83,42.83,0,0,1-12.19-1.18c-3.7-.91-7.85-2.18-10.56-4.79a7.28,7.28,0,0,1-2.23-5.52,11.43,11.43,0,0,1,3.81-8c6.38-5.71,16.31-3.78,20.27-2.69a55.8,55.8,0,0,1,11.14,4.39c1,.54,2,1.11,3,1.71,2.42,1.51,5,4,5.31,6.65a5.62,5.62,0,0,0-.15.55C1402,177.9,1391.37,179.45,1385.19,179.73Z"/><path class="cls-1" d="M1474.45,2067.19a5.59,5.59,0,0,0-2.33-7.74l-.1,0a5.7,5.7,0,0,0-7.86,2.27L1410.64,2159c-5.47-6.31-14.25-9.59-18.07-11-9.06-3.39-22.17-5.93-33.24,1.18a23.55,23.55,0,0,0-9.64,12.42,19.54,19.54,0,0,0,10.12,24.42,41.75,41.75,0,0,0,5.41,2.34,53.7,53.7,0,0,0,16.72,3.07c10.15.28,21.7-2.13,28.26-9.11a5.85,5.85,0,0,0,2.21-2.28Zm-89.26,112.54a42.83,42.83,0,0,1-12.19-1.18c-3.7-.91-7.85-2.18-10.56-4.79a7.28,7.28,0,0,1-2.23-5.52,11.43,11.43,0,0,1,3.81-8c6.38-5.71,16.31-3.78,20.27-2.69a55.8,55.8,0,0,1,11.14,4.39c1,.54,2,1.11,3,1.71,2.42,1.51,5,4,5.31,6.65a5.62,5.62,0,0,0-.15.55C1402,2177.9,1391.37,2179.45,1385.19,2179.73Z"/><path class="cls-1" d="M104,798.64a5.59,5.59,0,0,0,1.58,7.93l.09.06a5.7,5.7,0,0,0,8-1.5l62.58-91.81c4.84,6.81,13.26,10.91,16.94,12.7,8.68,4.24,21.5,8,33.19,2a23.61,23.61,0,0,0,10.79-11.44,19.55,19.55,0,0,0-7.75-25.28,41.21,41.21,0,0,0-5.16-2.84A53.57,53.57,0,0,0,208,683.8c-10.08-1.24-21.81.05-29,6.37a5.88,5.88,0,0,0-2.42,2.06Zm99.6-103.5a43.49,43.49,0,0,1,12,2.35c3.59,1.26,7.6,2.92,10.05,5.78a7.27,7.27,0,0,1,1.69,5.7,11.45,11.45,0,0,1-4.56,7.63c-6.9,5.07-16.59,2.21-20.44.74a55.33,55.33,0,0,1-10.66-5.43q-1.45-1-2.79-2c-2.26-1.74-4.61-4.49-4.65-7.13q.12-.27.21-.54C186.75,695.36,197.45,694.84,203.63,695.14Z"/><path class="cls-1" d="M2104,798.64a5.59,5.59,0,0,0,1.58,7.93l.09.06a5.7,5.7,0,0,0,8-1.5l62.58-91.81c4.84,6.81,13.26,10.91,16.94,12.7,8.68,4.24,21.5,8,33.19,2a23.61,23.61,0,0,0,10.79-11.44,19.55,19.55,0,0,0-7.75-25.28,41.21,41.21,0,0,0-5.16-2.84A53.57,53.57,0,0,0,2208,683.8c-10.08-1.24-21.81.05-29,6.37a5.88,5.88,0,0,0-2.42,2.06Zm99.6-103.5a43.49,43.49,0,0,1,12,2.35c3.59,1.26,7.6,2.92,10.05,5.78a7.27,7.27,0,0,1,1.69,5.7,11.45,11.45,0,0,1-4.56,7.63c-6.9,5.07-16.59,2.21-20.44.74a55.33,55.33,0,0,1-10.66-5.43q-1.45-1-2.79-2c-2.27-1.74-4.61-4.49-4.65-7.13q.12-.27.21-.54C2186.75,695.36,2197.45,694.84,2203.63,695.14Z"/><path class="cls-1" d="M899.86,520.54a5.59,5.59,0,0,0-8-1.41l-.09.07a5.7,5.7,0,0,0-1.51,8l62.84,91.63c-8.1,2-15,8.39-18,11.17-7.1,6.56-15.27,17.12-13.91,30.2A23.64,23.64,0,0,0,928,674.45a19.55,19.55,0,0,0,26.37,1.95,41.49,41.49,0,0,0,4.52-3.77,53.86,53.86,0,0,0,10.27-13.55c4.81-8.94,7.87-20.34,4.59-29.34a5.85,5.85,0,0,0-1-3ZM960.17,650.9a43,43,0,0,1-6.55,10.36c-2.47,2.9-5.48,6-9,7.28a7.28,7.28,0,0,1-5.93-.5,11.44,11.44,0,0,1-5.46-7c-2.22-8.27,4-16.26,6.73-19.31a55.16,55.16,0,0,1,8.93-8c.94-.67,1.9-1.3,2.86-1.88,2.44-1.48,5.85-2.67,8.33-1.74.14.14.28.26.43.39C966.09,635.1,962.69,645.26,960.17,650.9Z"/><path class="cls-1" d="M464.85,1218.25a5.6,5.6,0,0,0-6.56-4.73l-.11,0a5.71,5.71,0,0,0-4.86,6.58L470,1330c-8.18-1.69-17.14,1-21.05,2.22-9.25,2.82-21.21,8.77-25.67,21.14a23.59,23.59,0,0,0-.12,15.73A19.56,19.56,0,0,0,446,1382.3a42.44,42.44,0,0,0,5.71-1.43,53.59,53.59,0,0,0,15.14-7.73c8.23-5.94,15.95-14.88,16.91-24.41a5.74,5.74,0,0,0,.37-3.15Zm-2.48,143.62a42.9,42.9,0,0,1-10.41,6.47c-3.49,1.53-7.56,3-11.3,2.62a7.29,7.29,0,0,1-5.12-3,11.5,11.5,0,0,1-1.86-8.69c1.61-8.42,10.66-12.92,14.47-14.46a55.06,55.06,0,0,1,11.51-3.28c1.14-.2,2.27-.34,3.39-.45,2.84-.27,6.43.15,8.26,2.06a4.87,4.87,0,0,0,.21.53C474.58,1350.22,467.1,1357.89,462.37,1361.87Z"/><path class="cls-1" d="M488,2020.51a5.6,5.6,0,0,0,7-4l0-.11a5.72,5.72,0,0,0-3.95-7.17L384.4,1978.49c5-6.72,6.22-16,6.77-20.06,1.31-9.58.9-22.93-8.47-32.16a23.64,23.64,0,0,0-14.24-6.67,19.55,19.55,0,0,0-21.59,15.26,41.77,41.77,0,0,0-1.09,5.79,53.61,53.61,0,0,0,.69,17c2,10,6.85,20.7,15.11,25.56a5.74,5.74,0,0,0,2.71,1.65ZM358.6,1958.23a42.94,42.94,0,0,1-1.53-12.16c.07-3.81.4-8.14,2.35-11.36a7.3,7.3,0,0,1,4.89-3.39,11.43,11.43,0,0,1,8.67,2c7,5,7.28,15.07,7.09,19.19a54.92,54.92,0,0,1-1.83,11.82c-.3,1.12-.64,2.21-1,3.27-.94,2.69-2.82,5.78-5.32,6.64a3.71,3.71,0,0,0-.58,0C364.08,1974.19,360.24,1964.19,358.6,1958.23Z"/><path class="cls-1" d="M1924.08,1573.47a5.59,5.59,0,0,0,8-1.32.27.27,0,0,0,.07-.08,5.71,5.71,0,0,0-1.24-8.09l-89.7-65.57c7-4.61,11.34-12.9,13.25-16.51,4.52-8.54,8.72-21.22,3.1-33.11a23.6,23.6,0,0,0-11.09-11.16,19.52,19.52,0,0,0-25.51,6.91,41.22,41.22,0,0,0-3,5.06,53.9,53.9,0,0,0-5.19,16.19c-1.58,10-.67,21.8,5.41,29.2a5.9,5.9,0,0,0,2,2.48Zm-100.16-103a43,43,0,0,1,2.75-12c1.37-3.55,3.17-7.5,6.1-9.86a7.31,7.31,0,0,1,5.76-1.5A11.47,11.47,0,0,1,1846,1452c4.84,7.07,1.66,16.66.07,20.46a55.4,55.4,0,0,1-5.78,10.47c-.67,1-1.36,1.86-2.07,2.72-1.82,2.21-4.64,4.46-7.28,4.41l-.53-.22C1823.59,1487.39,1823.42,1476.68,1823.92,1470.52Z"/><path class="cls-1" d="M1613.42,1065.74a5.58,5.58,0,0,0-4.93-6.4l-.11,0a5.71,5.71,0,0,0-6.54,4.92l-15.36,110c-7.36-4-16.73-3.9-20.82-3.87-9.66.06-22.82,2.35-30.63,12.93a23.53,23.53,0,0,0-4.59,15,19.52,19.52,0,0,0,18.15,19.22,42.33,42.33,0,0,0,5.89.26,53.67,53.67,0,0,0,16.71-3.08c9.58-3.35,19.53-9.72,23.17-18.57a5.76,5.76,0,0,0,1.25-2.93Zm-43.35,136.94a42.84,42.84,0,0,1-11.82,3.23c-3.78.47-8.11.76-11.58-.71a7.27,7.27,0,0,1-4-4.37,11.41,11.41,0,0,1,.7-8.86c3.94-7.6,13.89-9.34,18-9.73a56.2,56.2,0,0,1,12,.14c1.15.14,2.27.32,3.37.54,2.81.56,6.13,2,7.33,4.33a5.51,5.51,0,0,0,.06.57C1585.09,1195,1575.74,1200.21,1570.07,1202.68Z"/><path class="cls-1" d="M230.15,241.44a5.43,5.43,0,0,0,5.23-1.93,5.83,5.83,0,0,0,.49-.7,6.29,6.29,0,0,0,2-4.94c-.62-24.54-1.63-49.31-3-73.61-.38-6.75-.81-13.7-1.26-20.66a5.42,5.42,0,0,0-.4-1.69,6.08,6.08,0,0,0-.3-1,5.56,5.56,0,0,0-4.45-3.54L118.73,116c4.09-7.28,4.21-16.65,4.26-20.74.12-9.66-1.93-22.86-12.37-30.86a23.53,23.53,0,0,0-15-4.87,19.53,19.53,0,0,0-19.55,17.8,41.76,41.76,0,0,0-.37,5.88,53.71,53.71,0,0,0,2.77,16.77c3.18,9.64,9.36,19.7,18.15,23.5a5.78,5.78,0,0,0,2.9,1.31l79.26,12.55c1.52,23.57,2.69,47.36,3.48,70.77.15,4.59.3,9.29.43,14l-60.62-9.6c4.09-7.28,4.21-16.65,4.26-20.74.12-9.66-1.93-22.86-12.37-30.87a23.58,23.58,0,0,0-15-4.86,19.53,19.53,0,0,0-19.55,17.8,41.76,41.76,0,0,0-.37,5.88,53.6,53.6,0,0,0,2.77,16.76c3.18,9.66,9.38,19.74,18.19,23.53A5.92,5.92,0,0,0,103,221.3Zm-7.92-97.26c1.49,23.34,2.65,46.89,3.43,70,.16,4.84.31,9.78.45,14.75l-31.67-5c-.63-23.31-1.6-46.79-2.9-69.86-.28-4.89-.58-9.89-.89-14.92ZM90.64,99a43.06,43.06,0,0,1-3-11.88c-.4-3.79-.6-8.12.93-11.56a7.32,7.32,0,0,1,4.44-4,11.46,11.46,0,0,1,8.85.87c7.53,4.07,9.08,14.06,9.39,18.16a55.35,55.35,0,0,1-.35,12c-.17,1.14-.37,2.27-.6,3.36-.61,2.79-2.09,6.09-4.47,7.25a5.46,5.46,0,0,0-.57,0C98,114.2,93,104.75,90.64,99ZM94,195.58a42.88,42.88,0,0,1-3-11.88c-.4-3.78-.6-8.12.93-11.55a7.29,7.29,0,0,1,4.44-4,11.5,11.5,0,0,1,8.85.86c7.53,4.08,9.08,14.07,9.39,18.17a55.24,55.24,0,0,1-.35,12c-.17,1.15-.37,2.27-.6,3.37-.61,2.79-2.09,6.08-4.47,7.25a5.46,5.46,0,0,0-.57,0C101.43,210.75,96.39,201.3,94,195.58Z"/><path class="cls-1" d="M2230.15,241.44a5.43,5.43,0,0,0,5.23-1.93,5.83,5.83,0,0,0,.49-.7,6.29,6.29,0,0,0,2-4.94c-.62-24.54-1.63-49.31-3-73.61-.38-6.75-.81-13.7-1.26-20.66a5.42,5.42,0,0,0-.4-1.69,6.08,6.08,0,0,0-.3-1,5.56,5.56,0,0,0-4.45-3.54L2118.73,116c4.09-7.28,4.21-16.65,4.26-20.74.12-9.66-1.93-22.86-12.37-30.86a23.53,23.53,0,0,0-14.95-4.87,19.53,19.53,0,0,0-19.55,17.8,41.76,41.76,0,0,0-.37,5.88,53.71,53.71,0,0,0,2.77,16.77c3.18,9.64,9.36,19.7,18.15,23.5a5.78,5.78,0,0,0,2.9,1.31l79.26,12.55c1.52,23.57,2.69,47.36,3.48,70.77.15,4.59.3,9.29.43,14l-60.62-9.6c4.09-7.28,4.21-16.65,4.26-20.74.12-9.66-1.93-22.86-12.37-30.87a23.58,23.58,0,0,0-15-4.86,19.53,19.53,0,0,0-19.55,17.8,41.76,41.76,0,0,0-.37,5.88,53.6,53.6,0,0,0,2.77,16.76c3.18,9.66,9.38,19.74,18.19,23.53a5.88,5.88,0,0,0,2.86,1.29Zm-7.92-97.26c1.49,23.34,2.65,46.89,3.43,70,.16,4.84.31,9.78.45,14.75l-31.67-5c-.63-23.31-1.6-46.79-2.9-69.86-.28-4.89-.58-9.89-.89-14.92ZM2090.64,99a43.06,43.06,0,0,1-3-11.88c-.4-3.79-.6-8.12.93-11.56a7.32,7.32,0,0,1,4.44-4,11.46,11.46,0,0,1,8.85.87c7.53,4.07,9.08,14.06,9.39,18.16a55.35,55.35,0,0,1-.35,12c-.17,1.14-.37,2.27-.6,3.36-.61,2.79-2.09,6.09-4.47,7.25a5.46,5.46,0,0,0-.57,0C2098,114.2,2093,104.75,2090.64,99Zm3.39,96.54a42.88,42.88,0,0,1-3-11.88c-.4-3.78-.6-8.12.93-11.55a7.29,7.29,0,0,1,4.44-4,11.5,11.5,0,0,1,8.85.86c7.53,4.08,9.08,14.07,9.39,18.17a55.24,55.24,0,0,1-.35,12c-.17,1.15-.37,2.27-.6,3.37-.61,2.79-2.09,6.08-4.47,7.25a5.46,5.46,0,0,0-.57,0C2101.43,210.75,2096.39,201.3,2094,195.58Z"/><path class="cls-1" d="M2230.15,2241.44a5.43,5.43,0,0,0,5.23-1.93,5.83,5.83,0,0,0,.49-.7,6.29,6.29,0,0,0,2-4.94c-.62-24.54-1.63-49.31-3-73.61-.38-6.75-.81-13.7-1.26-20.66a5.42,5.42,0,0,0-.4-1.69,6.08,6.08,0,0,0-.3-1,5.56,5.56,0,0,0-4.45-3.54L2118.73,2116c4.09-7.28,4.21-16.65,4.26-20.74.12-9.66-1.93-22.86-12.37-30.86a23.53,23.53,0,0,0-14.95-4.87,19.53,19.53,0,0,0-19.55,17.8,41.76,41.76,0,0,0-.37,5.88,53.71,53.71,0,0,0,2.77,16.77c3.18,9.64,9.36,19.7,18.15,23.5a5.78,5.78,0,0,0,2.9,1.31l79.26,12.55c1.52,23.57,2.69,47.36,3.48,70.77.15,4.59.3,9.29.43,14l-60.62-9.6c4.09-7.28,4.21-16.65,4.26-20.74.12-9.66-1.93-22.86-12.37-30.87a23.58,23.58,0,0,0-15-4.86,19.53,19.53,0,0,0-19.55,17.8,41.76,41.76,0,0,0-.37,5.88,53.6,53.6,0,0,0,2.77,16.76c3.18,9.66,9.38,19.74,18.19,23.53a5.92,5.92,0,0,0,2.86,1.29Zm-7.92-97.26c1.49,23.34,2.65,46.89,3.43,70.05.16,4.84.31,9.78.45,14.75l-31.67-5c-.63-23.31-1.6-46.79-2.9-69.86-.28-4.89-.58-9.89-.89-14.92ZM2090.64,2099a43.06,43.06,0,0,1-3-11.88c-.4-3.79-.6-8.12.93-11.56a7.32,7.32,0,0,1,4.44-4,11.46,11.46,0,0,1,8.85.87c7.53,4.07,9.08,14.06,9.39,18.16a55.35,55.35,0,0,1-.35,12c-.17,1.14-.37,2.27-.6,3.36-.61,2.79-2.09,6.09-4.47,7.25a5.46,5.46,0,0,0-.57,0C2098,2114.2,2093,2104.75,2090.64,2099Zm3.39,96.54a42.88,42.88,0,0,1-3-11.88c-.4-3.78-.6-8.12.93-11.55a7.29,7.29,0,0,1,4.44-4,11.5,11.5,0,0,1,8.85.86c7.53,4.08,9.08,14.07,9.39,18.17a55.24,55.24,0,0,1-.35,12c-.17,1.15-.37,2.27-.6,3.37-.61,2.79-2.09,6.08-4.47,7.25a5.46,5.46,0,0,0-.57,0C2101.43,2210.75,2096.39,2201.3,2094,2195.58Z"/><path class="cls-1" d="M230.15,2241.44a5.43,5.43,0,0,0,5.23-1.93,5.83,5.83,0,0,0,.49-.7,6.29,6.29,0,0,0,2-4.94c-.62-24.54-1.63-49.31-3-73.61-.38-6.75-.81-13.7-1.26-20.66a5.42,5.42,0,0,0-.4-1.69,6.08,6.08,0,0,0-.3-1,5.56,5.56,0,0,0-4.45-3.54L118.73,2116c4.09-7.28,4.21-16.65,4.26-20.74.12-9.66-1.93-22.86-12.37-30.86a23.53,23.53,0,0,0-15-4.87,19.53,19.53,0,0,0-19.55,17.8,41.76,41.76,0,0,0-.37,5.88,53.71,53.71,0,0,0,2.77,16.77c3.18,9.64,9.36,19.7,18.15,23.5a5.78,5.78,0,0,0,2.9,1.31l79.26,12.55c1.52,23.57,2.69,47.36,3.48,70.77.15,4.59.3,9.29.43,14l-60.62-9.6c4.09-7.28,4.21-16.65,4.26-20.74.12-9.66-1.93-22.86-12.37-30.87a23.58,23.58,0,0,0-15-4.86,19.53,19.53,0,0,0-19.55,17.8,41.76,41.76,0,0,0-.37,5.88,53.6,53.6,0,0,0,2.77,16.76c3.18,9.66,9.38,19.74,18.19,23.53a5.92,5.92,0,0,0,2.86,1.29Zm-7.92-97.26c1.49,23.34,2.65,46.89,3.43,70.05.16,4.84.31,9.78.45,14.75l-31.67-5c-.63-23.31-1.6-46.79-2.9-69.86-.28-4.89-.58-9.89-.89-14.92ZM90.64,2099a43.06,43.06,0,0,1-3-11.88c-.4-3.79-.6-8.12.93-11.56a7.32,7.32,0,0,1,4.44-4,11.46,11.46,0,0,1,8.85.87c7.53,4.07,9.08,14.06,9.39,18.16a55.35,55.35,0,0,1-.35,12c-.17,1.14-.37,2.27-.6,3.36-.61,2.79-2.09,6.09-4.47,7.25a5.46,5.46,0,0,0-.57,0C98,2114.2,93,2104.75,90.64,2099ZM94,2195.58a42.88,42.88,0,0,1-3-11.88c-.4-3.78-.6-8.12.93-11.55a7.29,7.29,0,0,1,4.44-4,11.5,11.5,0,0,1,8.85.86c7.53,4.08,9.08,14.07,9.39,18.17a55.24,55.24,0,0,1-.35,12c-.17,1.15-.37,2.27-.6,3.37-.61,2.79-2.09,6.08-4.47,7.25a5.46,5.46,0,0,0-.57,0C101.43,2210.75,96.39,2201.3,94,2195.58Z"/><path class="cls-1" d="M844.71,7.77a5.46,5.46,0,0,0-4.69,3,5.94,5.94,0,0,0-.32.79,6.27,6.27,0,0,0-.91,5.27c5.89,23.83,12.22,47.79,18.8,71.23,1.83,6.51,3.75,13.2,5.69,19.9a5,5,0,0,0,.76,1.56,5.79,5.79,0,0,0,.51,1,5.55,5.55,0,0,0,5.11,2.49l110.91-6.7c-2.42,8-.52,17.17.32,21.17,2,9.46,6.82,21.91,18.73,27.47a23.61,23.61,0,0,0,15.65,1.53,19.53,19.53,0,0,0,15.25-21.6,42.74,42.74,0,0,0-.9-5.82,53.88,53.88,0,0,0-6.33-15.77c-5.18-8.74-13.38-17.22-22.79-19a5.76,5.76,0,0,0-3.11-.65l-80.11,4.83C910.72,75.71,904.45,52.73,898.63,30c-1.15-4.45-2.3-9-3.45-13.61l61.26-3.7c-2.43,8-.52,17.16.31,21.16,2,9.47,6.82,21.91,18.74,27.48a23.67,23.67,0,0,0,15.65,1.53,20.54,20.54,0,0,0,12.79-9.32,20.54,20.54,0,0,0,2.46-12.28,40.71,40.71,0,0,0-.91-5.82,53.75,53.75,0,0,0-6.32-15.78C994,11,985.74,2.45,976.32.65A5.78,5.78,0,0,0,973.26,0ZM873.42,101C866.93,78.56,860.73,55.82,855,33.37c-1.21-4.69-2.42-9.48-3.63-14.3l32-1.93C889,39.76,895,62.49,901.25,84.74c1.33,4.71,2.7,9.52,4.09,14.37Zm138.23,15.7a42.8,42.8,0,0,1,5.51,11c1.21,3.61,2.34,7.8,1.59,11.49a7.28,7.28,0,0,1-3.48,4.82,11.43,11.43,0,0,1-8.83,1.07c-8.23-2.36-11.9-11.78-13.09-15.71a55.24,55.24,0,0,1-2.23-11.76c-.09-1.16-.14-2.3-.14-3.42,0-2.85.73-6.39,2.8-8a4.81,4.81,0,0,0,.54-.16C1001.15,103.53,1008.11,111.67,1011.65,116.74ZM987.52,23.2a42.64,42.64,0,0,1,5.51,11c1.2,3.61,2.34,7.79,1.58,11.48a7.3,7.3,0,0,1-3.47,4.83,11.53,11.53,0,0,1-8.83,1.07c-8.23-2.36-11.9-11.78-13.09-15.72A55.15,55.15,0,0,1,967,24.06c-.09-1.16-.14-2.3-.14-3.42,0-2.86.72-6.39,2.79-8a5,5,0,0,0,.55-.17C977,10,984,18.13,987.52,23.2Z"/><path class="cls-1" d="M844.71,2007.77a5.46,5.46,0,0,0-4.69,3,5.94,5.94,0,0,0-.32.79,6.27,6.27,0,0,0-.91,5.27c5.89,23.83,12.22,47.79,18.8,71.23,1.83,6.51,3.75,13.2,5.69,19.9a5,5,0,0,0,.76,1.56,5.79,5.79,0,0,0,.51.95,5.55,5.55,0,0,0,5.11,2.49l110.91-6.7c-2.42,8-.52,17.17.32,21.17,2,9.46,6.82,21.91,18.73,27.47a23.61,23.61,0,0,0,15.65,1.53,19.53,19.53,0,0,0,15.25-21.6,42.74,42.74,0,0,0-.9-5.82,53.88,53.88,0,0,0-6.33-15.77c-5.18-8.74-13.38-17.22-22.79-19a5.76,5.76,0,0,0-3.11-.65l-80.11,4.83c-6.56-22.68-12.83-45.66-18.65-68.35-1.15-4.45-2.3-9-3.45-13.61l61.26-3.7c-2.43,8-.52,17.16.31,21.16,2,9.47,6.82,21.91,18.74,27.48a23.67,23.67,0,0,0,15.65,1.53,19.53,19.53,0,0,0,15.25-21.6,40.71,40.71,0,0,0-.91-5.82,53.75,53.75,0,0,0-6.32-15.78c-5.19-8.74-13.42-17.25-22.84-19a5.78,5.78,0,0,0-3.06-.64ZM873.42,2101c-6.49-22.48-12.69-45.22-18.45-67.67-1.21-4.69-2.42-9.48-3.63-14.3l32-1.93c5.63,22.62,11.64,45.35,17.89,67.6,1.33,4.71,2.7,9.52,4.09,14.37Zm138.23,15.7a42.8,42.8,0,0,1,5.51,11c1.21,3.61,2.34,7.8,1.59,11.49a7.28,7.28,0,0,1-3.48,4.82,11.43,11.43,0,0,1-8.83,1.07c-8.23-2.36-11.9-11.78-13.09-15.71a55.24,55.24,0,0,1-2.23-11.76c-.09-1.16-.14-2.3-.14-3.42,0-2.85.73-6.39,2.8-8a4.81,4.81,0,0,0,.54-.16C1001.15,2103.53,1008.11,2111.67,1011.65,2116.74Zm-24.13-93.54a42.64,42.64,0,0,1,5.51,11c1.2,3.61,2.34,7.79,1.58,11.48a7.3,7.3,0,0,1-3.47,4.83,11.53,11.53,0,0,1-8.83,1.07c-8.23-2.36-11.9-11.78-13.09-15.72a55.15,55.15,0,0,1-2.23-11.75c-.09-1.16-.14-2.3-.14-3.42,0-2.86.72-6.39,2.79-8a5,5,0,0,0,.55-.17C977,2010,984,2018.13,987.52,2023.2Z"/><path class="cls-1" d="M154.4,1241.44a5.42,5.42,0,0,0,5.23-1.93,5.83,5.83,0,0,0,.49-.7,6.29,6.29,0,0,0,2-4.94c-.62-24.54-1.62-49.31-3-73.61-.38-6.75-.8-13.7-1.26-20.66a5.42,5.42,0,0,0-.4-1.69,6.05,6.05,0,0,0-.29-1,5.58,5.58,0,0,0-4.46-3.54L43,1116c4.09-7.28,4.2-16.65,4.25-20.74.12-9.66-1.93-22.86-12.37-30.86a23.53,23.53,0,0,0-14.95-4.87,20.46,20.46,0,0,0-14.5,6.34,20.64,20.64,0,0,0-5,11.46,41.76,41.76,0,0,0-.37,5.88,53.43,53.43,0,0,0,2.78,16.77c3.17,9.64,9.35,19.7,18.14,23.5a5.78,5.78,0,0,0,2.9,1.31l79.27,12.55c1.51,23.57,2.68,47.36,3.47,70.77.16,4.59.3,9.29.43,14l-60.61-9.6c4.09-7.28,4.2-16.65,4.25-20.74.12-9.66-1.93-22.86-12.37-30.87A23.58,23.58,0,0,0,23.31,1156a20.46,20.46,0,0,0-14.5,6.34,20.58,20.58,0,0,0-5.05,11.46,41.76,41.76,0,0,0-.37,5.88,53.33,53.33,0,0,0,2.78,16.76c3.17,9.66,9.37,19.74,18.18,23.53a5.92,5.92,0,0,0,2.86,1.29Zm-7.92-97.26c1.49,23.34,2.65,46.89,3.43,70,.17,4.84.32,9.78.45,14.75l-31.67-5c-.62-23.31-1.6-46.79-2.9-69.86-.28-4.89-.58-9.89-.89-14.92ZM14.89,1099a43,43,0,0,1-3-11.88c-.41-3.79-.61-8.12.92-11.56a7.32,7.32,0,0,1,4.44-4,11.46,11.46,0,0,1,8.85.87c7.53,4.07,9.08,14.06,9.4,18.17a55.91,55.91,0,0,1-.36,12c-.16,1.14-.37,2.27-.6,3.36-.61,2.79-2.09,6.09-4.47,7.25a5.46,5.46,0,0,0-.57,0C22.29,1114.2,17.25,1104.75,14.89,1099Zm3.39,96.54a42.87,42.87,0,0,1-3-11.88c-.4-3.78-.61-8.12.92-11.55a7.29,7.29,0,0,1,4.44-4,11.5,11.5,0,0,1,8.85.86c7.53,4.08,9.08,14.07,9.4,18.17a55.87,55.87,0,0,1-.36,12c-.16,1.15-.36,2.27-.6,3.37-.61,2.79-2.09,6.08-4.47,7.25a5.46,5.46,0,0,0-.57,0C25.68,1210.75,20.64,1201.3,18.28,1195.58Z"/><path class="cls-1" d="M2154.4,1241.44a5.42,5.42,0,0,0,5.23-1.93,5.83,5.83,0,0,0,.49-.7,6.29,6.29,0,0,0,2-4.94c-.62-24.54-1.62-49.31-3-73.61-.38-6.75-.8-13.7-1.26-20.66a5.42,5.42,0,0,0-.4-1.69,6.05,6.05,0,0,0-.29-1,5.58,5.58,0,0,0-4.46-3.54L2043,1116c4.09-7.28,4.2-16.65,4.25-20.74.12-9.66-1.93-22.86-12.37-30.86a23.53,23.53,0,0,0-14.95-4.87,19.53,19.53,0,0,0-19.55,17.8,41.76,41.76,0,0,0-.37,5.88,53.43,53.43,0,0,0,2.78,16.77c3.17,9.64,9.35,19.7,18.14,23.5a5.78,5.78,0,0,0,2.9,1.31l79.27,12.55c1.51,23.57,2.68,47.36,3.47,70.77.16,4.59.3,9.29.43,14l-60.61-9.6c4.09-7.28,4.2-16.65,4.25-20.74.12-9.66-1.93-22.86-12.37-30.87a23.58,23.58,0,0,0-15-4.86,19.53,19.53,0,0,0-19.55,17.8,41.76,41.76,0,0,0-.37,5.88,53.33,53.33,0,0,0,2.78,16.76c3.17,9.66,9.37,19.74,18.18,23.53a5.92,5.92,0,0,0,2.86,1.29Zm-7.92-97.26c1.49,23.34,2.65,46.89,3.43,70,.17,4.84.32,9.78.45,14.75l-31.67-5c-.62-23.31-1.6-46.79-2.9-69.86-.28-4.89-.58-9.89-.89-14.92ZM2014.89,1099a43,43,0,0,1-3-11.88c-.41-3.79-.61-8.12.92-11.56a7.32,7.32,0,0,1,4.44-4,11.46,11.46,0,0,1,8.85.87c7.53,4.07,9.08,14.06,9.4,18.16a56,56,0,0,1-.36,12c-.16,1.14-.37,2.27-.6,3.36-.61,2.79-2.09,6.09-4.47,7.25a5.46,5.46,0,0,0-.57,0C2022.29,1114.2,2017.25,1104.75,2014.89,1099Zm3.39,96.54a42.87,42.87,0,0,1-3-11.88c-.4-3.78-.61-8.12.92-11.55a7.29,7.29,0,0,1,4.44-4,11.5,11.5,0,0,1,8.85.86c7.53,4.08,9.08,14.07,9.4,18.17a55.87,55.87,0,0,1-.36,12c-.16,1.15-.36,2.27-.6,3.37-.61,2.79-2.09,6.08-4.47,7.25a5.46,5.46,0,0,0-.57,0C2025.68,1210.75,2020.64,1201.3,2018.28,1195.58Z"/><path class="cls-1" d="M570.66,616.55a5.46,5.46,0,0,0,5.44-1.24q.3-.3.57-.63a6.31,6.31,0,0,0,2.65-4.64c2.56-24.42,4.77-49.11,6.55-73.38.5-6.74,1-13.69,1.43-20.65a5.2,5.2,0,0,0-.19-1.72,6.41,6.41,0,0,0-.15-1.07,5.57,5.57,0,0,0-4-4.08L476.43,477.7c5-6.69,6.32-16,6.9-20,1.37-9.56,1-22.92-8.27-32.2a23.61,23.61,0,0,0-14.2-6.77,19.55,19.55,0,0,0-21.68,15.12,41.22,41.22,0,0,0-1.13,5.78,53.58,53.58,0,0,0,.58,17c1.9,10,6.73,20.75,14.95,25.66a5.77,5.77,0,0,0,2.7,1.67l77,22.71c-1.55,23.56-3.47,47.31-5.72,70.62-.44,4.57-.9,9.25-1.39,14l-58.86-17.37c5-6.69,6.33-16,6.9-20,1.37-9.57,1.05-22.92-8.26-32.21a23.62,23.62,0,0,0-14.2-6.76A19.53,19.53,0,0,0,430,530a42.41,42.41,0,0,0-1.13,5.78,53.6,53.6,0,0,0,.58,17c1.9,10,6.74,20.78,15,25.68a5.78,5.78,0,0,0,2.66,1.64Zm4.74-97.48c-1.55,23.35-3.45,46.85-5.67,69.91-.46,4.82-1,9.74-1.46,14.68l-30.76-9.07c2.4-23.19,4.48-46.61,6.17-69.65.36-4.89.71-9.88,1.05-14.91ZM450.76,457.28a43,43,0,0,1-1.45-12.17c.09-3.81.45-8.13,2.41-11.34a7.3,7.3,0,0,1,4.92-3.36,11.48,11.48,0,0,1,8.66,2c6.94,5,7.18,15.12,7,19.23a55,55,0,0,1-1.9,11.82c-.31,1.11-.65,2.2-1,3.26-1,2.68-2.86,5.76-5.36,6.6l-.58,0C456.14,473.27,452.36,463.25,450.76,457.28Zm-9.14,96.17a43,43,0,0,1-1.45-12.17c.09-3.81.45-8.13,2.42-11.34a7.29,7.29,0,0,1,4.91-3.36,11.46,11.46,0,0,1,8.66,2c6.94,5,7.19,15.13,7,19.24a56.12,56.12,0,0,1-1.9,11.81c-.31,1.11-.66,2.2-1,3.26-1,2.69-2.85,5.76-5.36,6.61a5.49,5.49,0,0,0-.58,0C447,569.45,443.23,559.42,441.62,553.45Z"/><path class="cls-1" d="M1265.26,326.15a5.47,5.47,0,0,0-5.57.21,6.8,6.8,0,0,0-.68.52,6.29,6.29,0,0,0-3.45,4.08c-7,23.53-13.69,47.39-19.9,70.93-1.72,6.54-3.47,13.28-5.19,20a5.32,5.32,0,0,0-.14,1.73,6.35,6.35,0,0,0,0,1.07,5.58,5.58,0,0,0,3.15,4.74l99,50.46c-6.14,5.65-9.14,14.53-10.46,18.4-3.09,9.16-5.22,22.34,2.22,33.18a23.62,23.62,0,0,0,12.72,9.25A19.53,19.53,0,0,0,1361,529.88a41.88,41.88,0,0,0,2.17-5.48,53.65,53.65,0,0,0,2.55-16.8c0-10.16-2.81-21.63-10-28a5.89,5.89,0,0,0-2.35-2.14l-71.51-36.44c5.85-22.88,12.09-45.87,18.58-68.37,1.27-4.42,2.58-8.94,3.93-13.49l54.67,27.87c-6.13,5.66-9.14,14.53-10.45,18.41-3.1,9.15-5.23,22.34,2.22,33.17a23.58,23.58,0,0,0,12.71,9.26,19.54,19.54,0,0,0,24.1-10.89,41.33,41.33,0,0,0,2.17-5.48,53.65,53.65,0,0,0,2.54-16.8c0-10.17-2.82-21.67-10-28a5.85,5.85,0,0,0-2.32-2.1Zm-22.53,95c5.8-22.67,12-45.42,18.39-67.69,1.34-4.65,2.73-9.39,4.13-14.16l28.57,14.56c-6.61,22.36-13,45-18.84,67.34-1.25,4.74-2.51,9.58-3.76,14.47Zm111.19,83.61a42.63,42.63,0,0,1-.81,12.23c-.79,3.72-1.93,7.91-4.45,10.7a7.28,7.28,0,0,1-5.45,2.4,11.44,11.44,0,0,1-8.15-3.56c-5.9-6.2-4.28-16.18-3.32-20.18a55.71,55.71,0,0,1,4-11.26c.51-1,1-2.05,1.61-3,1.44-2.47,3.87-5.14,6.49-5.51a5.07,5.07,0,0,0,.56.13C1351.56,488,1353.44,498.54,1353.92,504.71Zm26.62-92.87a42.61,42.61,0,0,1-.81,12.23c-.78,3.73-1.93,7.91-4.45,10.71a7.3,7.3,0,0,1-5.45,2.39,11.43,11.43,0,0,1-8.14-3.55c-5.91-6.21-4.29-16.18-3.32-20.18a55.18,55.18,0,0,1,4-11.27c.51-1,1-2.05,1.62-3,1.44-2.47,3.86-5.15,6.48-5.52a5.73,5.73,0,0,0,.56.14C1378.19,395.13,1380.06,405.68,1380.54,411.84Z"/><path class="cls-1" d="M685.77,1545.4a5.45,5.45,0,0,0-3.18-4.58,7.64,7.64,0,0,0-.8-.29,6.25,6.25,0,0,0-5.29-.72c-23.61,6.76-47.33,14-70.5,21.38-6.44,2.06-13.07,4.21-19.69,6.4a5.11,5.11,0,0,0-1.53.81,6.68,6.68,0,0,0-.93.55,5.54,5.54,0,0,0-2.3,5.2l10.71,110.59c-8.07-2.13-17.17.11-21.14,1.09-9.39,2.31-21.65,7.6-26.78,19.71a23.68,23.68,0,0,0-1,15.7,19.55,19.55,0,0,0,22.14,14.46,41.49,41.49,0,0,0,5.78-1.12,53.88,53.88,0,0,0,15.54-6.89c8.53-5.5,16.72-14,18.2-23.47a5.85,5.85,0,0,0,.54-3.13l-7.74-79.88c22.43-7.38,45.17-14.48,67.63-21.12,4.4-1.3,8.92-2.62,13.48-3.94l5.92,61.08c-8.07-2.13-17.18.11-21.14,1.09-9.39,2.31-21.65,7.61-26.78,19.72a23.53,23.53,0,0,0-1,15.69,19.55,19.55,0,0,0,22.13,14.46,41.65,41.65,0,0,0,5.79-1.12,53.29,53.29,0,0,0,15.53-6.89c8.56-5.5,16.76-14,18.21-23.51a5.79,5.79,0,0,0,.53-3.09Zm-92.17,32.08c22.23-7.3,44.74-14.33,67-20.9,4.64-1.37,9.38-2.76,14.16-4.14l3.09,31.92c-22.41,6.45-44.89,13.28-66.9,20.34-4.67,1.49-9.43,3-14.22,4.6Zm-10.68,138.7a42.4,42.4,0,0,1-10.74,5.9c-3.56,1.34-7.71,2.63-11.42,2a7.31,7.31,0,0,1-5-3.3,11.5,11.5,0,0,1-1.39-8.79c2.06-8.31,11.34-12.31,15.23-13.65a55.81,55.81,0,0,1,11.67-2.66c1.15-.13,2.29-.21,3.41-.26,2.85-.11,6.41.5,8.14,2.5a5.05,5.05,0,0,0,.18.55C595.75,1705.21,587.86,1712.46,582.92,1716.18Zm92.61-27.5a43,43,0,0,1-10.74,5.9c-3.57,1.33-7.71,2.62-11.42,2a7.28,7.28,0,0,1-5-3.3,11.43,11.43,0,0,1-1.39-8.78c2.06-8.32,11.34-12.32,15.23-13.66a55.16,55.16,0,0,1,11.67-2.65c1.15-.13,2.29-.22,3.41-.27,2.85-.11,6.41.5,8.13,2.51.06.18.12.36.19.54C688.35,1677.71,680.47,1685,675.53,1688.68Z"/><path class="cls-1" d="M1026.27,1358.38a5.44,5.44,0,0,0,5.49-1q.32-.29.6-.6a6.28,6.28,0,0,0,2.86-4.52c3.7-24.27,7.06-48.82,10-73,.81-6.71,1.61-13.63,2.39-20.56a5.59,5.59,0,0,0-.1-1.73,6.36,6.36,0,0,0-.11-1.07,5.56,5.56,0,0,0-3.77-4.26l-105-36.38c5.3-6.45,7.06-15.66,7.83-19.67,1.81-9.49,2.11-22.85-6.76-32.56a23.64,23.64,0,0,0-13.87-7.42,19.55,19.55,0,0,0-22.37,14.09,41.82,41.82,0,0,0-1.39,5.73,53.36,53.36,0,0,0-.21,17c1.43,10,5.75,21,13.73,26.33a5.83,5.83,0,0,0,2.62,1.79L994,1246.85c-2.65,23.47-5.68,47.09-9,70.28-.65,4.55-1.34,9.2-2,13.9l-58-20.1c5.31-6.45,7.07-15.65,7.83-19.67,1.81-9.49,2.11-22.84-6.75-32.56a23.6,23.6,0,0,0-13.87-7.41,19.52,19.52,0,0,0-22.37,14.08,42,42,0,0,0-1.4,5.73,53.65,53.65,0,0,0-.21,17c1.43,10.07,5.77,21.08,13.78,26.36a5.83,5.83,0,0,0,2.58,1.77Zm9.28-97.14c-2.63,23.24-5.63,46.63-8.92,69.57-.69,4.79-1.41,9.68-2.15,14.59l-30.3-10.5c3.48-23.05,6.65-46.34,9.41-69.29.59-4.86,1.17-9.83,1.75-14.84Zm-121.62-67.55a42.81,42.81,0,0,1-.88-12.22c.27-3.8.83-8.1,2.94-11.22a7.29,7.29,0,0,1,5.07-3.12,11.42,11.42,0,0,1,8.55,2.4c6.7,5.34,6.47,15.44,6.06,19.54a55.21,55.21,0,0,1-2.45,11.71c-.36,1.1-.75,2.17-1.18,3.21-1.09,2.64-3.12,5.62-5.67,6.35l-.57-.06C918.56,1209.92,915.25,1199.73,913.93,1193.69Zm-13.61,95.64a42.81,42.81,0,0,1-.89-12.22c.27-3.8.83-8.1,3-11.22a7.29,7.29,0,0,1,5.06-3.12,11.44,11.44,0,0,1,8.56,2.4c6.7,5.34,6.47,15.44,6.06,19.54a55.08,55.08,0,0,1-2.45,11.71c-.36,1.1-.76,2.17-1.18,3.21-1.09,2.64-3.13,5.62-5.67,6.35l-.57-.06C904.94,1305.56,901.64,1295.37,900.32,1289.33Z"/><path class="cls-1" d="M1587.5,1849.65a5.44,5.44,0,0,0-3.43,4.39,6.06,6.06,0,0,0,0,.85,6.26,6.26,0,0,0,.88,5.27c13.42,20.56,27.3,41.1,41.24,61,3.87,5.54,7.89,11.23,11.93,16.91a5.09,5.09,0,0,0,1.23,1.22,5.47,5.47,0,0,0,.79.73,5.57,5.57,0,0,0,5.65.67l102.5-42.9c.34,8.35,5.17,16.38,7.28,19.88,5,8.29,13.66,18.44,26.74,19.76a23.51,23.51,0,0,0,15.28-3.72,19.54,19.54,0,0,0,7.28-25.41,40.86,40.86,0,0,0-2.78-5.2,53.48,53.48,0,0,0-11.17-12.81c-7.77-6.53-18.31-11.84-27.79-10.46a5.79,5.79,0,0,0-3.15.41l-74,31c-13.67-19.25-27.17-38.88-40.15-58.37-2.54-3.83-5.14-7.75-7.74-11.72l56.61-23.69c.35,8.34,5.18,16.38,7.28,19.88,5,8.28,13.66,18.43,26.75,19.76a23.64,23.64,0,0,0,15.28-3.72,19.53,19.53,0,0,0,7.27-25.42,42,42,0,0,0-2.77-5.19,53.55,53.55,0,0,0-11.18-12.81c-7.78-6.55-18.35-11.86-27.83-10.46a5.85,5.85,0,0,0-3.11.41Zm57.86,78.58c-13.54-19.07-26.9-38.5-39.74-57.79-2.68-4-5.4-8.16-8.13-12.31l29.58-12.38c12.78,19.5,26,39,39.19,57.92,2.8,4,5.68,8.1,8.6,12.22ZM1781,1897.48a43.11,43.11,0,0,1,8.81,8.52c2.33,3,4.78,6.59,5.28,10.32a7.33,7.33,0,0,1-1.69,5.71,11.47,11.47,0,0,1-8,3.91c-8.55.49-15.12-7.19-17.54-10.52a55,55,0,0,1-6-10.36c-.46-1.06-.88-2.12-1.25-3.18-1-2.69-1.43-6.27,0-8.51l.46-.34C1766.77,1888.47,1776,1893.86,1781,1897.48Zm-53.63-80.36a43.16,43.16,0,0,1,8.81,8.53c2.33,3,4.78,6.58,5.28,10.31a7.28,7.28,0,0,1-1.69,5.71,11.46,11.46,0,0,1-8,3.92c-8.55.49-15.12-7.2-17.54-10.52a55.54,55.54,0,0,1-6-10.36c-.47-1.06-.89-2.13-1.26-3.19-1-2.69-1.42-6.27,0-8.51a5,5,0,0,0,.46-.34C1713.14,1808.11,1722.4,1813.5,1727.41,1817.12Z"/><path class="cls-1" d="M1671.13,847.42a5.46,5.46,0,0,0,5.31,1.7,6,6,0,0,0,.82-.25,6.28,6.28,0,0,0,4.63-2.66c14.62-19.72,29.06-39.86,42.93-59.86,3.86-5.56,7.8-11.3,11.72-17.07a34.34,34.34,0,0,0,1.13-2.57,5.56,5.56,0,0,0-1.34-5.53L1660.52,680c7.7-3.22,13.56-10.54,16.12-13.73,6-7.54,12.54-19.21,9.24-31.94a23.64,23.64,0,0,0-8.79-13,19.54,19.54,0,0,0-26.36,2,40.53,40.53,0,0,0-3.91,4.41,53.37,53.37,0,0,0-8.13,14.93c-3.44,9.55-4.75,21.28-.17,29.69a5.86,5.86,0,0,0,1.48,2.81l54.76,58.68c-13.31,19.5-27,39-40.8,57.91-2.71,3.72-5.49,7.52-8.3,11.34l-41.88-44.87c7.71-3.22,13.57-10.54,16.12-13.73,6-7.54,12.54-19.21,9.24-31.94a23.59,23.59,0,0,0-8.79-13,19.54,19.54,0,0,0-26.36,2,40.53,40.53,0,0,0-3.91,4.41,53.62,53.62,0,0,0-8.13,14.93c-3.44,9.57-4.75,21.32-.14,29.73a5.79,5.79,0,0,0,1.46,2.77Zm53.61-81.54c-13.19,19.32-26.77,38.59-40.4,57.33-2.85,3.92-5.77,7.9-8.72,11.9l-21.88-23.44c13.85-18.76,27.53-37.87,40.7-56.86,2.79-4,5.63-8.15,8.48-12.31Zm-76-116.56a43,43,0,0,1,4.94-11.22c2-3.23,4.51-6.77,7.84-8.54a7.29,7.29,0,0,1,5.94-.39,11.43,11.43,0,0,1,6.44,6.12c3.43,7.85-1.5,16.68-3.77,20.11a55.47,55.47,0,0,1-7.65,9.2c-.83.81-1.68,1.57-2.54,2.29-2.2,1.82-5.39,3.51-8,3a3.94,3.94,0,0,0-.48-.31C1645.3,665.83,1647.14,655.28,1648.79,649.32Zm-56.74,78.19a43,43,0,0,1,4.94-11.22c2-3.23,4.52-6.77,7.84-8.54a7.29,7.29,0,0,1,5.94-.39,11.43,11.43,0,0,1,6.44,6.12c3.43,7.85-1.5,16.68-3.77,20.11a55.41,55.41,0,0,1-7.64,9.2c-.84.81-1.69,1.57-2.55,2.29-2.19,1.82-5.39,3.51-8,3a3.94,3.94,0,0,0-.48-.31C1588.56,744,1590.4,733.47,1592.05,727.51Z"/><path class="cls-1" d="M642.17,263.36h0c12.23,1.22,24-1.85,35.29-4.81,2.37-.62,4.81-1.26,7.21-1.84,6-1.46,13.82-3.06,21.83-2.5a5.2,5.2,0,0,0,4-1.53,6.11,6.11,0,0,0,1.89-4.51,5.77,5.77,0,0,0-4.74-5.47L611.3,188.88c6.35-5.42,9.69-14.18,11.15-18,3.44-9,6.08-22.13-1-33.24a23.56,23.56,0,0,0-12.35-9.73,19.54,19.54,0,0,0-24.49,10,42.34,42.34,0,0,0-2.38,5.39A53.52,53.52,0,0,0,579.09,160c-.35,10.15,2,21.72,8.92,28.33a5.71,5.71,0,0,0,2.27,2.22l96.3,53.8c-4.27.9-8.47,2-12.62,3.11-2.52.67-5.13,1.36-7.67,2A77.87,77.87,0,0,1,647.64,252a47.28,47.28,0,0,1-19.4-4.36,48.59,48.59,0,0,1-17.68-13.55c-2.09-2.61-5.25-3.3-7.86-1.7a6,6,0,0,0-2.08,2.25,6.42,6.42,0,0,0-.67,1.9,5.09,5.09,0,0,0,1,4.11A61,61,0,0,0,642.17,263.36ZM590.77,163.3A43.23,43.23,0,0,1,592,151.11c.93-3.69,2.24-7.83,4.86-10.53a7.28,7.28,0,0,1,5.53-2.19,11.42,11.42,0,0,1,8,3.87c5.66,6.42,3.67,16.33,2.55,20.29a56,56,0,0,1-4.46,11.1c-.55,1-1.13,2-1.73,3-1.53,2.41-4.06,5-6.69,5.25a5.62,5.62,0,0,0-.55-.15C592.49,180.09,591,169.48,590.77,163.3Z"/><path class="cls-1" d="M642.17,2263.36h0c12.23,1.22,24-1.85,35.29-4.81,2.37-.62,4.81-1.26,7.21-1.84,6-1.46,13.82-3.06,21.83-2.5a5.2,5.2,0,0,0,4-1.53,6.11,6.11,0,0,0,1.89-4.51,5.77,5.77,0,0,0-4.74-5.47l-96.33-53.82c6.35-5.42,9.69-14.18,11.15-18,3.44-9,6.08-22.13-1-33.24a23.56,23.56,0,0,0-12.35-9.73,19.54,19.54,0,0,0-24.49,10,42.34,42.34,0,0,0-2.38,5.39,53.52,53.52,0,0,0-3.18,16.69c-.35,10.15,2,21.72,8.92,28.33a5.71,5.71,0,0,0,2.27,2.22l96.3,53.8c-4.27.9-8.47,2-12.62,3.11-2.52.67-5.13,1.35-7.67,2a77.87,77.87,0,0,1-18.65,2.62,47.28,47.28,0,0,1-19.4-4.36,48.59,48.59,0,0,1-17.68-13.55c-2.09-2.61-5.25-3.3-7.86-1.7a6,6,0,0,0-2.08,2.25,6.42,6.42,0,0,0-.67,1.9,5.09,5.09,0,0,0,1,4.11A61,61,0,0,0,642.17,2263.36Zm-51.4-100.06a43.23,43.23,0,0,1,1.27-12.19c.93-3.69,2.24-7.83,4.86-10.53a7.28,7.28,0,0,1,5.53-2.19,11.42,11.42,0,0,1,8,3.87c5.66,6.42,3.67,16.33,2.55,20.29a56,56,0,0,1-4.46,11.1c-.55,1-1.13,2-1.73,3-1.53,2.41-4.06,5-6.69,5.25a5.62,5.62,0,0,0-.55-.15C592.49,2180.09,591,2169.48,590.77,2163.3Z"/><path class="cls-1" d="M99.1,1730.87h0c3.06,11.9,10,21.86,16.63,31.5,1.4,2,2.84,4.08,4.21,6.14,3.41,5.09,7.61,11.93,9.84,19.64a5.2,5.2,0,0,0,2.8,3.22,6.08,6.08,0,0,0,4.88.22,5.76,5.76,0,0,0,3.52-6.32l17.49-109c7.27,4.11,16.64,4.25,20.73,4.3,9.66.14,22.86-1.88,30.89-12.3a23.63,23.63,0,0,0,4.9-14.94,19.54,19.54,0,0,0-17.76-19.59,41.86,41.86,0,0,0-5.88-.38,53.66,53.66,0,0,0-16.77,2.74c-9.65,3.15-19.72,9.31-23.55,18.09a5.9,5.9,0,0,0-1.31,2.9L132.24,1766c-2.31-3.69-4.8-7.26-7.25-10.78-1.49-2.14-3-4.35-4.49-6.53a77.89,77.89,0,0,1-8.86-16.61,47.51,47.51,0,0,1-2.56-19.72,48.64,48.64,0,0,1,6.66-21.26c1.74-2.86,1.3-6.06-1.09-8a6,6,0,0,0-2.84-1.18,6.16,6.16,0,0,0-2,0,5.09,5.09,0,0,0-3.53,2.32A61,61,0,0,0,99.1,1730.87Zm76.35-82.61a42.64,42.64,0,0,1,11.89-3c3.79-.4,8.12-.59,11.56,1a7.27,7.27,0,0,1,3.95,4.44,11.47,11.47,0,0,1-.88,8.85c-4.09,7.52-14.08,9-18.19,9.36a55.87,55.87,0,0,1-12-.38c-1.14-.17-2.27-.37-3.36-.61-2.79-.61-6.08-2.1-7.24-4.48a5.48,5.48,0,0,0-.05-.57C160.27,1655.63,169.73,1650.61,175.45,1648.26Z"/><path class="cls-1" d="M2099.1,1730.87h0c3.06,11.9,10,21.86,16.63,31.5,1.4,2,2.84,4.08,4.21,6.14,3.41,5.09,7.61,11.93,9.84,19.64a5.2,5.2,0,0,0,2.8,3.22,6.08,6.08,0,0,0,4.88.22,5.76,5.76,0,0,0,3.52-6.32l17.49-109c7.27,4.11,16.64,4.25,20.73,4.3,9.66.14,22.86-1.88,30.89-12.3a23.63,23.63,0,0,0,4.9-14.94,19.54,19.54,0,0,0-17.76-19.59,41.86,41.86,0,0,0-5.88-.38,53.66,53.66,0,0,0-16.77,2.74c-9.65,3.15-19.72,9.31-23.55,18.09a5.9,5.9,0,0,0-1.31,2.9L2132.24,1766c-2.31-3.69-4.8-7.26-7.25-10.78-1.49-2.14-3-4.35-4.49-6.53a77.89,77.89,0,0,1-8.86-16.61,47.51,47.51,0,0,1-2.56-19.72,48.64,48.64,0,0,1,6.66-21.26c1.74-2.86,1.3-6.06-1.09-8a6,6,0,0,0-2.84-1.18,6.16,6.16,0,0,0-2,0,5.09,5.09,0,0,0-3.53,2.32A61,61,0,0,0,2099.1,1730.87Zm76.35-82.61a42.64,42.64,0,0,1,11.89-3c3.79-.4,8.12-.59,11.56,1a7.27,7.27,0,0,1,3.95,4.44,11.47,11.47,0,0,1-.88,8.85c-4.09,7.52-14.08,9-18.19,9.36a55.87,55.87,0,0,1-12-.38c-1.14-.17-2.27-.37-3.36-.61-2.79-.61-6.08-2.1-7.24-4.48a5.48,5.48,0,0,0,0-.57C2160.27,1655.63,2169.73,1650.61,2175.45,1648.26Z"/><path class="cls-1" d="M1790.32,364.44h0c-4.74,11.34-5.24,23.45-5.72,35.15-.11,2.45-.21,5-.35,7.44-.35,6.12-1.13,14.11-4,21.6a5.19,5.19,0,0,0,.3,4.26,6.09,6.09,0,0,0,3.76,3.13,5.78,5.78,0,0,0,6.61-2.93l79.66-76.37c3.32,7.66,10.72,13.42,13.94,15.93,7.63,5.94,19.38,12.29,32.06,8.81a23.52,23.52,0,0,0,12.92-9,19.53,19.53,0,0,0-2.35-26.33,40.71,40.71,0,0,0-4.46-3.85,53.37,53.37,0,0,0-15-7.93c-9.6-3.31-21.35-4.47-29.7.23a5.8,5.8,0,0,0-2.79,1.52l-79.63,76.34c.39-4.34.56-8.68.72-13,.1-2.61.21-5.3.36-7.92a78.74,78.74,0,0,1,3-18.59,47.56,47.56,0,0,1,9.85-17.28,48.57,48.57,0,0,1,18.14-12.94c3.11-1.23,4.68-4,3.92-7a6,6,0,0,0-1.54-2.65,6.63,6.63,0,0,0-1.63-1.19,5.07,5.07,0,0,0-4.21-.27A61,61,0,0,0,1790.32,364.44Zm110.73-19.86a42.79,42.79,0,0,1,11.28,4.78c3.26,2,6.84,4.43,8.65,7.73a7.29,7.29,0,0,1,.47,5.93,11.44,11.44,0,0,1-6,6.53c-7.8,3.53-16.69-1.27-20.15-3.5a55.67,55.67,0,0,1-9.31-7.52c-.81-.82-1.59-1.66-2.32-2.52-1.85-2.17-3.58-5.34-3.07-7.93a5,5,0,0,0,.31-.49C1884.49,341.31,1895.07,343,1901.05,344.58Z"/><path class="cls-1" d="M671.44,950.82h0c7.24-9.92,10.54-21.58,13.73-32.86.66-2.35,1.35-4.79,2.06-7.15,1.76-5.88,4.37-13.47,8.9-20.09a5.22,5.22,0,0,0,.7-4.21,6.11,6.11,0,0,0-2.94-3.91,5.75,5.75,0,0,0-7.11,1.31l-95.19,55.82c-1.46-8.23-7.32-15.54-9.87-18.73-6-7.55-16-16.45-29.15-16a23.62,23.62,0,0,0-14.64,5.72,19.52,19.52,0,0,0-3.82,26.16,42.4,42.4,0,0,0,3.44,4.78,53.5,53.5,0,0,0,12.79,11.2c8.57,5.44,19.73,9.29,28.94,6.66a5.78,5.78,0,0,0,3.07-.83l95.16-55.79c-1.39,4.13-2.56,8.31-3.71,12.45-.71,2.51-1.43,5.11-2.19,7.62a78.21,78.21,0,0,1-7.18,17.4,47.69,47.69,0,0,1-13.58,14.52,48.68,48.68,0,0,1-20.65,8.38c-3.31.48-5.5,2.86-5.45,5.92a5.93,5.93,0,0,0,.89,2.93,6.23,6.23,0,0,0,1.31,1.54,5,5,0,0,0,4,1.24A61,61,0,0,0,671.44,950.82Zm-112.31-6.35a43,43,0,0,1-9.87-7.27c-2.71-2.67-5.62-5.89-6.61-9.52a7.27,7.27,0,0,1,.91-5.88,11.45,11.45,0,0,1,7.39-4.95c8.41-1.63,15.94,5.11,18.79,8.08a55.67,55.67,0,0,1,7.31,9.47c.6,1,1.16,2,1.67,3,1.31,2.54,2.25,6,1.15,8.43-.14.13-.28.26-.41.4C574.48,951.49,564.58,947.39,559.13,944.47Z"/><path class="cls-1" d="M1046.18,1751.54h0c11.36,4.69,23.47,5.13,35.18,5.56,2.45.09,5,.18,7.44.31,6.12.32,14.11,1,21.63,3.89a5.18,5.18,0,0,0,4.25-.32,6.13,6.13,0,0,0,3.11-3.78,5.78,5.78,0,0,0-3-6.6l-76.77-79.27c7.64-3.36,13.37-10.79,15.86-14,5.9-7.66,12.19-19.44,8.66-32.11a23.58,23.58,0,0,0-9-12.87,19.54,19.54,0,0,0-26.32,2.48,41.58,41.58,0,0,0-3.83,4.48,53.43,53.43,0,0,0-7.86,15.07c-3.25,9.62-4.35,21.37.39,29.69a5.77,5.77,0,0,0,1.53,2.79l76.74,79.25c-4.34-.37-8.69-.52-13-.66-2.61-.09-5.3-.18-7.92-.32a78.48,78.48,0,0,1-18.61-2.86,47.3,47.3,0,0,1-17.32-9.76,48.55,48.55,0,0,1-13-18.07c-1.25-3.1-4.08-4.67-7-3.89a5.88,5.88,0,0,0-2.64,1.56,6.22,6.22,0,0,0-1.19,1.63,5.11,5.11,0,0,0-.25,4.21A61,61,0,0,0,1046.18,1751.54Zm-20.41-110.62a42.65,42.65,0,0,1,4.73-11.31c2-3.27,4.39-6.85,7.68-8.68a7.27,7.27,0,0,1,5.93-.5,11.45,11.45,0,0,1,6.56,6c3.57,7.78-1.19,16.7-3.41,20.17a55.14,55.14,0,0,1-7.47,9.35c-.82.82-1.65,1.59-2.5,2.33-2.16,1.86-5.32,3.61-7.92,3.11l-.49-.31C1022.58,1657.49,1024.23,1646.91,1025.77,1640.92Z"/><path class="cls-1" d="M1380.39,1496.39h0c-3.34,11.82-2.38,23.9-1.45,35.58.2,2.44.4,5,.56,7.43.38,6.12.58,14.14-1.37,21.93a5.21,5.21,0,0,0,.81,4.19,6.06,6.06,0,0,0,4.11,2.64,5.77,5.77,0,0,0,6.22-3.7l69.86-85.42c4.22,7.2,12.26,12,15.76,14.13,8.29,5,20.72,9.86,32.89,4.88a23.6,23.6,0,0,0,11.75-10.45,19.54,19.54,0,0,0-5.52-25.86,43.25,43.25,0,0,0-4.89-3.29,53.88,53.88,0,0,0-15.88-6c-9.93-2.12-21.73-1.86-29.45,3.81a5.83,5.83,0,0,0-2.59,1.85l-69.83,85.39c-.14-4.36-.5-8.69-.85-13-.22-2.6-.44-5.29-.6-7.9a78.5,78.5,0,0,1,.68-18.82,47.5,47.5,0,0,1,7.69-18.33,48.77,48.77,0,0,1,16.45-15c2.94-1.6,4.16-4.59,3-7.44a5.91,5.91,0,0,0-1.85-2.44,6.37,6.37,0,0,0-1.76-1,5.07,5.07,0,0,0-4.22.24A61,61,0,0,0,1380.39,1496.39Zm107.52-33.08a43.07,43.07,0,0,1,11.78,3.39c3.47,1.56,7.32,3.57,9.51,6.63a7.29,7.29,0,0,1,1.19,5.83,11.52,11.52,0,0,1-5.21,7.21c-7.32,4.44-16.72.75-20.43-1a55.4,55.4,0,0,1-10.14-6.34q-1.36-1.08-2.61-2.22c-2.1-1.93-4.2-4.87-4-7.5a4.11,4.11,0,0,0,.25-.52C1471.08,1462.06,1481.78,1462.47,1487.91,1463.31Z"/><path class="cls-1" d="M1136.77,872.76h0c-9.07,8.28-14.63,19-20,29.47-1.12,2.17-2.28,4.42-3.45,6.6-2.89,5.4-7,12.32-12.72,17.91a5.17,5.17,0,0,0-1.52,4,6.07,6.07,0,0,0,2.09,4.42,5.76,5.76,0,0,0,7.23.13l104.41-35.72c-.21,8.35,4.07,16.69,5.94,20.32,4.42,8.6,12.4,19.31,25.37,21.5a23.63,23.63,0,0,0,15.49-2.69,19.55,19.55,0,0,0,9-24.88,43.24,43.24,0,0,0-2.43-5.37,53.45,53.45,0,0,0-10.29-13.52c-7.32-7-17.49-13-27-12.29a5.8,5.8,0,0,0-3.18.2l-104.37,35.71c2.18-3.77,4.17-7.65,6.12-11.47,1.19-2.32,2.42-4.72,3.66-7a78.21,78.21,0,0,1,10.51-15.62,47.53,47.53,0,0,1,16.2-11.52,48.7,48.7,0,0,1,21.9-4.1c3.34.19,6-1.7,6.52-4.71a5.93,5.93,0,0,0-.29-3.05,6,6,0,0,0-1-1.77,5.06,5.06,0,0,0-3.7-2A61,61,0,0,0,1136.77,872.76Zm108.79,28.61a42.85,42.85,0,0,1,8.22,9.09c2.13,3.16,4.33,6.9,4.59,10.65a7.29,7.29,0,0,1-2.07,5.58,11.45,11.45,0,0,1-8.22,3.38c-8.57-.08-14.61-8.19-16.81-11.67a55.88,55.88,0,0,1-5.28-10.73c-.39-1.09-.74-2.18-1-3.26-.77-2.75-1-6.36.56-8.49.16-.1.33-.2.48-.31C1231.92,891.43,1240.8,897.43,1245.56,901.37Z"/></g></g></svg>